<svg viewBox="0 0 256 256" fill="none" xmlns="http://www.w3.org/2000/svg"><path d="M88 98V29.2l-37.4 1.45c-10.061.391-18.254 8.188-18.999 18.229C30.122 68.809 28 101.94 28 128c0 26.044 2.12 58.445 3.599 77.886.75 9.854 8.689 17.556 18.553 18.154L88 226.334V98zM168 158v68.8l37.401-1.451c10.06-.39 18.252-8.187 18.998-18.228C225.878 187.191 228 154.059 228 128c0-26.044-2.12-58.445-3.599-77.886-.749-9.854-8.689-17.556-18.553-18.154L168 29.666V158zM98.653 78V28.833s-8-.833 32-.833c22 0 28 1.2 28 1.2V78h-60zM158.347 178v49.167s8 .833-32 .833c-22 0-28-1.2-28-1.2V178h60z" fill="#EFAF07"/></svg>