<svg viewBox="0 0 256 256" fill="none" xmlns="http://www.w3.org/2000/svg"><path d="M38.74 201.717c2.112 4.991 2.13 15.798 8.974 16.213 5.228.319 13.657-18.537 16.881-21.759 10.985-10.973 24.536-27.275 38.884-34.919 8.205-4.373 16.831-18.043 24.031-12.828 18.152 13.145 43.494 35.861 64.423 46.685 13.226 8.519 27.397 32.072 25.967 19.046-3.687-24.239-32.838-44.529-49.144-61.662-4.96-5.21-27.907-23.127-27.907-31.179-.002-12.818 12.757-25.714 22.555-36.086 21.458-22.718 65.057-56.477 31.608-44.863-14.107 4.898-35.181 21.845-53.093 34.946-17.913 13.103-22.629 22.305-34.823 17.8-12.194-4.508-23.481-23.208-39.405-33.084-18.455-11.449-21.066-29.3-26.852-7.63-7.398 21.361 79.996 55.359 53.644 87.245-26.364 31.88-62.114 53.331-55.734 68.422" fill="currentColor"/></svg>