<svg viewBox="0 0 256 256" fill="none" xmlns="http://www.w3.org/2000/svg"><path d="M144.617 33.13a29.475 29.475 0 00-33.234 0C89.113 48.45 28 97.943 28 179.725a28.588 28.588 0 009.625 21.385C50.228 212.308 76.99 228 128 228s77.772-15.692 90.375-26.891A28.585 28.585 0 00228 179.724c0-81.782-61.113-131.273-83.383-146.593zM128 176.277a37.928 37.928 0 01-35.044-23.416 37.929 37.929 0 0127.644-51.717 37.928 37.928 0 0145.331 37.202 37.927 37.927 0 01-11.11 26.821A37.927 37.927 0 01128 176.276z" fill="currentColor"/></svg>