<svg viewBox="0 0 256 256" fill="none" xmlns="http://www.w3.org/2000/svg"><path d="M198.711 57.29C179.823 38.401 154.711 28 128 28S76.177 38.402 57.29 57.29C38.401 76.176 28 101.288 28 128c0 26.711 10.402 51.823 29.29 70.711C76.176 217.598 101.288 228 128 228c26.711 0 51.823-10.402 70.711-29.289C217.598 179.823 228 154.711 228 128s-10.402-51.823-29.289-70.71zM136.93 74.96a1.784 1.784 0 011.687-1.207h7.018l2.16-6.393a1.784 1.784 0 011.669-1.213h.021c.749 0 1.42.469 1.676 1.175l2.34 6.432h6.95a1.784 1.784 0 011.084 3.2l-5.728 4.38 2.098 6.713a1.784 1.784 0 01-2.75 1.975l-5.643-4.096-5.925 4.118a1.785 1.785 0 01-2.079-.031 1.783 1.783 0 01-.637-1.979l2.186-6.81-5.53-4.275a1.783 1.783 0 01-.597-1.988zm-10.338 88.884a3.59 3.59 0 01-4.2-.01l-19.481-14.142-20.41 14.184a3.582 3.582 0 01-4.181-.062 3.587 3.587 0 01-1.282-3.98l7.53-23.455-19.076-14.743a3.59 3.59 0 012.194-6.427h24.233l7.478-22.136a3.587 3.587 0 016.771-.078l8.079 22.214h23.978a3.587 3.587 0 012.179 6.437l-19.712 15.076 7.231 23.138a3.587 3.587 0 01-1.331 3.984zm34.943 11.752l-5.728 4.38 2.098 6.712a1.784 1.784 0 01-2.75 1.975l-5.643-4.096-5.925 4.118a1.785 1.785 0 01-2.716-2.011l2.186-6.81-5.53-4.275a1.784 1.784 0 011.09-3.195h7.017l2.161-6.394a1.784 1.784 0 011.669-1.212h.021c.749 0 1.42.468 1.676 1.174l2.34 6.432h6.95a1.786 1.786 0 011.084 3.202zm3.363-73.117a1.786 1.786 0 011.688-1.208l7.018.001 2.16-6.394a1.783 1.783 0 011.669-1.213h.021c.749 0 1.42.469 1.676 1.175l2.339 6.432h6.951a1.783 1.783 0 011.084 3.2l-5.728 4.381 2.098 6.712a1.783 1.783 0 01-2.751 1.975l-5.642-4.095-5.925 4.117a1.778 1.778 0 01-2.078-.032 1.78 1.78 0 01-.638-1.978l2.186-6.811-5.531-4.275a1.784 1.784 0 01-.597-1.987zm24.606 45.599l-5.727 4.38 2.097 6.712a1.783 1.783 0 01-2.75 1.975l-5.642-4.096-5.925 4.118a1.788 1.788 0 01-2.079-.032 1.783 1.783 0 01-.638-1.979l2.186-6.81-5.531-4.274a1.783 1.783 0 011.091-3.195l7.017-.001 2.162-6.393a1.78 1.78 0 011.668-1.213h.021c.749 0 1.42.469 1.676 1.174l2.339 6.432 6.951.001c.764 0 1.444.488 1.69 1.211a1.786 1.786 0 01-.606 1.99z" fill="currentColor"/></svg>