<svg viewBox="0 0 256 256" fill="none" xmlns="http://www.w3.org/2000/svg"><path d="M128.114 82.733h89.039a99.97 99.97 0 01-5.139 99.521 99.972 99.972 0 01-88.587 45.64" fill="#FC4"/><path d="M167.557 150.686l-44.129 77.208A99.974 99.974 0 0143.761 74.141" fill="#0F9D58"/><path d="M128.114 82.733h89.039a99.97 99.97 0 00-134.99-43.604A99.974 99.974 0 0043.76 74.14l44.91 76.545" fill="#DB4437"/><path d="M128.114 169.041c22.646 0 41.005-18.36 41.005-41.007s-18.359-41.006-41.005-41.006c-22.647 0-41.005 18.359-41.005 41.006s18.358 41.007 41.005 41.007z" fill="#4285F4" stroke="#F1F1F1" stroke-width="9.379"/></svg>