<svg viewBox="0 0 256 256" fill="none" xmlns="http://www.w3.org/2000/svg"><path d="M144.751 127.998l69.775-69.775c4.627-4.627 4.627-12.127 0-16.753-4.626-4.627-12.126-4.627-16.753 0l-69.775 69.775L58.223 41.47c-4.627-4.627-12.127-4.627-16.753 0-4.627 4.626-4.627 12.126 0 16.753l69.775 69.775-69.775 69.775c-4.627 4.627-4.627 12.127 0 16.753A11.812 11.812 0 0049.838 218a11.75 11.75 0 008.369-3.474l69.775-69.775 69.775 69.775a11.814 11.814 0 008.369 3.474c3.032 0 6.063-1.153 8.369-3.474 4.626-4.626 4.626-12.126 0-16.753l-69.776-69.775h.032z" fill="currentColor"/></svg>