<svg viewBox="0 0 256 256" fill="none" xmlns="http://www.w3.org/2000/svg"><path d="M197.566 64.87c22.588 33.21 33.743 70.67 29.573 113.795a.649.649 0 01-.263.46c-17.105 12.56-33.677 20.183-50.017 25.238a.637.637 0 01-.702-.238 133.386 133.386 0 01-10.21-16.605.64.64 0 01.34-.89 102.146 102.146 0 0015.61-7.425.64.64 0 00.054-1.062 80.178 80.178 0 01-3.107-2.435.608.608 0 00-.652-.08c-32.348 14.937-67.783 14.937-100.513 0a.623.623 0 00-.647.087c-1 .825-2.05 1.643-3.098 2.428a.64.64 0 00.063 1.062c4.982 2.858 10.162 5.373 15.602 7.435.353.135.52.538.345.88-2.94 5.823-6.37 11.36-10.215 16.613a.652.652 0 01-.702.23c-16.263-5.055-32.835-12.678-49.94-25.238a.678.678 0 01-.26-.467c-3.485-37.303 3.617-75.073 29.545-113.795a.584.584 0 01.267-.23 164.562 164.562 0 0140.71-12.622c.26-.04.52.08.655.31 1.765 3.125 3.783 7.132 5.148 10.407 15.057-2.3 30.35-2.3 45.722 0 1.365-3.205 3.313-7.282 5.07-10.407a.622.622 0 01.655-.31 164.93 164.93 0 0140.707 12.622.5.5 0 01.26.238zm-84.759 70.925c.157-11.027-7.883-20.152-17.975-20.152-10.01 0-17.973 9.045-17.973 20.152 0 11.105 8.12 20.15 17.973 20.15 10.012 0 17.975-9.045 17.975-20.15zm66.454 0c.158-11.027-7.882-20.152-17.972-20.152-10.012 0-17.975 9.045-17.975 20.152 0 11.105 8.12 20.15 17.975 20.15 10.09 0 17.972-9.045 17.972-20.15z" fill="currentColor"/></svg>