<svg xmlns="http://www.w3.org/2000/svg" fill="none" viewBox="0 0 256 256" class="v-svg-default font-size-extra-large" style="cursor: inherit;"><path fill="#000" d="M128.184 28c-10.388 0-22.674.506-32.653 1.276-5.85.483-11.46.878-16.9 2.104-2.176.488-2.805.945-3.509 2.742v14.286c-.793-.002-1.661 0-2.423 0-.856.157-1.564.92-1.658 1.786L69 66.52c.353 1.72.925 2.154 2.168 2.297l12.118 153.188a2.08 2.08 0 0 0 1.148 1.658c14.432 3.352 28.758 4.287 43.622 4.337 16.235-.139 32.884-.955 43.878-4.337a2.08 2.08 0 0 0 1.148-1.658l12.117-153.188c1.646-.299 1.732-1.456 2.168-2.297l-2.04-16.326c-.124-.98-1.053-1.794-2.041-1.786h-2.041V34.122c-.272-1.952-2.076-2.372-3.508-2.742-5.636-1.304-12.005-1.712-17.092-2.104-11.115-.666-22.461-1.257-32.461-1.276m-52.87 40.817h105.74l-2.743 34.757c-29.807 1.674-70.046 1.759-100.255 0zm9.183 116.517c28.641 1.567 59.106 1.499 87.373 0l-2.743 34.885c-13.616 2.66-25.581 3.656-41.071 3.699-13.744-.069-28.21-.53-40.816-3.699z"></path><path fill="#EFAF07" d="M137.6 136H116v-20.64l-9.9.384c-3.773.146-6.845 3.069-7.116 6.835C98.55 128.627 98 137.731 98 145c0 7.265.55 16.179.984 22.083.271 3.696 3.249 6.583 6.948 6.807l10.068.61V154h21.6z"></path><path fill="#EFAF07" d="M118.4 174.75V160H146v-6h-6v-18h17.7s.3-.6.3 9c0 7.253-.365 16.15-.654 22.054a7.305 7.305 0 0 1-6.781 6.951c-6.047.436-15.238.995-22.565.995-12 0-9.6-.25-9.6-.25m0-44.75v-14.75S116 115 128 115s18 .36 18 .36V130z"></path></svg>