<svg viewBox="0 0 256 256" fill="none" xmlns="http://www.w3.org/2000/svg"><path d="M219.295 224.366c.246 2.805-2.892 4.633-5.205 3.045l-55.005-37.636c-2-1.372-1.92-4.387.197-5.623l14.662-8.583c-5.513-9.961-12.275-20.353-19.701-28.93-21.719 19.941-56.956 10.367-49.32-30.444l-.056-.012c.074-.388 4.141-19.99 4.227-20.384 0 0-.031-.08-.043-.104 15.456-79.758-60.45-62.013-55.054-14.158 8.62 19.326 22.18 12.478 50.575 13.702-1.058 5.735-2.713 15.887-3.452 20.464-18.18-1.569-61.207 5.021-64.086-38.079 0 .099-.056-1.458-.025-.91 4.64-64.093 103.452-72.4 80.09 20.476 17.646 4.011 33.452 11.973 50.267 27.822 3.009-6.669 4.055-11.505 4.799-18.286-.356 7.273-1.31 12.386-3.937 19.104 11.499 11.008 20.377 22.648 28.893 36.154 19.898-11.647 15.338-14.478 19.898 36.848l.067.135-.055.025 2.264 25.374zM111.697 117.783c-8.928 36.134 21.823 42.386 40.848 26.942-13.887-15.511-26.955-22.992-40.848-26.942zm65.981 61.114l-10.613 7.076a2.052 2.052 0 00-.055 3.372l46.305 33.39c-24.87-18.975-35.637-43.838-35.637-43.838z" fill="currentColor"/></svg>