<svg viewBox="0 0 256 256" fill="none" xmlns="http://www.w3.org/2000/svg"><path d="M119.225 172.221a12.16 12.16 0 009.118 4.117c3.501 0 6.821-1.5 9.118-4.117l39.209-44.608c3.204-3.641 3.938-8.618 1.938-13.041-2-4.399-6.243-7.141-11.064-7.141h-11.4V43.299c0-8.439-6.86-15.299-15.298-15.299h-25.003c-8.439 0-15.299 6.86-15.299 15.299v64.148h-11.4c-4.844 0-9.08 2.742-11.064 7.141-2 4.399-1.242 9.4 1.938 13.025l39.207 44.608zM83.18 116.894c1.102-2.423 3.321-3.86 5.977-3.86h16.979V43.299c0-5.36 4.36-9.705 9.705-9.705h25.003c5.36 0 9.704 4.36 9.704 9.705v69.751h16.979c2.641 0 4.883 1.437 5.977 3.86 1.102 2.422.704 5.039-1.039 7.039l-39.209 44.608c-2.477 2.844-7.36 2.844-9.86 0l-39.21-44.608c-1.71-2.015-2.108-4.641-1.006-7.055zM173.108 186.26H83.58c-9.141 0-16.58 7.439-16.58 16.58v8.58c0 9.141 7.439 16.58 16.58 16.58h89.512c9.141 0 16.58-7.439 16.58-16.58v-8.58c.023-9.141-7.423-16.58-16.564-16.58zm11.001 25.183c0 6.063-4.938 11.002-11.001 11.002H83.58c-6.063 0-11.001-4.939-11.001-11.002v-8.579c0-6.063 4.938-11.001 11.001-11.001h89.512c6.063 0 11.001 4.938 11.001 11.001v8.579h.016z" fill="currentColor"/></svg>