<svg viewBox="0 0 256 256" fill="none" xmlns="http://www.w3.org/2000/svg"><path d="M202.811 106.476c-2.015-3.274-6.045-4.534-9.571-2.771l-61.965 35.013c-2.015 1.26-4.786 1.26-6.801 0l-61.965-35.013c-3.275-2.015-7.557-.755-9.572 2.771-2.015 3.275-.755 7.557 2.771 9.572l68.766 38.539c2.015 1.26 4.786 1.26 6.801 0l68.766-38.539c3.526-2.015 4.785-6.297 2.77-9.572z" fill="currentColor"/><path d="M196.262 212.773H59.738c-17.38 0-31.738-14.105-31.738-31.738V74.738C28 57.358 42.106 43 59.738 43h136.524C213.642 43 228 57.106 228 74.738v106.297c0 17.633-14.358 31.738-31.738 31.738zM59.738 56.098a18.598 18.598 0 00-18.64 18.64v106.297a18.598 18.598 0 0018.64 18.64h136.524a18.598 18.598 0 0018.64-18.64V74.738a18.598 18.598 0 00-18.64-18.64H59.738z" fill="currentColor"/></svg>