<svg viewBox="0 0 256 256" fill="none" xmlns="http://www.w3.org/2000/svg"><path d="M134.38 63.9h70.676a99.578 99.578 0 0114.108 22.333H134.38V63.9zm0 35.08v22.548H228a99.923 99.923 0 00-4.02-22.549h-89.6zm0-47.827h57.96C175.949 37.393 155.812 29.337 134.38 28v23.153zM50.872 191.809h154.256a99.564 99.564 0 0014.127-22.444H36.745a99.558 99.558 0 0014.127 22.444zm-18.91-35.191h192.076A100.02 100.02 0 00228 134.275H28a99.935 99.935 0 003.962 22.343zm31.597 47.938C81.584 219.729 104.154 228 128 228c23.846 0 46.416-8.271 64.441-23.444H63.559zM48.034 67.554a101.68 101.68 0 019.11-10.44 101.658 101.658 0 0110.377-9.045l.09.071-1.089 3.39c-.32.997.033 2.066.876 2.663h.001a2.37 2.37 0 001.385.457c.589 0 1.092-.226 1.392-.446l2.93-2.034 2.784 2.018a2.39 2.39 0 002.798.007 2.383 2.383 0 00.885-2.649l-1.041-3.327 2.859-2.186a2.383 2.383 0 00-1.45-4.28h-3.054C90.404 33.716 105.653 28.994 121.62 28v93.528H28c.892-14.292 4.779-28.009 11.364-40.42.358.263.833.445 1.354.445.444 0 .917-.129 1.37-.443l2.947-2.045 2.784 2.017a2.388 2.388 0 003.682-2.642l-1.041-3.327 2.86-2.186a2.384 2.384 0 00-1.45-4.28h-3.438l-.398-1.093zm6.097 29.432a2.39 2.39 0 00-2.262-1.619h-3.437l-1.153-3.164a2.393 2.393 0 00-2.212-1.57L45 90.631c-1.215 0-2.002.84-2.238 1.655l-1.042 3.08h-3.458c-1.02 0-1.929.649-2.26 1.615a2.382 2.382 0 00.8 2.658l2.739 2.115-1.09 3.391a2.383 2.383 0 00.853 2.644c.511.378 1.674.812 2.784.042l2.948-2.047 2.782 2.018a2.388 2.388 0 003.684-2.641l-1.041-3.329 2.86-2.186a2.387 2.387 0 00.81-2.661zm52.898-21.874l2.859-2.185a2.385 2.385 0 00-1.45-4.282h-3.437l-1.153-3.163a2.377 2.377 0 00-2.28-1.571c-1.236.034-2.016.871-2.239 1.66l-1.04 3.074h-3.458a2.385 2.385 0 00-1.46 4.273l2.739 2.116-1.09 3.39c-.307.958.02 2.001.813 2.613.365.304.886.515 1.455.515.443 0 .917-.129 1.369-.442l2.948-2.046 2.784 2.018a2.387 2.387 0 003.682-2.643l-1.042-3.327zM93.37 46.025l2.74 2.115-1.09 3.391c-.32.996.032 2.066.876 2.662a2.37 2.37 0 001.385.458c.589 0 1.093-.227 1.392-.447l2.931-2.033 2.783 2.017a2.39 2.39 0 002.798.008 2.383 2.383 0 00.885-2.65l-1.041-3.327 2.859-2.186a2.385 2.385 0 00-1.45-4.28H105l-1.144-3.144c-.279-.81-1.121-1.655-2.334-1.59-1.01.054-1.866.69-2.18 1.62l-1.053 3.113h-3.46c-1.02.001-1.927.65-2.259 1.616a2.382 2.382 0 00.8 2.657zm0 53.616l2.74 2.114-1.09 3.392a2.381 2.381 0 00.853 2.643c.51.379 1.673.812 2.783.042l2.948-2.046 2.782 2.017a2.383 2.383 0 002.8.007 2.383 2.383 0 00.884-2.648l-1.041-3.328 2.861-2.186a2.388 2.388 0 00.811-2.662 2.391 2.391 0 00-2.262-1.618h-3.438l-1.152-3.165a2.393 2.393 0 00-2.213-1.57c-1.263-.015-2.064.824-2.304 1.655l-1.042 3.08H94.83c-1.02 0-1.928.649-2.26 1.615a2.38 2.38 0 00.8 2.657zM64.873 72.918l2.739 2.115-1.09 3.39c-.306.959.02 2.002.813 2.614.366.303.886.514 1.455.514.444 0 .917-.128 1.37-.442l2.947-2.046 2.784 2.018a2.388 2.388 0 003.682-2.642l-1.041-3.328 2.86-2.185a2.384 2.384 0 00-1.45-4.281h-3.438l-1.152-3.164a2.384 2.384 0 00-2.28-1.57c-1.237.034-2.017.87-2.24 1.66l-1.04 3.074h-3.458a2.387 2.387 0 00-1.46 4.273zm0 26.722l2.739 2.114-1.09 3.392a2.381 2.381 0 00.853 2.643c.512.379 1.674.812 2.784.042l2.948-2.046 2.782 2.017a2.381 2.381 0 002.8.007 2.382 2.382 0 00.884-2.648l-1.041-3.328 2.861-2.186a2.386 2.386 0 00-1.452-4.28h-3.437l-1.152-3.165a2.393 2.393 0 00-2.213-1.57 2.331 2.331 0 00-2.304 1.655l-1.042 3.08h-3.459c-1.02 0-1.929.649-2.26 1.615a2.38 2.38 0 00.8 2.657z" fill="currentColor"/></svg>