<svg viewBox="0 0 256 256" fill="none" xmlns="http://www.w3.org/2000/svg"><path fill-rule="evenodd" clip-rule="evenodd" d="M56.43 108.256a25.884 25.884 0 015.921-9.094l60.643-60.599C129.946 31.615 138.917 28 148.028 28c9.112 0 18.083 3.616 25.035 10.563l44.508 44.476c13.905 13.895 13.905 36.14 0 50.035l-60.641 60.599a25.875 25.875 0 01-9.101 5.915L56.43 108.256zm-7.48 17.085l-10.52 10.513c-13.907 13.895-13.907 36.14 0 50.036l31.71 31.688a35.28 35.28 0 0050.071 0l10.337-10.329-81.599-81.908z" fill="currentColor"/></svg>