<svg viewBox="0 0 256 256" fill="none" xmlns="http://www.w3.org/2000/svg"><path d="M223.273 167.341c-.937-1.249-.937-.936-91.79-55.261v-6.556c0-2.498 1.249-4.371 3.435-5.308 12.8-4.683 17.171-21.23 6.868-31.533-12.176-12.176-32.47-3.434-32.47 13.425 0 1.873 1.249 3.122 3.122 3.122 1.874 0 3.123-1.249 3.123-3.122 0-11.24 13.425-17.484 21.854-9.054 6.869 6.868 4.059 18.108-4.683 21.23-4.371 1.561-7.493 5.932-7.493 10.927v6.557c-25.601 15.298-91.477 54.637-91.79 54.949-4.995 4.058-6.556 10.303-4.683 16.235 2.186 5.932 7.493 9.678 13.738 9.678h170.778c6.244 0 11.552-3.746 13.737-9.678 2.186-5.62.625-11.552-3.746-15.611zm-2.186 13.425c-.936 2.81-3.434 5.62-7.805 5.62H42.816c-4.371 0-6.869-2.81-7.806-5.62-.936-2.498-.624-6.244 2.498-9.054 120.513-71.808 82.736-49.017 91.165-54.324.313.312 67.125 40.275 76.492 45.894l13.737 8.118c3.122 2.81 3.122 6.556 2.185 9.366z" fill="currentColor"/></svg>