<svg viewBox="0 0 256 256" fill="none" xmlns="http://www.w3.org/2000/svg"><path d="M255.927 66.305c-.031-.161-.052-.327-.109-.472a2.23 2.23 0 00-.275-.467c-.078-.11-.109-.234-.192-.327l-42.489-47.43c-.052-.063-.114-.083-.171-.13a2.626 2.626 0 00-.415-.317 2.436 2.436 0 00-.478-.238c-.072-.026-.114-.078-.192-.099l-37.02-9.946a1.309 1.309 0 00-.97-.446c-.109 0-.171.088-.275.114l-9.175-2.464c-.109-.031-.223-.005-.326-.02-.115-.011-.218-.063-.338-.063-.067 0-.109.031-.171.036-.182.01-.337.057-.514.104-.155.052-.321.093-.467.16-.145.068-.27.167-.394.266-.135.108-.27.202-.379.326-.104.11-.171.25-.259.384a2.668 2.668 0 00-.244.493c-.021.057-.068.099-.078.15-.031.11-.011.219-.021.327-.021.12-.078.224-.078.348 0 13.5-14.763 24.483-32.91 24.483-12.262 0-22.957-5.022-28.618-12.441-.031-.037-.047-.068-.083-.104-2.668-3.538-4.209-7.606-4.209-11.938 0-.114-.052-.218-.072-.332-.01-.109.01-.223-.021-.337-.01-.068-.057-.11-.078-.161a2.931 2.931 0 00-.239-.477c-.083-.14-.155-.28-.264-.395a2.472 2.472 0 00-.369-.326c-.135-.104-.26-.203-.41-.275-.14-.068-.295-.11-.44-.15a2.317 2.317 0 00-.54-.11c-.052 0-.11-.031-.161-.031-.11 0-.218.052-.327.067-.12.016-.234-.01-.353.021L44.383 16.83c-.082.021-.14.078-.212.11-.156.062-.296.129-.441.222-.16.089-.301.187-.43.312-.058.052-.13.072-.177.135L.639 65.039c-.094.104-.125.228-.197.337-.1.15-.203.29-.265.462-.062.15-.078.311-.11.472-.03.166-.072.327-.067.498 0 .166.042.327.078.483.031.166.057.326.12.487.067.156.176.296.275.441.078.11.114.234.207.332l31.156 33.272c.172.182.39.296.597.415.099.057.176.151.28.192.327.14.67.213 1.017.213.317 0 .633-.062.934-.177.156-.057.291-.176.431-.269.13-.089.275-.135.395-.244l.005-.011h.01l.005-.01 13.321-12.26v159.734A2.598 2.598 0 0051.426 252h153.138a2.601 2.601 0 002.595-2.594V89.667l13.352 12.281c.208.192.446.316.685.425.052.021.093.062.14.083.301.109.618.171.934.171a2.53 2.53 0 001.012-.212c.099-.032.161-.109.244-.161.223-.12.451-.255.638-.447l31.146-33.271c.104-.104.13-.229.213-.338.098-.145.202-.285.269-.435.068-.156.099-.317.125-.483.036-.156.083-.316.083-.482 0-.166-.036-.322-.073-.493zM6.29 66.502c.02.306.135.581.327.794l-.53-.566.203-.228zM222.94 95.53c-.109-.618-.582-1.116-1.246-1.116-.457 0-.794.265-1.033.612l-4.192-3.854c.679-.068 1.229-.597 1.229-1.287 0-.737-.607-1.339-1.349-1.339-.721 0-1.297.587-1.313 1.308l-8.712-8.01c-.104-.1-.229-.13-.332-.208-.156-.11-.307-.218-.488-.296-.182-.073-.384-.093-.576-.114-.12-.016-.234-.073-.353-.073-.016 0-.031.01-.052.01-.208.006-.405.068-.607.115-.12.036-.265.041-.374.098-.114.052-.213.14-.327.218-.176.11-.363.218-.508.364a.275.275 0 00-.052.03c-.088.1-.12.213-.192.322-.109.161-.223.317-.306.504a1.919 1.919 0 00-.109.565c-.021.12-.078.239-.078.374v163.059H54.025V83.763c0-.135-.057-.26-.078-.39-.025-.186-.041-.368-.108-.544-.078-.197-.203-.358-.327-.534-.068-.099-.099-.203-.177-.296-.01-.01-.026-.015-.036-.026-.14-.14-.322-.249-.493-.353-.114-.078-.218-.176-.337-.228-.115-.057-.24-.057-.364-.093-.207-.057-.41-.115-.627-.12-.016 0-.032-.01-.052-.01-.135 0-.25.057-.374.078-.192.026-.379.041-.56.109-.198.083-.359.202-.53.327-.093.067-.207.098-.29.176l-.078.073-8.63 7.932a1.329 1.329 0 00-1.323-1.307c-.737 0-1.334.602-1.334 1.338 0 .696.545 1.225 1.22 1.292l-4.193 3.855c-.239-.347-.576-.617-1.033-.617-.654 0-1.126.498-1.245 1.115l-4.053-4.327c.71-.03 1.287-.596 1.287-1.312 0-.737-.597-1.339-1.334-1.339-.695 0-1.224.55-1.287 1.23l-4.187-4.488c.052.005.083.057.13.057.741 0 1.338-.602 1.338-1.339a1.336 1.336 0 00-2.672 0l-4.38-4.684c.13.041.228.155.379.155.742 0 1.339-.602 1.339-1.338a1.337 1.337 0 00-2.672 0c0 .114.093.186.119.29l-4.759-5.08c.197.12.384.266.638.266.732 0 1.334-.597 1.334-1.334a1.34 1.34 0 00-1.334-1.338 1.33 1.33 0 00-1.333 1.338c0 .228.14.394.238.581L6.715 67.4c.234.217.54.368.882.368.743 0 1.34-.602 1.34-1.339 0-.736-.597-1.333-1.34-1.333-.02 0-.03.02-.051.02l4.068-4.539a1.323 1.323 0 001.328 1.323c.732 0 1.334-.597 1.334-1.333 0-.737-.602-1.339-1.334-1.339-.078 0-.119.068-.192.078l4.256-4.747c-.006.052-.063.088-.063.14a1.34 1.34 0 001.334 1.338c.742 0 1.339-.601 1.339-1.338 0-.737-.597-1.334-1.34-1.334-.124 0-.212.104-.326.135l4.473-4.99c-.041.108-.14.191-.14.321 0 .737.602 1.339 1.334 1.339a1.339 1.339 0 100-2.678c-.182 0-.312.125-.468.198l4.692-5.24c-.078.17-.213.316-.213.518a1.333 1.333 0 102.667 0c0-.736-.597-1.338-1.333-1.338-.24 0-.42.145-.613.254l4.914-5.484c-.145.213-.29.426-.29.7 0 .737.596 1.34 1.339 1.34a1.336 1.336 0 00-.006-2.673c-.295 0-.54.15-.757.317l5.127-5.728c-.213.239-.364.54-.364.882 0 .737.597 1.333 1.334 1.333.742 0 1.339-.596 1.339-1.333s-.602-1.344-1.339-1.344c-.348 0-.654.15-.892.374l7.726-8.623 3.508-.944c.125.036.213.14.343.14.41 0 .742-.208.986-.498l3.025-.815a1.33 1.33 0 002.662-.026c0-.244-.145-.425-.254-.622l14.794-3.974c.057.005.094.062.15.062.286 0 .51-.15.722-.301l3.337-.893c.083.66.602 1.194 1.287 1.194.736 0 1.333-.597 1.333-1.334 0-.197-.13-.337-.207-.508l11.992-3.222c.42 2.916 1.401 5.692 2.823 8.29-.695.047-1.256.592-1.256 1.298 0 .737.597 1.338 1.339 1.338.488 0 .84-.306 1.074-.7a29.308 29.308 0 003.43 4.234c-.29.243-.493.575-.493.985 0 .737.592 1.339 1.328 1.339.436 0 .774-.239 1.018-.566a37.564 37.564 0 008.577 5.697c.229.41.582.732 1.09.732.114 0 .192-.099.301-.125 4.478 1.966 9.496 3.269 14.852 3.678-.275.244-.462.576-.462.976a1.335 1.335 0 102.667 0c0-.353-.15-.66-.368-.898a26.05 26.05 0 001.92.088c.648 0 1.287-.046 1.93-.072-.223.244-.374.55-.374.903a1.339 1.339 0 002.678 0c0-.4-.192-.732-.472-.976 5.36-.41 10.373-1.712 14.851-3.678.109.03.182.124.307.124.498 0 .856-.321 1.084-.731 3.217-1.557 6.097-3.487 8.578-5.697.244.327.581.566 1.017.566.732 0 1.328-.602 1.328-1.339 0-.41-.202-.742-.493-.986 1.287-1.338 2.444-2.75 3.436-4.249.228.4.576.711 1.069.711a1.33 1.33 0 001.328-1.338c0-.706-.55-1.256-1.245-1.303 1.421-2.594 2.402-5.375 2.823-8.29l11.997 3.221c-.083.172-.213.312-.213.509 0 .737.607 1.333 1.349 1.333.675 0 1.189-.534 1.272-1.193l3.347.897c.218.146.436.296.716.296.062 0 .099-.057.15-.062l14.805 3.974c-.114.197-.259.374-.259.617 0 .737.597 1.339 1.339 1.339a1.33 1.33 0 001.318-1.313l3.035.815c.244.29.576.498.986.498.13 0 .218-.109.338-.14l3.502.939 7.722 8.623c-.239-.218-.545-.374-.898-.374a1.336 1.336 0 000 2.672c.742 0 1.349-.597 1.349-1.333 0-.338-.15-.638-.363-.877l5.122 5.722c-.223-.16-.467-.316-.763-.316-.742 0-1.328.597-1.328 1.333a1.33 1.33 0 001.328 1.339c.753 0 1.339-.602 1.339-1.339 0-.275-.145-.487-.291-.7l4.915 5.484c-.198-.114-.379-.26-.623-.26a1.33 1.33 0 00-1.329 1.339c0 .737.587 1.333 1.329 1.333s1.339-.596 1.339-1.333c0-.207-.135-.353-.218-.53l4.701 5.251c-.161-.067-.296-.197-.483-.197-.742 0-1.328.597-1.328 1.334a1.33 1.33 0 001.328 1.338c.753 0 1.35-.602 1.35-1.339 0-.124-.104-.207-.13-.321l4.463 4.986c-.114-.037-.203-.14-.327-.14-.742 0-1.339.596-1.339 1.333s.597 1.338 1.339 1.338c.731 0 1.328-.601 1.328-1.338 0-.062-.057-.099-.067-.156l4.265 4.763c-.072-.01-.114-.078-.187-.078-.742 0-1.338.602-1.338 1.339s.596 1.333 1.338 1.333a1.34 1.34 0 001.334-1.318l4.063 4.54c-.021 0-.036-.02-.057-.02-.742 0-1.339.596-1.339 1.333 0 .736.597 1.338 1.339 1.338.337 0 .633-.15.867-.363l-5.106 5.458c.098-.182.238-.343.238-.566a1.338 1.338 0 10-2.677 0c0 .737.596 1.334 1.338 1.334.239 0 .426-.145.623-.26l-4.758 5.08c.026-.11.119-.182.119-.296a1.334 1.334 0 00-2.667 0c0 .737.597 1.338 1.339 1.338.145 0 .243-.114.373-.155l-4.379 4.674c0-.736-.597-1.328-1.35-1.328-.742 0-1.328.597-1.328 1.334a1.33 1.33 0 001.328 1.338c.057 0 .094-.052.146-.062l-4.198 4.482c-.063-.68-.592-1.23-1.293-1.23a1.33 1.33 0 00-1.328 1.34c0 .72.566 1.291 1.287 1.317l-4.042 4.348zm26.454-28.255c.182-.213.301-.472.322-.768l.197.218-.519.55z" fill="currentColor"/><path d="M194.985 18.174c-.742 0-1.328.597-1.328 1.334a1.33 1.33 0 001.328 1.338c.753 0 1.339-.602 1.339-1.338 0-.742-.586-1.334-1.339-1.334zM189.646 20.846a1.338 1.338 0 100-2.676 1.338 1.338 0 000 2.676zM184.306 20.846a1.34 1.34 0 100-2.678 1.34 1.34 0 000 2.678zM178.971 18.174c-.742 0-1.349.597-1.349 1.334 0 .736.607 1.338 1.349 1.338a1.337 1.337 0 000-2.672zM173.621 20.846a1.338 1.338 0 10.001-2.677 1.338 1.338 0 00-.001 2.677zM168.292 18.174a1.336 1.336 0 100 2.672 1.336 1.336 0 000-2.672zM211.02 24.032c-.742 0-1.349.596-1.349 1.333s.607 1.338 1.349 1.338c.721 0 1.328-.601 1.328-1.338 0-.737-.607-1.333-1.328-1.333zM205.68 26.709a1.338 1.338 0 10.001-2.677 1.338 1.338 0 00-.001 2.677zM200.335 26.709a1.338 1.338 0 10.001-2.677 1.338 1.338 0 00-.001 2.677zM194.985 24.032c-.742 0-1.328.596-1.328 1.333a1.33 1.33 0 001.328 1.338c.753 0 1.339-.601 1.339-1.338 0-.737-.586-1.333-1.339-1.333zM189.646 26.709a1.338 1.338 0 100-2.677 1.338 1.338 0 000 2.677zM184.306 26.709a1.339 1.339 0 100-2.678 1.339 1.339 0 000 2.678zM178.971 24.032c-.742 0-1.349.596-1.349 1.333s.607 1.338 1.349 1.338a1.337 1.337 0 000-2.671zM173.621 26.709a1.338 1.338 0 10.001-2.677 1.338 1.338 0 00-.001 2.677zM168.292 24.032a1.336 1.336 0 100 2.671 1.336 1.336 0 000-2.671zM162.937 26.709a1.338 1.338 0 100-2.677 1.338 1.338 0 000 2.677zM211.02 29.894c-.742 0-1.349.602-1.349 1.339a1.338 1.338 0 002.677 0c0-.737-.607-1.339-1.328-1.339zM205.68 32.571a1.338 1.338 0 10.001-2.677 1.338 1.338 0 00-.001 2.677zM200.335 32.571a1.338 1.338 0 10.001-2.677 1.338 1.338 0 00-.001 2.677zM194.985 29.894a1.33 1.33 0 00-1.328 1.339c0 .736.586 1.333 1.328 1.333.753 0 1.339-.597 1.339-1.333 0-.737-.586-1.339-1.339-1.339zM189.646 32.571a1.338 1.338 0 100-2.676 1.338 1.338 0 000 2.676zM184.306 32.571a1.34 1.34 0 100-2.678 1.34 1.34 0 000 2.678zM178.971 29.894c-.742 0-1.349.602-1.349 1.339 0 .736.607 1.333 1.349 1.333a1.337 1.337 0 000-2.672zM173.621 32.571a1.338 1.338 0 10.001-2.677 1.338 1.338 0 00-.001 2.677zM168.292 29.894a1.336 1.336 0 100 2.672c.732 0 1.328-.597 1.328-1.333a1.34 1.34 0 00-1.328-1.339zM162.937 32.571a1.338 1.338 0 100-2.676 1.338 1.338 0 000 2.676zM157.597 32.571a1.34 1.34 0 100-2.678 1.34 1.34 0 000 2.678zM152.247 29.894c-.721 0-1.329.602-1.329 1.339a1.34 1.34 0 002.678 0c0-.737-.602-1.339-1.349-1.339zM136.233 38.44a1.34 1.34 0 100-2.68 1.34 1.34 0 000 2.68zM216.349 38.44a1.338 1.338 0 10.001-2.678 1.338 1.338 0 00-.001 2.677zM211.02 35.767c-.742 0-1.349.597-1.349 1.334 0 .736.607 1.338 1.349 1.338.721 0 1.328-.602 1.328-1.338 0-.737-.607-1.334-1.328-1.334zM205.68 38.44a1.338 1.338 0 10.001-2.678 1.338 1.338 0 00-.001 2.677zM200.335 38.44a1.338 1.338 0 10.001-2.678 1.338 1.338 0 00-.001 2.677zM194.985 35.767c-.742 0-1.328.597-1.328 1.334a1.33 1.33 0 001.328 1.338c.753 0 1.339-.602 1.339-1.338 0-.737-.586-1.334-1.339-1.334zM189.646 38.44a1.338 1.338 0 100-2.677 1.338 1.338 0 000 2.676zM184.306 38.44a1.34 1.34 0 100-2.68 1.34 1.34 0 000 2.68zM178.971 35.767c-.742 0-1.349.597-1.349 1.334 0 .736.607 1.338 1.349 1.338a1.337 1.337 0 000-2.672zM173.621 38.44a1.338 1.338 0 10.001-2.678 1.338 1.338 0 00-.001 2.677zM168.292 35.767a1.336 1.336 0 100 2.672 1.336 1.336 0 000-2.672zM162.937 38.44a1.338 1.338 0 100-2.677 1.338 1.338 0 000 2.676zM157.597 38.44a1.34 1.34 0 100-2.68 1.34 1.34 0 000 2.68zM152.247 35.767a1.34 1.34 0 00-1.329 1.334c0 .736.608 1.338 1.329 1.338.752 0 1.349-.602 1.349-1.338a1.34 1.34 0 00-1.349-1.334zM146.918 38.44a1.338 1.338 0 100-2.677 1.338 1.338 0 000 2.676zM141.573 38.44a1.338 1.338 0 100-2.677 1.338 1.338 0 000 2.676zM130.893 44.302a1.338 1.338 0 10.001-2.677 1.338 1.338 0 00-.001 2.677zM136.233 44.302a1.339 1.339 0 100-2.678 1.339 1.339 0 000 2.678zM221.694 41.63a1.33 1.33 0 00-1.328 1.338c0 .737.586 1.334 1.328 1.334.753 0 1.339-.597 1.339-1.334 0-.736-.592-1.338-1.339-1.338zM216.349 44.302a1.338 1.338 0 10.001-2.677 1.338 1.338 0 00-.001 2.677zM211.02 41.63c-.742 0-1.349.602-1.349 1.338a1.338 1.338 0 002.677 0c0-.736-.607-1.338-1.328-1.338zM205.68 44.302a1.338 1.338 0 10.001-2.677 1.338 1.338 0 00-.001 2.677zM200.335 44.302a1.338 1.338 0 10.001-2.677 1.338 1.338 0 00-.001 2.677zM194.985 41.63a1.33 1.33 0 00-1.328 1.338c0 .737.586 1.334 1.328 1.334.753 0 1.339-.597 1.339-1.334 0-.736-.586-1.338-1.339-1.338zM189.646 44.302a1.338 1.338 0 100-2.677 1.338 1.338 0 000 2.677zM184.306 44.302a1.339 1.339 0 100-2.678 1.339 1.339 0 000 2.678zM178.971 41.63c-.742 0-1.349.602-1.349 1.338 0 .737.607 1.334 1.349 1.334a1.337 1.337 0 000-2.672zM173.621 44.302a1.338 1.338 0 10.001-2.677 1.338 1.338 0 00-.001 2.677zM168.292 41.63a1.336 1.336 0 100 2.672c.732 0 1.328-.597 1.328-1.334a1.34 1.34 0 00-1.328-1.338zM162.937 44.302a1.338 1.338 0 100-2.677 1.338 1.338 0 000 2.677zM157.597 44.302a1.339 1.339 0 100-2.678 1.339 1.339 0 000 2.678zM152.247 41.63c-.721 0-1.329.602-1.329 1.338a1.34 1.34 0 002.678 0c0-.736-.602-1.338-1.349-1.338zM146.918 44.302a1.338 1.338 0 100-2.677 1.338 1.338 0 000 2.677zM141.573 44.302a1.338 1.338 0 100-2.677 1.338 1.338 0 000 2.677zM130.893 50.17a1.338 1.338 0 10.001-2.677 1.338 1.338 0 00-.001 2.677zM136.233 50.17a1.34 1.34 0 100-2.679 1.34 1.34 0 000 2.679zM227.034 50.17a1.34 1.34 0 100-2.679 1.34 1.34 0 000 2.679zM221.694 47.492c-.742 0-1.328.597-1.328 1.334a1.33 1.33 0 001.328 1.338c.753 0 1.339-.601 1.339-1.338 0-.737-.592-1.334-1.339-1.334zM216.349 50.17a1.338 1.338 0 10.001-2.677 1.338 1.338 0 00-.001 2.677zM211.02 47.492c-.742 0-1.349.597-1.349 1.334 0 .737.607 1.338 1.349 1.338.721 0 1.328-.601 1.328-1.338 0-.737-.607-1.334-1.328-1.334zM205.68 50.17a1.338 1.338 0 10.001-2.677 1.338 1.338 0 00-.001 2.677zM200.335 50.17a1.338 1.338 0 10.001-2.677 1.338 1.338 0 00-.001 2.677zM194.985 47.492c-.742 0-1.328.597-1.328 1.334a1.33 1.33 0 001.328 1.338c.753 0 1.339-.601 1.339-1.338 0-.737-.586-1.334-1.339-1.334zM189.646 50.17a1.338 1.338 0 100-2.677 1.338 1.338 0 000 2.677zM184.306 50.17a1.34 1.34 0 100-2.679 1.34 1.34 0 000 2.679zM178.971 47.492c-.742 0-1.349.597-1.349 1.334 0 .737.607 1.338 1.349 1.338a1.337 1.337 0 000-2.672zM173.621 50.17a1.338 1.338 0 10.001-2.677 1.338 1.338 0 00-.001 2.677zM168.292 47.492a1.336 1.336 0 100 2.672 1.336 1.336 0 000-2.672zM162.937 50.17a1.338 1.338 0 100-2.677 1.338 1.338 0 000 2.677zM157.597 50.17a1.34 1.34 0 100-2.679 1.34 1.34 0 000 2.679zM152.247 47.492a1.34 1.34 0 00-1.329 1.334c0 .737.608 1.338 1.329 1.338.752 0 1.349-.601 1.349-1.338a1.34 1.34 0 00-1.349-1.334zM146.918 50.17a1.338 1.338 0 100-2.677 1.338 1.338 0 000 2.677zM141.573 50.17a1.338 1.338 0 100-2.677 1.338 1.338 0 000 2.677zM130.893 56.032a1.338 1.338 0 10.001-2.677 1.338 1.338 0 00-.001 2.677zM136.233 56.032a1.34 1.34 0 100-2.678 1.34 1.34 0 000 2.678zM232.373 56.032a1.338 1.338 0 10.001-2.677 1.338 1.338 0 00-.001 2.677zM227.034 56.032a1.34 1.34 0 100-2.678 1.34 1.34 0 000 2.678zM221.694 53.36c-.742 0-1.328.597-1.328 1.334a1.33 1.33 0 001.328 1.338c.753 0 1.339-.602 1.339-1.338 0-.737-.592-1.334-1.339-1.334zM216.349 56.032a1.338 1.338 0 10.001-2.677 1.338 1.338 0 00-.001 2.677zM211.02 53.36c-.742 0-1.349.597-1.349 1.334 0 .736.607 1.338 1.349 1.338.721 0 1.328-.602 1.328-1.338 0-.737-.607-1.334-1.328-1.334zM205.68 56.032a1.338 1.338 0 10.001-2.677 1.338 1.338 0 00-.001 2.677zM200.335 56.032a1.338 1.338 0 10.001-2.677 1.338 1.338 0 00-.001 2.677zM194.985 53.36c-.742 0-1.328.597-1.328 1.334a1.33 1.33 0 001.328 1.338c.753 0 1.339-.602 1.339-1.338 0-.737-.586-1.334-1.339-1.334zM189.646 56.032a1.338 1.338 0 100-2.676 1.338 1.338 0 000 2.676zM184.306 56.032a1.34 1.34 0 100-2.678 1.34 1.34 0 000 2.678zM178.971 53.36c-.742 0-1.349.597-1.349 1.334 0 .736.607 1.338 1.349 1.338a1.337 1.337 0 000-2.672zM173.621 56.032a1.338 1.338 0 10.001-2.677 1.338 1.338 0 00-.001 2.677zM168.292 53.36a1.336 1.336 0 100 2.672 1.336 1.336 0 000-2.672zM162.937 56.032a1.338 1.338 0 100-2.676 1.338 1.338 0 000 2.676zM157.597 56.032a1.34 1.34 0 100-2.678 1.34 1.34 0 000 2.678zM152.247 53.36a1.34 1.34 0 00-1.329 1.334c0 .736.608 1.338 1.329 1.338.752 0 1.349-.602 1.349-1.338a1.34 1.34 0 00-1.349-1.334zM146.918 56.032a1.338 1.338 0 100-2.676 1.338 1.338 0 000 2.676zM141.573 56.032a1.338 1.338 0 100-2.676 1.338 1.338 0 000 2.676zM130.893 61.895a1.338 1.338 0 10.001-2.677 1.338 1.338 0 00-.001 2.677zM136.233 61.895a1.34 1.34 0 100-2.678 1.34 1.34 0 000 2.678zM237.729 61.895a1.34 1.34 0 100-2.678 1.34 1.34 0 000 2.678zM232.373 61.895a1.338 1.338 0 10.001-2.677 1.338 1.338 0 00-.001 2.677zM227.034 61.895a1.34 1.34 0 100-2.678 1.34 1.34 0 000 2.678zM221.694 59.223a1.33 1.33 0 00-1.328 1.339c0 .736.586 1.333 1.328 1.333.753 0 1.339-.597 1.339-1.334 0-.736-.592-1.338-1.339-1.338zM216.349 61.895a1.338 1.338 0 10.001-2.677 1.338 1.338 0 00-.001 2.677zM211.02 59.223c-.742 0-1.349.602-1.349 1.339a1.339 1.339 0 002.677 0c0-.737-.607-1.34-1.328-1.34zM205.68 61.895a1.338 1.338 0 10.001-2.677 1.338 1.338 0 00-.001 2.677zM200.335 61.895a1.338 1.338 0 10.001-2.677 1.338 1.338 0 00-.001 2.677zM194.985 59.223a1.33 1.33 0 00-1.328 1.339c0 .736.586 1.333 1.328 1.333.753 0 1.339-.597 1.339-1.334 0-.736-.586-1.338-1.339-1.338zM189.646 61.895a1.338 1.338 0 100-2.677 1.338 1.338 0 000 2.677zM184.306 61.895a1.34 1.34 0 100-2.678 1.34 1.34 0 000 2.678zM178.971 59.223c-.742 0-1.349.602-1.349 1.339 0 .736.607 1.333 1.349 1.333a1.337 1.337 0 000-2.672zM173.621 61.895a1.338 1.338 0 10.001-2.677 1.338 1.338 0 00-.001 2.677zM168.292 59.223a1.336 1.336 0 100 2.672c.732 0 1.328-.597 1.328-1.333a1.34 1.34 0 00-1.328-1.34zM162.937 61.895a1.338 1.338 0 100-2.677 1.338 1.338 0 000 2.677zM157.597 61.895a1.34 1.34 0 100-2.678 1.34 1.34 0 000 2.678zM152.247 59.223c-.721 0-1.329.602-1.329 1.339a1.34 1.34 0 002.678 0c0-.737-.602-1.34-1.349-1.34zM146.918 61.895a1.338 1.338 0 100-2.677 1.338 1.338 0 000 2.677zM141.573 61.895a1.338 1.338 0 100-2.677 1.338 1.338 0 000 2.677zM130.893 67.768a1.338 1.338 0 10.001-2.677 1.338 1.338 0 00-.001 2.677zM136.233 67.768a1.34 1.34 0 100-2.678 1.34 1.34 0 000 2.678zM243.068 67.768a1.338 1.338 0 10.001-2.677 1.338 1.338 0 00-.001 2.677zM237.729 67.768a1.34 1.34 0 100-2.678 1.34 1.34 0 000 2.678zM232.373 67.768a1.338 1.338 0 10.001-2.677 1.338 1.338 0 00-.001 2.677zM227.034 67.768a1.34 1.34 0 100-2.678 1.34 1.34 0 000 2.678zM221.694 65.09c-.742 0-1.328.597-1.328 1.334a1.33 1.33 0 001.328 1.339c.753 0 1.339-.602 1.339-1.339s-.592-1.333-1.339-1.333zM216.349 67.768a1.338 1.338 0 10.001-2.677 1.338 1.338 0 00-.001 2.677zM211.02 65.09c-.742 0-1.349.597-1.349 1.334 0 .737.607 1.339 1.349 1.339.721 0 1.328-.602 1.328-1.339s-.607-1.333-1.328-1.333zM205.68 67.768a1.338 1.338 0 10.001-2.677 1.338 1.338 0 00-.001 2.677zM200.335 67.768a1.338 1.338 0 10.001-2.677 1.338 1.338 0 00-.001 2.677zM194.985 65.09c-.742 0-1.328.597-1.328 1.334a1.33 1.33 0 001.328 1.339c.753 0 1.339-.602 1.339-1.339s-.586-1.333-1.339-1.333zM189.646 67.768a1.338 1.338 0 100-2.677 1.338 1.338 0 000 2.677zM184.306 67.768a1.34 1.34 0 100-2.678 1.34 1.34 0 000 2.678zM178.971 65.09c-.742 0-1.349.597-1.349 1.334 0 .737.607 1.339 1.349 1.339a1.337 1.337 0 000-2.672zM173.621 67.768a1.338 1.338 0 10.001-2.677 1.338 1.338 0 00-.001 2.677zM168.292 65.09a1.336 1.336 0 100 2.673 1.336 1.336 0 000-2.672zM162.937 67.768a1.338 1.338 0 100-2.677 1.338 1.338 0 000 2.677zM157.597 67.768a1.34 1.34 0 100-2.678 1.34 1.34 0 000 2.678zM152.247 65.09a1.34 1.34 0 00-1.329 1.334c0 .737.608 1.339 1.329 1.339.752 0 1.349-.602 1.349-1.339a1.34 1.34 0 00-1.349-1.333zM146.918 67.768a1.338 1.338 0 100-2.677 1.338 1.338 0 000 2.677zM141.573 67.768a1.338 1.338 0 100-2.677 1.338 1.338 0 000 2.677zM130.893 73.63a1.338 1.338 0 10.001-2.676 1.338 1.338 0 00-.001 2.677zM136.233 73.63a1.34 1.34 0 100-2.678 1.34 1.34 0 000 2.678zM237.729 73.63a1.34 1.34 0 100-2.678 1.34 1.34 0 000 2.678zM232.373 73.63a1.338 1.338 0 10.001-2.676 1.338 1.338 0 00-.001 2.677zM227.034 73.63a1.34 1.34 0 100-2.678 1.34 1.34 0 000 2.678zM221.694 70.953a1.33 1.33 0 00-1.328 1.339c0 .737.586 1.333 1.328 1.333.753 0 1.339-.596 1.339-1.333s-.592-1.339-1.339-1.339zM216.349 73.63a1.338 1.338 0 10.001-2.676 1.338 1.338 0 00-.001 2.677zM211.02 70.953c-.742 0-1.349.602-1.349 1.339s.607 1.333 1.349 1.333c.721 0 1.328-.596 1.328-1.333s-.607-1.339-1.328-1.339zM205.68 73.63a1.338 1.338 0 10.001-2.676 1.338 1.338 0 00-.001 2.677zM200.335 73.63a1.338 1.338 0 10.001-2.676 1.338 1.338 0 00-.001 2.677zM194.985 70.953a1.33 1.33 0 00-1.328 1.339c0 .737.586 1.333 1.328 1.333.753 0 1.339-.596 1.339-1.333s-.586-1.339-1.339-1.339zM189.646 73.63a1.338 1.338 0 100-2.676 1.338 1.338 0 000 2.677zM184.306 73.63a1.34 1.34 0 100-2.678 1.34 1.34 0 000 2.678zM178.971 70.953c-.742 0-1.349.602-1.349 1.339s.607 1.333 1.349 1.333a1.337 1.337 0 000-2.672zM173.621 73.63a1.338 1.338 0 10.001-2.676 1.338 1.338 0 00-.001 2.677zM168.292 70.953a1.336 1.336 0 100 2.672c.732 0 1.328-.596 1.328-1.333a1.34 1.34 0 00-1.328-1.339zM162.937 73.63a1.338 1.338 0 100-2.676 1.338 1.338 0 000 2.677zM157.597 73.63a1.34 1.34 0 100-2.678 1.34 1.34 0 000 2.678zM152.247 70.953c-.721 0-1.329.602-1.329 1.339a1.34 1.34 0 002.678 0c0-.737-.602-1.339-1.349-1.339zM146.918 73.63a1.338 1.338 0 100-2.676 1.338 1.338 0 000 2.677zM141.573 73.63a1.338 1.338 0 100-2.676 1.338 1.338 0 000 2.677zM130.893 79.498a1.338 1.338 0 10.001-2.677 1.338 1.338 0 00-.001 2.677zM136.233 79.498a1.34 1.34 0 100-2.678 1.34 1.34 0 000 2.678zM232.373 79.498a1.338 1.338 0 10.001-2.677 1.338 1.338 0 00-.001 2.677zM227.034 79.498a1.34 1.34 0 100-2.678 1.34 1.34 0 000 2.678zM221.694 76.821c-.742 0-1.328.597-1.328 1.334a1.33 1.33 0 001.328 1.338c.753 0 1.339-.602 1.339-1.338 0-.737-.592-1.334-1.339-1.334zM216.349 79.498a1.338 1.338 0 10.001-2.677 1.338 1.338 0 00-.001 2.677zM211.02 76.821c-.742 0-1.349.597-1.349 1.334 0 .736.607 1.338 1.349 1.338.721 0 1.328-.602 1.328-1.338 0-.737-.607-1.334-1.328-1.334zM205.68 79.498a1.338 1.338 0 10.001-2.677 1.338 1.338 0 00-.001 2.677zM200.335 79.498a1.338 1.338 0 10.001-2.677 1.338 1.338 0 00-.001 2.677zM194.985 76.821c-.742 0-1.328.597-1.328 1.334a1.33 1.33 0 001.328 1.338c.753 0 1.339-.602 1.339-1.338 0-.737-.586-1.334-1.339-1.334zM189.646 79.498a1.338 1.338 0 100-2.676 1.338 1.338 0 000 2.676zM184.306 79.498a1.34 1.34 0 100-2.678 1.34 1.34 0 000 2.678zM178.971 76.821c-.742 0-1.349.597-1.349 1.334 0 .736.607 1.338 1.349 1.338a1.337 1.337 0 000-2.672zM173.621 79.498a1.338 1.338 0 10.001-2.677 1.338 1.338 0 00-.001 2.677zM168.292 76.821a1.336 1.336 0 100 2.672 1.336 1.336 0 000-2.672zM162.937 79.498a1.338 1.338 0 100-2.676 1.338 1.338 0 000 2.676zM157.597 79.498a1.34 1.34 0 100-2.678 1.34 1.34 0 000 2.678zM152.247 76.821a1.34 1.34 0 00-1.329 1.334c0 .736.608 1.338 1.329 1.338.752 0 1.349-.602 1.349-1.338a1.34 1.34 0 00-1.349-1.334zM146.918 79.498a1.338 1.338 0 100-2.676 1.338 1.338 0 000 2.676zM141.573 79.498a1.338 1.338 0 100-2.676 1.338 1.338 0 000 2.676zM130.893 85.361a1.338 1.338 0 10.001-2.677 1.338 1.338 0 00-.001 2.677zM136.233 85.361a1.34 1.34 0 100-2.678 1.34 1.34 0 000 2.678zM227.034 85.361a1.34 1.34 0 100-2.678 1.34 1.34 0 000 2.678zM221.694 82.684c-.742 0-1.328.597-1.328 1.333a1.33 1.33 0 001.328 1.339c.753 0 1.339-.602 1.339-1.339 0-.736-.592-1.333-1.339-1.333zM216.349 85.361a1.338 1.338 0 10.001-2.677 1.338 1.338 0 00-.001 2.677zM211.02 82.684c-.742 0-1.349.597-1.349 1.333 0 .737.607 1.339 1.349 1.339.721 0 1.328-.602 1.328-1.339 0-.736-.607-1.333-1.328-1.333zM200.335 85.361a1.338 1.338 0 10.001-2.677 1.338 1.338 0 00-.001 2.677zM194.985 82.684c-.742 0-1.328.597-1.328 1.333a1.33 1.33 0 001.328 1.339c.753 0 1.339-.602 1.339-1.339 0-.736-.586-1.333-1.339-1.333zM189.646 85.361a1.338 1.338 0 100-2.677 1.338 1.338 0 000 2.677zM184.306 85.361a1.34 1.34 0 100-2.678 1.34 1.34 0 000 2.678zM178.971 82.684c-.742 0-1.349.597-1.349 1.333 0 .737.607 1.339 1.349 1.339a1.337 1.337 0 000-2.672zM173.621 85.361a1.338 1.338 0 10.001-2.677 1.338 1.338 0 00-.001 2.677zM168.292 82.684a1.336 1.336 0 100 2.672 1.336 1.336 0 000-2.672zM162.937 85.361a1.338 1.338 0 100-2.677 1.338 1.338 0 000 2.677zM157.597 85.361a1.34 1.34 0 100-2.678 1.34 1.34 0 000 2.678zM152.247 82.684a1.34 1.34 0 00-1.329 1.333c0 .737.608 1.339 1.329 1.339.752 0 1.349-.602 1.349-1.339a1.34 1.34 0 00-1.349-1.333zM146.918 85.361a1.338 1.338 0 100-2.677 1.338 1.338 0 000 2.677zM141.573 85.361a1.338 1.338 0 100-2.677 1.338 1.338 0 000 2.677zM130.893 91.224a1.338 1.338 0 10.001-2.677 1.338 1.338 0 00-.001 2.677zM136.233 91.224a1.34 1.34 0 100-2.679 1.34 1.34 0 000 2.679zM221.694 88.546a1.33 1.33 0 00-1.328 1.34c0 .736.586 1.332 1.328 1.332.753 0 1.339-.596 1.339-1.333s-.592-1.339-1.339-1.339zM200.335 91.224a1.338 1.338 0 10.001-2.677 1.338 1.338 0 00-.001 2.677zM194.985 88.546a1.33 1.33 0 00-1.328 1.34c0 .736.586 1.332 1.328 1.332.753 0 1.339-.596 1.339-1.333s-.586-1.339-1.339-1.339zM189.646 91.224a1.338 1.338 0 100-2.677 1.338 1.338 0 000 2.677zM184.306 91.224a1.34 1.34 0 100-2.679 1.34 1.34 0 000 2.679zM178.971 88.546c-.742 0-1.349.602-1.349 1.34 0 .736.607 1.332 1.349 1.332a1.337 1.337 0 000-2.672zM173.621 91.224a1.338 1.338 0 10.001-2.677 1.338 1.338 0 00-.001 2.677zM168.292 88.546a1.336 1.336 0 100 2.672c.732 0 1.328-.596 1.328-1.333a1.34 1.34 0 00-1.328-1.339zM162.937 91.224a1.338 1.338 0 100-2.677 1.338 1.338 0 000 2.677zM157.597 91.224a1.34 1.34 0 100-2.679 1.34 1.34 0 000 2.679zM152.247 88.546c-.721 0-1.329.602-1.329 1.34a1.34 1.34 0 002.678 0c0-.738-.602-1.34-1.349-1.34zM146.918 91.224a1.338 1.338 0 100-2.677 1.338 1.338 0 000 2.677zM141.573 91.224a1.338 1.338 0 100-2.677 1.338 1.338 0 000 2.677zM130.893 97.091a1.338 1.338 0 10.001-2.676 1.338 1.338 0 00-.001 2.676zM136.233 97.091a1.339 1.339 0 100-2.678 1.339 1.339 0 000 2.678zM200.335 97.091a1.338 1.338 0 10.001-2.676 1.338 1.338 0 00-.001 2.676zM194.985 94.414c-.742 0-1.328.597-1.328 1.334a1.33 1.33 0 001.328 1.338c.753 0 1.339-.602 1.339-1.338 0-.737-.586-1.334-1.339-1.334zM189.646 97.091a1.338 1.338 0 100-2.676 1.338 1.338 0 000 2.676zM184.306 97.091a1.339 1.339 0 100-2.678 1.339 1.339 0 000 2.678zM178.971 94.414c-.742 0-1.349.597-1.349 1.334 0 .736.607 1.338 1.349 1.338a1.337 1.337 0 000-2.672zM173.621 97.091a1.338 1.338 0 10.001-2.676 1.338 1.338 0 00-.001 2.676zM168.292 94.414a1.336 1.336 0 100 2.672 1.336 1.336 0 000-2.672zM162.937 97.091a1.338 1.338 0 100-2.676 1.338 1.338 0 000 2.676zM157.597 97.091a1.339 1.339 0 100-2.678 1.339 1.339 0 000 2.678zM152.247 94.414a1.34 1.34 0 00-1.329 1.334c0 .736.608 1.338 1.329 1.338.752 0 1.349-.602 1.349-1.338a1.34 1.34 0 00-1.349-1.334zM146.918 97.091a1.338 1.338 0 100-2.676 1.338 1.338 0 000 2.676zM141.573 97.091a1.338 1.338 0 100-2.676 1.338 1.338 0 000 2.676zM130.893 102.954a1.338 1.338 0 10.002-2.676 1.338 1.338 0 00-.002 2.676zM136.233 102.954a1.339 1.339 0 100-2.678 1.339 1.339 0 000 2.678zM200.335 102.954a1.338 1.338 0 10.002-2.676 1.338 1.338 0 00-.002 2.676zM194.985 100.277a1.33 1.33 0 00-1.328 1.339c0 .741.586 1.333 1.328 1.333.753 0 1.339-.597 1.339-1.333 0-.737-.586-1.339-1.339-1.339zM189.646 102.954a1.338 1.338 0 100-2.676 1.338 1.338 0 000 2.676zM184.306 102.954a1.339 1.339 0 100-2.678 1.339 1.339 0 000 2.678zM178.971 100.277c-.742 0-1.349.602-1.349 1.339a1.34 1.34 0 002.678 0c0-.737-.597-1.339-1.329-1.339zM173.621 102.954a1.338 1.338 0 10.002-2.676 1.338 1.338 0 00-.002 2.676zM168.292 100.277a1.34 1.34 0 00-1.349 1.339c0 .741.596 1.333 1.349 1.333.732 0 1.328-.597 1.328-1.333a1.34 1.34 0 00-1.328-1.339zM162.937 102.954a1.338 1.338 0 100-2.676 1.338 1.338 0 000 2.676zM157.597 102.954a1.339 1.339 0 100-2.678 1.339 1.339 0 000 2.678zM152.247 100.277c-.721 0-1.329.602-1.329 1.339 0 .741.608 1.333 1.329 1.333.752 0 1.349-.597 1.349-1.333 0-.737-.602-1.339-1.349-1.339zM146.918 102.954a1.338 1.338 0 100-2.676 1.338 1.338 0 000 2.676zM141.573 102.954a1.338 1.338 0 100-2.676 1.338 1.338 0 000 2.676zM173.621 14.978a1.338 1.338 0 10.001-2.677 1.338 1.338 0 00-.001 2.677zM168.292 12.301a1.336 1.336 0 100 2.672c.732 0 1.328-.597 1.328-1.333a1.34 1.34 0 00-1.328-1.339zM130.893 108.822a1.338 1.338 0 10.001-2.677 1.338 1.338 0 00-.001 2.677zM136.233 108.822a1.339 1.339 0 100-2.678 1.339 1.339 0 000 2.678zM200.335 108.822a1.338 1.338 0 10.001-2.677 1.338 1.338 0 00-.001 2.677zM194.985 106.145c-.742 0-1.328.596-1.328 1.333a1.33 1.33 0 001.328 1.339c.753 0 1.339-.602 1.339-1.339s-.586-1.333-1.339-1.333zM189.646 108.822a1.338 1.338 0 100-2.676 1.338 1.338 0 000 2.676zM184.306 108.822a1.339 1.339 0 100-2.678 1.339 1.339 0 000 2.678zM178.971 106.145c-.742 0-1.349.596-1.349 1.333s.607 1.339 1.349 1.339a1.337 1.337 0 000-2.672zM173.621 108.822a1.338 1.338 0 10.001-2.677 1.338 1.338 0 00-.001 2.677zM168.292 106.145a1.336 1.336 0 100 2.672 1.336 1.336 0 000-2.672zM162.937 108.822a1.338 1.338 0 100-2.676 1.338 1.338 0 000 2.676zM157.597 108.822a1.339 1.339 0 100-2.678 1.339 1.339 0 000 2.678zM152.247 106.145c-.721 0-1.329.596-1.329 1.333s.608 1.339 1.329 1.339c.752 0 1.349-.602 1.349-1.339a1.34 1.34 0 00-1.349-1.333zM146.918 108.822a1.338 1.338 0 100-2.676 1.338 1.338 0 000 2.676zM141.573 108.822a1.338 1.338 0 100-2.676 1.338 1.338 0 000 2.676zM130.893 120.542a1.333 1.333 0 10.001-2.667 1.333 1.333 0 00-.001 2.667zM136.233 120.542a1.334 1.334 0 100-2.668 1.334 1.334 0 000 2.668zM200.335 120.542a1.333 1.333 0 10.001-2.667 1.333 1.333 0 00-.001 2.667zM194.985 117.875c-.742 0-1.328.597-1.328 1.334 0 .736.586 1.333 1.328 1.333.753 0 1.339-.597 1.339-1.333 0-.737-.586-1.334-1.339-1.334zM189.646 120.542a1.333 1.333 0 100-2.667 1.333 1.333 0 000 2.667zM184.306 120.542a1.333 1.333 0 100-2.667 1.333 1.333 0 000 2.667zM178.971 117.875c-.742 0-1.349.597-1.349 1.334 0 .736.607 1.333 1.349 1.333a1.333 1.333 0 000-2.667zM173.621 120.542a1.333 1.333 0 10.001-2.667 1.333 1.333 0 00-.001 2.667zM168.292 117.875c-.753 0-1.349.597-1.349 1.334 0 .736.596 1.333 1.349 1.333.732 0 1.328-.597 1.328-1.333 0-.737-.602-1.334-1.328-1.334zM162.937 120.542a1.333 1.333 0 100-2.667 1.333 1.333 0 000 2.667zM157.597 120.542a1.334 1.334 0 100-2.668 1.334 1.334 0 000 2.668zM152.247 117.875a1.34 1.34 0 00-1.329 1.334 1.34 1.34 0 002.678 0 1.34 1.34 0 00-1.349-1.334zM146.918 120.542a1.333 1.333 0 100-2.667 1.333 1.333 0 000 2.667zM141.573 120.542a1.333 1.333 0 100-2.667 1.333 1.333 0 000 2.667zM130.893 126.41a1.338 1.338 0 10.001-2.677 1.338 1.338 0 00-.001 2.677zM136.233 126.41a1.339 1.339 0 100-2.678 1.339 1.339 0 000 2.678zM200.335 126.41a1.338 1.338 0 10.001-2.677 1.338 1.338 0 00-.001 2.677zM194.985 123.733a1.33 1.33 0 00-1.328 1.338c0 .742.586 1.339 1.328 1.339.753 0 1.339-.597 1.339-1.339 0-.736-.586-1.338-1.339-1.338zM189.646 126.41a1.338 1.338 0 100-2.676 1.338 1.338 0 000 2.676zM184.306 126.41a1.339 1.339 0 100-2.678 1.339 1.339 0 000 2.678zM178.971 123.733c-.742 0-1.349.602-1.349 1.338 0 .742.607 1.339 1.349 1.339.732 0 1.329-.597 1.329-1.339 0-.736-.597-1.338-1.329-1.338zM173.621 126.41a1.338 1.338 0 10.001-2.677 1.338 1.338 0 00-.001 2.677zM168.292 123.733a1.337 1.337 0 100 2.677 1.34 1.34 0 000-2.677zM162.937 126.41a1.338 1.338 0 100-2.676 1.338 1.338 0 000 2.676zM157.597 126.41a1.339 1.339 0 100-2.678 1.339 1.339 0 000 2.678zM152.247 123.733c-.721 0-1.329.602-1.329 1.338a1.338 1.338 0 101.329-1.338zM146.918 126.41a1.338 1.338 0 100-2.676 1.338 1.338 0 000 2.676zM141.573 126.41a1.338 1.338 0 100-2.676 1.338 1.338 0 000 2.676zM130.893 132.278a1.339 1.339 0 100-2.678 1.339 1.339 0 000 2.678zM136.233 132.278a1.34 1.34 0 10-.001-2.68 1.34 1.34 0 00.001 2.68zM200.335 132.278a1.339 1.339 0 100-2.678 1.339 1.339 0 000 2.678zM194.985 129.606a1.33 1.33 0 00-1.328 1.338c0 .742.586 1.339 1.328 1.339.753 0 1.339-.597 1.339-1.339 0-.736-.586-1.338-1.339-1.338zM189.646 132.278a1.339 1.339 0 10-.002-2.678 1.339 1.339 0 00.002 2.678zM184.306 132.278a1.34 1.34 0 10-.001-2.68 1.34 1.34 0 00.001 2.68zM178.971 129.606c-.742 0-1.349.602-1.349 1.338 0 .742.607 1.339 1.349 1.339.732 0 1.329-.597 1.329-1.339 0-.736-.597-1.338-1.329-1.338zM173.621 132.278a1.339 1.339 0 100-2.678 1.339 1.339 0 000 2.678zM168.292 129.606a1.337 1.337 0 100 2.677 1.34 1.34 0 000-2.677zM162.937 132.278a1.339 1.339 0 10-.002-2.678 1.339 1.339 0 00.002 2.678zM157.597 132.278a1.34 1.34 0 10-.001-2.68 1.34 1.34 0 00.001 2.68zM152.247 129.606c-.721 0-1.329.602-1.329 1.338a1.338 1.338 0 101.329-1.338zM146.918 132.278a1.339 1.339 0 10-.002-2.678 1.339 1.339 0 00.002 2.678zM141.573 132.278a1.339 1.339 0 10-.002-2.678 1.339 1.339 0 00.002 2.678zM130.893 138.14a1.333 1.333 0 10.001-2.667 1.333 1.333 0 00-.001 2.667zM136.233 138.14a1.334 1.334 0 100-2.668 1.334 1.334 0 000 2.668zM200.335 138.14a1.333 1.333 0 10.001-2.667 1.333 1.333 0 00-.001 2.667zM194.985 135.468c-.742 0-1.328.597-1.328 1.334 0 .742.586 1.338 1.328 1.338.753 0 1.339-.596 1.339-1.338a1.33 1.33 0 00-1.339-1.334zM189.646 138.14a1.333 1.333 0 100-2.667 1.333 1.333 0 000 2.667zM184.306 138.14a1.333 1.333 0 100-2.667 1.333 1.333 0 000 2.667zM178.971 135.468c-.742 0-1.349.597-1.349 1.334 0 .742.607 1.338 1.349 1.338a1.336 1.336 0 000-2.672zM173.621 138.14a1.333 1.333 0 10.001-2.667 1.333 1.333 0 00-.001 2.667zM168.292 135.468a1.336 1.336 0 100 2.672c.732 0 1.328-.596 1.328-1.338 0-.732-.602-1.334-1.328-1.334zM162.937 138.14a1.333 1.333 0 100-2.667 1.333 1.333 0 000 2.667zM157.597 138.14a1.334 1.334 0 100-2.668 1.334 1.334 0 000 2.668zM152.247 135.468a1.34 1.34 0 00-1.329 1.334 1.34 1.34 0 002.678 0c0-.732-.602-1.334-1.349-1.334zM146.918 138.14a1.333 1.333 0 100-2.667 1.333 1.333 0 000 2.667zM141.573 138.14a1.333 1.333 0 100-2.667 1.333 1.333 0 000 2.667zM130.893 144.003a1.338 1.338 0 10.001-2.677 1.338 1.338 0 00-.001 2.677zM136.233 144.003a1.339 1.339 0 100-2.678 1.339 1.339 0 000 2.678zM200.335 144.003a1.338 1.338 0 10.001-2.677 1.338 1.338 0 00-.001 2.677zM194.985 141.326c-.742 0-1.328.596-1.328 1.333a1.333 1.333 0 102.667 0 1.33 1.33 0 00-1.339-1.333zM189.646 144.003a1.338 1.338 0 100-2.676 1.338 1.338 0 000 2.676zM184.306 144.003a1.339 1.339 0 100-2.678 1.339 1.339 0 000 2.678zM178.971 141.326c-.742 0-1.349.596-1.349 1.333 0 .742.607 1.344 1.349 1.344.732 0 1.329-.602 1.329-1.344 0-.731-.597-1.333-1.329-1.333zM173.621 144.003a1.338 1.338 0 10.001-2.677 1.338 1.338 0 00-.001 2.677zM168.292 141.326c-.753 0-1.349.596-1.349 1.333 0 .742.596 1.344 1.349 1.344a1.339 1.339 0 000-2.677zM162.937 144.003a1.338 1.338 0 100-2.676 1.338 1.338 0 000 2.676zM157.597 144.003a1.339 1.339 0 100-2.678 1.339 1.339 0 000 2.678zM152.247 141.326c-.721 0-1.329.596-1.329 1.333 0 .742.608 1.344 1.329 1.344.752 0 1.349-.602 1.349-1.344 0-.731-.602-1.333-1.349-1.333zM146.918 144.003a1.338 1.338 0 100-2.676 1.338 1.338 0 000 2.676zM141.573 144.003a1.338 1.338 0 100-2.676 1.338 1.338 0 000 2.676zM130.893 149.876a1.338 1.338 0 10.001-2.677 1.338 1.338 0 00-.001 2.677zM136.233 149.876a1.339 1.339 0 100-2.678 1.339 1.339 0 000 2.678zM200.335 149.876a1.338 1.338 0 10.001-2.677 1.338 1.338 0 00-.001 2.677zM194.985 147.194a1.33 1.33 0 00-1.328 1.343 1.33 1.33 0 001.328 1.339c.753 0 1.339-.602 1.339-1.339 0-.742-.586-1.343-1.339-1.343zM189.646 149.876a1.338 1.338 0 100-2.676 1.338 1.338 0 000 2.676zM184.306 149.876a1.339 1.339 0 100-2.678 1.339 1.339 0 000 2.678zM178.971 147.194c-.742 0-1.349.601-1.349 1.343 0 .737.607 1.339 1.349 1.339.732 0 1.329-.602 1.329-1.339 0-.742-.597-1.343-1.329-1.343zM173.621 149.876a1.338 1.338 0 10.001-2.677 1.338 1.338 0 00-.001 2.677zM168.292 147.194a1.34 1.34 0 100 2.682c.732 0 1.328-.602 1.328-1.339a1.34 1.34 0 00-1.328-1.343zM162.937 149.876a1.338 1.338 0 100-2.676 1.338 1.338 0 000 2.676zM157.597 149.876a1.339 1.339 0 100-2.678 1.339 1.339 0 000 2.678zM152.247 147.194c-.721 0-1.329.601-1.329 1.343 0 .737.608 1.339 1.329 1.339a1.341 1.341 0 100-2.682zM146.918 149.876a1.338 1.338 0 100-2.676 1.338 1.338 0 000 2.676zM141.573 149.876a1.338 1.338 0 100-2.676 1.338 1.338 0 000 2.676zM130.893 155.728a1.333 1.333 0 10.001-2.667 1.333 1.333 0 00-.001 2.667zM136.233 155.728a1.334 1.334 0 100-2.668 1.334 1.334 0 000 2.668zM200.335 155.728a1.333 1.333 0 10.001-2.667 1.333 1.333 0 00-.001 2.667zM194.985 153.061c-.742 0-1.328.597-1.328 1.339 0 .737.586 1.333 1.328 1.333.753 0 1.339-.596 1.339-1.333 0-.742-.586-1.339-1.339-1.339zM189.646 155.728a1.333 1.333 0 100-2.667 1.333 1.333 0 000 2.667zM184.306 155.728a1.333 1.333 0 100-2.667 1.333 1.333 0 000 2.667zM178.971 153.061c-.742 0-1.349.597-1.349 1.339 0 .737.607 1.333 1.349 1.333.732 0 1.329-.596 1.329-1.333 0-.742-.597-1.339-1.329-1.339zM173.621 155.728a1.333 1.333 0 10.001-2.667 1.333 1.333 0 00-.001 2.667zM168.292 153.061a1.336 1.336 0 100 2.672 1.337 1.337 0 000-2.672zM162.937 155.728a1.333 1.333 0 100-2.667 1.333 1.333 0 000 2.667zM157.597 155.728a1.334 1.334 0 100-2.668 1.334 1.334 0 000 2.668zM152.247 153.061a1.34 1.34 0 00-1.329 1.339 1.339 1.339 0 002.678 0c0-.742-.602-1.339-1.349-1.339zM146.918 155.728a1.333 1.333 0 100-2.667 1.333 1.333 0 000 2.667zM141.573 155.728a1.333 1.333 0 100-2.667 1.333 1.333 0 000 2.667zM130.893 161.591a1.334 1.334 0 100-2.667 1.334 1.334 0 000 2.667zM136.233 161.591a1.334 1.334 0 100-2.669 1.334 1.334 0 000 2.669zM200.335 161.591a1.334 1.334 0 100-2.667 1.334 1.334 0 000 2.667zM194.985 158.924c-.742 0-1.328.592-1.328 1.333a1.33 1.33 0 001.328 1.339c.753 0 1.339-.602 1.339-1.339 0-.741-.586-1.333-1.339-1.333zM189.646 161.591a1.333 1.333 0 100-2.667 1.333 1.333 0 000 2.667zM184.306 161.591a1.333 1.333 0 100-2.667 1.333 1.333 0 000 2.667zM178.971 158.924a1.34 1.34 0 00-1.349 1.333c0 .737.607 1.339 1.349 1.339a1.337 1.337 0 000-2.672zM173.621 161.591a1.334 1.334 0 100-2.667 1.334 1.334 0 000 2.667zM168.292 158.924c-.753 0-1.349.592-1.349 1.333a1.34 1.34 0 001.349 1.339 1.336 1.336 0 000-2.672zM162.937 161.591a1.333 1.333 0 100-2.667 1.333 1.333 0 000 2.667zM157.597 161.591a1.334 1.334 0 100-2.669 1.334 1.334 0 000 2.669zM152.247 158.924c-.721 0-1.329.592-1.329 1.333 0 .737.608 1.339 1.329 1.339.752 0 1.349-.602 1.349-1.339 0-.741-.602-1.333-1.349-1.333zM146.918 161.591a1.333 1.333 0 100-2.667 1.333 1.333 0 000 2.667zM141.573 161.591a1.333 1.333 0 100-2.667 1.333 1.333 0 000 2.667zM130.893 167.469a1.338 1.338 0 10.001-2.677 1.338 1.338 0 00-.001 2.677zM136.233 167.469a1.339 1.339 0 100-2.678 1.339 1.339 0 000 2.678zM200.335 167.469a1.338 1.338 0 10.001-2.677 1.338 1.338 0 00-.001 2.677zM194.985 164.792a1.33 1.33 0 00-1.328 1.338 1.333 1.333 0 102.667 0c0-.736-.586-1.338-1.339-1.338zM189.646 167.469a1.338 1.338 0 100-2.676 1.338 1.338 0 000 2.676zM184.306 167.469a1.339 1.339 0 100-2.678 1.339 1.339 0 000 2.678zM178.971 164.792c-.742 0-1.349.602-1.349 1.338 0 .742.607 1.344 1.349 1.344.732 0 1.329-.602 1.329-1.344 0-.736-.597-1.338-1.329-1.338zM173.621 167.469a1.338 1.338 0 10.001-2.677 1.338 1.338 0 00-.001 2.677zM168.292 164.792a1.34 1.34 0 100 2.682c.732 0 1.328-.602 1.328-1.344a1.34 1.34 0 00-1.328-1.338zM162.937 167.469a1.338 1.338 0 100-2.676 1.338 1.338 0 000 2.676zM157.597 167.469a1.339 1.339 0 100-2.678 1.339 1.339 0 000 2.678zM152.247 164.792c-.721 0-1.329.602-1.329 1.338 0 .742.608 1.344 1.329 1.344.752 0 1.349-.602 1.349-1.344 0-.736-.602-1.338-1.349-1.338zM146.918 167.469a1.338 1.338 0 100-2.676 1.338 1.338 0 000 2.676zM141.573 167.469a1.338 1.338 0 100-2.676 1.338 1.338 0 000 2.676zM130.893 173.332a1.339 1.339 0 100-2.678 1.339 1.339 0 000 2.678zM136.233 173.332a1.34 1.34 0 10-.001-2.68 1.34 1.34 0 00.001 2.68zM200.335 173.332a1.339 1.339 0 100-2.678 1.339 1.339 0 000 2.678zM194.985 170.66a1.33 1.33 0 00-1.328 1.338c0 .742.586 1.339 1.328 1.339.753 0 1.339-.597 1.339-1.339 0-.736-.586-1.338-1.339-1.338zM189.646 173.332a1.339 1.339 0 10-.002-2.678 1.339 1.339 0 00.002 2.678zM184.306 173.332a1.34 1.34 0 10-.001-2.68 1.34 1.34 0 00.001 2.68zM178.971 170.66c-.742 0-1.349.602-1.349 1.338 0 .742.607 1.339 1.349 1.339.732 0 1.329-.597 1.329-1.339 0-.736-.597-1.338-1.329-1.338zM173.621 173.332a1.339 1.339 0 100-2.678 1.339 1.339 0 000 2.678zM168.292 170.66a1.337 1.337 0 100 2.677 1.34 1.34 0 000-2.677zM162.937 173.332a1.339 1.339 0 10-.002-2.678 1.339 1.339 0 00.002 2.678zM157.597 173.332a1.34 1.34 0 10-.001-2.68 1.34 1.34 0 00.001 2.68zM152.247 170.66c-.721 0-1.329.602-1.329 1.338a1.338 1.338 0 101.329-1.338zM146.918 173.332a1.339 1.339 0 10-.002-2.678 1.339 1.339 0 00.002 2.678zM141.573 173.332a1.339 1.339 0 10-.002-2.678 1.339 1.339 0 00.002 2.678zM130.893 179.194a1.333 1.333 0 10.001-2.667 1.333 1.333 0 00-.001 2.667zM136.233 179.194a1.334 1.334 0 100-2.668 1.334 1.334 0 000 2.668zM200.335 179.194a1.333 1.333 0 10.001-2.667 1.333 1.333 0 00-.001 2.667zM194.985 176.528c-.742 0-1.328.596-1.328 1.338 0 .737.586 1.334 1.328 1.334.753 0 1.339-.597 1.339-1.334 0-.742-.586-1.338-1.339-1.338zM189.646 179.194a1.333 1.333 0 100-2.667 1.333 1.333 0 000 2.667zM184.306 179.194a1.333 1.333 0 100-2.667 1.333 1.333 0 000 2.667zM178.971 176.528c-.742 0-1.349.596-1.349 1.338 0 .737.607 1.334 1.349 1.334.732 0 1.329-.597 1.329-1.334 0-.742-.597-1.338-1.329-1.338zM173.621 179.194a1.333 1.333 0 10.001-2.667 1.333 1.333 0 00-.001 2.667zM168.292 176.528a1.337 1.337 0 100 2.672 1.336 1.336 0 000-2.672zM162.937 179.194a1.333 1.333 0 100-2.667 1.333 1.333 0 000 2.667zM157.597 179.194a1.334 1.334 0 100-2.668 1.334 1.334 0 000 2.668zM152.247 176.528a1.34 1.34 0 00-1.329 1.338 1.34 1.34 0 002.678 0 1.34 1.34 0 00-1.349-1.338zM146.918 179.194a1.333 1.333 0 100-2.667 1.333 1.333 0 000 2.667zM141.573 179.194a1.333 1.333 0 100-2.667 1.333 1.333 0 000 2.667zM130.893 185.062a1.338 1.338 0 10.002-2.676 1.338 1.338 0 00-.002 2.676zM136.233 185.062a1.339 1.339 0 100-2.678 1.339 1.339 0 000 2.678zM200.335 185.062a1.338 1.338 0 10.002-2.676 1.338 1.338 0 00-.002 2.676zM194.985 182.38a1.33 1.33 0 00-1.328 1.344 1.33 1.33 0 001.328 1.338c.753 0 1.339-.602 1.339-1.338 0-.737-.586-1.344-1.339-1.344zM189.646 185.062a1.338 1.338 0 100-2.676 1.338 1.338 0 000 2.676zM184.306 185.062a1.339 1.339 0 100-2.678 1.339 1.339 0 000 2.678zM178.971 182.38c-.742 0-1.349.602-1.349 1.344 0 .736.607 1.338 1.349 1.338a1.341 1.341 0 000-2.682zM173.621 185.062a1.338 1.338 0 10.002-2.676 1.338 1.338 0 00-.002 2.676zM168.292 182.38a1.342 1.342 0 100 2.682c.732 0 1.328-.602 1.328-1.338 0-.737-.602-1.344-1.328-1.344zM162.937 185.062a1.338 1.338 0 100-2.676 1.338 1.338 0 000 2.676zM157.597 185.062a1.339 1.339 0 100-2.678 1.339 1.339 0 000 2.678zM152.247 182.38c-.721 0-1.329.602-1.329 1.344 0 .736.608 1.338 1.329 1.338.752 0 1.349-.602 1.349-1.338 0-.737-.602-1.344-1.349-1.344zM146.918 185.062a1.338 1.338 0 100-2.676 1.338 1.338 0 000 2.676zM141.573 185.062a1.338 1.338 0 100-2.676 1.338 1.338 0 000 2.676zM130.893 190.925a1.339 1.339 0 100-2.678 1.339 1.339 0 000 2.678zM136.233 190.925a1.34 1.34 0 10-.001-2.68 1.34 1.34 0 00.001 2.68zM200.335 190.925a1.339 1.339 0 100-2.678 1.339 1.339 0 000 2.678zM194.985 188.248a1.33 1.33 0 00-1.328 1.343c0 .737.586 1.334 1.328 1.334.753 0 1.339-.597 1.339-1.334 0-.736-.586-1.343-1.339-1.343zM189.646 190.925a1.339 1.339 0 10-.002-2.678 1.339 1.339 0 00.002 2.678zM184.306 190.925a1.34 1.34 0 10-.001-2.68 1.34 1.34 0 00.001 2.68zM178.971 188.248c-.742 0-1.349.602-1.349 1.343 0 .737.607 1.334 1.349 1.334.732 0 1.329-.597 1.329-1.334 0-.736-.597-1.343-1.329-1.343zM173.621 190.925a1.339 1.339 0 100-2.678 1.339 1.339 0 000 2.678zM168.292 188.248c-.753 0-1.349.602-1.349 1.343 0 .737.596 1.334 1.349 1.334.732 0 1.328-.597 1.328-1.334 0-.736-.602-1.343-1.328-1.343zM162.937 190.925a1.339 1.339 0 10-.002-2.678 1.339 1.339 0 00.002 2.678zM157.597 190.925a1.34 1.34 0 10-.001-2.68 1.34 1.34 0 00.001 2.68zM152.247 188.248c-.721 0-1.329.602-1.329 1.343a1.34 1.34 0 002.678 0c0-.736-.602-1.343-1.349-1.343zM146.918 190.925a1.339 1.339 0 10-.002-2.678 1.339 1.339 0 00.002 2.678zM141.573 190.925a1.339 1.339 0 10-.002-2.678 1.339 1.339 0 00.002 2.678zM130.893 196.787a1.333 1.333 0 10.001-2.667 1.333 1.333 0 00-.001 2.667zM136.233 196.787a1.334 1.334 0 100-2.668 1.334 1.334 0 000 2.668zM200.335 196.787a1.333 1.333 0 10.001-2.667 1.333 1.333 0 00-.001 2.667zM194.985 194.121c-.742 0-1.328.596-1.328 1.333 0 .742.586 1.333 1.328 1.333.753 0 1.339-.591 1.339-1.333 0-.737-.586-1.333-1.339-1.333zM189.646 196.787a1.333 1.333 0 100-2.667 1.333 1.333 0 000 2.667zM184.306 196.787a1.333 1.333 0 100-2.667 1.333 1.333 0 000 2.667zM178.971 194.121c-.742 0-1.349.596-1.349 1.333a1.34 1.34 0 001.349 1.333c.732 0 1.329-.591 1.329-1.333 0-.737-.597-1.333-1.329-1.333zM173.621 196.787a1.333 1.333 0 10.001-2.667 1.333 1.333 0 00-.001 2.667zM168.292 194.121a1.332 1.332 0 100 2.666c.732 0 1.328-.591 1.328-1.333 0-.737-.602-1.333-1.328-1.333zM162.937 196.787a1.333 1.333 0 100-2.667 1.333 1.333 0 000 2.667zM157.597 196.787a1.334 1.334 0 100-2.668 1.334 1.334 0 000 2.668zM152.247 194.121c-.721 0-1.329.596-1.329 1.333 0 .742.608 1.333 1.329 1.333.752 0 1.349-.591 1.349-1.333a1.34 1.34 0 00-1.349-1.333zM146.918 196.787a1.333 1.333 0 100-2.667 1.333 1.333 0 000 2.667zM141.573 196.787a1.333 1.333 0 100-2.667 1.333 1.333 0 000 2.667zM130.893 202.655a1.338 1.338 0 10.002-2.676 1.338 1.338 0 00-.002 2.676zM136.233 202.655a1.339 1.339 0 100-2.678 1.339 1.339 0 000 2.678zM200.335 202.655a1.338 1.338 0 10.002-2.676 1.338 1.338 0 00-.002 2.676zM194.985 199.978c-.742 0-1.328.597-1.328 1.334a1.33 1.33 0 001.328 1.343c.753 0 1.339-.602 1.339-1.343 0-.737-.586-1.334-1.339-1.334zM189.646 202.655a1.338 1.338 0 100-2.676 1.338 1.338 0 000 2.676zM184.306 202.655a1.339 1.339 0 100-2.678 1.339 1.339 0 000 2.678zM178.971 199.978c-.742 0-1.349.597-1.349 1.334 0 .741.607 1.343 1.349 1.343.732 0 1.329-.602 1.329-1.343 0-.737-.597-1.334-1.329-1.334zM173.621 202.655a1.338 1.338 0 10.002-2.676 1.338 1.338 0 00-.002 2.676zM168.292 199.978c-.753 0-1.349.597-1.349 1.334 0 .741.596 1.343 1.349 1.343.732 0 1.328-.602 1.328-1.343 0-.737-.602-1.334-1.328-1.334zM162.937 202.655a1.338 1.338 0 100-2.676 1.338 1.338 0 000 2.676zM157.597 202.655a1.339 1.339 0 100-2.678 1.339 1.339 0 000 2.678zM152.247 199.978a1.34 1.34 0 00-1.329 1.334c0 .741.608 1.343 1.329 1.343.752 0 1.349-.602 1.349-1.343a1.34 1.34 0 00-1.349-1.334zM146.918 202.655a1.338 1.338 0 100-2.676 1.338 1.338 0 000 2.676zM141.573 202.655a1.338 1.338 0 100-2.676 1.338 1.338 0 000 2.676zM130.893 114.685a1.339 1.339 0 100-2.678 1.339 1.339 0 000 2.678zM136.233 114.685a1.34 1.34 0 10-.001-2.68 1.34 1.34 0 00.001 2.68zM200.335 114.685a1.339 1.339 0 100-2.678 1.339 1.339 0 000 2.678zM194.985 112.007a1.33 1.33 0 00-1.328 1.339c0 .737.586 1.333 1.328 1.333.753 0 1.339-.596 1.339-1.333s-.586-1.339-1.339-1.339zM189.646 114.685a1.339 1.339 0 10-.002-2.678 1.339 1.339 0 00.002 2.678zM184.306 114.685a1.34 1.34 0 10-.001-2.68 1.34 1.34 0 00.001 2.68zM178.971 112.007c-.742 0-1.349.602-1.349 1.339s.607 1.333 1.349 1.333a1.337 1.337 0 000-2.672zM173.621 114.685a1.339 1.339 0 100-2.678 1.339 1.339 0 000 2.678zM168.292 112.007a1.336 1.336 0 100 2.672 1.33 1.33 0 001.328-1.333 1.34 1.34 0 00-1.328-1.339zM162.937 114.685a1.339 1.339 0 10-.002-2.678 1.339 1.339 0 00.002 2.678zM157.597 114.685a1.34 1.34 0 10-.001-2.68 1.34 1.34 0 00.001 2.68zM152.247 112.007c-.721 0-1.329.602-1.329 1.339a1.339 1.339 0 002.678 0c0-.737-.602-1.339-1.349-1.339zM146.918 114.685a1.339 1.339 0 10-.002-2.678 1.339 1.339 0 00.002 2.678zM141.573 114.685a1.339 1.339 0 10-.002-2.678 1.339 1.339 0 00.002 2.678zM130.893 208.513a1.334 1.334 0 100-2.667 1.334 1.334 0 000 2.667zM136.233 208.513a1.334 1.334 0 100-2.669 1.334 1.334 0 000 2.669zM200.335 208.513a1.334 1.334 0 100-2.667 1.334 1.334 0 000 2.667zM194.985 205.846c-.742 0-1.328.597-1.328 1.333 0 .742.586 1.339 1.328 1.339.753 0 1.339-.597 1.339-1.339 0-.736-.586-1.333-1.339-1.333zM189.646 208.513a1.333 1.333 0 100-2.667 1.333 1.333 0 000 2.667zM184.306 208.513a1.333 1.333 0 100-2.667 1.333 1.333 0 000 2.667zM178.971 205.846c-.742 0-1.349.597-1.349 1.333 0 .742.607 1.339 1.349 1.339.732 0 1.329-.597 1.329-1.339 0-.736-.597-1.333-1.329-1.333zM173.621 208.513a1.334 1.334 0 100-2.667 1.334 1.334 0 000 2.667zM168.292 205.846a1.336 1.336 0 100 2.672c.732 0 1.328-.597 1.328-1.339 0-.736-.602-1.333-1.328-1.333zM162.937 208.513a1.333 1.333 0 100-2.667 1.333 1.333 0 000 2.667zM157.597 208.513a1.334 1.334 0 100-2.669 1.334 1.334 0 000 2.669zM152.247 205.846a1.34 1.34 0 00-1.329 1.333 1.338 1.338 0 102.678 0 1.34 1.34 0 00-1.349-1.333zM146.918 208.513a1.333 1.333 0 100-2.667 1.333 1.333 0 000 2.667zM141.573 208.513a1.333 1.333 0 100-2.667 1.333 1.333 0 000 2.667zM130.893 214.381a1.339 1.339 0 100-2.678 1.339 1.339 0 000 2.678zM136.233 214.381a1.34 1.34 0 10-.001-2.68 1.34 1.34 0 00.001 2.68zM200.335 214.381a1.339 1.339 0 100-2.678 1.339 1.339 0 000 2.678zM194.985 211.703a1.33 1.33 0 00-1.328 1.344 1.33 1.33 0 001.328 1.339c.753 0 1.339-.602 1.339-1.339 0-.742-.586-1.344-1.339-1.344zM189.646 214.381a1.339 1.339 0 10-.002-2.678 1.339 1.339 0 00.002 2.678zM184.306 214.381a1.34 1.34 0 10-.001-2.68 1.34 1.34 0 00.001 2.68zM178.971 211.703c-.742 0-1.349.602-1.349 1.344 0 .737.607 1.339 1.349 1.339.732 0 1.329-.602 1.329-1.339 0-.742-.597-1.344-1.329-1.344zM173.621 214.381a1.339 1.339 0 100-2.678 1.339 1.339 0 000 2.678zM168.292 211.703a1.342 1.342 0 100 2.683c.732 0 1.328-.602 1.328-1.339 0-.742-.602-1.344-1.328-1.344zM162.937 214.381a1.339 1.339 0 10-.002-2.678 1.339 1.339 0 00.002 2.678zM157.597 214.381a1.34 1.34 0 10-.001-2.68 1.34 1.34 0 00.001 2.68zM152.247 211.703c-.721 0-1.329.602-1.329 1.344 0 .737.608 1.339 1.329 1.339a1.341 1.341 0 100-2.683zM146.918 214.381a1.339 1.339 0 10-.002-2.678 1.339 1.339 0 00.002 2.678zM141.573 214.381a1.339 1.339 0 10-.002-2.678 1.339 1.339 0 00.002 2.678zM130.893 220.243a1.338 1.338 0 10.002-2.676 1.338 1.338 0 00-.002 2.676zM136.233 220.243a1.339 1.339 0 100-2.678 1.339 1.339 0 000 2.678zM200.335 220.243a1.338 1.338 0 10.002-2.676 1.338 1.338 0 00-.002 2.676zM194.985 217.571a1.33 1.33 0 00-1.328 1.344c0 .737.586 1.333 1.328 1.333.753 0 1.339-.596 1.339-1.333 0-.742-.586-1.344-1.339-1.344zM189.646 220.243a1.338 1.338 0 100-2.676 1.338 1.338 0 000 2.676zM184.306 220.243a1.339 1.339 0 100-2.678 1.339 1.339 0 000 2.678zM178.971 217.571c-.742 0-1.349.602-1.349 1.344 0 .737.607 1.333 1.349 1.333.732 0 1.329-.596 1.329-1.333 0-.742-.597-1.344-1.329-1.344zM173.621 220.243a1.338 1.338 0 10.002-2.676 1.338 1.338 0 00-.002 2.676zM168.292 217.571c-.753 0-1.349.602-1.349 1.344 0 .737.596 1.333 1.349 1.333a1.33 1.33 0 001.328-1.333c0-.742-.602-1.344-1.328-1.344zM162.937 220.243a1.338 1.338 0 100-2.676 1.338 1.338 0 000 2.676zM157.597 220.243a1.339 1.339 0 100-2.678 1.339 1.339 0 000 2.678zM152.247 217.571c-.721 0-1.329.602-1.329 1.344a1.339 1.339 0 002.678 0c0-.742-.602-1.344-1.349-1.344zM146.918 220.243a1.338 1.338 0 100-2.676 1.338 1.338 0 000 2.676zM141.573 220.243a1.338 1.338 0 100-2.676 1.338 1.338 0 000 2.676zM130.893 226.106a1.334 1.334 0 100-2.667 1.334 1.334 0 000 2.667zM136.233 226.106a1.334 1.334 0 100-2.669 1.334 1.334 0 000 2.669zM200.335 226.106a1.334 1.334 0 100-2.667 1.334 1.334 0 000 2.667zM194.985 223.439c-.742 0-1.328.597-1.328 1.339 0 .736.586 1.333 1.328 1.333.753 0 1.339-.597 1.339-1.333 0-.742-.586-1.339-1.339-1.339zM189.646 226.106a1.333 1.333 0 100-2.667 1.333 1.333 0 000 2.667zM184.306 226.106a1.333 1.333 0 100-2.667 1.333 1.333 0 000 2.667zM178.971 223.439c-.742 0-1.349.597-1.349 1.339 0 .736.607 1.333 1.349 1.333.732 0 1.329-.597 1.329-1.333 0-.742-.597-1.339-1.329-1.339zM173.621 226.106a1.334 1.334 0 100-2.667 1.334 1.334 0 000 2.667zM168.292 223.439a1.336 1.336 0 100 2.672 1.337 1.337 0 000-2.672zM162.937 226.106a1.333 1.333 0 100-2.667 1.333 1.333 0 000 2.667zM157.597 226.106a1.334 1.334 0 100-2.669 1.334 1.334 0 000 2.669zM152.247 223.439a1.34 1.34 0 00-1.329 1.339 1.34 1.34 0 002.678 0c0-.742-.602-1.339-1.349-1.339zM146.918 226.106a1.333 1.333 0 100-2.667 1.333 1.333 0 000 2.667zM141.573 226.106a1.333 1.333 0 100-2.667 1.333 1.333 0 000 2.667zM130.893 231.968a1.333 1.333 0 10.001-2.667 1.333 1.333 0 00-.001 2.667zM136.233 231.968a1.334 1.334 0 100-2.668 1.334 1.334 0 000 2.668zM200.335 231.968a1.333 1.333 0 10.001-2.667 1.333 1.333 0 00-.001 2.667zM194.985 229.297c-.742 0-1.328.591-1.328 1.333s.586 1.338 1.328 1.338c.753 0 1.339-.596 1.339-1.338 0-.742-.586-1.333-1.339-1.333zM189.646 231.968a1.333 1.333 0 100-2.667 1.333 1.333 0 000 2.667zM184.306 231.968a1.333 1.333 0 100-2.667 1.333 1.333 0 000 2.667zM178.971 229.297a1.34 1.34 0 00-1.349 1.333c0 .742.607 1.338 1.349 1.338.732 0 1.329-.596 1.329-1.338 0-.742-.597-1.333-1.329-1.333zM173.621 231.968a1.333 1.333 0 10.001-2.667 1.333 1.333 0 00-.001 2.667zM168.292 229.297a1.337 1.337 0 100 2.671c.732 0 1.328-.596 1.328-1.338 0-.742-.602-1.333-1.328-1.333zM162.937 231.968a1.333 1.333 0 100-2.667 1.333 1.333 0 000 2.667zM157.597 231.968a1.334 1.334 0 100-2.668 1.334 1.334 0 000 2.668zM152.247 229.297a1.336 1.336 0 000 2.671 1.336 1.336 0 100-2.671zM146.918 231.968a1.333 1.333 0 100-2.667 1.333 1.333 0 000 2.667zM141.573 231.968a1.333 1.333 0 100-2.667 1.333 1.333 0 000 2.667zM130.893 237.836a1.333 1.333 0 10.001-2.667 1.333 1.333 0 00-.001 2.667zM136.233 237.836a1.334 1.334 0 100-2.668 1.334 1.334 0 000 2.668zM200.335 237.836a1.333 1.333 0 10.001-2.667 1.333 1.333 0 00-.001 2.667zM194.985 235.164c-.742 0-1.328.597-1.328 1.334 0 .742.586 1.338 1.328 1.338.753 0 1.339-.596 1.339-1.338a1.33 1.33 0 00-1.339-1.334zM189.646 237.836a1.333 1.333 0 100-2.667 1.333 1.333 0 000 2.667zM184.306 237.836a1.333 1.333 0 100-2.667 1.333 1.333 0 000 2.667zM178.971 235.164c-.742 0-1.349.597-1.349 1.334 0 .742.607 1.338 1.349 1.338a1.336 1.336 0 000-2.672zM173.621 237.836a1.333 1.333 0 10.001-2.667 1.333 1.333 0 00-.001 2.667zM168.292 235.164a1.336 1.336 0 100 2.672c.732 0 1.328-.596 1.328-1.338 0-.732-.602-1.334-1.328-1.334zM162.937 237.836a1.333 1.333 0 100-2.667 1.333 1.333 0 000 2.667zM157.597 237.836a1.334 1.334 0 100-2.668 1.334 1.334 0 000 2.668zM152.247 235.164a1.34 1.34 0 00-1.329 1.334 1.34 1.34 0 002.678 0c0-.732-.602-1.334-1.349-1.334zM146.918 237.836a1.333 1.333 0 100-2.667 1.333 1.333 0 000 2.667zM141.573 237.836a1.333 1.333 0 100-2.667 1.333 1.333 0 000 2.667zM130.893 243.699a1.338 1.338 0 10.001-2.677 1.338 1.338 0 00-.001 2.677zM136.233 243.699a1.339 1.339 0 100-2.678 1.339 1.339 0 000 2.678zM200.335 243.699a1.338 1.338 0 10.001-2.677 1.338 1.338 0 00-.001 2.677zM194.985 241.022a1.33 1.33 0 00-1.328 1.338 1.333 1.333 0 102.667 0c0-.736-.586-1.338-1.339-1.338zM189.646 243.699a1.338 1.338 0 100-2.676 1.338 1.338 0 000 2.676zM184.306 243.699a1.339 1.339 0 100-2.678 1.339 1.339 0 000 2.678zM178.971 241.022c-.742 0-1.349.602-1.349 1.338 0 .742.607 1.344 1.349 1.344.732 0 1.329-.602 1.329-1.344 0-.736-.597-1.338-1.329-1.338zM173.621 243.699a1.338 1.338 0 10.001-2.677 1.338 1.338 0 00-.001 2.677zM168.292 241.022a1.34 1.34 0 100 2.682c.732 0 1.328-.602 1.328-1.344a1.34 1.34 0 00-1.328-1.338zM162.937 243.699a1.338 1.338 0 100-2.676 1.338 1.338 0 000 2.676zM157.597 243.699a1.339 1.339 0 100-2.678 1.339 1.339 0 000 2.678zM152.247 241.022c-.721 0-1.329.602-1.329 1.338 0 .742.608 1.344 1.329 1.344.752 0 1.349-.602 1.349-1.344 0-.736-.602-1.338-1.349-1.338zM146.918 243.699a1.338 1.338 0 100-2.676 1.338 1.338 0 000 2.676zM141.573 243.699a1.338 1.338 0 100-2.676 1.338 1.338 0 000 2.676zM87.719 20.846a1.339 1.339 0 100-2.677 1.339 1.339 0 000 2.677zM82.384 18.174c-.742 0-1.349.597-1.349 1.334 0 .736.607 1.338 1.35 1.338.731 0 1.328-.602 1.328-1.338 0-.742-.597-1.334-1.329-1.334zM77.04 20.846a1.339 1.339 0 100-2.677 1.339 1.339 0 000 2.677zM71.695 20.846a1.339 1.339 0 100-2.678 1.339 1.339 0 000 2.678zM66.355 20.846a1.339 1.339 0 100-2.678 1.339 1.339 0 000 2.678zM61.015 20.846a1.339 1.339 0 100-2.678 1.339 1.339 0 000 2.678zM93.064 26.709a1.339 1.339 0 100-2.678 1.339 1.339 0 000 2.678zM87.719 26.709a1.339 1.339 0 100-2.678 1.339 1.339 0 000 2.678zM82.384 24.032c-.742 0-1.349.596-1.349 1.333s.607 1.338 1.35 1.338a1.337 1.337 0 000-2.671zM77.04 26.709a1.339 1.339 0 100-2.678 1.339 1.339 0 000 2.678zM71.695 26.709a1.339 1.339 0 100-2.678 1.339 1.339 0 000 2.678zM66.355 26.709a1.339 1.339 0 100-2.678 1.339 1.339 0 000 2.678zM61.015 26.709a1.339 1.339 0 100-2.678 1.339 1.339 0 000 2.678zM55.67 26.709a1.339 1.339 0 100-2.678 1.339 1.339 0 000 2.678zM50.33 26.709a1.339 1.339 0 10.001-2.678 1.339 1.339 0 000 2.678zM44.986 26.709a1.339 1.339 0 100-2.678 1.339 1.339 0 000 2.678zM103.738 29.894a1.336 1.336 0 000 2.672c.752 0 1.349-.597 1.349-1.333 0-.737-.597-1.339-1.349-1.339zM98.398 32.571a1.339 1.339 0 100-2.677 1.339 1.339 0 000 2.677zM93.064 32.571a1.339 1.339 0 100-2.677 1.339 1.339 0 000 2.677zM87.719 32.571a1.339 1.339 0 100-2.677 1.339 1.339 0 000 2.677zM82.384 29.894c-.742 0-1.349.602-1.349 1.339 0 .736.607 1.333 1.35 1.333a1.336 1.336 0 000-2.672zM77.04 32.571a1.339 1.339 0 100-2.677 1.339 1.339 0 000 2.677zM71.695 32.571a1.339 1.339 0 100-2.677 1.339 1.339 0 000 2.677zM66.355 32.571a1.339 1.339 0 100-2.677 1.339 1.339 0 000 2.677zM61.015 32.571a1.339 1.339 0 100-2.677 1.339 1.339 0 000 2.677zM55.67 32.571a1.339 1.339 0 100-2.677 1.339 1.339 0 000 2.677zM50.33 32.571a1.339 1.339 0 100-2.677 1.339 1.339 0 000 2.677zM44.986 32.571a1.339 1.339 0 100-2.677 1.339 1.339 0 000 2.677zM119.778 38.44a1.34 1.34 0 100-2.68 1.34 1.34 0 000 2.68zM114.428 38.44a1.34 1.34 0 100-2.68 1.34 1.34 0 000 2.68zM109.083 38.44a1.34 1.34 0 100-2.68 1.34 1.34 0 000 2.68zM103.738 35.767c-.732 0-1.328.597-1.328 1.334 0 .736.596 1.338 1.328 1.338.752 0 1.349-.602 1.349-1.338 0-.737-.597-1.334-1.349-1.334zM98.398 38.44a1.339 1.339 0 100-2.678 1.339 1.339 0 000 2.677zM93.064 38.44a1.339 1.339 0 100-2.678 1.339 1.339 0 000 2.677zM87.719 38.44a1.339 1.339 0 100-2.678 1.339 1.339 0 000 2.677zM82.384 35.767c-.742 0-1.349.597-1.349 1.334 0 .736.607 1.338 1.35 1.338a1.336 1.336 0 000-2.672zM77.04 38.44a1.339 1.339 0 100-2.678 1.339 1.339 0 000 2.677zM71.695 38.44a1.339 1.339 0 100-2.678 1.339 1.339 0 000 2.677zM66.355 38.44a1.339 1.339 0 100-2.678 1.339 1.339 0 000 2.677zM61.015 38.44a1.339 1.339 0 100-2.678 1.339 1.339 0 000 2.677zM55.67 38.44a1.339 1.339 0 100-2.678 1.339 1.339 0 000 2.677zM50.33 38.44a1.339 1.339 0 100-2.678 1.339 1.339 0 000 2.677zM44.986 38.44a1.339 1.339 0 100-2.678 1.339 1.339 0 000 2.677zM39.646 38.44a1.339 1.339 0 100-2.678 1.339 1.339 0 000 2.677zM119.778 44.302a1.339 1.339 0 100-2.678 1.339 1.339 0 000 2.678zM114.428 44.302a1.339 1.339 0 100-2.678 1.339 1.339 0 000 2.678zM109.083 44.302a1.339 1.339 0 100-2.678 1.339 1.339 0 000 2.678zM103.738 41.63a1.336 1.336 0 000 2.672c.752 0 1.349-.597 1.349-1.334 0-.736-.597-1.338-1.349-1.338zM98.398 44.302a1.339 1.339 0 100-2.678 1.339 1.339 0 000 2.678zM93.064 44.302a1.339 1.339 0 100-2.678 1.339 1.339 0 000 2.678zM87.719 44.302a1.339 1.339 0 100-2.678 1.339 1.339 0 000 2.678zM82.384 41.63c-.742 0-1.349.602-1.349 1.338 0 .737.607 1.334 1.35 1.334a1.337 1.337 0 000-2.672zM77.04 44.302a1.339 1.339 0 100-2.678 1.339 1.339 0 000 2.678zM71.695 44.302a1.339 1.339 0 100-2.678 1.339 1.339 0 000 2.678zM66.355 44.302a1.339 1.339 0 100-2.678 1.339 1.339 0 000 2.678zM61.015 44.302a1.339 1.339 0 100-2.678 1.339 1.339 0 000 2.678zM55.67 44.302a1.339 1.339 0 100-2.678 1.339 1.339 0 000 2.678zM50.33 44.302a1.339 1.339 0 10.001-2.678 1.339 1.339 0 000 2.678zM44.986 44.302a1.339 1.339 0 100-2.678 1.339 1.339 0 000 2.678zM39.646 44.302a1.339 1.339 0 100-2.678 1.339 1.339 0 000 2.678zM34.306 44.302a1.339 1.339 0 100-2.678 1.339 1.339 0 000 2.678zM125.107 44.302a1.338 1.338 0 10.001-2.677 1.338 1.338 0 00-.001 2.677zM119.778 50.17a1.34 1.34 0 100-2.679 1.34 1.34 0 000 2.679zM114.428 50.17a1.34 1.34 0 100-2.679 1.34 1.34 0 000 2.679zM109.083 50.17a1.34 1.34 0 100-2.679 1.34 1.34 0 000 2.679zM103.738 47.492c-.732 0-1.328.597-1.328 1.334 0 .737.596 1.338 1.328 1.338.752 0 1.349-.601 1.349-1.338 0-.737-.597-1.334-1.349-1.334zM98.398 50.17a1.339 1.339 0 100-2.678 1.339 1.339 0 000 2.678zM93.064 50.17a1.339 1.339 0 100-2.678 1.339 1.339 0 000 2.678zM87.719 50.17a1.339 1.339 0 100-2.678 1.339 1.339 0 000 2.678zM82.384 47.492c-.742 0-1.349.597-1.349 1.334 0 .737.607 1.338 1.35 1.338a1.336 1.336 0 000-2.672zM77.04 50.17a1.339 1.339 0 100-2.678 1.339 1.339 0 000 2.678zM71.695 50.17a1.339 1.339 0 100-2.678 1.339 1.339 0 000 2.678zM66.355 50.17a1.339 1.339 0 100-2.678 1.339 1.339 0 000 2.678zM61.015 50.17a1.339 1.339 0 100-2.678 1.339 1.339 0 000 2.678zM55.67 50.17a1.339 1.339 0 100-2.678 1.339 1.339 0 000 2.678zM50.33 50.17a1.339 1.339 0 100-2.678 1.339 1.339 0 000 2.678zM44.986 50.17a1.339 1.339 0 100-2.678 1.339 1.339 0 000 2.678zM39.646 50.17a1.339 1.339 0 100-2.678 1.339 1.339 0 000 2.678zM34.306 50.17a1.339 1.339 0 100-2.678 1.339 1.339 0 000 2.678zM28.962 50.17a1.339 1.339 0 100-2.678 1.339 1.339 0 000 2.678zM125.107 50.17a1.338 1.338 0 10.001-2.677 1.338 1.338 0 00-.001 2.677zM119.778 56.032a1.34 1.34 0 100-2.678 1.34 1.34 0 000 2.678zM114.428 56.032a1.34 1.34 0 100-2.678 1.34 1.34 0 000 2.678zM109.083 56.032a1.34 1.34 0 100-2.678 1.34 1.34 0 000 2.678zM103.738 53.36c-.732 0-1.328.597-1.328 1.334 0 .736.596 1.338 1.328 1.338.752 0 1.349-.602 1.349-1.338 0-.737-.597-1.334-1.349-1.334zM98.398 56.032a1.339 1.339 0 100-2.677 1.339 1.339 0 000 2.677zM93.064 56.032a1.339 1.339 0 100-2.677 1.339 1.339 0 000 2.677zM87.719 56.032a1.339 1.339 0 100-2.677 1.339 1.339 0 000 2.677zM82.384 53.36c-.742 0-1.349.597-1.349 1.334 0 .736.607 1.338 1.35 1.338a1.336 1.336 0 000-2.672zM77.04 56.032a1.339 1.339 0 100-2.677 1.339 1.339 0 000 2.677zM71.695 56.032a1.339 1.339 0 100-2.677 1.339 1.339 0 000 2.677zM66.355 56.032a1.339 1.339 0 100-2.677 1.339 1.339 0 000 2.677zM61.015 56.032a1.339 1.339 0 100-2.677 1.339 1.339 0 000 2.677zM55.67 56.032a1.339 1.339 0 100-2.677 1.339 1.339 0 000 2.677zM50.33 56.032a1.339 1.339 0 100-2.677 1.339 1.339 0 000 2.677zM44.986 56.032a1.339 1.339 0 100-2.677 1.339 1.339 0 000 2.677zM39.646 56.032a1.339 1.339 0 100-2.677 1.339 1.339 0 000 2.677zM34.306 56.032a1.339 1.339 0 100-2.677 1.339 1.339 0 000 2.677zM28.962 56.032a1.339 1.339 0 100-2.677 1.339 1.339 0 000 2.677zM23.617 56.032a1.339 1.339 0 100-2.677 1.339 1.339 0 000 2.677zM125.107 56.032a1.338 1.338 0 10.001-2.677 1.338 1.338 0 00-.001 2.677zM119.778 61.895a1.34 1.34 0 100-2.678 1.34 1.34 0 000 2.678zM114.428 61.895a1.34 1.34 0 100-2.678 1.34 1.34 0 000 2.678zM109.083 61.895a1.34 1.34 0 100-2.678 1.34 1.34 0 000 2.678zM103.738 59.223a1.336 1.336 0 000 2.672c.752 0 1.349-.597 1.349-1.334 0-.736-.597-1.338-1.349-1.338zM98.398 61.895a1.339 1.339 0 100-2.678 1.339 1.339 0 000 2.678zM93.064 61.895a1.339 1.339 0 100-2.677 1.339 1.339 0 000 2.677zM87.719 61.895a1.339 1.339 0 100-2.678 1.339 1.339 0 000 2.678zM82.384 59.223c-.742 0-1.349.602-1.349 1.339 0 .736.607 1.333 1.35 1.333a1.337 1.337 0 000-2.672zM77.04 61.895a1.339 1.339 0 100-2.677 1.339 1.339 0 000 2.677zM71.695 61.895a1.339 1.339 0 100-2.678 1.339 1.339 0 000 2.678zM66.355 61.895a1.339 1.339 0 100-2.678 1.339 1.339 0 000 2.678zM61.015 61.895a1.339 1.339 0 100-2.678 1.339 1.339 0 000 2.678zM55.67 61.895a1.339 1.339 0 100-2.678 1.339 1.339 0 000 2.678zM50.33 61.895a1.339 1.339 0 100-2.678 1.339 1.339 0 000 2.678zM44.986 61.895a1.339 1.339 0 100-2.677 1.339 1.339 0 000 2.677zM39.646 61.895a1.339 1.339 0 100-2.678 1.339 1.339 0 000 2.678zM34.306 61.895a1.339 1.339 0 100-2.678 1.339 1.339 0 000 2.678zM28.962 61.895a1.339 1.339 0 100-2.677 1.339 1.339 0 000 2.677zM23.617 61.895a1.339 1.339 0 100-2.677 1.339 1.339 0 000 2.677zM18.272 61.895a1.339 1.339 0 100-2.677 1.339 1.339 0 000 2.677zM125.107 61.895a1.338 1.338 0 10.001-2.677 1.338 1.338 0 00-.001 2.677zM119.778 67.768a1.34 1.34 0 100-2.678 1.34 1.34 0 000 2.678zM114.428 67.768a1.34 1.34 0 100-2.678 1.34 1.34 0 000 2.678zM109.083 67.768a1.34 1.34 0 100-2.678 1.34 1.34 0 000 2.678zM103.738 65.09c-.732 0-1.328.597-1.328 1.334 0 .737.596 1.339 1.328 1.339.752 0 1.349-.602 1.349-1.339s-.597-1.333-1.349-1.333zM98.398 67.768a1.339 1.339 0 100-2.678 1.339 1.339 0 000 2.678zM93.064 67.768a1.339 1.339 0 100-2.677 1.339 1.339 0 000 2.677zM87.719 67.768a1.339 1.339 0 100-2.678 1.339 1.339 0 000 2.678zM82.384 65.09c-.742 0-1.349.597-1.349 1.334 0 .737.607 1.339 1.35 1.339a1.337 1.337 0 000-2.672zM77.04 67.768a1.339 1.339 0 100-2.677 1.339 1.339 0 000 2.677zM71.695 67.768a1.339 1.339 0 100-2.678 1.339 1.339 0 000 2.678zM66.355 67.768a1.339 1.339 0 100-2.678 1.339 1.339 0 000 2.678zM61.015 67.768a1.339 1.339 0 100-2.678 1.339 1.339 0 000 2.678zM55.67 67.768a1.339 1.339 0 100-2.678 1.339 1.339 0 000 2.678zM50.33 67.768a1.339 1.339 0 100-2.678 1.339 1.339 0 000 2.678zM44.986 67.768a1.339 1.339 0 100-2.677 1.339 1.339 0 000 2.677zM39.646 67.768a1.339 1.339 0 100-2.678 1.339 1.339 0 000 2.678zM34.306 67.768a1.339 1.339 0 100-2.678 1.339 1.339 0 000 2.678zM28.962 67.768a1.339 1.339 0 100-2.677 1.339 1.339 0 000 2.677zM23.617 67.768a1.339 1.339 0 100-2.677 1.339 1.339 0 000 2.677zM18.272 67.768a1.339 1.339 0 100-2.677 1.339 1.339 0 000 2.677zM12.937 67.768a1.339 1.339 0 100-2.677 1.339 1.339 0 000 2.677zM125.107 67.768a1.338 1.338 0 10.001-2.677 1.338 1.338 0 00-.001 2.677zM119.778 73.63a1.34 1.34 0 100-2.678 1.34 1.34 0 000 2.678zM114.428 73.63a1.34 1.34 0 100-2.678 1.34 1.34 0 000 2.678zM109.083 73.63a1.34 1.34 0 100-2.678 1.34 1.34 0 000 2.678zM103.738 70.953a1.336 1.336 0 000 2.672c.752 0 1.349-.596 1.349-1.333s-.597-1.339-1.349-1.339zM98.398 73.63a1.339 1.339 0 100-2.677 1.339 1.339 0 000 2.677zM93.064 73.63a1.339 1.339 0 100-2.677 1.339 1.339 0 000 2.677zM87.719 73.63a1.339 1.339 0 100-2.677 1.339 1.339 0 000 2.677zM82.384 70.953c-.742 0-1.349.602-1.349 1.339s.607 1.333 1.35 1.333a1.336 1.336 0 000-2.672zM77.04 73.63a1.339 1.339 0 100-2.677 1.339 1.339 0 000 2.677zM71.695 73.63a1.339 1.339 0 100-2.677 1.339 1.339 0 000 2.677zM66.355 73.63a1.339 1.339 0 100-2.677 1.339 1.339 0 000 2.677zM61.015 73.63a1.339 1.339 0 100-2.677 1.339 1.339 0 000 2.677zM55.67 73.63a1.339 1.339 0 100-2.677 1.339 1.339 0 000 2.677zM50.33 73.63a1.339 1.339 0 100-2.677 1.339 1.339 0 000 2.677zM44.986 73.63a1.339 1.339 0 100-2.677 1.339 1.339 0 000 2.677zM39.646 73.63a1.339 1.339 0 100-2.677 1.339 1.339 0 000 2.677zM34.306 73.63a1.339 1.339 0 100-2.677 1.339 1.339 0 000 2.677zM28.962 73.63a1.339 1.339 0 100-2.677 1.339 1.339 0 000 2.677zM23.617 73.63a1.339 1.339 0 100-2.677 1.339 1.339 0 000 2.677zM18.272 73.63a1.339 1.339 0 100-2.677 1.339 1.339 0 000 2.677zM125.107 73.63a1.338 1.338 0 10.001-2.676 1.338 1.338 0 00-.001 2.677zM119.778 79.498a1.34 1.34 0 100-2.678 1.34 1.34 0 000 2.678zM114.428 79.498a1.34 1.34 0 100-2.678 1.34 1.34 0 000 2.678zM109.083 79.498a1.34 1.34 0 100-2.678 1.34 1.34 0 000 2.678zM103.738 76.821c-.732 0-1.328.597-1.328 1.334 0 .736.596 1.338 1.328 1.338.752 0 1.349-.602 1.349-1.338 0-.737-.597-1.334-1.349-1.334zM98.398 79.498a1.339 1.339 0 100-2.677 1.339 1.339 0 000 2.677zM93.064 79.498a1.339 1.339 0 100-2.677 1.339 1.339 0 000 2.677zM87.719 79.498a1.339 1.339 0 100-2.677 1.339 1.339 0 000 2.677zM82.384 76.821c-.742 0-1.349.597-1.349 1.334 0 .736.607 1.338 1.35 1.338a1.336 1.336 0 000-2.672zM77.04 79.498a1.339 1.339 0 100-2.677 1.339 1.339 0 000 2.677zM71.695 79.498a1.339 1.339 0 100-2.677 1.339 1.339 0 000 2.677zM66.355 79.498a1.339 1.339 0 100-2.677 1.339 1.339 0 000 2.677zM61.015 79.498a1.339 1.339 0 100-2.677 1.339 1.339 0 000 2.677zM55.67 79.498a1.339 1.339 0 100-2.677 1.339 1.339 0 000 2.677zM50.33 79.498a1.339 1.339 0 100-2.677 1.339 1.339 0 000 2.677zM44.986 79.498a1.339 1.339 0 100-2.677 1.339 1.339 0 000 2.677zM39.646 79.498a1.339 1.339 0 100-2.677 1.339 1.339 0 000 2.677zM34.306 79.498a1.339 1.339 0 100-2.677 1.339 1.339 0 000 2.677zM28.962 79.498a1.339 1.339 0 100-2.677 1.339 1.339 0 000 2.677zM23.617 79.498a1.339 1.339 0 100-2.677 1.339 1.339 0 000 2.677zM125.107 79.498a1.338 1.338 0 10.001-2.677 1.338 1.338 0 00-.001 2.677zM119.778 85.361a1.34 1.34 0 100-2.678 1.34 1.34 0 000 2.678zM114.428 85.361a1.34 1.34 0 100-2.678 1.34 1.34 0 000 2.678zM109.083 85.361a1.34 1.34 0 100-2.678 1.34 1.34 0 000 2.678zM103.738 82.684a1.336 1.336 0 000 2.672c.752 0 1.349-.602 1.349-1.339 0-.736-.597-1.333-1.349-1.333zM98.398 85.361a1.339 1.339 0 100-2.677 1.339 1.339 0 000 2.677zM93.064 85.361a1.339 1.339 0 100-2.677 1.339 1.339 0 000 2.677zM87.719 85.361a1.339 1.339 0 100-2.677 1.339 1.339 0 000 2.677zM82.384 82.684c-.742 0-1.349.597-1.349 1.333 0 .737.607 1.339 1.35 1.339a1.336 1.336 0 000-2.672zM77.04 85.361a1.339 1.339 0 100-2.677 1.339 1.339 0 000 2.677zM71.695 85.361a1.339 1.339 0 100-2.678 1.339 1.339 0 000 2.678zM66.355 85.361a1.339 1.339 0 100-2.678 1.339 1.339 0 000 2.678zM61.015 85.361a1.339 1.339 0 100-2.678 1.339 1.339 0 000 2.678zM55.67 85.361a1.339 1.339 0 100-2.677 1.339 1.339 0 000 2.677zM44.986 85.361a1.339 1.339 0 100-2.677 1.339 1.339 0 000 2.677zM39.646 85.361a1.339 1.339 0 100-2.677 1.339 1.339 0 000 2.677zM34.306 85.361a1.339 1.339 0 100-2.677 1.339 1.339 0 000 2.677zM28.962 85.361a1.339 1.339 0 100-2.677 1.339 1.339 0 000 2.677zM125.107 85.361a1.338 1.338 0 10.001-2.677 1.338 1.338 0 00-.001 2.677zM119.778 91.224a1.34 1.34 0 100-2.679 1.34 1.34 0 000 2.679zM114.428 91.224a1.34 1.34 0 100-2.679 1.34 1.34 0 000 2.679zM109.083 91.224a1.34 1.34 0 100-2.679 1.34 1.34 0 000 2.679zM103.738 88.546a1.336 1.336 0 000 2.672c.752 0 1.349-.596 1.349-1.333s-.597-1.339-1.349-1.339zM98.398 91.224a1.339 1.339 0 100-2.678 1.339 1.339 0 000 2.678zM93.064 91.224a1.339 1.339 0 100-2.678 1.339 1.339 0 000 2.678zM87.719 91.224a1.339 1.339 0 100-2.678 1.339 1.339 0 000 2.678zM82.384 88.546c-.742 0-1.349.602-1.349 1.34 0 .736.607 1.332 1.35 1.332a1.336 1.336 0 000-2.672zM77.04 91.224a1.339 1.339 0 100-2.678 1.339 1.339 0 000 2.678zM71.695 91.224a1.339 1.339 0 100-2.678 1.339 1.339 0 000 2.678zM66.355 91.224a1.339 1.339 0 100-2.678 1.339 1.339 0 000 2.678zM61.015 91.224a1.339 1.339 0 100-2.678 1.339 1.339 0 000 2.678zM55.67 91.224a1.339 1.339 0 100-2.678 1.339 1.339 0 000 2.678zM34.306 91.224a1.339 1.339 0 100-2.678 1.339 1.339 0 000 2.678zM125.107 91.224a1.338 1.338 0 10.001-2.677 1.338 1.338 0 00-.001 2.677zM119.778 97.091a1.339 1.339 0 100-2.678 1.339 1.339 0 000 2.678zM114.428 97.091a1.339 1.339 0 100-2.678 1.339 1.339 0 000 2.678zM109.083 97.091a1.339 1.339 0 100-2.678 1.339 1.339 0 000 2.678zM103.738 94.414c-.732 0-1.328.597-1.328 1.334 0 .736.596 1.338 1.328 1.338.752 0 1.349-.602 1.349-1.338 0-.737-.597-1.334-1.349-1.334zM98.398 97.091a1.339 1.339 0 100-2.677 1.339 1.339 0 000 2.677zM93.064 97.091a1.339 1.339 0 100-2.677 1.339 1.339 0 000 2.677zM87.719 97.091a1.339 1.339 0 100-2.677 1.339 1.339 0 000 2.677zM82.384 94.414c-.742 0-1.349.597-1.349 1.334 0 .736.607 1.338 1.35 1.338a1.337 1.337 0 000-2.672zM77.04 97.091a1.339 1.339 0 100-2.677 1.339 1.339 0 000 2.677zM71.695 97.091a1.339 1.339 0 100-2.677 1.339 1.339 0 000 2.677zM66.355 97.091a1.339 1.339 0 100-2.677 1.339 1.339 0 000 2.677zM61.015 97.091a1.339 1.339 0 100-2.677 1.339 1.339 0 000 2.677zM55.67 97.091a1.339 1.339 0 100-2.677 1.339 1.339 0 000 2.677zM125.107 97.091a1.338 1.338 0 10.001-2.676 1.338 1.338 0 00-.001 2.676zM119.778 102.954a1.339 1.339 0 100-2.678 1.339 1.339 0 000 2.678zM114.428 102.954a1.339 1.339 0 100-2.678 1.339 1.339 0 000 2.678zM109.083 102.954a1.339 1.339 0 100-2.678 1.339 1.339 0 000 2.678zM103.738 100.277c-.732 0-1.328.602-1.328 1.339 0 .741.596 1.333 1.328 1.333.752 0 1.349-.597 1.349-1.333 0-.737-.597-1.339-1.349-1.339zM98.398 102.954a1.338 1.338 0 10.001-2.677 1.338 1.338 0 000 2.677zM93.064 102.954a1.338 1.338 0 100-2.677 1.338 1.338 0 000 2.677zM87.719 102.954a1.338 1.338 0 100-2.677 1.338 1.338 0 000 2.677zM82.384 100.277c-.742 0-1.349.602-1.349 1.339a1.34 1.34 0 002.678 0c0-.737-.597-1.339-1.329-1.339zM77.04 102.954a1.338 1.338 0 100-2.677 1.338 1.338 0 000 2.677zM71.695 102.954a1.338 1.338 0 100-2.677 1.338 1.338 0 000 2.677zM66.355 102.954a1.338 1.338 0 100-2.677 1.338 1.338 0 000 2.677zM61.015 102.954a1.338 1.338 0 10.001-2.677 1.338 1.338 0 000 2.677zM55.67 102.954a1.338 1.338 0 10.001-2.677 1.338 1.338 0 000 2.677zM125.107 102.954a1.338 1.338 0 10.002-2.676 1.338 1.338 0 00-.002 2.676zM87.719 14.978a1.339 1.339 0 100-2.677 1.339 1.339 0 000 2.677zM82.384 12.301c-.742 0-1.349.602-1.349 1.339 0 .736.607 1.333 1.35 1.333a1.336 1.336 0 000-2.672zM119.778 108.822a1.339 1.339 0 100-2.678 1.339 1.339 0 000 2.678zM114.428 108.822a1.339 1.339 0 100-2.678 1.339 1.339 0 000 2.678zM109.083 108.822a1.339 1.339 0 100-2.678 1.339 1.339 0 000 2.678zM103.738 106.145a1.336 1.336 0 000 2.672 1.336 1.336 0 100-2.672zM98.398 108.822a1.339 1.339 0 100-2.677 1.339 1.339 0 000 2.677zM93.064 108.822a1.339 1.339 0 100-2.677 1.339 1.339 0 000 2.677zM87.719 108.822a1.339 1.339 0 100-2.677 1.339 1.339 0 000 2.677zM82.384 106.145c-.742 0-1.349.596-1.349 1.333s.607 1.339 1.35 1.339a1.337 1.337 0 000-2.672zM77.04 108.822a1.339 1.339 0 100-2.677 1.339 1.339 0 000 2.677zM71.695 108.822a1.339 1.339 0 100-2.677 1.339 1.339 0 000 2.677zM66.355 108.822a1.339 1.339 0 100-2.677 1.339 1.339 0 000 2.677zM61.015 108.822a1.339 1.339 0 100-2.677 1.339 1.339 0 000 2.677zM55.67 108.822a1.339 1.339 0 100-2.677 1.339 1.339 0 000 2.677zM125.107 108.822a1.338 1.338 0 10.001-2.677 1.338 1.338 0 00-.001 2.677zM119.778 120.542a1.334 1.334 0 100-2.668 1.334 1.334 0 000 2.668zM114.428 120.542a1.333 1.333 0 100-2.667 1.333 1.333 0 000 2.667zM109.083 120.542a1.334 1.334 0 100-2.668 1.334 1.334 0 000 2.668zM103.738 117.875c-.732 0-1.328.597-1.328 1.334 0 .736.596 1.333 1.328 1.333.752 0 1.349-.597 1.349-1.333 0-.737-.597-1.334-1.349-1.334zM98.398 120.542a1.333 1.333 0 100-2.667 1.333 1.333 0 000 2.667zM93.064 120.542a1.333 1.333 0 100-2.667 1.333 1.333 0 000 2.667zM87.719 120.542a1.333 1.333 0 100-2.667 1.333 1.333 0 000 2.667zM82.384 117.875c-.742 0-1.349.597-1.349 1.334 0 .736.607 1.333 1.35 1.333.731 0 1.328-.597 1.328-1.333 0-.737-.597-1.334-1.329-1.334zM77.04 120.542a1.333 1.333 0 100-2.667 1.333 1.333 0 000 2.667zM71.695 120.542a1.333 1.333 0 100-2.667 1.333 1.333 0 000 2.667zM66.355 120.542a1.333 1.333 0 100-2.667 1.333 1.333 0 000 2.667zM61.015 120.542a1.333 1.333 0 100-2.667 1.333 1.333 0 000 2.667zM55.67 120.542a1.333 1.333 0 100-2.667 1.333 1.333 0 000 2.667zM125.107 120.542a1.333 1.333 0 10.001-2.667 1.333 1.333 0 00-.001 2.667zM119.778 126.41a1.339 1.339 0 100-2.678 1.339 1.339 0 000 2.678zM114.428 126.41a1.339 1.339 0 100-2.678 1.339 1.339 0 000 2.678zM109.083 126.41a1.339 1.339 0 100-2.678 1.339 1.339 0 000 2.678zM103.738 123.733c-.732 0-1.328.602-1.328 1.338 0 .742.596 1.339 1.328 1.339a1.338 1.338 0 100-2.677zM98.398 126.41a1.339 1.339 0 100-2.677 1.339 1.339 0 000 2.677zM93.064 126.41a1.339 1.339 0 100-2.677 1.339 1.339 0 000 2.677zM87.719 126.41a1.339 1.339 0 100-2.677 1.339 1.339 0 000 2.677zM82.384 123.733c-.742 0-1.349.602-1.349 1.338 0 .742.607 1.339 1.35 1.339.731 0 1.328-.597 1.328-1.339 0-.736-.597-1.338-1.329-1.338zM77.04 126.41a1.339 1.339 0 100-2.677 1.339 1.339 0 000 2.677zM71.695 126.41a1.339 1.339 0 100-2.677 1.339 1.339 0 000 2.677zM66.355 126.41a1.339 1.339 0 100-2.677 1.339 1.339 0 000 2.677zM61.015 126.41a1.339 1.339 0 100-2.677 1.339 1.339 0 000 2.677zM55.67 126.41a1.339 1.339 0 100-2.677 1.339 1.339 0 000 2.677zM125.107 126.41a1.338 1.338 0 10.001-2.677 1.338 1.338 0 00-.001 2.677zM119.778 132.278a1.34 1.34 0 10-.001-2.68 1.34 1.34 0 00.001 2.68zM114.428 132.278a1.34 1.34 0 10-.001-2.68 1.34 1.34 0 00.001 2.68zM109.083 132.278a1.34 1.34 0 10-.001-2.68 1.34 1.34 0 00.001 2.68zM103.738 129.606c-.732 0-1.328.602-1.328 1.338 0 .742.596 1.339 1.328 1.339a1.338 1.338 0 100-2.677zM98.398 132.278a1.34 1.34 0 100-2.678 1.34 1.34 0 000 2.678zM93.064 132.278a1.34 1.34 0 10-.001-2.678 1.34 1.34 0 000 2.678zM87.719 132.278a1.34 1.34 0 100-2.678 1.34 1.34 0 000 2.678zM82.384 129.606c-.742 0-1.349.602-1.349 1.338 0 .742.607 1.339 1.35 1.339.731 0 1.328-.597 1.328-1.339 0-.736-.597-1.338-1.329-1.338zM77.04 132.278a1.34 1.34 0 10-.001-2.678 1.34 1.34 0 000 2.678zM71.695 132.278a1.34 1.34 0 10-.001-2.679 1.34 1.34 0 000 2.679zM66.355 132.278a1.34 1.34 0 100-2.679 1.34 1.34 0 000 2.679zM61.015 132.278a1.34 1.34 0 100-2.679 1.34 1.34 0 000 2.679zM55.67 132.278a1.34 1.34 0 100-2.678 1.34 1.34 0 000 2.678zM125.107 132.278a1.339 1.339 0 100-2.678 1.339 1.339 0 000 2.678zM119.778 138.14a1.334 1.334 0 100-2.668 1.334 1.334 0 000 2.668zM114.428 138.14a1.333 1.333 0 100-2.667 1.333 1.333 0 000 2.667zM109.083 138.14a1.334 1.334 0 100-2.668 1.334 1.334 0 000 2.668zM103.738 135.468c-.732 0-1.328.597-1.328 1.334 0 .742.596 1.338 1.328 1.338.752 0 1.349-.596 1.349-1.338a1.34 1.34 0 00-1.349-1.334zM98.398 138.14a1.333 1.333 0 100-2.667 1.333 1.333 0 000 2.667zM93.064 138.14a1.333 1.333 0 100-2.667 1.333 1.333 0 000 2.667zM87.719 138.14a1.333 1.333 0 100-2.667 1.333 1.333 0 000 2.667zM82.384 135.468c-.742 0-1.349.597-1.349 1.334 0 .742.607 1.338 1.35 1.338.731 0 1.328-.596 1.328-1.338 0-.732-.597-1.334-1.329-1.334zM77.04 138.14a1.333 1.333 0 100-2.667 1.333 1.333 0 000 2.667zM71.695 138.14a1.333 1.333 0 100-2.667 1.333 1.333 0 000 2.667zM66.355 138.14a1.333 1.333 0 100-2.667 1.333 1.333 0 000 2.667zM61.015 138.14a1.333 1.333 0 100-2.667 1.333 1.333 0 000 2.667zM55.67 138.14a1.333 1.333 0 100-2.667 1.333 1.333 0 000 2.667zM125.107 138.14a1.333 1.333 0 10.001-2.667 1.333 1.333 0 00-.001 2.667zM119.778 144.003a1.339 1.339 0 100-2.678 1.339 1.339 0 000 2.678zM114.428 144.003a1.339 1.339 0 100-2.678 1.339 1.339 0 000 2.678zM109.083 144.003a1.339 1.339 0 100-2.678 1.339 1.339 0 000 2.678zM103.738 141.326a1.33 1.33 0 00-1.328 1.333c0 .742.596 1.344 1.328 1.344.752 0 1.349-.602 1.349-1.344a1.34 1.34 0 00-1.349-1.333zM98.398 144.003a1.339 1.339 0 100-2.677 1.339 1.339 0 000 2.677zM93.064 144.003a1.339 1.339 0 100-2.677 1.339 1.339 0 000 2.677zM87.719 144.003a1.339 1.339 0 100-2.677 1.339 1.339 0 000 2.677zM82.384 141.326c-.742 0-1.349.596-1.349 1.333 0 .742.607 1.344 1.35 1.344.731 0 1.328-.602 1.328-1.344 0-.731-.597-1.333-1.329-1.333zM77.04 144.003a1.339 1.339 0 100-2.677 1.339 1.339 0 000 2.677zM71.695 144.003a1.339 1.339 0 100-2.677 1.339 1.339 0 000 2.677zM66.355 144.003a1.339 1.339 0 100-2.677 1.339 1.339 0 000 2.677zM61.015 144.003a1.339 1.339 0 100-2.677 1.339 1.339 0 000 2.677zM55.67 144.003a1.339 1.339 0 100-2.677 1.339 1.339 0 000 2.677zM125.107 144.003a1.338 1.338 0 10.001-2.677 1.338 1.338 0 00-.001 2.677zM119.778 149.876a1.339 1.339 0 100-2.678 1.339 1.339 0 000 2.678zM114.428 149.876a1.339 1.339 0 100-2.678 1.339 1.339 0 000 2.678zM109.083 149.876a1.339 1.339 0 100-2.678 1.339 1.339 0 000 2.678zM103.738 147.194c-.732 0-1.328.601-1.328 1.343 0 .737.596 1.339 1.328 1.339a1.341 1.341 0 100-2.682zM98.398 149.876a1.339 1.339 0 100-2.677 1.339 1.339 0 000 2.677zM93.064 149.876a1.339 1.339 0 100-2.677 1.339 1.339 0 000 2.677zM87.719 149.876a1.339 1.339 0 100-2.677 1.339 1.339 0 000 2.677zM82.384 147.194c-.742 0-1.349.601-1.349 1.343 0 .737.607 1.339 1.35 1.339.731 0 1.328-.602 1.328-1.339 0-.742-.597-1.343-1.329-1.343zM77.04 149.876a1.339 1.339 0 100-2.677 1.339 1.339 0 000 2.677zM71.695 149.876a1.339 1.339 0 100-2.677 1.339 1.339 0 000 2.677zM66.355 149.876a1.339 1.339 0 100-2.677 1.339 1.339 0 000 2.677zM61.015 149.876a1.339 1.339 0 100-2.677 1.339 1.339 0 000 2.677zM55.67 149.876a1.339 1.339 0 100-2.677 1.339 1.339 0 000 2.677zM125.107 149.876a1.338 1.338 0 10.001-2.677 1.338 1.338 0 00-.001 2.677zM119.778 155.728a1.334 1.334 0 100-2.668 1.334 1.334 0 000 2.668zM114.428 155.728a1.333 1.333 0 100-2.667 1.333 1.333 0 000 2.667zM109.083 155.728a1.334 1.334 0 100-2.668 1.334 1.334 0 000 2.668zM103.738 153.061c-.732 0-1.328.597-1.328 1.339a1.33 1.33 0 001.328 1.333 1.336 1.336 0 100-2.672zM98.398 155.728a1.333 1.333 0 100-2.667 1.333 1.333 0 000 2.667zM93.064 155.728a1.333 1.333 0 100-2.667 1.333 1.333 0 000 2.667zM87.719 155.728a1.333 1.333 0 100-2.667 1.333 1.333 0 000 2.667zM82.384 153.061c-.742 0-1.349.597-1.349 1.339 0 .737.607 1.333 1.35 1.333.731 0 1.328-.596 1.328-1.333 0-.742-.597-1.339-1.329-1.339zM77.04 155.728a1.333 1.333 0 100-2.667 1.333 1.333 0 000 2.667zM71.695 155.728a1.333 1.333 0 100-2.667 1.333 1.333 0 000 2.667zM66.355 155.728a1.333 1.333 0 100-2.667 1.333 1.333 0 000 2.667zM61.015 155.728a1.333 1.333 0 100-2.667 1.333 1.333 0 000 2.667zM55.67 155.728a1.333 1.333 0 100-2.667 1.333 1.333 0 000 2.667zM125.107 155.728a1.333 1.333 0 10.001-2.667 1.333 1.333 0 00-.001 2.667zM119.778 161.591a1.334 1.334 0 100-2.669 1.334 1.334 0 000 2.669zM114.428 161.591a1.333 1.333 0 100-2.667 1.333 1.333 0 000 2.667zM109.083 161.591a1.334 1.334 0 100-2.669 1.334 1.334 0 000 2.669zM103.738 158.924c-.732 0-1.328.592-1.328 1.333 0 .737.596 1.339 1.328 1.339.752 0 1.349-.602 1.349-1.339 0-.741-.597-1.333-1.349-1.333zM98.398 161.591a1.334 1.334 0 100-2.667 1.334 1.334 0 000 2.667zM93.064 161.591a1.334 1.334 0 100-2.667 1.334 1.334 0 000 2.667zM87.719 161.591a1.334 1.334 0 100-2.667 1.334 1.334 0 000 2.667zM82.384 158.924a1.34 1.34 0 00-1.349 1.333c0 .737.607 1.339 1.35 1.339a1.337 1.337 0 000-2.672zM77.04 161.591a1.334 1.334 0 100-2.667 1.334 1.334 0 000 2.667zM71.695 161.591a1.334 1.334 0 100-2.667 1.334 1.334 0 000 2.667zM66.355 161.591a1.334 1.334 0 100-2.667 1.334 1.334 0 000 2.667zM61.015 161.591a1.334 1.334 0 100-2.667 1.334 1.334 0 000 2.667zM55.67 161.591a1.334 1.334 0 100-2.667 1.334 1.334 0 000 2.667zM125.107 161.591a1.334 1.334 0 100-2.667 1.334 1.334 0 000 2.667zM119.778 167.469a1.339 1.339 0 100-2.678 1.339 1.339 0 000 2.678zM114.428 167.469a1.339 1.339 0 100-2.678 1.339 1.339 0 000 2.678zM109.083 167.469a1.339 1.339 0 100-2.678 1.339 1.339 0 000 2.678zM103.738 164.792c-.732 0-1.328.602-1.328 1.338 0 .742.596 1.344 1.328 1.344a1.342 1.342 0 100-2.682zM98.398 167.469a1.339 1.339 0 100-2.677 1.339 1.339 0 000 2.677zM93.064 167.469a1.339 1.339 0 100-2.677 1.339 1.339 0 000 2.677zM87.719 167.469a1.339 1.339 0 100-2.677 1.339 1.339 0 000 2.677zM82.384 164.792c-.742 0-1.349.602-1.349 1.338 0 .742.607 1.344 1.35 1.344.731 0 1.328-.602 1.328-1.344 0-.736-.597-1.338-1.329-1.338zM77.04 167.469a1.339 1.339 0 100-2.677 1.339 1.339 0 000 2.677zM71.695 167.469a1.339 1.339 0 100-2.677 1.339 1.339 0 000 2.677zM66.355 167.469a1.339 1.339 0 100-2.677 1.339 1.339 0 000 2.677zM61.015 167.469a1.339 1.339 0 100-2.677 1.339 1.339 0 000 2.677zM55.67 167.469a1.339 1.339 0 100-2.677 1.339 1.339 0 000 2.677zM125.107 167.469a1.338 1.338 0 10.001-2.677 1.338 1.338 0 00-.001 2.677zM119.778 173.332a1.34 1.34 0 10-.001-2.68 1.34 1.34 0 00.001 2.68zM114.428 173.332a1.34 1.34 0 10-.001-2.68 1.34 1.34 0 00.001 2.68zM109.083 173.332a1.34 1.34 0 10-.001-2.68 1.34 1.34 0 00.001 2.68zM103.738 170.66c-.732 0-1.328.602-1.328 1.338 0 .742.596 1.339 1.328 1.339a1.338 1.338 0 100-2.677zM98.398 173.332a1.34 1.34 0 100-2.678 1.34 1.34 0 000 2.678zM93.064 173.332a1.34 1.34 0 10-.001-2.678 1.34 1.34 0 000 2.678zM87.719 173.332a1.34 1.34 0 100-2.678 1.34 1.34 0 000 2.678zM82.384 170.66c-.742 0-1.349.602-1.349 1.338 0 .742.607 1.339 1.35 1.339.731 0 1.328-.597 1.328-1.339 0-.736-.597-1.338-1.329-1.338zM77.04 173.332a1.34 1.34 0 10-.001-2.678 1.34 1.34 0 000 2.678zM71.695 173.332a1.34 1.34 0 10-.001-2.679 1.34 1.34 0 000 2.679zM66.355 173.332a1.34 1.34 0 100-2.679 1.34 1.34 0 000 2.679zM61.015 173.332a1.34 1.34 0 100-2.679 1.34 1.34 0 000 2.679zM55.67 173.332a1.34 1.34 0 100-2.678 1.34 1.34 0 000 2.678zM125.107 173.332a1.339 1.339 0 100-2.678 1.339 1.339 0 000 2.678zM119.778 179.194a1.334 1.334 0 100-2.668 1.334 1.334 0 000 2.668zM114.428 179.194a1.333 1.333 0 100-2.667 1.333 1.333 0 000 2.667zM109.083 179.194a1.334 1.334 0 100-2.668 1.334 1.334 0 000 2.668zM103.738 176.528c-.732 0-1.328.596-1.328 1.338 0 .737.596 1.334 1.328 1.334.752 0 1.349-.597 1.349-1.334 0-.742-.597-1.338-1.349-1.338zM98.398 179.194a1.333 1.333 0 100-2.667 1.333 1.333 0 000 2.667zM93.064 179.194a1.333 1.333 0 100-2.667 1.333 1.333 0 000 2.667zM87.719 179.194a1.333 1.333 0 100-2.667 1.333 1.333 0 000 2.667zM82.384 176.528c-.742 0-1.349.596-1.349 1.338 0 .737.607 1.334 1.35 1.334.731 0 1.328-.597 1.328-1.334 0-.742-.597-1.338-1.329-1.338zM77.04 179.194a1.333 1.333 0 100-2.667 1.333 1.333 0 000 2.667zM71.695 179.194a1.333 1.333 0 100-2.667 1.333 1.333 0 000 2.667zM66.355 179.194a1.333 1.333 0 100-2.667 1.333 1.333 0 000 2.667zM61.015 179.194a1.333 1.333 0 100-2.667 1.333 1.333 0 000 2.667zM55.67 179.194a1.333 1.333 0 100-2.667 1.333 1.333 0 000 2.667zM125.107 179.194a1.333 1.333 0 10.001-2.667 1.333 1.333 0 00-.001 2.667zM119.778 185.062a1.339 1.339 0 100-2.678 1.339 1.339 0 000 2.678zM114.428 185.062a1.339 1.339 0 100-2.678 1.339 1.339 0 000 2.678zM109.083 185.062a1.339 1.339 0 100-2.678 1.339 1.339 0 000 2.678zM103.738 182.38c-.732 0-1.328.602-1.328 1.344 0 .736.596 1.338 1.328 1.338a1.341 1.341 0 100-2.682zM98.398 185.062a1.338 1.338 0 10.001-2.677 1.338 1.338 0 000 2.677zM93.064 185.062a1.338 1.338 0 100-2.677 1.338 1.338 0 000 2.677zM87.719 185.062a1.338 1.338 0 100-2.677 1.338 1.338 0 000 2.677zM82.384 182.38c-.742 0-1.349.602-1.349 1.344 0 .736.607 1.338 1.35 1.338.731 0 1.328-.602 1.328-1.338 0-.737-.597-1.344-1.329-1.344zM77.04 185.062a1.338 1.338 0 100-2.677 1.338 1.338 0 000 2.677zM71.695 185.062a1.338 1.338 0 100-2.677 1.338 1.338 0 000 2.677zM66.355 185.062a1.338 1.338 0 100-2.677 1.338 1.338 0 000 2.677zM61.015 185.062a1.338 1.338 0 10.001-2.677 1.338 1.338 0 000 2.677zM55.67 185.062a1.338 1.338 0 10.001-2.677 1.338 1.338 0 000 2.677zM125.107 185.062a1.338 1.338 0 10.002-2.676 1.338 1.338 0 00-.002 2.676zM119.778 190.925a1.34 1.34 0 10-.001-2.68 1.34 1.34 0 00.001 2.68zM114.428 190.925a1.34 1.34 0 10-.001-2.68 1.34 1.34 0 00.001 2.68zM109.083 190.925a1.34 1.34 0 10-.001-2.68 1.34 1.34 0 00.001 2.68zM103.738 188.248c-.732 0-1.328.602-1.328 1.343 0 .737.596 1.334 1.328 1.334.752 0 1.349-.597 1.349-1.334 0-.736-.597-1.343-1.349-1.343zM98.398 190.925a1.34 1.34 0 100-2.678 1.34 1.34 0 000 2.678zM93.064 190.925a1.34 1.34 0 10-.001-2.678 1.34 1.34 0 000 2.678zM87.719 190.925a1.34 1.34 0 100-2.678 1.34 1.34 0 000 2.678zM82.384 188.248c-.742 0-1.349.602-1.349 1.343 0 .737.607 1.334 1.35 1.334.731 0 1.328-.597 1.328-1.334a1.34 1.34 0 00-1.329-1.343zM77.04 190.925a1.34 1.34 0 10-.001-2.678 1.34 1.34 0 000 2.678zM71.695 190.925a1.34 1.34 0 10-.001-2.679 1.34 1.34 0 000 2.679zM66.355 190.925a1.34 1.34 0 100-2.679 1.34 1.34 0 000 2.679zM61.015 190.925a1.34 1.34 0 100-2.679 1.34 1.34 0 000 2.679zM55.67 190.925a1.34 1.34 0 100-2.678 1.34 1.34 0 000 2.678zM125.107 190.925a1.339 1.339 0 100-2.678 1.339 1.339 0 000 2.678zM119.778 196.787a1.334 1.334 0 100-2.668 1.334 1.334 0 000 2.668zM114.428 196.787a1.333 1.333 0 100-2.667 1.333 1.333 0 000 2.667zM109.083 196.787a1.334 1.334 0 100-2.668 1.334 1.334 0 000 2.668zM103.738 194.121a1.33 1.33 0 00-1.328 1.333c0 .742.596 1.333 1.328 1.333a1.333 1.333 0 100-2.666zM98.398 196.787a1.333 1.333 0 100-2.667 1.333 1.333 0 000 2.667zM93.064 196.787a1.333 1.333 0 100-2.667 1.333 1.333 0 000 2.667zM87.719 196.787a1.333 1.333 0 100-2.667 1.333 1.333 0 000 2.667zM82.384 194.121c-.742 0-1.349.596-1.349 1.333a1.34 1.34 0 001.35 1.333c.731 0 1.328-.591 1.328-1.333 0-.737-.597-1.333-1.329-1.333zM77.04 196.787a1.333 1.333 0 100-2.667 1.333 1.333 0 000 2.667zM71.695 196.787a1.333 1.333 0 100-2.667 1.333 1.333 0 000 2.667zM66.355 196.787a1.333 1.333 0 100-2.667 1.333 1.333 0 000 2.667zM61.015 196.787a1.333 1.333 0 100-2.667 1.333 1.333 0 000 2.667zM55.67 196.787a1.333 1.333 0 100-2.667 1.333 1.333 0 000 2.667zM125.107 196.787a1.333 1.333 0 10.001-2.667 1.333 1.333 0 00-.001 2.667zM119.778 202.655a1.339 1.339 0 100-2.678 1.339 1.339 0 000 2.678zM114.428 202.655a1.339 1.339 0 100-2.678 1.339 1.339 0 000 2.678zM109.083 202.655a1.339 1.339 0 100-2.678 1.339 1.339 0 000 2.678zM103.738 199.978c-.732 0-1.328.597-1.328 1.334 0 .741.596 1.343 1.328 1.343.752 0 1.349-.602 1.349-1.343 0-.737-.597-1.334-1.349-1.334zM98.398 202.655a1.338 1.338 0 10.001-2.677 1.338 1.338 0 000 2.677zM93.064 202.655a1.338 1.338 0 100-2.677 1.338 1.338 0 000 2.677zM87.719 202.655a1.338 1.338 0 100-2.677 1.338 1.338 0 000 2.677zM82.384 199.978c-.742 0-1.349.597-1.349 1.334 0 .741.607 1.343 1.35 1.343.731 0 1.328-.602 1.328-1.343 0-.737-.597-1.334-1.329-1.334zM77.04 202.655a1.338 1.338 0 100-2.677 1.338 1.338 0 000 2.677zM71.695 202.655a1.338 1.338 0 100-2.677 1.338 1.338 0 000 2.677zM66.355 202.655a1.338 1.338 0 100-2.677 1.338 1.338 0 000 2.677zM61.015 202.655a1.338 1.338 0 10.001-2.677 1.338 1.338 0 000 2.677zM55.67 202.655a1.338 1.338 0 10.001-2.677 1.338 1.338 0 000 2.677zM125.107 202.655a1.338 1.338 0 10.002-2.676 1.338 1.338 0 00-.002 2.676zM119.778 114.685a1.34 1.34 0 10-.001-2.68 1.34 1.34 0 00.001 2.68zM114.428 114.685a1.34 1.34 0 10-.001-2.68 1.34 1.34 0 00.001 2.68zM109.083 114.685a1.34 1.34 0 10-.001-2.68 1.34 1.34 0 00.001 2.68zM103.738 112.007a1.336 1.336 0 000 2.672 1.336 1.336 0 100-2.672zM98.398 114.685a1.34 1.34 0 100-2.678 1.34 1.34 0 000 2.678zM93.064 114.685a1.34 1.34 0 10-.001-2.678 1.34 1.34 0 000 2.678zM87.719 114.685a1.34 1.34 0 100-2.678 1.34 1.34 0 000 2.678zM82.384 112.007c-.742 0-1.349.602-1.349 1.339s.607 1.333 1.35 1.333a1.337 1.337 0 000-2.672zM77.04 114.685a1.34 1.34 0 10-.001-2.678 1.34 1.34 0 000 2.678zM71.695 114.685a1.34 1.34 0 10-.001-2.679 1.34 1.34 0 000 2.679zM66.355 114.685a1.34 1.34 0 100-2.679 1.34 1.34 0 000 2.679zM61.015 114.685a1.34 1.34 0 100-2.679 1.34 1.34 0 000 2.679zM55.67 114.685a1.34 1.34 0 100-2.678 1.34 1.34 0 000 2.678zM125.107 114.685a1.339 1.339 0 100-2.678 1.339 1.339 0 000 2.678zM119.778 208.513a1.334 1.334 0 100-2.669 1.334 1.334 0 000 2.669zM114.428 208.513a1.333 1.333 0 100-2.667 1.333 1.333 0 000 2.667zM109.083 208.513a1.334 1.334 0 100-2.669 1.334 1.334 0 000 2.669zM103.738 205.846c-.732 0-1.328.597-1.328 1.333 0 .742.596 1.339 1.328 1.339.752 0 1.349-.597 1.349-1.339 0-.736-.597-1.333-1.349-1.333zM98.398 208.513a1.334 1.334 0 100-2.667 1.334 1.334 0 000 2.667zM93.064 208.513a1.334 1.334 0 100-2.667 1.334 1.334 0 000 2.667zM87.719 208.513a1.334 1.334 0 100-2.667 1.334 1.334 0 000 2.667zM82.384 205.846c-.742 0-1.349.597-1.349 1.333 0 .742.607 1.339 1.35 1.339.731 0 1.328-.597 1.328-1.339 0-.736-.597-1.333-1.329-1.333zM77.04 208.513a1.334 1.334 0 100-2.667 1.334 1.334 0 000 2.667zM71.695 208.513a1.334 1.334 0 100-2.667 1.334 1.334 0 000 2.667zM66.355 208.513a1.334 1.334 0 100-2.667 1.334 1.334 0 000 2.667zM61.015 208.513a1.334 1.334 0 100-2.667 1.334 1.334 0 000 2.667zM55.67 208.513a1.334 1.334 0 100-2.667 1.334 1.334 0 000 2.667zM125.107 208.513a1.334 1.334 0 100-2.667 1.334 1.334 0 000 2.667zM119.778 214.381a1.34 1.34 0 10-.001-2.68 1.34 1.34 0 00.001 2.68zM114.428 214.381a1.34 1.34 0 10-.001-2.68 1.34 1.34 0 00.001 2.68zM109.083 214.381a1.34 1.34 0 10-.001-2.68 1.34 1.34 0 00.001 2.68zM103.738 211.703c-.732 0-1.328.602-1.328 1.344 0 .737.596 1.339 1.328 1.339a1.341 1.341 0 100-2.683zM98.398 214.381a1.34 1.34 0 100-2.678 1.34 1.34 0 000 2.678zM93.064 214.381a1.34 1.34 0 10-.001-2.678 1.34 1.34 0 000 2.678zM87.719 214.381a1.34 1.34 0 100-2.678 1.34 1.34 0 000 2.678zM82.384 211.703c-.742 0-1.349.602-1.349 1.344 0 .737.607 1.339 1.35 1.339.731 0 1.328-.602 1.328-1.339 0-.742-.597-1.344-1.329-1.344zM77.04 214.381a1.34 1.34 0 10-.001-2.678 1.34 1.34 0 000 2.678zM71.695 214.381a1.34 1.34 0 10-.001-2.679 1.34 1.34 0 000 2.679zM66.355 214.381a1.34 1.34 0 100-2.679 1.34 1.34 0 000 2.679zM61.015 214.381a1.34 1.34 0 100-2.679 1.34 1.34 0 000 2.679zM55.67 214.381a1.34 1.34 0 100-2.678 1.34 1.34 0 000 2.678zM125.107 214.381a1.339 1.339 0 100-2.678 1.339 1.339 0 000 2.678zM119.778 220.243a1.339 1.339 0 100-2.678 1.339 1.339 0 000 2.678zM114.428 220.243a1.339 1.339 0 100-2.678 1.339 1.339 0 000 2.678zM109.083 220.243a1.339 1.339 0 100-2.678 1.339 1.339 0 000 2.678zM103.738 217.571c-.732 0-1.328.602-1.328 1.344a1.33 1.33 0 001.328 1.333c.752 0 1.349-.596 1.349-1.333 0-.742-.597-1.344-1.349-1.344zM98.398 220.243a1.338 1.338 0 10.001-2.677 1.338 1.338 0 000 2.677zM93.064 220.243a1.338 1.338 0 100-2.677 1.338 1.338 0 000 2.677zM87.719 220.243a1.338 1.338 0 100-2.677 1.338 1.338 0 000 2.677zM82.384 217.571c-.742 0-1.349.602-1.349 1.344 0 .737.607 1.333 1.35 1.333.731 0 1.328-.596 1.328-1.333 0-.742-.597-1.344-1.329-1.344zM77.04 220.243a1.338 1.338 0 100-2.677 1.338 1.338 0 000 2.677zM71.695 220.243a1.338 1.338 0 100-2.677 1.338 1.338 0 000 2.677zM66.355 220.243a1.338 1.338 0 100-2.677 1.338 1.338 0 000 2.677zM61.015 220.243a1.338 1.338 0 10.001-2.677 1.338 1.338 0 000 2.677zM55.67 220.243a1.338 1.338 0 10.001-2.677 1.338 1.338 0 000 2.677zM125.107 220.243a1.338 1.338 0 10.002-2.676 1.338 1.338 0 00-.002 2.676zM119.778 226.106a1.334 1.334 0 100-2.669 1.334 1.334 0 000 2.669zM114.428 226.106a1.333 1.333 0 100-2.667 1.333 1.333 0 000 2.667zM109.083 226.106a1.334 1.334 0 100-2.669 1.334 1.334 0 000 2.669zM103.738 223.439c-.732 0-1.328.597-1.328 1.339 0 .736.596 1.333 1.328 1.333.752 0 1.349-.597 1.349-1.333 0-.742-.597-1.339-1.349-1.339zM98.398 226.106a1.334 1.334 0 100-2.667 1.334 1.334 0 000 2.667zM93.064 226.106a1.334 1.334 0 100-2.667 1.334 1.334 0 000 2.667zM87.719 226.106a1.334 1.334 0 100-2.667 1.334 1.334 0 000 2.667zM82.384 223.439c-.742 0-1.349.597-1.349 1.339 0 .736.607 1.333 1.35 1.333.731 0 1.328-.597 1.328-1.333 0-.742-.597-1.339-1.329-1.339zM77.04 226.106a1.334 1.334 0 100-2.667 1.334 1.334 0 000 2.667zM71.695 226.106a1.334 1.334 0 100-2.667 1.334 1.334 0 000 2.667zM66.355 226.106a1.334 1.334 0 100-2.667 1.334 1.334 0 000 2.667zM61.015 226.106a1.334 1.334 0 100-2.667 1.334 1.334 0 000 2.667zM55.67 226.106a1.334 1.334 0 100-2.667 1.334 1.334 0 000 2.667zM125.107 226.106a1.334 1.334 0 100-2.667 1.334 1.334 0 000 2.667zM119.778 231.968a1.334 1.334 0 100-2.668 1.334 1.334 0 000 2.668zM114.428 231.968a1.333 1.333 0 100-2.667 1.333 1.333 0 000 2.667zM109.083 231.968a1.334 1.334 0 100-2.668 1.334 1.334 0 000 2.668zM103.738 229.297c-.732 0-1.328.591-1.328 1.333s.596 1.338 1.328 1.338c.752 0 1.349-.596 1.349-1.338 0-.742-.597-1.333-1.349-1.333zM98.398 231.968a1.333 1.333 0 100-2.667 1.333 1.333 0 000 2.667zM93.064 231.968a1.333 1.333 0 100-2.667 1.333 1.333 0 000 2.667zM87.719 231.968a1.333 1.333 0 100-2.667 1.333 1.333 0 000 2.667zM82.384 229.297a1.34 1.34 0 00-1.349 1.333c0 .742.607 1.338 1.35 1.338.731 0 1.328-.596 1.328-1.338 0-.742-.597-1.333-1.329-1.333zM77.04 231.968a1.333 1.333 0 100-2.667 1.333 1.333 0 000 2.667zM71.695 231.968a1.333 1.333 0 100-2.667 1.333 1.333 0 000 2.667zM66.355 231.968a1.333 1.333 0 100-2.667 1.333 1.333 0 000 2.667zM61.015 231.968a1.333 1.333 0 100-2.667 1.333 1.333 0 000 2.667zM55.67 231.968a1.333 1.333 0 100-2.667 1.333 1.333 0 000 2.667zM125.107 231.968a1.333 1.333 0 10.001-2.667 1.333 1.333 0 00-.001 2.667zM119.778 237.836a1.334 1.334 0 100-2.668 1.334 1.334 0 000 2.668zM114.428 237.836a1.333 1.333 0 100-2.667 1.333 1.333 0 000 2.667zM109.083 237.836a1.334 1.334 0 100-2.668 1.334 1.334 0 000 2.668zM103.738 235.164c-.732 0-1.328.597-1.328 1.334 0 .742.596 1.338 1.328 1.338.752 0 1.349-.596 1.349-1.338a1.34 1.34 0 00-1.349-1.334zM98.398 237.836a1.333 1.333 0 100-2.667 1.333 1.333 0 000 2.667zM93.064 237.836a1.333 1.333 0 100-2.667 1.333 1.333 0 000 2.667zM87.719 237.836a1.333 1.333 0 100-2.667 1.333 1.333 0 000 2.667zM82.384 235.164c-.742 0-1.349.597-1.349 1.334 0 .742.607 1.338 1.35 1.338.731 0 1.328-.596 1.328-1.338 0-.732-.597-1.334-1.329-1.334zM77.04 237.836a1.333 1.333 0 100-2.667 1.333 1.333 0 000 2.667zM71.695 237.836a1.333 1.333 0 100-2.667 1.333 1.333 0 000 2.667zM66.355 237.836a1.333 1.333 0 100-2.667 1.333 1.333 0 000 2.667zM61.015 237.836a1.333 1.333 0 100-2.667 1.333 1.333 0 000 2.667zM55.67 237.836a1.333 1.333 0 100-2.667 1.333 1.333 0 000 2.667zM125.107 237.836a1.333 1.333 0 10.001-2.667 1.333 1.333 0 00-.001 2.667zM119.778 243.699a1.339 1.339 0 100-2.678 1.339 1.339 0 000 2.678zM114.428 243.699a1.339 1.339 0 100-2.678 1.339 1.339 0 000 2.678zM109.083 243.699a1.339 1.339 0 100-2.678 1.339 1.339 0 000 2.678zM103.738 241.022c-.732 0-1.328.602-1.328 1.338 0 .742.596 1.344 1.328 1.344a1.342 1.342 0 100-2.682zM98.398 243.699a1.339 1.339 0 100-2.677 1.339 1.339 0 000 2.677zM93.064 243.699a1.339 1.339 0 100-2.677 1.339 1.339 0 000 2.677zM87.719 243.699a1.339 1.339 0 100-2.677 1.339 1.339 0 000 2.677zM82.384 241.022c-.742 0-1.349.602-1.349 1.338 0 .742.607 1.344 1.35 1.344.731 0 1.328-.602 1.328-1.344 0-.736-.597-1.338-1.329-1.338zM77.04 243.699a1.339 1.339 0 100-2.677 1.339 1.339 0 000 2.677zM71.695 243.699a1.339 1.339 0 100-2.677 1.339 1.339 0 000 2.677zM66.355 243.699a1.339 1.339 0 100-2.677 1.339 1.339 0 000 2.677zM61.015 243.699a1.339 1.339 0 100-2.677 1.339 1.339 0 000 2.677zM55.67 243.699a1.339 1.339 0 100-2.677 1.339 1.339 0 000 2.677zM125.107 243.699a1.338 1.338 0 10.001-2.677 1.338 1.338 0 00-.001 2.677z" fill="currentColor"/></svg>