<svg viewBox="0 0 256 256" fill="none" xmlns="http://www.w3.org/2000/svg"><path d="M93.175 106.958a4.422 4.422 0 100-8.845 4.422 4.422 0 000 8.845zM110.955 120.35a4.42 4.42 0 10.001-8.839 4.42 4.42 0 00-.001 8.839zM149.276 120.352a4.425 4.425 0 004.422-4.422 4.428 4.428 0 00-4.422-4.42 4.423 4.423 0 00-4.416 4.42c0 2.44 1.98 4.422 4.416 4.422zM130.073 106.958a4.422 4.422 0 10.001-8.845 4.422 4.422 0 00-.001 8.845zM166.967 106.96a4.428 4.428 0 004.425-4.424c0-2.44-1.987-4.42-4.425-4.42a4.425 4.425 0 00-4.42 4.42 4.427 4.427 0 004.42 4.424zM99.353 134.863a3.913 3.913 0 100-7.826 3.913 3.913 0 000 7.826zM115.22 149.374a3.913 3.913 0 100-7.826 3.913 3.913 0 000 7.826zM144.991 149.374a3.917 3.917 0 003.918-3.913 3.916 3.916 0 00-7.831 0 3.916 3.916 0 003.913 3.913zM130.073 134.863a3.913 3.913 0 10.001-7.827 3.913 3.913 0 00-.001 7.827zM160.789 134.863a3.913 3.913 0 10.001-7.827 3.913 3.913 0 00-.001 7.827zM101.409 163.31a3.913 3.913 0 100-7.826 3.913 3.913 0 000 7.826zM115.22 173.719a3.913 3.913 0 100-7.826 3.913 3.913 0 000 7.826zM144.991 173.719a3.92 3.92 0 003.918-3.915 3.92 3.92 0 00-3.918-3.914 3.917 3.917 0 00-3.913 3.914 3.919 3.919 0 003.913 3.915zM130.073 163.31a3.913 3.913 0 10.001-7.827 3.913 3.913 0 00-.001 7.827zM158.736 163.31a3.913 3.913 0 100-7.826 3.913 3.913 0 000 7.826zM101.409 186.155a3.915 3.915 0 100-7.83 3.915 3.915 0 000 7.83zM115.22 196.559a3.918 3.918 0 100-7.836 3.918 3.918 0 000 7.836zM144.991 196.559a3.922 3.922 0 003.918-3.918 3.916 3.916 0 00-7.831 0 3.921 3.921 0 003.913 3.918zM130.073 186.155a3.916 3.916 0 100-7.831 3.916 3.916 0 000 7.831zM158.736 186.155a3.916 3.916 0 100-7.833 3.916 3.916 0 000 7.833z" fill="currentColor"/><path d="M226.01 104.756l-9.816-8.66c-1.722-1.52-4.764-3.316-6.924-4.093l-20.189-7.258c-1.956-.7-4.34-.451-6.285.51-1.96-1.141-4.871-2.28-6.936-2.683l-9.789-1.912c.029-.109.083-.206.096-.322.389-3.351.8-5.004 1.624-6.969 3.936-.609 12.047-2.909 13.521-11.475.602-3.507.006-6.627-1.725-9.03-1.789-2.484-4.78-4.162-8.424-4.72-6.274-.977-11.974 3.1-13.854 7.587a2.145 2.145 0 001.151 2.811 2.153 2.153 0 002.814-1.153c1.215-2.898 5.077-5.64 9.242-5 2.491.382 4.478 1.442 5.589 2.987 1.058 1.464 1.384 3.413.975 5.786-1.111 6.465-8.035 7.81-10.964 8.087a2.15 2.15 0 00-1.747 1.24c-1.435 3.125-1.991 5.22-2.466 9.351l-7.098-1.386c-2.269-.447-4.947.4-6.763 1.944-5.602-2.42-11.117-3.813-16.586-4.167-.04-2.51.14-4.02.582-5.788 3.8-1.2 11.464-4.7 11.624-13.392.063-3.558-.997-6.55-3.073-8.664-2.149-2.185-5.356-3.387-9.038-3.387-6.351 0-11.369 4.878-12.547 9.598a2.147 2.147 0 004.169 1.04c.765-3.049 4.183-6.342 8.378-6.342 2.525 0 4.642.746 5.974 2.102 1.266 1.289 1.888 3.166 1.842 5.575-.122 6.558-6.762 8.938-9.611 9.658a2.15 2.15 0 00-1.54 1.494c-.82 2.866-1.1 4.873-1.06 8.055-5.945.21-11.856 1.64-17.801 4.305-1.815-1.598-4.542-2.478-6.857-2.025l-5.887 1.15c-.256-2.279-.23-3.74.013-5.459 3.651-1.59 10.907-5.875 10.154-14.537-.309-3.543-1.678-6.41-3.96-8.292-2.36-1.95-5.678-2.82-9.347-2.424-6.316.664-10.794 6.044-11.47 10.86a2.148 2.148 0 004.253.596c.439-3.114 3.495-6.747 7.666-7.187 2.506-.265 4.698.258 6.162 1.466 1.396 1.151 2.207 2.952 2.416 5.352.568 6.535-5.787 9.597-8.545 10.61a2.156 2.156 0 00-1.378 1.645c-.517 2.958-.584 4.987-.2 8.194l-10.938 2.138c-2.253.44-5.526 1.755-7.46 2.995l-.218.14c-1.782-.813-3.888-1.04-5.675-.489l-20.51 6.296c-2.192.673-5.317 2.326-7.106 3.762l-10.213 8.191c-2.44 1.958-2.985 5.649-1.216 8.227l9.276 13.529c1.704 2.484 5.242 3.587 8.06 2.504l4.164-1.604a1.242 1.242 0 011.018.027c.307.149.533.431.642.789.076.251 7.53 25.449 9.463 43.795 1.904 18.074-2.798 33.596-2.847 33.752-.487 1.573-.258 3.178.622 4.4.88 1.222 2.331 1.947 3.974 1.984.055 0 1.573.038 4.213.038 7.211 0 22.793-.244 39.791-2.035 7.16-.754 15.038-1.876 23.405-3.327a318.89 318.89 0 005.047-.071c2.746.524 5.458 1.164 8.102 1.571 23.08 3.54 43.658 3.718 43.863 3.718h.135c1.569 0 3-.782 3.94-1.911.971-1.16 1.338-2.812 1.007-4.4-.038-.185-3.8-18.607-1.445-33.943 2.387-15.549 11.496-43.056 11.587-43.334.145-.44.42-.651.627-.74.211-.091.544-.16.969.029l6.298 2.84c.024.009.051.005.075.016.194.078.389.115.596.135.058.007.122.034.186.034.007 0 .016.004.025.004.062 0 .127-.038.189-.042a2.22 2.22 0 00.638-.138c.097-.042.175-.111.264-.164.167-.1.322-.207.458-.349.033-.031.071-.045.1-.076l13.158-15.718c2.035-2.442 1.758-6.142-.629-8.251zm-81.041-21.002c-2.731 2.666-8.311 6.873-16.32 6.873-7.891 0-13.46-4.14-16.231-6.809 10.893-4.542 21.358-4.564 32.551-.064zm-62.71 3.035l21.061-4.113c1.246-.245 2.92.491 3.593 1.431.316.442 7.882 10.818 21.736 10.818 13.858 0 21.427-10.376 21.74-10.818.673-.94 2.356-1.682 3.593-1.431l21.061 4.113c1.709.334 4.495 1.454 5.962 2.396l11.011 7.071c.729.467.965 1.482.514 2.22l-8.712 14.378c-.533.88-2.057 1.484-3.042 1.204l-3.111-.866a5.662 5.662 0 00-1.522-.211c-2.643 0-4.887 1.917-5.338 4.56-.205 1.184-4.945 29.187-4.945 45.293 0 16.301 6.56 34.05 6.84 34.796.109.294.114.545.012.716-.105.167-.327.282-.636.324-.204.027-20.358 2.585-43.427 2.585-23.063 0-43.223-2.558-43.425-2.589-.28-.036-.487-.129-.558-.258-.073-.129-.049-.355.063-.615.273-.64 6.713-15.872 6.713-34.956 0-18.854-4.693-44.265-4.893-45.336-.5-2.676-2.73-4.543-5.42-4.543-.498 0-.994.067-1.483.196l-4.31 1.156c-.963.26-2.385-.349-2.863-1.229l-7.807-14.427c-.429-.791-.138-1.911.62-2.398L76.3 89.183c1.465-.943 4.252-2.063 5.96-2.394zm1.898 95.608c-1.022.109-1.455-.14-2.253-.594-1.027-.586-2.44-1.388-4.825-1.135-2.39.249-3.6 1.327-4.484 2.107-.682.606-1.062.942-2.08 1.051-1.018.106-1.456-.142-2.253-.596-.514-.293-1.118-.635-1.898-.88.024-.882.04-1.778.04-2.691.862.482 1.98 1.036 3.68 1.036.278 0 .571-.018.88-.047 2.389-.249 3.6-1.325 4.482-2.107.685-.604 1.062-.942 2.08-1.051 1.025-.098 1.46.142 2.256.596 1.026.584 2.435 1.377 4.822 1.133.371-.04.673-.124.984-.2a96.047 96.047 0 01-.648 3.2c-.22.082-.467.142-.783.178zm2.256-8.647a4.697 4.697 0 01-.182.147c-.685.606-1.058.942-2.076 1.051-1.022.109-1.458-.14-2.255-.598-1.027-.582-2.438-1.38-4.827-1.131-2.391.249-3.6 1.327-4.485 2.107-.684.606-1.062.942-2.08 1.051-1.017.111-1.455-.14-2.253-.596-.531-.302-1.169-.655-1.987-.898a82.683 82.683 0 00-.204-2.897.676.676 0 01.067.035c.893.509 2.077 1.18 3.944 1.18.278 0 .571-.015.88-.046 2.391-.247 3.6-1.327 4.482-2.107.685-.607 1.063-.94 2.08-1.049 1.023-.1 1.458.138 2.254.593 1.026.587 2.438 1.389 4.822 1.136a7.379 7.379 0 002.096-.52 60.512 60.512 0 01-.276 2.542zm-30.102-48.034c-.454-1.52-1.47-2.731-2.863-3.418-1.395-.684-2.975-.751-4.455-.18l-4.165 1.605c-.969.369-2.389-.069-2.976-.925l-9.275-13.529c-.509-.742-.34-1.888.362-2.451l10.214-8.189c1.36-1.09 4.013-2.495 5.68-3.006l18.178-5.578-4.05 2.602c-2.635 1.691-3.562 5.307-2.073 8.056l7.805 14.427c1.404 2.593 4.893 4.106 7.753 3.333l4.311-1.156c.74-.2 1.425.243 1.565.983.046.26 4.822 26.093 4.822 44.551 0 .971-.027 1.929-.06 2.88-.322.231-.602.469-.851.691-.684.607-1.058.942-2.076 1.049-1.022.109-1.455-.142-2.253-.598-1.027-.584-2.438-1.38-4.825-1.135-2.393.253-3.602 1.326-4.484 2.111-.682.604-1.062.942-2.08 1.051-1.018.109-1.456-.142-2.253-.6-.67-.38-1.534-.822-2.696-1.038-2.376-18.28-8.962-40.547-9.256-41.536zm7.195 80.861c-.282-.007-.502-.08-.589-.2-.087-.122-.087-.349-.004-.618.142-.455 2.433-8.002 3.229-18.791.893.509 2.073 1.176 3.94 1.176.278 0 .57-.016.88-.047 2.389-.249 3.6-1.327 4.482-2.107.684-.604 1.062-.942 2.08-1.051 1.022-.1 1.458.14 2.253.596.912.517 2.16 1.16 4.08 1.142-1.542 5.755-3.053 9.356-3.084 9.424-.649 1.514-.591 3.132.158 4.445.749 1.309 2.113 2.178 3.742 2.384.129.018 8.482 1.076 20.567 1.843-22.22 2.22-41.536 1.813-41.734 1.804zm123.717-36.754c-2.471 16.118 1.324 34.654 1.484 35.434.062.302.029.553-.098.704-.128.154-.382.209-.677.227-.154-.004-11.996-.315-27.712-2.011 7.525-.627 12.303-1.233 12.4-1.247 1.612-.204 2.983-1.064 3.765-2.36.782-1.295.904-2.915.335-4.435-.064-.176-6.568-17.785-6.568-33.294 0-8.198 1.315-19.865 2.575-29.211l22.167 5.18c-2.813 9.406-6.289 21.984-7.671 31.013zm8.924-35.133l-22.822-5.338c.113-.78.222-1.536.329-2.26l23.169 5.42c-.216.691-.44 1.413-.676 2.178zm27.192-24.443l-12.114 14.469-4.811-2.173c-1.435-.647-3.058-.665-4.46-.053-1.4.611-2.487 1.82-2.98 3.311-.062.191-.373 1.129-.847 2.604l-23.829-5.571c.434-2.778.725-4.5.734-4.569.126-.727.748-1.14 1.473-.935l3.111.866c2.82.791 6.365-.638 7.869-3.12l8.716-14.378c1.646-2.722.811-6.337-1.867-8.06l-5.105-3.28 18.585 6.68c1.642.591 4.225 2.12 5.533 3.274l9.814 8.657c.651.576.729 1.616.178 2.278z" fill="currentColor"/></svg>