<svg viewBox="0 0 256 256" fill="none" xmlns="http://www.w3.org/2000/svg"><path d="M203.693 179.052c-13.499-32.324-26.254-62.854-11.435-104.796.011-.027.011-.053.011-.08.01-.015.031-.02.031-.036 5.908-19.588-.195-30.794-3.104-34.7-2.085-2.808-4.556-4.756-6.969-5.622V2.64A2.644 2.644 0 00179.588 0a2.644 2.644 0 00-2.64 2.64v33.295c0 5.453-18.621 13.064-48.945 13.064-30.325 0-48.946-7.606-48.946-13.064V2.639a2.64 2.64 0 00-5.279 0v31.174c-2.418.871-4.894 2.824-6.98 5.627-2.903 3.911-9.017 15.112-3.104 34.7.006.016.021.02.027.037.005.026 0 .052.01.079 14.825 41.942 2.07 72.477-11.435 104.801C42.81 201.776 33 225.259 33 253.361A2.644 2.644 0 0035.64 256h184.72a2.64 2.64 0 002.64-2.639c-.005-28.102-9.809-51.585-19.307-74.309zM53.136 190.855c.11.644.601 1.161 1.272 1.161a1.363 1.363 0 000-2.724c-.306 0-.55.153-.776.327.538-1.309 1.077-2.607 1.615-3.916.307-.248.523-.586.523-1.008 0-.048-.048-.079-.053-.122.48-1.161.961-2.317 1.441-3.473a1774.83 1774.83 0 002.941-7.078c.607-.132 1.098-.602 1.098-1.256 0-.28-.153-.502-.295-.718a395.995 395.995 0 003.96-10.04c.142.053.253.175.422.175.75 0 1.356-.613 1.356-1.362 0-.576-.406-.977-.908-1.172a211.758 211.758 0 003.632-10.731 1.363 1.363 0 001.352 1.341c.755 0 1.362-.612 1.362-1.362 0-.755-.607-1.367-1.362-1.367-.697 0-1.23.549-1.31 1.235.46-1.494.925-2.982 1.342-4.502a1.357 1.357 0 001.325-1.352c0-.496-.312-.844-.708-1.087 1.838-7.047 3.178-14.31 3.79-21.868.25.269.592.454.993.454a1.356 1.356 0 100-2.713c-.316 0-.58.153-.813.332.08-1.277.09-2.576.127-3.864.211.132.417.28.681.28.75 0 1.357-.607 1.357-1.356a1.36 1.36 0 00-1.357-1.362c-.243 0-.422.148-.618.258.011-1.245-.026-2.517-.058-3.779.212.132.412.28.676.28a1.36 1.36 0 001.357-1.362c0-.749-.607-1.356-1.357-1.356-.296 0-.533.153-.755.311a118.454 118.454 0 00-.248-4.048c.248.29.591.49 1.003.49.75 0 1.357-.607 1.357-1.356a1.36 1.36 0 00-1.357-1.362c-.549 0-.929.37-1.15.839-.534-5.531-1.521-11.237-3.026-17.138.016-.09.1-.148.1-.243a1.34 1.34 0 00-.385-.93c-.327-1.224-.686-2.459-1.056-3.705.032 0 .053.032.085.032.755 0 1.362-.612 1.362-1.362 0-.75-.607-1.356-1.362-1.356-.322 0-.592.153-.824.337-.39-1.219-.723-2.422-1.161-3.663-1.505-4.988-2.091-9.253-2.191-12.98.016-.084.1-.142.1-.231 0-.09-.085-.154-.1-.243-.127-8.688 2.65-14.009 4.366-16.379.65-.1 1.177-.602 1.177-1.283 0-.02-.021-.031-.021-.052.897-.977 1.774-1.742 2.523-2.18.196.417.47.813.734 1.214-.306.248-.528.59-.528 1.013 0 .75.613 1.357 1.368 1.357.322 0 .591-.153.823-.343 2.075 2.037 5.116 3.81 8.843 5.325.18.544.597.987 1.204.987.248 0 .438-.147.644-.269 4.34 1.573 9.477 2.83 15.073 3.753-.428.227-.771.597-.771 1.114 0 .75.607 1.362 1.351 1.362.766 0 1.373-.613 1.373-1.362 0-.338-.153-.628-.359-.866 1.067.164 2.144.312 3.236.449-.052.142-.169.253-.169.412a1.362 1.362 0 002.725 0c0-.037-.037-.064-.043-.1.93.1 1.88.184 2.825.269.095.66.607 1.192 1.293 1.192.602 0 1.025-.438 1.204-.981 1.035.079 2.075.148 3.12.21.227.434.591.771 1.119.771.481 0 .829-.295 1.067-.675 1.108.047 2.217.095 3.331.116.243.322.586.554 1.024.554.428 0 .766-.221 1.014-.533.639.005 1.278.026 1.922.026.644 0 1.288-.015 1.927-.026.248.312.591.533 1.019.533.438 0 .776-.237 1.024-.554 1.114-.026 2.222-.074 3.331-.116.243.38.591.675 1.077.675.523 0 .887-.337 1.109-.77 1.045-.058 2.09-.127 3.125-.211.174.543.597.981 1.204.981.686 0 1.198-.533 1.288-1.193.95-.09 1.895-.168 2.824-.269-.005.037-.042.058-.042.1a1.362 1.362 0 102.724 0c0-.158-.116-.269-.169-.411a119.52 119.52 0 003.242-.454c-.206.237-.359.528-.359.866 0 .75.618 1.361 1.352 1.361.765 0 1.372-.612 1.372-1.361 0-.523-.343-.887-.776-1.114 5.602-.93 10.733-2.185 15.073-3.758.2.121.396.269.654.269.602 0 1.025-.444 1.204-.992 3.717-1.515 6.752-3.289 8.827-5.321.238.19.518.343.84.343.744 0 1.351-.607 1.351-1.356 0-.428-.222-.771-.533-1.02.264-.4.544-.796.734-1.213.749.438 1.626 1.214 2.529 2.19 0 .016-.016.027-.016.043 0 .67.522 1.16 1.156 1.272 1.716 2.364 4.509 7.706 4.366 16.442-.011.068-.079.11-.079.184 0 .07.063.111.074.18-.101 3.737-.676 8.018-2.191 13.032-.438 1.24-.771 2.439-1.162 3.663-.232-.18-.496-.332-.802-.332-.745 0-1.362.607-1.362 1.356 0 .75.617 1.362 1.362 1.362.021 0 .037-.021.058-.021-.38 1.283-.755 2.56-1.082 3.827-.18.227-.333.485-.333.797 0 .084.074.132.09.211-1.505 5.906-2.492 11.612-3.025 17.149-.222-.448-.592-.813-1.125-.813a1.37 1.37 0 00-1.372 1.362c0 .755.617 1.357 1.372 1.357.386 0 .729-.18.977-.444a114.65 114.65 0 00-.248 3.996c-.217-.153-.444-.306-.729-.306-.755 0-1.372.607-1.372 1.357a1.37 1.37 0 001.372 1.361c.254 0 .449-.147.65-.274-.032 1.261-.069 2.523-.058 3.763-.191-.105-.359-.248-.592-.248a1.37 1.37 0 00-1.372 1.362c0 .75.617 1.357 1.372 1.357.259 0 .454-.148.66-.275.037 1.288.048 2.587.127 3.853-.227-.174-.486-.327-.787-.327-.755 0-1.372.607-1.372 1.357 0 .749.617 1.356 1.372 1.356.386 0 .724-.169.972-.433.612 7.554 1.953 14.806 3.79 21.853-.39.237-.697.586-.697 1.077 0 .733.597 1.314 1.315 1.345.412 1.484.866 2.951 1.314 4.413-.116-.633-.612-1.145-1.267-1.145a1.37 1.37 0 00-1.362 1.367 1.37 1.37 0 001.362 1.362c.729 0 1.326-.597 1.347-1.325a214.237 214.237 0 003.632 10.72c-.496.195-.892.591-.892 1.167 0 .749.596 1.361 1.351 1.361.159 0 .269-.116.412-.168a394.417 394.417 0 003.96 10.044c-.138.217-.291.433-.291.708 0 .649.486 1.113 1.088 1.251.976 2.364 1.953 4.729 2.94 7.083.486 1.161.966 2.328 1.447 3.494-.005.043-.042.064-.042.106 0 .412.206.755.501.998a918.797 918.797 0 011.621 3.921c-.227-.163-.465-.322-.76-.322-.755 0-1.362.613-1.362 1.367 0 .75.607 1.357 1.362 1.357.66 0 1.145-.512 1.262-1.14a360.29 360.29 0 014.038 10.409c-.681.074-1.225.602-1.225 1.298 0 .755.608 1.367 1.363 1.367.29 0 .522-.153.744-.311 1.241 3.431 2.434 6.893 3.511 10.425-.064.153-.19.279-.19.459 0 .459.269.802.623 1.05.353 1.209.675 2.439 1.008 3.658-.1-.021-.158-.111-.264-.111-.755 0-1.373.613-1.373 1.367 0 .75.618 1.357 1.373 1.357.338 0 .639-.153.882-.37a137.568 137.568 0 013.231 16.812c-.006.037-.043.058-.043.1 0 .085.074.127.085.206.201 1.557.369 3.13.512 4.719-.338.248-.591.591-.591 1.04 0 .507.322.871.728 1.103.09 1.219.19 2.433.238 3.663-.533.185-.966.607-.966 1.209 0 .153.116.264.163.401h-3.056c.052-.137.169-.248.169-.401 0-.755-.618-1.367-1.352-1.367-.755 0-1.373.612-1.373 1.367 0 .153.117.264.169.401h-3.046c.048-.137.164-.248.164-.401a1.36 1.36 0 00-1.352-1.367c-.755 0-1.362.612-1.362 1.367 0 .153.116.264.164.401h-3.052c.048-.137.164-.248.164-.401a1.36 1.36 0 00-1.352-1.367c-.754 0-1.362.612-1.362 1.367 0 .153.117.264.164.401h-3.051c.047-.137.163-.248.163-.401 0-.755-.596-1.367-1.362-1.367-.755 0-1.351.612-1.351 1.367 0 .153.116.264.163.401h-3.062c.048-.137.164-.248.164-.401 0-.755-.597-1.367-1.352-1.367-.755 0-1.351.612-1.351 1.367 0 .153.116.264.164.401h-3.057c.053-.137.169-.248.169-.401a1.37 1.37 0 00-1.362-1.367 1.37 1.37 0 00-1.362 1.367c0 .153.116.264.168.401h-3.046c.048-.137.164-.248.164-.401a1.36 1.36 0 00-1.352-1.367c-.755 0-1.372.612-1.372 1.367 0 .153.116.264.169.401h-3.047c.048-.137.164-.248.164-.401 0-.755-.607-1.367-1.362-1.367-.755 0-1.351.612-1.351 1.367 0 .153.116.264.163.401h-3.051c.047-.137.163-.248.163-.401a1.36 1.36 0 00-1.351-1.367c-.766 0-1.373.612-1.373 1.367 0 .153.116.264.169.401h-3.057c.048-.137.164-.248.164-.401 0-.755-.597-1.367-1.351-1.367-.755 0-1.352.612-1.352 1.367 0 .153.116.264.164.401h-3.062c.047-.137.163-.248.163-.401a1.36 1.36 0 00-1.351-1.367c-.755 0-1.362.612-1.362 1.367 0 .153.116.264.163.401h-3.041c.053-.137.169-.248.169-.401 0-.755-.607-1.367-1.372-1.367-.734 0-1.352.612-1.352 1.367 0 .153.116.264.169.401h-3.051c.052-.137.169-.248.169-.401a1.37 1.37 0 00-1.363-1.367c-.754 0-1.362.612-1.362 1.367 0 .153.117.264.164.401h-3.041c.048-.137.164-.248.164-.401a1.363 1.363 0 10-2.724 0c0 .153.116.264.163.401h-3.051c.047-.137.163-.248.163-.401 0-.755-.596-1.367-1.351-1.367s-1.362.612-1.362 1.367c0 .153.116.264.163.401h-3.04c.047-.137.163-.248.163-.401 0-.755-.607-1.367-1.362-1.367-.755 0-1.341.623-1.341 1.377 0 .154.116.264.169.402h-3.5c.047-.138.164-.248.164-.402a1.356 1.356 0 10-2.714 0c0 .154.116.264.164.402h-3.047c.048-.138.164-.248.164-.402 0-.754-.602-1.367-1.351-1.367a1.36 1.36 0 00-1.363 1.367c0 .154.117.264.164.402h-3.057c.048-.138.169-.248.169-.402 0-.754-.612-1.367-1.362-1.367-.755 0-1.362.613-1.362 1.367 0 .154.116.264.169.402h-3.046c.047-.138.169-.248.169-.402 0-.754-.607-1.367-1.362-1.367a1.36 1.36 0 00-1.362 1.367c0 .154.116.264.163.402h-3.041c.048-.138.169-.248.169-.402a1.361 1.361 0 10-2.724 0c0 .154.116.264.169.402h-3.057c.048-.138.164-.248.164-.402a1.36 1.36 0 00-1.362-1.367c-.75 0-1.352.613-1.352 1.367 0 .154.116.264.164.402h-3.052c.048-.138.17-.248.17-.402 0-.754-.613-1.367-1.363-1.367-.755 0-1.362.613-1.362 1.367 0 .154.116.264.17.402h-3.047c.048-.138.169-.248.169-.402a1.359 1.359 0 10-2.719 0c0 .154.116.264.164.402h-3.057c.047-.138.169-.248.169-.402 0-.754-.607-1.367-1.352-1.367-.755 0-1.372.613-1.372 1.367 0 .154.116.264.169.402h-3.052c.048-.138.17-.248.17-.402 0-.754-.608-1.367-1.358-1.367-.755 0-1.367.613-1.367 1.367 0 .154.116.264.169.402h-3.041c.047-.138.169-.248.169-.402 0-.754-.607-1.367-1.362-1.367-.75 0-1.362.613-1.362 1.367 0 .154.116.264.169.402H66.45c.048-.138.17-.248.17-.402 0-.754-.608-1.367-1.358-1.367-.755 0-1.362.613-1.362 1.367 0 .154.116.264.17.402h-3.057c.047-.138.168-.248.168-.402 0-.754-.607-1.367-1.351-1.367-.76 0-1.367.613-1.367 1.367 0 .154.116.264.168.402h-3.046c.048-.138.17-.248.17-.402 0-.754-.608-1.367-1.363-1.367-.75 0-1.357.613-1.357 1.367 0 .154.116.264.17.402h-3.052c.047-.138.169-.248.169-.402 0-.754-.607-1.367-1.357-1.367-.755 0-1.368.613-1.368 1.367 0 .154.117.264.17.402H44.73c.047-.138.169-.248.169-.402 0-.754-.607-1.367-1.357-1.367-.755 0-1.362.613-1.362 1.367 0 .154.116.264.169.402h-3.046c.047-.138.168-.248.168-.402 0-.601-.438-1.024-.981-1.208.047-1.23.153-2.444.232-3.658.417-.232.744-.597.744-1.109 0-.454-.258-.797-.607-1.045.137-1.567.306-3.114.496-4.655.021-.101.111-.159.111-.264 0-.053-.047-.079-.053-.127a139.245 139.245 0 013.226-16.78c.243.217.55.37.898.37.75 0 1.357-.607 1.357-1.357 0-.755-.608-1.367-1.357-1.367-.111 0-.18.095-.285.116.332-1.219.654-2.454 1.008-3.663.359-.248.628-.591.628-1.056 0-.184-.127-.316-.195-.475 1.077-3.52 2.275-6.983 3.516-10.419.227.164.465.322.765.322.75 0 1.357-.612 1.357-1.367 0-.707-.56-1.246-1.246-1.309 1.31-3.5 2.656-6.973 4.05-10.414z" fill="currentColor"/><path d="M185.284 48.814a1.362 1.362 0 100-2.724 1.362 1.362 0 000 2.724zM179.857 48.814a1.362 1.362 0 100-2.724 1.362 1.362 0 000 2.724zM174.414 48.814a1.362 1.362 0 100-2.724 1.362 1.362 0 000 2.724zM185.284 54.779a1.362 1.362 0 100-2.724 1.362 1.362 0 000 2.724zM179.857 54.779a1.362 1.362 0 100-2.724 1.362 1.362 0 000 2.724zM174.414 54.779a1.362 1.362 0 100-2.724 1.362 1.362 0 000 2.724zM168.992 54.779a1.36 1.36 0 000-2.719 1.36 1.36 0 00-1.373 1.357c0 .75.607 1.362 1.373 1.362zM163.544 54.779a1.362 1.362 0 100-2.724 1.362 1.362 0 000 2.724zM158.111 54.779a1.362 1.362 0 100-2.724 1.362 1.362 0 000 2.724zM130.943 60.743a1.361 1.361 0 10.001-2.723 1.361 1.361 0 00-.001 2.723zM136.376 60.743a1.362 1.362 0 100-2.724 1.362 1.362 0 000 2.724zM185.284 60.743a1.362 1.362 0 100-2.724 1.362 1.362 0 000 2.724zM179.857 60.743a1.362 1.362 0 100-2.724 1.362 1.362 0 000 2.724zM174.414 60.743a1.362 1.362 0 100-2.724 1.362 1.362 0 000 2.724zM168.992 60.743a1.36 1.36 0 000-2.718c-.766 0-1.373.612-1.373 1.362 0 .75.607 1.356 1.373 1.356zM163.544 60.743a1.362 1.362 0 100-2.724 1.362 1.362 0 000 2.724zM158.111 60.743a1.362 1.362 0 100-2.724 1.362 1.362 0 000 2.724zM152.668 60.743a1.36 1.36 0 001.373-1.356c0-.75-.608-1.362-1.373-1.362-.734 0-1.352.612-1.352 1.362 0 .75.618 1.356 1.352 1.356zM147.246 60.743a1.362 1.362 0 100-2.724 1.362 1.362 0 000 2.724zM141.808 60.743a1.361 1.361 0 10.001-2.723 1.361 1.361 0 00-.001 2.723zM130.943 66.718a1.361 1.361 0 10.001-2.723 1.361 1.361 0 00-.001 2.723zM136.376 66.718a1.362 1.362 0 100-2.724 1.362 1.362 0 000 2.724zM185.284 66.718a1.362 1.362 0 100-2.724 1.362 1.362 0 000 2.724zM179.857 66.718a1.362 1.362 0 100-2.724 1.362 1.362 0 000 2.724zM174.414 66.718a1.362 1.362 0 100-2.724 1.362 1.362 0 000 2.724zM168.992 66.713a1.36 1.36 0 000-2.718 1.36 1.36 0 00-1.373 1.356c0 .75.607 1.362 1.373 1.362zM163.544 66.718a1.362 1.362 0 100-2.724 1.362 1.362 0 000 2.724zM158.111 66.718a1.362 1.362 0 100-2.724 1.362 1.362 0 000 2.724zM152.668 66.713c.765 0 1.373-.612 1.373-1.362a1.362 1.362 0 00-2.725 0c0 .75.618 1.362 1.352 1.362zM147.246 66.718a1.362 1.362 0 100-2.724 1.362 1.362 0 000 2.724zM141.808 66.718a1.361 1.361 0 10.001-2.723 1.361 1.361 0 00-.001 2.723zM130.943 72.683a1.361 1.361 0 10.001-2.723 1.361 1.361 0 00-.001 2.723zM136.376 72.683a1.362 1.362 0 100-2.724 1.362 1.362 0 000 2.724zM185.284 72.683a1.362 1.362 0 100-2.724 1.362 1.362 0 000 2.724zM179.857 72.683a1.362 1.362 0 100-2.724 1.362 1.362 0 000 2.724zM174.414 72.683a1.362 1.362 0 100-2.724 1.362 1.362 0 000 2.724zM168.992 72.683a1.36 1.36 0 000-2.718c-.766 0-1.373.612-1.373 1.361 0 .75.607 1.357 1.373 1.357zM163.544 72.683a1.362 1.362 0 100-2.724 1.362 1.362 0 000 2.724zM158.111 72.683a1.362 1.362 0 100-2.724 1.362 1.362 0 000 2.724zM152.668 72.683a1.36 1.36 0 001.373-1.357c0-.75-.608-1.361-1.373-1.361-.734 0-1.352.612-1.352 1.361 0 .75.618 1.357 1.352 1.357zM147.246 72.683a1.362 1.362 0 100-2.724 1.362 1.362 0 000 2.724zM141.808 72.683a1.361 1.361 0 10.001-2.723 1.361 1.361 0 00-.001 2.723zM130.943 78.653a1.361 1.361 0 10.001-2.723 1.361 1.361 0 00-.001 2.723zM136.376 78.653a1.362 1.362 0 100-2.724 1.362 1.362 0 000 2.724zM179.857 78.653a1.362 1.362 0 100-2.724 1.362 1.362 0 000 2.724zM174.414 78.653a1.362 1.362 0 100-2.724 1.362 1.362 0 000 2.724zM168.992 78.647a1.36 1.36 0 000-2.718 1.36 1.36 0 00-1.373 1.357c0 .75.607 1.361 1.373 1.361zM163.544 78.653a1.362 1.362 0 100-2.724 1.362 1.362 0 000 2.724zM158.111 78.653a1.362 1.362 0 100-2.724 1.362 1.362 0 000 2.724zM152.668 78.647c.765 0 1.373-.612 1.373-1.361a1.362 1.362 0 00-2.725 0c0 .75.618 1.361 1.352 1.361zM147.246 78.653a1.362 1.362 0 100-2.724 1.362 1.362 0 000 2.724zM141.808 78.653a1.361 1.361 0 10.001-2.723 1.361 1.361 0 00-.001 2.723zM130.943 84.617a1.361 1.361 0 10.001-2.723 1.361 1.361 0 00-.001 2.723zM136.376 84.617a1.362 1.362 0 100-2.724 1.362 1.362 0 000 2.724zM179.857 84.617a1.362 1.362 0 100-2.724 1.362 1.362 0 000 2.724zM174.414 84.617a1.362 1.362 0 100-2.724 1.362 1.362 0 000 2.724zM168.992 84.612a1.36 1.36 0 000-2.718 1.36 1.36 0 00-1.373 1.356c0 .75.607 1.362 1.373 1.362zM163.544 84.617a1.362 1.362 0 100-2.724 1.362 1.362 0 000 2.724zM158.111 84.617a1.362 1.362 0 100-2.724 1.362 1.362 0 000 2.724zM152.668 84.612c.765 0 1.373-.612 1.373-1.362a1.362 1.362 0 00-2.725 0c0 .75.618 1.362 1.352 1.362zM147.246 84.617a1.362 1.362 0 100-2.724 1.362 1.362 0 000 2.724zM141.808 84.617a1.361 1.361 0 10.001-2.723 1.361 1.361 0 00-.001 2.723zM130.943 90.582a1.361 1.361 0 10.001-2.723 1.361 1.361 0 00-.001 2.723zM136.376 90.582a1.362 1.362 0 100-2.724 1.362 1.362 0 000 2.724zM179.857 90.582a1.362 1.362 0 100-2.724 1.362 1.362 0 000 2.724zM174.414 90.582a1.362 1.362 0 100-2.724 1.362 1.362 0 000 2.724zM168.992 90.582a1.36 1.36 0 000-2.718c-.766 0-1.373.612-1.373 1.361 0 .75.607 1.357 1.373 1.357zM163.544 90.582a1.362 1.362 0 100-2.724 1.362 1.362 0 000 2.724zM158.111 90.582a1.362 1.362 0 100-2.724 1.362 1.362 0 000 2.724zM152.668 90.582a1.36 1.36 0 001.373-1.357c0-.75-.608-1.362-1.373-1.362-.734 0-1.352.613-1.352 1.362 0 .75.618 1.357 1.352 1.357zM147.246 90.582a1.362 1.362 0 100-2.724 1.362 1.362 0 000 2.724zM141.808 90.582a1.361 1.361 0 10.001-2.723 1.361 1.361 0 00-.001 2.723zM130.943 96.552a1.361 1.361 0 10.001-2.723 1.361 1.361 0 00-.001 2.723zM136.376 96.552a1.362 1.362 0 100-2.724 1.362 1.362 0 000 2.724zM179.857 96.552a1.362 1.362 0 100-2.724 1.362 1.362 0 000 2.724zM174.414 96.552a1.362 1.362 0 100-2.724 1.362 1.362 0 000 2.724zM168.992 96.552a1.36 1.36 0 000-2.719 1.36 1.36 0 00-1.373 1.357c0 .75.607 1.362 1.373 1.362zM163.544 96.552a1.362 1.362 0 100-2.724 1.362 1.362 0 000 2.724zM158.111 96.552a1.362 1.362 0 100-2.724 1.362 1.362 0 000 2.724zM152.668 96.552c.765 0 1.373-.613 1.373-1.362a1.362 1.362 0 00-2.725 0c0 .75.618 1.362 1.352 1.362zM147.246 96.552a1.362 1.362 0 100-2.724 1.362 1.362 0 000 2.724zM141.808 96.552a1.361 1.361 0 10.001-2.723 1.361 1.361 0 00-.001 2.723zM130.943 102.516a1.362 1.362 0 100-2.723 1.362 1.362 0 000 2.723zM136.376 102.516a1.362 1.362 0 100-2.725 1.362 1.362 0 000 2.725zM174.414 102.516a1.362 1.362 0 100-2.725 1.362 1.362 0 000 2.725zM168.992 102.511a1.36 1.36 0 000-2.718c-.766 0-1.373.612-1.373 1.361 0 .755.607 1.357 1.373 1.357zM163.544 102.516a1.362 1.362 0 100-2.725 1.362 1.362 0 000 2.725zM158.111 102.516a1.362 1.362 0 100-2.725 1.362 1.362 0 000 2.725zM152.668 102.511a1.36 1.36 0 001.373-1.357c0-.749-.608-1.361-1.373-1.361-.734 0-1.352.612-1.352 1.361a1.36 1.36 0 001.352 1.357zM147.246 102.516a1.362 1.362 0 100-2.725 1.362 1.362 0 000 2.725zM141.808 102.516a1.362 1.362 0 100-2.723 1.362 1.362 0 000 2.723zM130.943 108.486a1.362 1.362 0 100-2.723 1.362 1.362 0 000 2.723zM136.376 108.486a1.362 1.362 0 100-2.725 1.362 1.362 0 000 2.725zM174.414 108.486a1.362 1.362 0 100-2.725 1.362 1.362 0 000 2.725zM168.992 108.486a1.36 1.36 0 000-2.718 1.36 1.36 0 00-1.373 1.356c0 .75.607 1.362 1.373 1.362zM163.544 108.486a1.362 1.362 0 100-2.725 1.362 1.362 0 000 2.725zM158.111 108.486a1.362 1.362 0 100-2.725 1.362 1.362 0 000 2.725zM152.668 108.486c.765 0 1.373-.612 1.373-1.362a1.36 1.36 0 00-1.373-1.356c-.734 0-1.352.607-1.352 1.356 0 .75.618 1.362 1.352 1.362zM147.246 108.486a1.362 1.362 0 100-2.725 1.362 1.362 0 000 2.725zM141.808 108.486a1.362 1.362 0 100-2.723 1.362 1.362 0 000 2.723zM130.943 120.41a1.357 1.357 0 100-2.714 1.357 1.357 0 000 2.714zM136.376 120.41a1.358 1.358 0 10-.001-2.715 1.358 1.358 0 00.001 2.715zM174.414 120.41a1.358 1.358 0 10-.001-2.715 1.358 1.358 0 00.001 2.715zM168.992 120.415c.744 0 1.351-.607 1.351-1.357 0-.754-.607-1.356-1.351-1.356a1.36 1.36 0 00-1.373 1.356c0 .75.607 1.357 1.373 1.357zM163.544 120.41a1.357 1.357 0 10-.001-2.713 1.357 1.357 0 00.001 2.713zM158.111 120.41a1.358 1.358 0 10-.001-2.715 1.358 1.358 0 00.001 2.715zM152.668 120.415a1.36 1.36 0 001.373-1.357c0-.754-.608-1.356-1.373-1.356-.734 0-1.352.607-1.352 1.356 0 .75.618 1.357 1.352 1.357zM147.246 120.41a1.358 1.358 0 10-.001-2.715 1.358 1.358 0 00.001 2.715zM141.808 120.41a1.357 1.357 0 100-2.714 1.357 1.357 0 000 2.714zM130.943 126.38a1.362 1.362 0 100-2.723 1.362 1.362 0 000 2.723zM136.376 126.38a1.362 1.362 0 100-2.725 1.362 1.362 0 000 2.725zM179.857 126.38a1.362 1.362 0 100-2.725 1.362 1.362 0 000 2.725zM174.414 126.38a1.362 1.362 0 100-2.725 1.362 1.362 0 000 2.725zM168.992 126.38c.744 0 1.351-.607 1.351-1.362 0-.75-.607-1.367-1.351-1.367-.766 0-1.373.617-1.373 1.367a1.36 1.36 0 001.373 1.362zM163.544 126.38a1.362 1.362 0 100-2.725 1.362 1.362 0 000 2.725zM158.111 126.38a1.362 1.362 0 100-2.725 1.362 1.362 0 000 2.725zM152.668 126.38c.765 0 1.373-.607 1.373-1.362 0-.75-.608-1.367-1.373-1.367a1.363 1.363 0 000 2.729zM147.246 126.38a1.362 1.362 0 100-2.725 1.362 1.362 0 000 2.725zM141.808 126.38a1.362 1.362 0 100-2.723 1.362 1.362 0 000 2.723zM130.943 132.349a1.36 1.36 0 100-2.723 1.362 1.362 0 100 2.723zM136.376 132.349a1.361 1.361 0 10.001-2.723 1.361 1.361 0 00-.001 2.723zM179.857 132.349a1.361 1.361 0 10.001-2.723 1.361 1.361 0 00-.001 2.723zM174.414 132.349a1.361 1.361 0 10.001-2.723 1.361 1.361 0 00-.001 2.723zM168.992 132.349c.744 0 1.351-.607 1.351-1.361a1.36 1.36 0 00-1.351-1.362 1.36 1.36 0 100 2.723zM163.544 132.349a1.361 1.361 0 10.001-2.723 1.361 1.361 0 00-.001 2.723zM158.111 132.349a1.361 1.361 0 10.001-2.723 1.361 1.361 0 00-.001 2.723zM152.668 132.349a1.361 1.361 0 10.023-2.722 1.361 1.361 0 00-.023 2.722zM147.246 132.349a1.361 1.361 0 10.001-2.723 1.361 1.361 0 00-.001 2.723zM141.808 132.349a1.36 1.36 0 100-2.723 1.362 1.362 0 100 2.723zM130.943 138.314a1.356 1.356 0 10.001-2.713 1.356 1.356 0 00-.001 2.713zM136.376 138.314a1.357 1.357 0 100-2.714 1.357 1.357 0 000 2.714zM179.857 138.314a1.357 1.357 0 100-2.714 1.357 1.357 0 000 2.714zM174.414 138.314a1.357 1.357 0 100-2.714 1.357 1.357 0 000 2.714zM168.992 138.314c.744 0 1.351-.607 1.351-1.362 0-.749-.607-1.356-1.351-1.356a1.36 1.36 0 100 2.718zM163.544 138.314a1.356 1.356 0 100-2.712 1.356 1.356 0 000 2.712zM158.111 138.314a1.357 1.357 0 100-2.714 1.357 1.357 0 000 2.714zM152.668 138.314c.765 0 1.373-.607 1.373-1.362a1.36 1.36 0 00-1.373-1.356c-.734 0-1.352.607-1.352 1.356 0 .755.618 1.362 1.352 1.362zM147.246 138.314a1.357 1.357 0 100-2.714 1.357 1.357 0 000 2.714zM141.808 138.314a1.356 1.356 0 10.001-2.713 1.356 1.356 0 00-.001 2.713zM130.943 144.278a1.36 1.36 0 100-2.723 1.362 1.362 0 000 2.723zM136.376 144.278a1.361 1.361 0 10.001-2.723 1.361 1.361 0 00-.001 2.723zM179.857 144.278a1.361 1.361 0 10.001-2.723 1.361 1.361 0 00-.001 2.723zM174.414 144.278a1.361 1.361 0 10.001-2.723 1.361 1.361 0 00-.001 2.723zM168.992 144.278a1.36 1.36 0 001.351-1.367c0-.749-.607-1.356-1.351-1.356a1.36 1.36 0 00-1.373 1.356c0 .755.607 1.367 1.373 1.367zM163.544 144.278a1.361 1.361 0 10.001-2.723 1.361 1.361 0 00-.001 2.723zM158.111 144.278a1.361 1.361 0 10.001-2.723 1.361 1.361 0 00-.001 2.723zM152.668 144.278c.765 0 1.373-.612 1.373-1.367a1.36 1.36 0 00-1.373-1.356c-.734 0-1.352.607-1.352 1.356 0 .755.618 1.367 1.352 1.367zM147.246 144.278a1.361 1.361 0 10.001-2.723 1.361 1.361 0 00-.001 2.723zM141.808 144.278a1.36 1.36 0 100-2.723 1.362 1.362 0 000 2.723zM130.943 150.254a1.362 1.362 0 100-2.723 1.362 1.362 0 000 2.723zM136.376 150.254a1.362 1.362 0 100-2.725 1.362 1.362 0 000 2.725zM179.857 150.254a1.362 1.362 0 100-2.725 1.362 1.362 0 000 2.725zM174.414 150.254a1.362 1.362 0 100-2.725 1.362 1.362 0 000 2.725zM168.992 150.254a1.36 1.36 0 001.351-1.362 1.36 1.36 0 00-1.351-1.367 1.365 1.365 0 100 2.729zM163.544 150.254a1.362 1.362 0 100-2.725 1.362 1.362 0 000 2.725zM158.111 150.254a1.362 1.362 0 100-2.725 1.362 1.362 0 000 2.725zM152.668 150.254a1.365 1.365 0 100-2.729c-.734 0-1.352.612-1.352 1.367 0 .749.618 1.362 1.352 1.362zM147.246 150.254a1.362 1.362 0 100-2.725 1.362 1.362 0 000 2.725zM141.808 150.254a1.362 1.362 0 100-2.723 1.362 1.362 0 000 2.723zM130.943 156.207a1.356 1.356 0 10.002-2.712 1.356 1.356 0 00-.002 2.712zM136.376 156.207a1.357 1.357 0 100-2.713 1.357 1.357 0 000 2.713zM185.284 156.207a1.357 1.357 0 100-2.713 1.357 1.357 0 000 2.713zM179.857 156.207a1.357 1.357 0 100-2.713 1.357 1.357 0 000 2.713zM174.414 156.207a1.357 1.357 0 100-2.713 1.357 1.357 0 000 2.713zM168.992 156.213c.744 0 1.351-.607 1.351-1.357 0-.755-.607-1.362-1.351-1.362a1.36 1.36 0 00-1.373 1.362c0 .744.607 1.357 1.373 1.357zM163.544 156.207a1.356 1.356 0 100-2.712 1.356 1.356 0 000 2.712zM158.111 156.207a1.357 1.357 0 100-2.713 1.357 1.357 0 000 2.713zM152.668 156.213a1.36 1.36 0 001.373-1.357 1.361 1.361 0 10-2.725 0c0 .744.618 1.357 1.352 1.357zM147.246 156.207a1.357 1.357 0 100-2.713 1.357 1.357 0 000 2.713zM141.808 156.207a1.356 1.356 0 10.002-2.712 1.356 1.356 0 00-.002 2.712zM130.943 162.172a1.356 1.356 0 10.001-2.713 1.356 1.356 0 00-.001 2.713zM136.376 162.172a1.357 1.357 0 100-2.714 1.357 1.357 0 000 2.714zM185.284 162.172a1.357 1.357 0 100-2.714 1.357 1.357 0 000 2.714zM179.857 162.172a1.357 1.357 0 100-2.714 1.357 1.357 0 000 2.714zM174.414 162.172a1.357 1.357 0 100-2.714 1.357 1.357 0 000 2.714zM168.992 162.177a1.36 1.36 0 001.351-1.362c0-.754-.607-1.356-1.351-1.356-.766 0-1.373.602-1.373 1.356 0 .745.607 1.362 1.373 1.362zM163.544 162.172a1.356 1.356 0 100-2.712 1.356 1.356 0 000 2.712zM158.111 162.172a1.357 1.357 0 100-2.714 1.357 1.357 0 000 2.714zM152.668 162.177c.765 0 1.373-.612 1.373-1.362 0-.754-.608-1.356-1.373-1.356-.734 0-1.352.602-1.352 1.356a1.37 1.37 0 001.352 1.362zM147.246 162.172a1.357 1.357 0 100-2.714 1.357 1.357 0 000 2.714zM141.808 162.172a1.356 1.356 0 10.001-2.713 1.356 1.356 0 00-.001 2.713zM130.943 168.152a1.36 1.36 0 100-2.723 1.362 1.362 0 100 2.723zM136.376 168.152a1.361 1.361 0 10.001-2.723 1.361 1.361 0 00-.001 2.723zM190.717 168.152a1.361 1.361 0 10.001-2.723 1.361 1.361 0 00-.001 2.723zM185.284 168.152a1.361 1.361 0 10.001-2.723 1.361 1.361 0 00-.001 2.723zM179.857 168.152a1.361 1.361 0 10.001-2.723 1.361 1.361 0 00-.001 2.723zM174.414 168.152a1.361 1.361 0 10.001-2.723 1.361 1.361 0 00-.001 2.723zM168.992 168.152a1.36 1.36 0 001.351-1.367 1.36 1.36 0 00-1.351-1.361 1.364 1.364 0 100 2.728zM163.544 168.152a1.361 1.361 0 10.001-2.723 1.361 1.361 0 00-.001 2.723zM158.111 168.152a1.361 1.361 0 10.001-2.723 1.361 1.361 0 00-.001 2.723zM152.668 168.152a1.364 1.364 0 100-2.728c-.734 0-1.352.612-1.352 1.361 0 .755.618 1.367 1.352 1.367zM147.246 168.152a1.361 1.361 0 10.001-2.723 1.361 1.361 0 00-.001 2.723zM141.808 168.152a1.36 1.36 0 100-2.723 1.362 1.362 0 100 2.723zM130.943 174.117a1.362 1.362 0 100-2.723 1.362 1.362 0 000 2.723zM136.376 174.117a1.362 1.362 0 100-2.725 1.362 1.362 0 000 2.725zM190.717 174.117a1.362 1.362 0 100-2.725 1.362 1.362 0 000 2.725zM185.284 174.117a1.362 1.362 0 100-2.725 1.362 1.362 0 000 2.725zM179.857 174.117a1.362 1.362 0 100-2.725 1.362 1.362 0 000 2.725zM174.414 174.117a1.362 1.362 0 100-2.725 1.362 1.362 0 000 2.725zM168.992 174.117c.744 0 1.351-.607 1.351-1.362a1.36 1.36 0 00-1.351-1.362 1.36 1.36 0 100 2.724zM163.544 174.117a1.362 1.362 0 100-2.725 1.362 1.362 0 000 2.725zM158.111 174.117a1.362 1.362 0 100-2.725 1.362 1.362 0 000 2.725zM152.668 174.117a1.361 1.361 0 10.023-2.723 1.361 1.361 0 00-.023 2.723zM147.246 174.117a1.362 1.362 0 100-2.725 1.362 1.362 0 000 2.725zM141.808 174.117a1.362 1.362 0 100-2.723 1.362 1.362 0 000 2.723zM130.943 180.081a1.356 1.356 0 10.002-2.712 1.356 1.356 0 00-.002 2.712zM136.376 180.081a1.357 1.357 0 100-2.713 1.357 1.357 0 000 2.713zM196.149 180.081a1.357 1.357 0 100-2.713 1.357 1.357 0 000 2.713zM190.717 180.081a1.356 1.356 0 100-2.712 1.356 1.356 0 000 2.712zM185.284 180.081a1.357 1.357 0 100-2.713 1.357 1.357 0 000 2.713zM179.857 180.081a1.357 1.357 0 100-2.713 1.357 1.357 0 000 2.713zM174.414 180.081a1.357 1.357 0 100-2.713 1.357 1.357 0 000 2.713zM168.992 180.081c.744 0 1.351-.607 1.351-1.356 0-.755-.607-1.362-1.351-1.362a1.36 1.36 0 100 2.718zM163.544 180.081a1.356 1.356 0 100-2.712 1.356 1.356 0 000 2.712zM158.111 180.081a1.357 1.357 0 100-2.713 1.357 1.357 0 000 2.713zM152.668 180.081a1.36 1.36 0 001.373-1.356 1.361 1.361 0 10-2.725 0c0 .749.618 1.356 1.352 1.356zM147.246 180.081a1.357 1.357 0 100-2.713 1.357 1.357 0 000 2.713zM141.808 180.081a1.356 1.356 0 10.002-2.712 1.356 1.356 0 00-.002 2.712zM130.943 186.051a1.361 1.361 0 100-2.723 1.361 1.361 0 100 2.723zM136.376 186.051a1.362 1.362 0 100-2.723 1.362 1.362 0 000 2.723zM196.149 186.051a1.362 1.362 0 100-2.723 1.362 1.362 0 000 2.723zM190.717 186.051a1.362 1.362 0 100-2.723 1.362 1.362 0 000 2.723zM185.284 186.051a1.362 1.362 0 100-2.723 1.362 1.362 0 000 2.723zM179.857 186.051a1.362 1.362 0 100-2.723 1.362 1.362 0 000 2.723zM174.414 186.051a1.362 1.362 0 100-2.723 1.362 1.362 0 000 2.723zM168.992 186.051a1.36 1.36 0 001.351-1.362 1.361 1.361 0 10-2.724 0c0 .75.607 1.362 1.373 1.362zM163.544 186.051a1.362 1.362 0 100-2.723 1.362 1.362 0 000 2.723zM158.111 186.051a1.362 1.362 0 100-2.723 1.362 1.362 0 000 2.723zM152.668 186.051a1.365 1.365 0 100-2.729c-.734 0-1.352.613-1.352 1.367 0 .75.618 1.362 1.352 1.362zM147.246 186.051a1.362 1.362 0 100-2.723 1.362 1.362 0 000 2.723zM141.808 186.051a1.361 1.361 0 100-2.723 1.361 1.361 0 100 2.723zM130.943 192.016a1.362 1.362 0 100-2.723 1.362 1.362 0 000 2.723zM136.376 192.016a1.362 1.362 0 100-2.725 1.362 1.362 0 000 2.725zM196.149 192.016a1.362 1.362 0 100-2.725 1.362 1.362 0 000 2.725zM190.717 192.016a1.362 1.362 0 100-2.725 1.362 1.362 0 000 2.725zM185.284 192.016a1.362 1.362 0 100-2.725 1.362 1.362 0 000 2.725zM179.857 192.016a1.362 1.362 0 100-2.725 1.362 1.362 0 000 2.725zM174.414 192.016a1.362 1.362 0 100-2.725 1.362 1.362 0 000 2.725zM168.992 192.016c.744 0 1.351-.607 1.351-1.357a1.36 1.36 0 00-1.351-1.367c-.766 0-1.373.612-1.373 1.367 0 .75.607 1.357 1.373 1.357zM163.544 192.016a1.362 1.362 0 100-2.725 1.362 1.362 0 000 2.725zM158.111 192.016a1.362 1.362 0 100-2.725 1.362 1.362 0 000 2.725zM152.668 192.016a1.36 1.36 0 001.373-1.357c0-.755-.608-1.367-1.373-1.367-.734 0-1.352.612-1.352 1.367 0 .75.618 1.357 1.352 1.357zM147.246 192.016a1.362 1.362 0 100-2.725 1.362 1.362 0 000 2.725zM141.808 192.016a1.362 1.362 0 100-2.723 1.362 1.362 0 000 2.723zM130.943 197.98a1.356 1.356 0 10.002-2.712 1.356 1.356 0 00-.002 2.712zM136.376 197.98a1.357 1.357 0 100-2.713 1.357 1.357 0 000 2.713zM201.592 197.98a1.357 1.357 0 100-2.713 1.357 1.357 0 000 2.713zM196.149 197.98a1.357 1.357 0 100-2.713 1.357 1.357 0 000 2.713zM190.717 197.98a1.356 1.356 0 100-2.712 1.356 1.356 0 000 2.712zM185.284 197.98a1.357 1.357 0 100-2.713 1.357 1.357 0 000 2.713zM179.857 197.98a1.357 1.357 0 100-2.713 1.357 1.357 0 000 2.713zM174.414 197.98a1.357 1.357 0 100-2.713 1.357 1.357 0 000 2.713zM168.992 197.98c.744 0 1.351-.601 1.351-1.356 0-.75-.607-1.357-1.351-1.357a1.356 1.356 0 100 2.713zM163.544 197.98a1.356 1.356 0 100-2.712 1.356 1.356 0 000 2.712zM158.111 197.98a1.357 1.357 0 100-2.713 1.357 1.357 0 000 2.713zM152.668 197.98a1.356 1.356 0 100-2.713c-.734 0-1.352.607-1.352 1.357 0 .755.618 1.356 1.352 1.356zM147.246 197.98a1.357 1.357 0 100-2.713 1.357 1.357 0 000 2.713zM141.808 197.98a1.356 1.356 0 10.002-2.712 1.356 1.356 0 00-.002 2.712zM130.943 203.95a1.362 1.362 0 100-2.723 1.362 1.362 0 000 2.723zM136.376 203.95a1.362 1.362 0 100-2.725 1.362 1.362 0 000 2.725zM201.592 203.95a1.362 1.362 0 100-2.725 1.362 1.362 0 000 2.725zM196.149 203.95a1.362 1.362 0 100-2.725 1.362 1.362 0 000 2.725zM190.717 203.95a1.362 1.362 0 100-2.725 1.362 1.362 0 000 2.725zM185.284 203.95a1.362 1.362 0 100-2.725 1.362 1.362 0 000 2.725zM179.857 203.95a1.362 1.362 0 100-2.725 1.362 1.362 0 000 2.725zM174.414 203.95a1.362 1.362 0 100-2.725 1.362 1.362 0 000 2.725zM168.992 203.95a1.36 1.36 0 001.351-1.367c0-.749-.607-1.356-1.351-1.356a1.36 1.36 0 00-1.373 1.356c0 .75.607 1.367 1.373 1.367zM163.544 203.95a1.362 1.362 0 100-2.725 1.362 1.362 0 000 2.725zM158.111 203.95a1.362 1.362 0 100-2.725 1.362 1.362 0 000 2.725zM152.668 203.95c.765 0 1.373-.612 1.373-1.367a1.36 1.36 0 00-1.373-1.356c-.734 0-1.352.607-1.352 1.356 0 .75.618 1.367 1.352 1.367zM147.246 203.95a1.362 1.362 0 100-2.725 1.362 1.362 0 000 2.725zM141.808 203.95a1.362 1.362 0 100-2.723 1.362 1.362 0 000 2.723zM130.943 114.45a1.36 1.36 0 100-2.723 1.362 1.362 0 000 2.723zM136.376 114.45a1.361 1.361 0 10.001-2.723 1.361 1.361 0 00-.001 2.723zM174.414 114.45a1.361 1.361 0 10.001-2.723 1.361 1.361 0 00-.001 2.723zM168.992 114.45a1.36 1.36 0 000-2.718c-.766 0-1.373.612-1.373 1.362a1.36 1.36 0 001.373 1.356zM163.544 114.45a1.361 1.361 0 10.001-2.723 1.361 1.361 0 00-.001 2.723zM158.111 114.45a1.361 1.361 0 10.001-2.723 1.361 1.361 0 00-.001 2.723zM152.668 114.45a1.36 1.36 0 001.373-1.356c0-.75-.608-1.362-1.373-1.362-.734 0-1.352.612-1.352 1.362 0 .749.618 1.356 1.352 1.356zM147.246 114.45a1.361 1.361 0 10.001-2.723 1.361 1.361 0 00-.001 2.723zM141.808 114.45a1.36 1.36 0 100-2.723 1.362 1.362 0 000 2.723zM130.943 209.909a1.356 1.356 0 10.002-2.712 1.356 1.356 0 00-.002 2.712zM136.376 209.909a1.357 1.357 0 100-2.713 1.357 1.357 0 000 2.713zM207.03 209.909a1.357 1.357 0 100-2.713 1.357 1.357 0 000 2.713zM201.592 209.909a1.357 1.357 0 100-2.713 1.357 1.357 0 000 2.713zM196.149 209.909a1.357 1.357 0 100-2.713 1.357 1.357 0 000 2.713zM190.717 209.909a1.356 1.356 0 100-2.712 1.356 1.356 0 000 2.712zM185.284 209.909a1.357 1.357 0 100-2.713 1.357 1.357 0 000 2.713zM179.857 209.909a1.357 1.357 0 100-2.713 1.357 1.357 0 000 2.713zM174.414 209.909a1.357 1.357 0 100-2.713 1.357 1.357 0 000 2.713zM168.992 209.915c.744 0 1.351-.607 1.351-1.362 0-.75-.607-1.357-1.351-1.357a1.36 1.36 0 00-1.373 1.357c0 .749.607 1.362 1.373 1.362zM163.544 209.909a1.356 1.356 0 100-2.712 1.356 1.356 0 000 2.712zM158.111 209.909a1.357 1.357 0 100-2.713 1.357 1.357 0 000 2.713zM152.668 209.915c.765 0 1.373-.607 1.373-1.362a1.362 1.362 0 00-2.725 0c0 .749.618 1.362 1.352 1.362zM147.246 209.909a1.357 1.357 0 100-2.713 1.357 1.357 0 000 2.713zM141.808 209.909a1.356 1.356 0 10.002-2.712 1.356 1.356 0 00-.002 2.712zM130.943 215.879a1.361 1.361 0 100-2.723 1.361 1.361 0 100 2.723zM136.376 215.879a1.362 1.362 0 100-2.723 1.362 1.362 0 000 2.723zM207.03 215.879a1.362 1.362 0 100-2.723 1.362 1.362 0 000 2.723zM201.592 215.879a1.362 1.362 0 100-2.723 1.362 1.362 0 000 2.723zM196.149 215.879a1.362 1.362 0 100-2.723 1.362 1.362 0 000 2.723zM190.717 215.879a1.362 1.362 0 100-2.723 1.362 1.362 0 000 2.723zM185.284 215.879a1.362 1.362 0 100-2.723 1.362 1.362 0 000 2.723zM179.857 215.879a1.362 1.362 0 100-2.723 1.362 1.362 0 000 2.723zM174.414 215.879a1.362 1.362 0 100-2.723 1.362 1.362 0 000 2.723zM168.992 215.879a1.36 1.36 0 001.351-1.362 1.361 1.361 0 10-2.724 0c0 .75.607 1.362 1.373 1.362zM163.544 215.879a1.362 1.362 0 100-2.723 1.362 1.362 0 000 2.723zM158.111 215.879a1.362 1.362 0 100-2.723 1.362 1.362 0 000 2.723zM152.668 215.879a1.365 1.365 0 100-2.729c-.734 0-1.352.613-1.352 1.367 0 .75.618 1.362 1.352 1.362zM147.246 215.879a1.362 1.362 0 100-2.723 1.362 1.362 0 000 2.723zM141.808 215.879a1.361 1.361 0 100-2.723 1.361 1.361 0 100 2.723zM130.943 221.844a1.362 1.362 0 100-2.723 1.362 1.362 0 000 2.723zM136.376 221.844a1.362 1.362 0 100-2.725 1.362 1.362 0 000 2.725zM207.03 221.844a1.362 1.362 0 100-2.725 1.362 1.362 0 000 2.725zM201.592 221.844a1.362 1.362 0 100-2.725 1.362 1.362 0 000 2.725zM196.149 221.844a1.362 1.362 0 100-2.725 1.362 1.362 0 000 2.725zM190.717 221.844a1.362 1.362 0 100-2.725 1.362 1.362 0 000 2.725zM185.284 221.844a1.362 1.362 0 100-2.725 1.362 1.362 0 000 2.725zM179.857 221.844a1.362 1.362 0 100-2.725 1.362 1.362 0 000 2.725zM174.414 221.844a1.362 1.362 0 100-2.725 1.362 1.362 0 000 2.725zM168.992 221.844c.744 0 1.351-.607 1.351-1.357a1.36 1.36 0 00-1.351-1.367c-.766 0-1.373.612-1.373 1.367 0 .75.607 1.357 1.373 1.357zM163.544 221.844a1.362 1.362 0 100-2.725 1.362 1.362 0 000 2.725zM158.111 221.844a1.362 1.362 0 100-2.725 1.362 1.362 0 000 2.725zM152.668 221.844a1.36 1.36 0 001.373-1.357c0-.755-.608-1.367-1.373-1.367-.734 0-1.352.612-1.352 1.367 0 .75.618 1.357 1.352 1.357zM147.246 221.844a1.362 1.362 0 100-2.725 1.362 1.362 0 000 2.725zM141.808 221.844a1.362 1.362 0 100-2.723 1.362 1.362 0 000 2.723zM130.943 227.808a1.356 1.356 0 10.002-2.712 1.356 1.356 0 00-.002 2.712zM136.376 227.808a1.357 1.357 0 100-2.713 1.357 1.357 0 000 2.713zM212.462 227.808a1.356 1.356 0 10.002-2.712 1.356 1.356 0 00-.002 2.712zM207.03 227.808a1.357 1.357 0 100-2.713 1.357 1.357 0 000 2.713zM201.592 227.808a1.357 1.357 0 100-2.713 1.357 1.357 0 000 2.713zM196.149 227.808a1.357 1.357 0 100-2.713 1.357 1.357 0 000 2.713zM190.717 227.808a1.356 1.356 0 100-2.712 1.356 1.356 0 000 2.712zM185.284 227.808a1.357 1.357 0 100-2.713 1.357 1.357 0 000 2.713zM179.857 227.808a1.357 1.357 0 100-2.713 1.357 1.357 0 000 2.713zM174.414 227.808a1.357 1.357 0 100-2.713 1.357 1.357 0 000 2.713zM168.992 227.808c.744 0 1.351-.607 1.351-1.356 0-.755-.607-1.362-1.351-1.362a1.36 1.36 0 100 2.718zM163.544 227.808a1.356 1.356 0 100-2.712 1.356 1.356 0 000 2.712zM158.111 227.808a1.357 1.357 0 100-2.713 1.357 1.357 0 000 2.713zM152.668 227.808a1.36 1.36 0 001.373-1.356 1.361 1.361 0 10-2.725 0c0 .749.618 1.356 1.352 1.356zM147.246 227.808a1.357 1.357 0 100-2.713 1.357 1.357 0 000 2.713zM141.808 227.808a1.356 1.356 0 10.002-2.712 1.356 1.356 0 00-.002 2.712zM130.943 233.773a1.356 1.356 0 10.001-2.713 1.356 1.356 0 00-.001 2.713zM136.376 233.773a1.357 1.357 0 100-2.714 1.357 1.357 0 000 2.714zM212.462 233.773a1.356 1.356 0 10.001-2.713 1.356 1.356 0 00-.001 2.713zM207.03 233.773a1.357 1.357 0 100-2.714 1.357 1.357 0 000 2.714zM201.592 233.773a1.357 1.357 0 100-2.714 1.357 1.357 0 000 2.714zM196.149 233.773a1.357 1.357 0 100-2.714 1.357 1.357 0 000 2.714zM190.717 233.773a1.356 1.356 0 100-2.712 1.356 1.356 0 000 2.712zM185.284 233.773a1.357 1.357 0 100-2.714 1.357 1.357 0 000 2.714zM179.857 233.773a1.357 1.357 0 100-2.714 1.357 1.357 0 000 2.714zM174.414 233.773a1.357 1.357 0 100-2.714 1.357 1.357 0 000 2.714zM168.992 233.773c.744 0 1.351-.607 1.351-1.362 0-.755-.607-1.357-1.351-1.357-.766 0-1.373.602-1.373 1.357a1.36 1.36 0 001.373 1.362zM163.544 233.773a1.356 1.356 0 100-2.712 1.356 1.356 0 000 2.712zM158.111 233.773a1.357 1.357 0 100-2.714 1.357 1.357 0 000 2.714zM152.668 233.773c.765 0 1.373-.607 1.373-1.362 0-.755-.608-1.357-1.373-1.357a1.36 1.36 0 000 2.719zM147.246 233.773a1.357 1.357 0 100-2.714 1.357 1.357 0 000 2.714zM141.808 233.773a1.356 1.356 0 10.001-2.713 1.356 1.356 0 00-.001 2.713zM130.943 239.743a1.357 1.357 0 100-2.714 1.357 1.357 0 000 2.714zM136.376 239.743a1.358 1.358 0 10-.001-2.715 1.358 1.358 0 00.001 2.715zM212.462 239.743a1.357 1.357 0 100-2.714 1.357 1.357 0 000 2.714zM207.03 239.743a1.358 1.358 0 10-.001-2.715 1.358 1.358 0 00.001 2.715zM201.592 239.743a1.358 1.358 0 10-.001-2.715 1.358 1.358 0 00.001 2.715zM196.149 239.743a1.358 1.358 0 10-.001-2.715 1.358 1.358 0 00.001 2.715zM190.717 239.743a1.357 1.357 0 10-.001-2.713 1.357 1.357 0 00.001 2.713zM185.284 239.743a1.358 1.358 0 10-.001-2.715 1.358 1.358 0 00.001 2.715zM179.857 239.743a1.358 1.358 0 10-.001-2.715 1.358 1.358 0 00.001 2.715zM174.414 239.743a1.358 1.358 0 10-.001-2.715 1.358 1.358 0 00.001 2.715zM168.992 239.743c.744 0 1.351-.607 1.351-1.362 0-.75-.607-1.357-1.351-1.357a1.36 1.36 0 100 2.719zM163.544 239.743a1.357 1.357 0 10-.001-2.713 1.357 1.357 0 00.001 2.713zM158.111 239.743a1.358 1.358 0 10-.001-2.715 1.358 1.358 0 00.001 2.715zM152.668 239.743c.765 0 1.373-.607 1.373-1.362a1.362 1.362 0 00-2.725 0c0 .755.618 1.362 1.352 1.362zM147.246 239.743a1.358 1.358 0 10-.001-2.715 1.358 1.358 0 00.001 2.715zM141.808 239.743a1.357 1.357 0 100-2.714 1.357 1.357 0 000 2.714zM130.943 245.707a1.361 1.361 0 100-2.723 1.361 1.361 0 100 2.723zM136.376 245.707a1.362 1.362 0 100-2.723 1.362 1.362 0 000 2.723zM212.462 245.707a1.361 1.361 0 100-2.723 1.361 1.361 0 100 2.723zM207.03 245.707a1.362 1.362 0 100-2.723 1.362 1.362 0 000 2.723zM201.592 245.707a1.362 1.362 0 100-2.723 1.362 1.362 0 000 2.723zM196.149 245.707a1.362 1.362 0 100-2.723 1.362 1.362 0 000 2.723zM190.717 245.707a1.362 1.362 0 100-2.723 1.362 1.362 0 000 2.723zM185.284 245.707a1.362 1.362 0 100-2.723 1.362 1.362 0 000 2.723zM179.857 245.707a1.362 1.362 0 100-2.723 1.362 1.362 0 000 2.723zM174.414 245.707a1.362 1.362 0 100-2.723 1.362 1.362 0 000 2.723zM168.992 245.712a1.36 1.36 0 001.351-1.367 1.36 1.36 0 00-1.351-1.361 1.364 1.364 0 100 2.728zM163.544 245.707a1.362 1.362 0 100-2.723 1.362 1.362 0 000 2.723zM158.111 245.707a1.362 1.362 0 100-2.723 1.362 1.362 0 000 2.723zM152.668 245.712a1.364 1.364 0 100-2.728c-.734 0-1.352.612-1.352 1.361 0 .755.618 1.367 1.352 1.367zM147.246 245.707a1.362 1.362 0 100-2.723 1.362 1.362 0 000 2.723zM141.808 245.707a1.361 1.361 0 100-2.723 1.361 1.361 0 100 2.723zM81.591 48.814a1.362 1.362 0 100-2.724 1.362 1.362 0 000 2.724zM76.154 48.814a1.362 1.362 0 100-2.724 1.362 1.362 0 000 2.724zM70.716 48.814a1.362 1.362 0 100-2.724 1.362 1.362 0 000 2.724zM97.884 54.779a1.362 1.362 0 100-2.724 1.362 1.362 0 000 2.724zM92.457 54.779a1.362 1.362 0 100-2.724 1.362 1.362 0 000 2.724zM87.019 54.779a1.362 1.362 0 100-2.724 1.362 1.362 0 000 2.724zM81.591 54.779a1.362 1.362 0 100-2.724 1.362 1.362 0 000 2.724zM76.154 54.779a1.362 1.362 0 100-2.724 1.362 1.362 0 000 2.724zM70.716 54.779a1.362 1.362 0 100-2.724 1.362 1.362 0 000 2.724zM119.635 60.743a1.362 1.362 0 100-2.724 1.362 1.362 0 000 2.724zM114.192 60.743a1.362 1.362 0 100-2.724 1.362 1.362 0 000 2.724zM108.754 60.743a1.362 1.362 0 100-2.724 1.362 1.362 0 000 2.724zM103.316 60.743a1.36 1.36 0 001.373-1.356c0-.75-.607-1.362-1.373-1.362a1.36 1.36 0 000 2.718zM97.884 60.743a1.362 1.362 0 100-2.724 1.362 1.362 0 000 2.724zM92.457 60.743a1.362 1.362 0 100-2.724 1.362 1.362 0 000 2.724zM87.019 60.743a1.362 1.362 0 100-2.724 1.362 1.362 0 000 2.724zM81.591 60.743a1.362 1.362 0 100-2.724 1.362 1.362 0 000 2.724zM76.154 60.743a1.362 1.362 0 100-2.724 1.362 1.362 0 000 2.724zM70.716 60.743a1.362 1.362 0 100-2.724 1.362 1.362 0 000 2.724zM125.057 60.743a1.362 1.362 0 100-2.724 1.362 1.362 0 000 2.724zM119.635 66.718a1.362 1.362 0 100-2.724 1.362 1.362 0 000 2.724zM114.192 66.718a1.362 1.362 0 100-2.724 1.362 1.362 0 000 2.724zM108.754 66.718a1.362 1.362 0 100-2.724 1.362 1.362 0 000 2.724zM103.316 66.713c.766 0 1.373-.612 1.373-1.362a1.36 1.36 0 00-1.373-1.356c-.744 0-1.351.607-1.351 1.356 0 .75.612 1.362 1.351 1.362zM97.884 66.718a1.362 1.362 0 100-2.724 1.362 1.362 0 000 2.724zM92.457 66.718a1.362 1.362 0 100-2.724 1.362 1.362 0 000 2.724zM87.019 66.718a1.362 1.362 0 100-2.724 1.362 1.362 0 000 2.724zM81.591 66.718a1.362 1.362 0 100-2.724 1.362 1.362 0 000 2.724zM76.154 66.718a1.362 1.362 0 100-2.724 1.362 1.362 0 000 2.724zM70.716 66.718a1.362 1.362 0 100-2.724 1.362 1.362 0 000 2.724zM125.057 66.718a1.362 1.362 0 100-2.724 1.362 1.362 0 000 2.724zM119.635 72.683a1.362 1.362 0 100-2.724 1.362 1.362 0 000 2.724zM114.192 72.683a1.362 1.362 0 100-2.724 1.362 1.362 0 000 2.724zM108.754 72.683a1.362 1.362 0 100-2.724 1.362 1.362 0 000 2.724zM103.316 72.683a1.36 1.36 0 001.373-1.357c0-.75-.607-1.361-1.373-1.361a1.36 1.36 0 000 2.718zM97.884 72.683a1.362 1.362 0 100-2.724 1.362 1.362 0 000 2.724zM92.457 72.683a1.362 1.362 0 100-2.724 1.362 1.362 0 000 2.724zM87.019 72.683a1.362 1.362 0 100-2.724 1.362 1.362 0 000 2.724zM81.591 72.683a1.362 1.362 0 100-2.724 1.362 1.362 0 000 2.724zM76.154 72.683a1.362 1.362 0 100-2.724 1.362 1.362 0 000 2.724zM70.716 72.683a1.362 1.362 0 100-2.724 1.362 1.362 0 000 2.724zM125.057 72.683a1.362 1.362 0 100-2.724 1.362 1.362 0 000 2.724zM119.635 78.653a1.362 1.362 0 100-2.724 1.362 1.362 0 000 2.724zM114.192 78.653a1.362 1.362 0 100-2.724 1.362 1.362 0 000 2.724zM108.754 78.653a1.362 1.362 0 100-2.724 1.362 1.362 0 000 2.724zM103.316 78.647c.766 0 1.373-.612 1.373-1.361a1.36 1.36 0 00-1.373-1.357c-.744 0-1.351.607-1.351 1.357s.612 1.361 1.351 1.361zM97.884 78.653a1.362 1.362 0 100-2.724 1.362 1.362 0 000 2.724zM92.457 78.653a1.362 1.362 0 100-2.724 1.362 1.362 0 000 2.724zM87.019 78.653a1.362 1.362 0 100-2.724 1.362 1.362 0 000 2.724zM81.591 78.653a1.362 1.362 0 100-2.724 1.362 1.362 0 000 2.724zM76.154 78.653a1.362 1.362 0 100-2.724 1.362 1.362 0 000 2.724zM125.057 78.653a1.362 1.362 0 100-2.724 1.362 1.362 0 000 2.724zM119.635 84.617a1.362 1.362 0 100-2.724 1.362 1.362 0 000 2.724zM114.192 84.617a1.362 1.362 0 100-2.724 1.362 1.362 0 000 2.724zM108.754 84.617a1.362 1.362 0 100-2.724 1.362 1.362 0 000 2.724zM103.316 84.612c.766 0 1.373-.612 1.373-1.362a1.36 1.36 0 00-1.373-1.356c-.744 0-1.351.607-1.351 1.356 0 .75.612 1.362 1.351 1.362zM97.884 84.617a1.362 1.362 0 100-2.724 1.362 1.362 0 000 2.724zM92.457 84.617a1.362 1.362 0 100-2.724 1.362 1.362 0 000 2.724zM87.019 84.617a1.362 1.362 0 100-2.724 1.362 1.362 0 000 2.724zM81.591 84.617a1.362 1.362 0 100-2.724 1.362 1.362 0 000 2.724zM76.154 84.617a1.362 1.362 0 100-2.724 1.362 1.362 0 000 2.724zM125.057 84.617a1.362 1.362 0 100-2.724 1.362 1.362 0 000 2.724zM119.635 90.582a1.362 1.362 0 100-2.724 1.362 1.362 0 000 2.724zM114.192 90.582a1.362 1.362 0 100-2.724 1.362 1.362 0 000 2.724zM108.754 90.582a1.362 1.362 0 100-2.724 1.362 1.362 0 000 2.724zM103.316 90.582a1.36 1.36 0 001.373-1.357c0-.75-.607-1.362-1.373-1.362a1.36 1.36 0 000 2.719zM97.884 90.582a1.362 1.362 0 100-2.724 1.362 1.362 0 000 2.724zM92.457 90.582a1.362 1.362 0 100-2.724 1.362 1.362 0 000 2.724zM87.019 90.582a1.362 1.362 0 100-2.724 1.362 1.362 0 000 2.724zM81.591 90.582a1.362 1.362 0 100-2.724 1.362 1.362 0 000 2.724zM76.154 90.582a1.362 1.362 0 100-2.724 1.362 1.362 0 000 2.724zM125.057 90.582a1.362 1.362 0 100-2.724 1.362 1.362 0 000 2.724zM119.635 96.552a1.362 1.362 0 100-2.724 1.362 1.362 0 000 2.724zM114.192 96.552a1.362 1.362 0 100-2.724 1.362 1.362 0 000 2.724zM108.754 96.552a1.362 1.362 0 100-2.724 1.362 1.362 0 000 2.724zM103.316 96.552c.766 0 1.373-.613 1.373-1.362a1.36 1.36 0 00-1.373-1.357c-.744 0-1.351.607-1.351 1.357s.612 1.362 1.351 1.362zM97.884 96.552a1.362 1.362 0 100-2.724 1.362 1.362 0 000 2.724zM92.457 96.552a1.362 1.362 0 100-2.724 1.362 1.362 0 000 2.724zM87.019 96.552a1.362 1.362 0 100-2.724 1.362 1.362 0 000 2.724zM81.591 96.552a1.362 1.362 0 100-2.724 1.362 1.362 0 000 2.724zM76.154 96.552a1.362 1.362 0 100-2.724 1.362 1.362 0 000 2.724zM125.057 96.552a1.362 1.362 0 100-2.724 1.362 1.362 0 000 2.724zM119.635 102.516a1.362 1.362 0 100-2.725 1.362 1.362 0 000 2.725zM114.192 102.516a1.362 1.362 0 100-2.725 1.362 1.362 0 000 2.725zM108.754 102.516a1.362 1.362 0 100-2.725 1.362 1.362 0 000 2.725zM103.316 102.511a1.36 1.36 0 001.373-1.357c0-.749-.607-1.361-1.373-1.361a1.36 1.36 0 000 2.718zM97.884 102.516a1.362 1.362 0 100-2.724 1.362 1.362 0 000 2.724zM92.457 102.516a1.362 1.362 0 100-2.724 1.362 1.362 0 000 2.724zM87.019 102.516a1.362 1.362 0 100-2.724 1.362 1.362 0 000 2.724zM81.591 102.516a1.362 1.362 0 100-2.724 1.362 1.362 0 000 2.724zM125.057 102.516a1.362 1.362 0 100-2.725 1.362 1.362 0 000 2.725zM119.635 108.486a1.362 1.362 0 100-2.725 1.362 1.362 0 000 2.725zM114.192 108.486a1.362 1.362 0 100-2.725 1.362 1.362 0 000 2.725zM108.754 108.486a1.362 1.362 0 100-2.725 1.362 1.362 0 000 2.725zM103.316 108.486c.766 0 1.373-.612 1.373-1.362a1.36 1.36 0 00-1.373-1.356c-.744 0-1.351.607-1.351 1.356 0 .75.612 1.362 1.351 1.362zM97.884 108.486a1.362 1.362 0 100-2.724 1.362 1.362 0 000 2.724zM92.457 108.486a1.362 1.362 0 100-2.724 1.362 1.362 0 000 2.724zM87.019 108.486a1.362 1.362 0 100-2.724 1.362 1.362 0 000 2.724zM81.591 108.486a1.362 1.362 0 100-2.724 1.362 1.362 0 000 2.724zM125.057 108.486a1.362 1.362 0 100-2.725 1.362 1.362 0 000 2.725zM119.635 120.41a1.358 1.358 0 10-.001-2.715 1.358 1.358 0 00.001 2.715zM114.192 120.41a1.358 1.358 0 10-.001-2.715 1.358 1.358 0 00.001 2.715zM108.754 120.41a1.358 1.358 0 10-.001-2.715 1.358 1.358 0 00.001 2.715zM103.316 120.415a1.356 1.356 0 100-2.713c-.744 0-1.351.607-1.351 1.356 0 .75.612 1.357 1.351 1.357zM97.884 120.41a1.357 1.357 0 10-.001-2.714 1.357 1.357 0 000 2.714zM92.457 120.41a1.357 1.357 0 10-.001-2.714 1.357 1.357 0 000 2.714zM87.019 120.41a1.357 1.357 0 10-.001-2.714 1.357 1.357 0 000 2.714zM81.591 120.41a1.357 1.357 0 100-2.714 1.357 1.357 0 000 2.714zM125.057 120.41a1.358 1.358 0 10-.001-2.715 1.358 1.358 0 00.001 2.715zM119.635 126.38a1.362 1.362 0 100-2.725 1.362 1.362 0 000 2.725zM114.192 126.38a1.362 1.362 0 100-2.725 1.362 1.362 0 000 2.725zM108.754 126.38a1.362 1.362 0 100-2.725 1.362 1.362 0 000 2.725zM103.316 126.38a1.36 1.36 0 001.373-1.362c0-.75-.607-1.367-1.373-1.367-.744 0-1.351.617-1.351 1.367a1.36 1.36 0 001.351 1.362zM97.884 126.38a1.362 1.362 0 100-2.724 1.362 1.362 0 000 2.724zM92.457 126.38a1.362 1.362 0 100-2.724 1.362 1.362 0 000 2.724zM87.019 126.38a1.362 1.362 0 100-2.724 1.362 1.362 0 000 2.724zM81.591 126.38a1.362 1.362 0 100-2.724 1.362 1.362 0 000 2.724zM76.154 126.38a1.362 1.362 0 100-2.724 1.362 1.362 0 000 2.724zM125.057 126.38a1.362 1.362 0 100-2.725 1.362 1.362 0 000 2.725zM119.635 132.349a1.361 1.361 0 10.001-2.723 1.361 1.361 0 00-.001 2.723zM114.192 132.349a1.361 1.361 0 10.001-2.723 1.361 1.361 0 00-.001 2.723zM108.754 132.349a1.361 1.361 0 10.001-2.723 1.361 1.361 0 00-.001 2.723zM103.316 132.349a1.36 1.36 0 100-2.723 1.36 1.36 0 00-1.351 1.362 1.36 1.36 0 001.351 1.361zM97.884 132.349a1.361 1.361 0 10.001-2.723 1.361 1.361 0 00-.001 2.723zM92.457 132.349a1.361 1.361 0 10.001-2.723 1.361 1.361 0 00-.001 2.723zM87.019 132.349a1.361 1.361 0 10.001-2.723 1.361 1.361 0 00-.001 2.723zM81.591 132.349a1.361 1.361 0 10.002-2.723 1.361 1.361 0 00-.002 2.723zM76.154 132.349a1.361 1.361 0 10.001-2.723 1.361 1.361 0 00-.001 2.723zM125.057 132.349a1.361 1.361 0 10.001-2.723 1.361 1.361 0 00-.001 2.723zM119.635 138.314a1.357 1.357 0 100-2.714 1.357 1.357 0 000 2.714zM114.192 138.314a1.357 1.357 0 100-2.714 1.357 1.357 0 000 2.714zM108.754 138.314a1.357 1.357 0 100-2.714 1.357 1.357 0 000 2.714zM103.316 138.314a1.36 1.36 0 100-2.718 1.36 1.36 0 000 2.718zM97.884 138.314a1.357 1.357 0 100-2.713 1.357 1.357 0 000 2.713zM92.457 138.314a1.357 1.357 0 100-2.713 1.357 1.357 0 000 2.713zM87.019 138.314a1.357 1.357 0 100-2.713 1.357 1.357 0 000 2.713zM81.591 138.314a1.357 1.357 0 10.001-2.713 1.357 1.357 0 000 2.713zM76.154 138.314a1.357 1.357 0 100-2.713 1.357 1.357 0 000 2.713zM125.057 138.314a1.357 1.357 0 100-2.714 1.357 1.357 0 000 2.714zM119.635 144.278a1.361 1.361 0 10.001-2.723 1.361 1.361 0 00-.001 2.723zM114.192 144.278a1.361 1.361 0 10.001-2.723 1.361 1.361 0 00-.001 2.723zM108.754 144.278a1.361 1.361 0 10.001-2.723 1.361 1.361 0 00-.001 2.723zM103.316 144.278c.766 0 1.373-.612 1.373-1.367a1.36 1.36 0 00-1.373-1.356c-.744 0-1.351.607-1.351 1.356 0 .755.612 1.367 1.351 1.367zM97.884 144.278a1.361 1.361 0 10.001-2.723 1.361 1.361 0 00-.001 2.723zM92.457 144.278a1.361 1.361 0 10.001-2.723 1.361 1.361 0 00-.001 2.723zM87.019 144.278a1.361 1.361 0 10.001-2.723 1.361 1.361 0 00-.001 2.723zM81.591 144.278a1.361 1.361 0 10.002-2.723 1.361 1.361 0 00-.002 2.723zM76.154 144.278a1.361 1.361 0 10.001-2.723 1.361 1.361 0 00-.001 2.723zM125.057 144.278a1.361 1.361 0 10.001-2.723 1.361 1.361 0 00-.001 2.723zM119.635 150.254a1.362 1.362 0 100-2.725 1.362 1.362 0 000 2.725zM114.192 150.254a1.362 1.362 0 100-2.725 1.362 1.362 0 000 2.725zM108.754 150.254a1.362 1.362 0 100-2.725 1.362 1.362 0 000 2.725zM103.316 150.254a1.365 1.365 0 100-2.729 1.36 1.36 0 00-1.351 1.367c0 .749.612 1.362 1.351 1.362zM97.884 150.254a1.362 1.362 0 100-2.724 1.362 1.362 0 000 2.724zM92.457 150.254a1.362 1.362 0 100-2.724 1.362 1.362 0 000 2.724zM87.019 150.254a1.362 1.362 0 100-2.724 1.362 1.362 0 000 2.724zM81.591 150.254a1.362 1.362 0 100-2.724 1.362 1.362 0 000 2.724zM76.154 150.254a1.362 1.362 0 100-2.724 1.362 1.362 0 000 2.724zM125.057 150.254a1.362 1.362 0 100-2.725 1.362 1.362 0 000 2.725zM119.635 156.207a1.357 1.357 0 100-2.713 1.357 1.357 0 000 2.713zM114.192 156.207a1.357 1.357 0 100-2.713 1.357 1.357 0 000 2.713zM108.754 156.207a1.357 1.357 0 100-2.713 1.357 1.357 0 000 2.713zM103.316 156.213a1.36 1.36 0 100-2.719c-.744 0-1.351.607-1.351 1.362 0 .744.612 1.357 1.351 1.357zM97.884 156.207a1.356 1.356 0 100-2.713 1.356 1.356 0 000 2.713zM92.457 156.207a1.356 1.356 0 100-2.713 1.356 1.356 0 000 2.713zM87.019 156.207a1.356 1.356 0 100-2.713 1.356 1.356 0 000 2.713zM81.591 156.207a1.356 1.356 0 10.002-2.713 1.356 1.356 0 00-.002 2.713zM76.154 156.207a1.356 1.356 0 100-2.713 1.356 1.356 0 000 2.713zM70.716 156.207a1.356 1.356 0 100-2.713 1.356 1.356 0 000 2.713zM125.057 156.207a1.357 1.357 0 100-2.713 1.357 1.357 0 000 2.713zM119.635 162.172a1.357 1.357 0 100-2.714 1.357 1.357 0 000 2.714zM114.192 162.172a1.357 1.357 0 100-2.714 1.357 1.357 0 000 2.714zM108.754 162.172a1.357 1.357 0 100-2.714 1.357 1.357 0 000 2.714zM103.316 162.177c.766 0 1.373-.612 1.373-1.362 0-.754-.607-1.356-1.373-1.356-.744 0-1.351.602-1.351 1.356 0 .745.612 1.362 1.351 1.362zM97.884 162.172a1.357 1.357 0 100-2.713 1.357 1.357 0 000 2.713zM92.457 162.172a1.357 1.357 0 100-2.713 1.357 1.357 0 000 2.713zM87.019 162.172a1.357 1.357 0 100-2.713 1.357 1.357 0 000 2.713zM81.591 162.172a1.357 1.357 0 10.001-2.713 1.357 1.357 0 000 2.713zM76.154 162.172a1.357 1.357 0 100-2.713 1.357 1.357 0 000 2.713zM70.716 162.172a1.357 1.357 0 100-2.713 1.357 1.357 0 000 2.713zM125.057 162.172a1.357 1.357 0 100-2.714 1.357 1.357 0 000 2.714zM119.635 168.152a1.361 1.361 0 10.001-2.723 1.361 1.361 0 00-.001 2.723zM114.192 168.152a1.361 1.361 0 10.001-2.723 1.361 1.361 0 00-.001 2.723zM108.754 168.152a1.361 1.361 0 10.001-2.723 1.361 1.361 0 00-.001 2.723zM103.316 168.152a1.365 1.365 0 100-2.728 1.36 1.36 0 00-1.351 1.361c0 .755.612 1.367 1.351 1.367zM97.884 168.152a1.361 1.361 0 10.001-2.723 1.361 1.361 0 00-.001 2.723zM92.457 168.152a1.361 1.361 0 10.001-2.723 1.361 1.361 0 00-.001 2.723zM87.019 168.152a1.361 1.361 0 10.001-2.723 1.361 1.361 0 00-.001 2.723zM81.591 168.152a1.361 1.361 0 10.002-2.723 1.361 1.361 0 00-.002 2.723zM76.154 168.152a1.361 1.361 0 10.001-2.723 1.361 1.361 0 00-.001 2.723zM70.716 168.152a1.361 1.361 0 10.001-2.723 1.361 1.361 0 00-.001 2.723zM65.284 168.152a1.361 1.361 0 100-2.723 1.361 1.361 0 000 2.723zM125.057 168.152a1.361 1.361 0 10.001-2.723 1.361 1.361 0 00-.001 2.723zM119.635 174.117a1.362 1.362 0 100-2.725 1.362 1.362 0 000 2.725zM114.192 174.117a1.362 1.362 0 100-2.725 1.362 1.362 0 000 2.725zM108.754 174.117a1.362 1.362 0 100-2.725 1.362 1.362 0 000 2.725zM103.316 174.117a1.36 1.36 0 100-2.724 1.36 1.36 0 00-1.351 1.362 1.36 1.36 0 001.351 1.362zM97.884 174.117a1.362 1.362 0 100-2.724 1.362 1.362 0 000 2.724zM92.457 174.117a1.362 1.362 0 100-2.724 1.362 1.362 0 000 2.724zM87.019 174.117a1.362 1.362 0 100-2.724 1.362 1.362 0 000 2.724zM81.591 174.117a1.362 1.362 0 100-2.724 1.362 1.362 0 000 2.724zM76.154 174.117a1.362 1.362 0 100-2.724 1.362 1.362 0 000 2.724zM70.716 174.117a1.362 1.362 0 100-2.724 1.362 1.362 0 000 2.724zM65.284 174.117a1.362 1.362 0 100-2.724 1.362 1.362 0 000 2.724zM125.057 174.117a1.362 1.362 0 100-2.725 1.362 1.362 0 000 2.725zM119.635 180.081a1.357 1.357 0 100-2.713 1.357 1.357 0 000 2.713zM114.192 180.081a1.357 1.357 0 100-2.713 1.357 1.357 0 000 2.713zM108.754 180.081a1.357 1.357 0 100-2.713 1.357 1.357 0 000 2.713zM103.316 180.081a1.36 1.36 0 100-2.718c-.744 0-1.351.607-1.351 1.362 0 .749.612 1.356 1.351 1.356zM97.884 180.081a1.356 1.356 0 100-2.713 1.356 1.356 0 000 2.713zM92.457 180.081a1.356 1.356 0 100-2.713 1.356 1.356 0 000 2.713zM87.019 180.081a1.356 1.356 0 100-2.713 1.356 1.356 0 000 2.713zM81.591 180.081a1.356 1.356 0 10.002-2.713 1.356 1.356 0 00-.002 2.713zM76.154 180.081a1.356 1.356 0 100-2.713 1.356 1.356 0 000 2.713zM70.716 180.081a1.356 1.356 0 100-2.713 1.356 1.356 0 000 2.713zM65.284 180.081a1.356 1.356 0 100-2.713 1.356 1.356 0 000 2.713zM59.851 180.081a1.356 1.356 0 100-2.713 1.356 1.356 0 000 2.713zM125.057 180.081a1.357 1.357 0 100-2.713 1.357 1.357 0 000 2.713zM119.635 186.051a1.362 1.362 0 100-2.723 1.362 1.362 0 000 2.723zM114.192 186.051a1.362 1.362 0 100-2.723 1.362 1.362 0 000 2.723zM108.754 186.051a1.362 1.362 0 100-2.723 1.362 1.362 0 000 2.723zM103.316 186.051a1.364 1.364 0 100-2.729c-.744 0-1.351.613-1.351 1.367 0 .75.612 1.362 1.351 1.362zM97.884 186.051a1.362 1.362 0 100-2.723 1.362 1.362 0 000 2.723zM92.457 186.051a1.362 1.362 0 100-2.723 1.362 1.362 0 000 2.723zM87.019 186.051a1.362 1.362 0 100-2.723 1.362 1.362 0 000 2.723zM81.591 186.051a1.362 1.362 0 10.002-2.723 1.362 1.362 0 00-.002 2.723zM76.154 186.051a1.362 1.362 0 100-2.723 1.362 1.362 0 000 2.723zM70.716 186.051a1.362 1.362 0 10.001-2.723 1.362 1.362 0 00-.001 2.723zM65.284 186.051a1.362 1.362 0 100-2.723 1.362 1.362 0 000 2.723zM59.851 186.051a1.362 1.362 0 10.001-2.723 1.362 1.362 0 00-.001 2.723zM125.057 186.051a1.362 1.362 0 100-2.723 1.362 1.362 0 000 2.723zM119.635 192.016a1.362 1.362 0 100-2.725 1.362 1.362 0 000 2.725zM114.192 192.016a1.362 1.362 0 100-2.725 1.362 1.362 0 000 2.725zM108.754 192.016a1.362 1.362 0 100-2.725 1.362 1.362 0 000 2.725zM103.316 192.016a1.36 1.36 0 001.373-1.357c0-.755-.607-1.367-1.373-1.367a1.36 1.36 0 00-1.351 1.367c0 .75.612 1.357 1.351 1.357zM97.884 192.016a1.362 1.362 0 100-2.724 1.362 1.362 0 000 2.724zM92.457 192.016a1.362 1.362 0 100-2.724 1.362 1.362 0 000 2.724zM87.019 192.016a1.362 1.362 0 100-2.724 1.362 1.362 0 000 2.724zM81.591 192.016a1.362 1.362 0 100-2.724 1.362 1.362 0 000 2.724zM76.154 192.016a1.362 1.362 0 100-2.724 1.362 1.362 0 000 2.724zM70.716 192.016a1.362 1.362 0 100-2.724 1.362 1.362 0 000 2.724zM65.284 192.016a1.362 1.362 0 100-2.724 1.362 1.362 0 000 2.724zM59.851 192.016a1.362 1.362 0 100-2.724 1.362 1.362 0 000 2.724zM125.057 192.016a1.362 1.362 0 100-2.725 1.362 1.362 0 000 2.725zM119.635 197.98a1.357 1.357 0 100-2.713 1.357 1.357 0 000 2.713zM114.192 197.98a1.357 1.357 0 100-2.713 1.357 1.357 0 000 2.713zM108.754 197.98a1.357 1.357 0 100-2.713 1.357 1.357 0 000 2.713zM103.316 197.98a1.356 1.356 0 100-2.713c-.744 0-1.351.607-1.351 1.357 0 .755.612 1.356 1.351 1.356zM97.884 197.98a1.356 1.356 0 100-2.713 1.356 1.356 0 000 2.713zM92.457 197.98a1.356 1.356 0 100-2.713 1.356 1.356 0 000 2.713zM87.019 197.98a1.356 1.356 0 100-2.713 1.356 1.356 0 000 2.713zM81.591 197.98a1.356 1.356 0 10.002-2.713 1.356 1.356 0 00-.002 2.713zM76.154 197.98a1.356 1.356 0 100-2.713 1.356 1.356 0 000 2.713zM70.716 197.98a1.356 1.356 0 100-2.713 1.356 1.356 0 000 2.713zM65.284 197.98a1.356 1.356 0 100-2.713 1.356 1.356 0 000 2.713zM59.851 197.98a1.356 1.356 0 100-2.713 1.356 1.356 0 000 2.713zM54.413 197.98a1.356 1.356 0 10.001-2.713 1.356 1.356 0 000 2.713zM125.057 197.98a1.357 1.357 0 100-2.713 1.357 1.357 0 000 2.713zM119.635 203.95a1.362 1.362 0 100-2.725 1.362 1.362 0 000 2.725zM114.192 203.95a1.362 1.362 0 100-2.725 1.362 1.362 0 000 2.725zM108.754 203.95a1.362 1.362 0 100-2.725 1.362 1.362 0 000 2.725zM103.316 203.95c.766 0 1.373-.612 1.373-1.367a1.36 1.36 0 00-1.373-1.356c-.744 0-1.351.607-1.351 1.356 0 .75.612 1.367 1.351 1.367zM97.884 203.95a1.362 1.362 0 100-2.724 1.362 1.362 0 000 2.724zM92.457 203.95a1.362 1.362 0 100-2.724 1.362 1.362 0 000 2.724zM87.019 203.95a1.362 1.362 0 100-2.724 1.362 1.362 0 000 2.724zM81.591 203.95a1.362 1.362 0 100-2.724 1.362 1.362 0 000 2.724zM76.154 203.95a1.362 1.362 0 100-2.724 1.362 1.362 0 000 2.724zM70.716 203.95a1.362 1.362 0 100-2.724 1.362 1.362 0 000 2.724zM65.284 203.95a1.362 1.362 0 100-2.724 1.362 1.362 0 000 2.724zM59.851 203.95a1.362 1.362 0 100-2.724 1.362 1.362 0 000 2.724zM54.413 203.95a1.362 1.362 0 100-2.724 1.362 1.362 0 000 2.724zM125.057 203.95a1.362 1.362 0 100-2.725 1.362 1.362 0 000 2.725zM119.635 114.45a1.361 1.361 0 10.001-2.723 1.361 1.361 0 00-.001 2.723zM114.192 114.45a1.361 1.361 0 10.001-2.723 1.361 1.361 0 00-.001 2.723zM108.754 114.45a1.361 1.361 0 10.001-2.723 1.361 1.361 0 00-.001 2.723zM103.316 114.45a1.36 1.36 0 001.373-1.356c0-.75-.607-1.362-1.373-1.362a1.36 1.36 0 000 2.718zM97.884 114.45a1.361 1.361 0 10.001-2.723 1.361 1.361 0 00-.001 2.723zM92.457 114.45a1.361 1.361 0 10.001-2.723 1.361 1.361 0 00-.001 2.723zM87.019 114.45a1.361 1.361 0 10.001-2.723 1.361 1.361 0 00-.001 2.723zM81.591 114.45a1.361 1.361 0 10.002-2.723 1.361 1.361 0 00-.002 2.723zM125.057 114.45a1.361 1.361 0 10.001-2.723 1.361 1.361 0 00-.001 2.723zM119.635 209.909a1.357 1.357 0 100-2.713 1.357 1.357 0 000 2.713zM114.192 209.909a1.357 1.357 0 100-2.713 1.357 1.357 0 000 2.713zM108.754 209.909a1.357 1.357 0 100-2.713 1.357 1.357 0 000 2.713zM103.316 209.915a1.36 1.36 0 100-2.719c-.744 0-1.351.607-1.351 1.357 0 .749.612 1.362 1.351 1.362zM97.884 209.909a1.356 1.356 0 100-2.713 1.356 1.356 0 000 2.713zM92.457 209.909a1.356 1.356 0 100-2.713 1.356 1.356 0 000 2.713zM87.019 209.909a1.356 1.356 0 100-2.713 1.356 1.356 0 000 2.713zM81.591 209.909a1.356 1.356 0 10.002-2.713 1.356 1.356 0 00-.002 2.713zM76.154 209.909a1.356 1.356 0 100-2.713 1.356 1.356 0 000 2.713zM70.716 209.909a1.356 1.356 0 100-2.713 1.356 1.356 0 000 2.713zM65.284 209.909a1.356 1.356 0 100-2.713 1.356 1.356 0 000 2.713zM59.851 209.909a1.356 1.356 0 100-2.713 1.356 1.356 0 000 2.713zM54.413 209.909a1.356 1.356 0 10.001-2.713 1.356 1.356 0 000 2.713zM48.98 209.909a1.356 1.356 0 10.002-2.713 1.356 1.356 0 00-.001 2.713zM125.057 209.909a1.357 1.357 0 100-2.713 1.357 1.357 0 000 2.713zM119.635 215.879a1.362 1.362 0 100-2.723 1.362 1.362 0 000 2.723zM114.192 215.879a1.362 1.362 0 100-2.723 1.362 1.362 0 000 2.723zM108.754 215.879a1.362 1.362 0 100-2.723 1.362 1.362 0 000 2.723zM103.316 215.879a1.364 1.364 0 100-2.729c-.744 0-1.351.613-1.351 1.367 0 .75.612 1.362 1.351 1.362zM97.884 215.879a1.362 1.362 0 100-2.723 1.362 1.362 0 000 2.723zM92.457 215.879a1.362 1.362 0 100-2.723 1.362 1.362 0 000 2.723zM87.019 215.879a1.362 1.362 0 100-2.723 1.362 1.362 0 000 2.723zM81.591 215.879a1.362 1.362 0 10.002-2.723 1.362 1.362 0 00-.002 2.723zM76.154 215.879a1.362 1.362 0 100-2.723 1.362 1.362 0 000 2.723zM70.716 215.879a1.362 1.362 0 10.001-2.723 1.362 1.362 0 00-.001 2.723zM65.284 215.879a1.362 1.362 0 100-2.723 1.362 1.362 0 000 2.723zM59.851 215.879a1.362 1.362 0 10.001-2.723 1.362 1.362 0 00-.001 2.723zM54.413 215.879a1.362 1.362 0 10.001-2.723 1.362 1.362 0 000 2.723zM48.98 215.879a1.362 1.362 0 10.002-2.723 1.362 1.362 0 00-.001 2.723zM125.057 215.879a1.362 1.362 0 100-2.723 1.362 1.362 0 000 2.723zM119.635 221.844a1.362 1.362 0 100-2.725 1.362 1.362 0 000 2.725zM114.192 221.844a1.362 1.362 0 100-2.725 1.362 1.362 0 000 2.725zM108.754 221.844a1.362 1.362 0 100-2.725 1.362 1.362 0 000 2.725zM103.316 221.844a1.36 1.36 0 001.373-1.357c0-.755-.607-1.367-1.373-1.367a1.36 1.36 0 00-1.351 1.367c0 .75.612 1.357 1.351 1.357zM97.884 221.844a1.362 1.362 0 100-2.724 1.362 1.362 0 000 2.724zM92.457 221.844a1.362 1.362 0 100-2.724 1.362 1.362 0 000 2.724zM87.019 221.844a1.362 1.362 0 100-2.724 1.362 1.362 0 000 2.724zM81.591 221.844a1.362 1.362 0 100-2.724 1.362 1.362 0 000 2.724zM76.154 221.844a1.362 1.362 0 100-2.724 1.362 1.362 0 000 2.724zM70.716 221.844a1.362 1.362 0 100-2.724 1.362 1.362 0 000 2.724zM65.284 221.844a1.362 1.362 0 100-2.724 1.362 1.362 0 000 2.724zM59.851 221.844a1.362 1.362 0 100-2.724 1.362 1.362 0 000 2.724zM54.413 221.844a1.362 1.362 0 100-2.724 1.362 1.362 0 000 2.724zM48.98 221.844a1.362 1.362 0 100-2.724 1.362 1.362 0 000 2.724zM125.057 221.844a1.362 1.362 0 100-2.725 1.362 1.362 0 000 2.725zM119.635 227.808a1.357 1.357 0 100-2.713 1.357 1.357 0 000 2.713zM114.192 227.808a1.357 1.357 0 100-2.713 1.357 1.357 0 000 2.713zM108.754 227.808a1.357 1.357 0 100-2.713 1.357 1.357 0 000 2.713zM103.316 227.808a1.36 1.36 0 100-2.718c-.744 0-1.351.607-1.351 1.362 0 .749.612 1.356 1.351 1.356zM97.884 227.808a1.356 1.356 0 100-2.713 1.356 1.356 0 000 2.713zM92.457 227.808a1.356 1.356 0 100-2.713 1.356 1.356 0 000 2.713zM87.019 227.808a1.356 1.356 0 100-2.713 1.356 1.356 0 000 2.713zM81.591 227.808a1.356 1.356 0 10.002-2.713 1.356 1.356 0 00-.002 2.713zM76.154 227.808a1.356 1.356 0 100-2.713 1.356 1.356 0 000 2.713zM70.716 227.808a1.356 1.356 0 100-2.713 1.356 1.356 0 000 2.713zM65.284 227.808a1.356 1.356 0 100-2.713 1.356 1.356 0 000 2.713zM59.851 227.808a1.356 1.356 0 100-2.713 1.356 1.356 0 000 2.713zM54.413 227.808a1.356 1.356 0 10.001-2.713 1.356 1.356 0 000 2.713zM48.98 227.808a1.356 1.356 0 10.002-2.713 1.356 1.356 0 00-.001 2.713zM43.543 227.808a1.356 1.356 0 100-2.713 1.356 1.356 0 000 2.713zM125.057 227.808a1.357 1.357 0 100-2.713 1.357 1.357 0 000 2.713zM119.635 233.773a1.357 1.357 0 100-2.714 1.357 1.357 0 000 2.714zM114.192 233.773a1.357 1.357 0 100-2.714 1.357 1.357 0 000 2.714zM108.754 233.773a1.357 1.357 0 100-2.714 1.357 1.357 0 000 2.714zM103.316 233.773a1.36 1.36 0 001.373-1.362c0-.755-.607-1.357-1.373-1.357-.744 0-1.351.602-1.351 1.357a1.36 1.36 0 001.351 1.362zM97.884 233.773a1.357 1.357 0 100-2.713 1.357 1.357 0 000 2.713zM92.457 233.773a1.357 1.357 0 100-2.713 1.357 1.357 0 000 2.713zM87.019 233.773a1.357 1.357 0 100-2.713 1.357 1.357 0 000 2.713zM81.591 233.773a1.357 1.357 0 10.001-2.713 1.357 1.357 0 000 2.713zM76.154 233.773a1.357 1.357 0 100-2.713 1.357 1.357 0 000 2.713zM70.716 233.773a1.357 1.357 0 100-2.713 1.357 1.357 0 000 2.713zM65.284 233.773a1.357 1.357 0 100-2.713 1.357 1.357 0 000 2.713zM59.851 233.773a1.357 1.357 0 100-2.713 1.357 1.357 0 000 2.713zM54.413 233.773a1.357 1.357 0 100-2.713 1.357 1.357 0 000 2.713zM48.98 233.773a1.357 1.357 0 10.001-2.713 1.357 1.357 0 000 2.713zM43.543 233.773a1.357 1.357 0 100-2.713 1.357 1.357 0 000 2.713zM125.057 233.773a1.357 1.357 0 100-2.714 1.357 1.357 0 000 2.714zM119.635 239.743a1.358 1.358 0 10-.001-2.715 1.358 1.358 0 00.001 2.715zM114.192 239.743a1.358 1.358 0 10-.001-2.715 1.358 1.358 0 00.001 2.715zM108.754 239.743a1.358 1.358 0 10-.001-2.715 1.358 1.358 0 00.001 2.715zM103.316 239.743a1.36 1.36 0 100-2.719c-.744 0-1.351.607-1.351 1.357a1.36 1.36 0 001.351 1.362zM97.884 239.743a1.357 1.357 0 10-.001-2.714 1.357 1.357 0 000 2.714zM92.457 239.743a1.357 1.357 0 10-.001-2.714 1.357 1.357 0 000 2.714zM87.019 239.743a1.357 1.357 0 10-.001-2.714 1.357 1.357 0 000 2.714zM81.591 239.743a1.357 1.357 0 100-2.714 1.357 1.357 0 000 2.714zM76.154 239.743a1.357 1.357 0 10-.001-2.714 1.357 1.357 0 000 2.714zM70.716 239.743a1.357 1.357 0 100-2.714 1.357 1.357 0 000 2.714zM65.284 239.743a1.357 1.357 0 10-.001-2.714 1.357 1.357 0 000 2.714zM59.851 239.743a1.357 1.357 0 100-2.714 1.357 1.357 0 000 2.714zM54.413 239.743a1.357 1.357 0 100-2.714 1.357 1.357 0 000 2.714zM48.98 239.743a1.357 1.357 0 100-2.714 1.357 1.357 0 000 2.714zM43.543 239.743a1.357 1.357 0 100-2.714 1.357 1.357 0 000 2.714zM125.057 239.743a1.358 1.358 0 10-.001-2.715 1.358 1.358 0 00.001 2.715zM119.635 245.707a1.362 1.362 0 100-2.723 1.362 1.362 0 000 2.723zM114.192 245.707a1.362 1.362 0 100-2.723 1.362 1.362 0 000 2.723zM108.754 245.707a1.362 1.362 0 100-2.723 1.362 1.362 0 000 2.723zM103.316 245.712a1.365 1.365 0 100-2.728 1.36 1.36 0 00-1.351 1.361c0 .755.612 1.367 1.351 1.367zM97.884 245.707a1.362 1.362 0 100-2.723 1.362 1.362 0 000 2.723zM92.457 245.707a1.362 1.362 0 100-2.723 1.362 1.362 0 000 2.723zM87.019 245.707a1.362 1.362 0 100-2.723 1.362 1.362 0 000 2.723zM81.591 245.707a1.362 1.362 0 10.002-2.723 1.362 1.362 0 00-.002 2.723zM76.154 245.707a1.362 1.362 0 100-2.723 1.362 1.362 0 000 2.723zM70.716 245.707a1.362 1.362 0 10.001-2.723 1.362 1.362 0 00-.001 2.723zM65.284 245.707a1.362 1.362 0 100-2.723 1.362 1.362 0 000 2.723zM59.851 245.707a1.362 1.362 0 10.001-2.723 1.362 1.362 0 00-.001 2.723zM54.413 245.707a1.362 1.362 0 10.001-2.723 1.362 1.362 0 000 2.723zM48.98 245.707a1.362 1.362 0 10.002-2.723 1.362 1.362 0 00-.001 2.723zM43.543 245.707a1.362 1.362 0 10.001-2.723 1.362 1.362 0 00-.001 2.723zM125.057 245.707a1.362 1.362 0 100-2.723 1.362 1.362 0 000 2.723z" fill="currentColor"/></svg>