<svg viewBox="0 0 256 256" fill="none" xmlns="http://www.w3.org/2000/svg"><path d="M150.591 73.726c0 1.184-.966 2.15-2.15 2.15a2.155 2.155 0 01-2.151-2.15V51.034c-6.09-.512-11.568-3.209-15.71-7.35-4.091-4.159-6.737-9.62-7.224-15.677h-20.961c-4.158 0-7.938 1.706-10.669 4.436-2.738 2.739-4.444 6.519-4.444 10.677v131.408c0 4.158 1.706 7.939 4.436 10.677 2.739 2.731 6.519 4.436 10.677 4.436h92.082c4.15 0 7.93-1.705 10.669-4.444 2.738-2.739 4.444-6.519 4.444-10.669V43.12c0-4.15-1.706-7.93-4.444-10.669a15.059 15.059 0 00-10.669-4.444h-20.952a25.094 25.094 0 01-7.292 15.744 25.04 25.04 0 01-15.642 7.283v22.692zm17.525-1.11h30.218c1.185 0 2.151.967 2.151 2.151v24.698c0 4.747-1.941 9.065-5.066 12.19s-7.443 5.066-12.19 5.066-9.064-1.941-12.19-5.066a17.226 17.226 0 01-5.065-12.19V74.767c0-1.184.966-2.15 2.15-2.15h-.008zm28.067 4.302h-25.908v22.547c0 3.562 1.462 6.796 3.805 9.149a12.929 12.929 0 009.149 3.805c3.562 0 6.805-1.462 9.148-3.805a12.925 12.925 0 003.806-9.149V76.918zM169.309 213.12h-87.05c-5.344 0-10.2-2.184-13.778-5.771-3.503-3.579-5.637-8.376-5.637-13.643V66.375h-.73a15.062 15.062 0 00-10.67 4.427C48.705 73.541 47 77.321 47 81.479v131.408c0 4.158 1.697 7.939 4.427 10.669 2.739 2.739 6.52 4.444 10.678 4.444h92.081c4.099 0 7.838-1.655 10.61-4.377 2.747-2.747 4.436-6.443 4.495-10.509l.018.007zm20.146-19.187h-87.051c-5.335 0-10.19-2.185-13.702-5.704-3.52-3.529-5.713-8.384-5.713-13.711V47.187h-.73c-4.159 0-7.94 1.706-10.678 4.444-2.739 2.739-4.444 6.52-4.444 10.678v131.407c0 4.108 1.655 7.838 4.377 10.619 2.797 2.797 6.578 4.494 10.736 4.494h92.081c4.151 0 7.931-1.705 10.669-4.444 2.689-2.688 4.386-6.385 4.445-10.442l.01-.009zM127.673 28c.479 4.898 2.638 9.291 5.957 12.652 3.839 3.83 9.056 6.166 14.81 6.166a20.8 20.8 0 0014.752-6.107A20.753 20.753 0 00169.207 28h-41.541.007z" fill="currentColor"/></svg>