<svg viewBox="0 0 256 256" fill="none" xmlns="http://www.w3.org/2000/svg"><path d="M208.791 253.285c0-.042.01-.063.01-.1L192.717 13.921V2.626A2.63 2.63 0 00190.092 0H66.72a2.626 2.626 0 00-2.625 2.626V13.92l-16.09 239.27c0 .036.01.057.01.099 0 .021-.015.053-.015.084 0 .142.063.279.09.415.025.179.041.352.104.531.058.152.158.278.247.42.095.142.168.299.289.42.11.121.252.205.383.31.137.099.268.204.42.283.153.074.331.1.5.126.141.042.272.111.43.116.063.005.11.005.173.005h51.624c.342 0 .667-.074.977-.194.11-.048.194-.111.299-.174.179-.105.352-.204.505-.336.105-.094.162-.199.252-.309a2.8 2.8 0 00.32-.473c.068-.121.1-.268.136-.399.037-.116.105-.226.121-.357l10.959-74.798c.074-.163.205-.299.205-.488 0-.095-.079-.147-.1-.237l12.472-85.1 12.477 85.132c-.016.079-.089.121-.089.205 0 .168.12.283.178.43l10.97 74.856c.021.131.094.241.121.357.042.136.084.278.131.394.089.173.194.325.325.478.09.105.147.204.242.299.157.142.336.252.525.346.105.063.184.126.289.168.31.116.63.195.977.195h51.629c.063 0 .116 0 .173-.005.153-.011.279-.085.421-.111.173-.042.346-.068.504-.131.157-.074.278-.179.409-.278.137-.105.289-.184.399-.315.111-.116.184-.268.279-.405.099-.142.194-.278.257-.43.068-.163.079-.347.11-.531.021-.136.089-.273.089-.415-.01-.036-.031-.068-.031-.089zM69.346 5.251h1.381c-.368.242-.651.588-.651 1.06a1.355 1.355 0 102.71 0c0-.466-.284-.818-.646-1.06h3.99c-.367.242-.65.588-.65 1.06a1.354 1.354 0 102.71 0c-.001-.466-.28-.818-.647-1.06h3.996c-.367.242-.656.588-.656 1.06 0 .747.614 1.356 1.365 1.356.74 0 1.344-.61 1.344-1.355 0-.467-.278-.82-.645-1.06h3.996c-.363.24-.646.587-.646 1.06a1.35 1.35 0 001.35 1.355c.75 0 1.354-.61 1.354-1.355 0-.467-.283-.82-.646-1.06h3.991c-.362.24-.646.587-.646 1.06a1.355 1.355 0 102.71 0c0-.467-.284-.82-.651-1.06h3.99c-.362.24-.64.587-.64 1.06a1.35 1.35 0 102.7 0c0-.467-.28-.82-.647-1.06h3.996c-.362.24-.646.587-.646 1.06 0 .746.604 1.355 1.345 1.355.761 0 1.365-.61 1.365-1.355 0-.467-.284-.82-.651-1.06h3.991c-.368.24-.646.587-.646 1.06a1.355 1.355 0 102.71 0c0-.467-.284-.82-.646-1.06h3.991c-.363.24-.646.587-.646 1.06a1.355 1.355 0 102.709 0c0-.467-.283-.82-.651-1.06h4.001c-.367.24-.645.587-.645 1.06a1.35 1.35 0 102.699 0c0-.467-.279-.82-.641-1.06h3.986c-.363.24-.641.587-.641 1.06a1.35 1.35 0 102.699 0c0-.467-.278-.82-.646-1.06h4.437c-.367.24-.651.587-.651 1.06a1.355 1.355 0 002.71 0c0-.467-.284-.82-.646-1.06h3.991c-.362.24-.646.587-.646 1.06 0 .746.604 1.355 1.355 1.355s1.344-.61 1.344-1.355c0-.467-.278-.82-.64-1.06h3.996c-.363.24-.646.587-.646 1.06a1.355 1.355 0 002.709 0c0-.467-.283-.82-.646-1.06h3.991c-.362.24-.646.587-.646 1.06a1.355 1.355 0 002.71 0c0-.467-.283-.82-.651-1.06h3.996c-.362.24-.646.587-.646 1.06a1.36 1.36 0 001.344 1.355c.762 0 1.366-.61 1.366-1.355 0-.467-.284-.82-.651-1.06h3.996c-.363.24-.646.587-.646 1.06 0 .746.604 1.355 1.355 1.355.74 0 1.344-.61 1.344-1.355 0-.467-.284-.82-.641-1.06h3.981c-.363.24-.641.587-.641 1.06 0 .746.593 1.355 1.344 1.355.751 0 1.345-.61 1.345-1.355 0-.467-.279-.82-.641-1.06h4.001c-.367.24-.651.587-.651 1.06 0 .746.604 1.355 1.366 1.355.74 0 1.344-.61 1.344-1.355 0-.467-.284-.82-.641-1.06h3.991c-.362.24-.64.587-.64 1.06 0 .746.593 1.355 1.344 1.355.751 0 1.355-.61 1.355-1.355 0-.467-.284-.82-.646-1.06h3.996c-.368.24-.651.587-.651 1.06 0 .746.614 1.355 1.365 1.355.74 0 1.344-.61 1.344-1.355 0-.467-.283-.82-.64-1.06h3.991c-.368.24-.652.587-.652 1.06 0 .746.615 1.355 1.355 1.355.741 0 1.355-.61 1.355-1.355 0-.467-.284-.82-.651-1.06h1.37v6.143h-1.071c-.252-.294-.588-.504-.998-.504-.409 0-.75.21-.997.504h-3.403c-.247-.294-.578-.504-.987-.504-.415 0-.756.21-1.003.504h-3.408c-.247-.294-.583-.504-.998-.504-.415 0-.751.21-.992.504h-3.408c-.247-.294-.578-.504-.988-.504-.42 0-.761.21-1.008.504h-3.408c-.247-.294-.577-.504-.992-.504-.415 0-.751.21-.993.504h-3.418c-.247-.294-.578-.504-.988-.504-.414 0-.756.21-.997.504h-3.403c-.252-.294-.588-.504-1.008-.504-.405 0-.741.21-.987.504h-3.403c-.252-.294-.588-.504-.998-.504-.415 0-.756.21-.998.504h-3.402c-.247-.294-.583-.504-.998-.504-.415 0-.756.21-.998.504h-3.408c-.247-.294-.578-.504-.992-.504-.415 0-.757.21-.998.504h-3.403c-.247-.294-.583-.504-.998-.504-.414 0-.756.21-.997.504h-3.855c-.246-.294-.583-.504-.997-.504-.42 0-.757.21-.998.504h-3.403c-.247-.294-.578-.504-.992-.504-.42 0-.757.21-1.003.504h-3.414c-.252-.294-.588-.504-.997-.504-.415 0-.756.21-.998.504h-3.403c-.247-.294-.583-.504-.998-.504-.42 0-.756.21-1.002.504h-3.398c-.247-.294-.588-.504-1.008-.504-.41 0-.746.21-.993.504h-3.408c-.247-.294-.583-.504-1.003-.504-.415 0-.745.21-.992.504h-3.408c-.252-.294-.588-.504-.998-.504-.415 0-.756.21-.998.504H88.76c-.247-.294-.583-.504-.998-.504-.415 0-.751.21-.998.504h-3.408c-.247-.294-.583-.504-.992-.504-.415 0-.757.21-1.003.504h-3.408c-.247-.294-.583-.504-.993-.504-.415 0-.756.21-1.003.504h-3.402c-.247-.294-.583-.504-.998-.504-.415 0-.751.21-.998.504h-1.087V5.251h-.126zm30.64 245.493h-.824c.362-.242.646-.589.646-1.056a1.35 1.35 0 10-2.7 0c.001.467.28.814.642 1.056h-3.991c.362-.242.646-.589.646-1.056 0-.751-.61-1.36-1.355-1.36-.751 0-1.355.609-1.355 1.36 0 .467.278.814.646 1.056H88.35c.368-.242.646-.589.646-1.056a1.351 1.351 0 10-2.704 0c0 .467.278.814.645 1.056h-3.99c.362-.242.64-.589.64-1.056 0-.751-.604-1.36-1.344-1.36-.751 0-1.365.609-1.365 1.36 0 .467.283.814.65 1.056h-3.99c.362-.242.646-.589.646-1.056a1.355 1.355 0 10-2.71 0c0 .467.284.814.651 1.056H72.14c.367-.242.645-.589.645-1.056 0-.751-.603-1.36-1.354-1.36a1.36 1.36 0 00-1.355 1.36c0 .467.284.814.646 1.056H66.73c.362-.242.646-.589.646-1.056 0-.751-.604-1.36-1.35-1.36-.75 0-1.355.609-1.355 1.36 0 .467.279.814.646 1.056h-3.996c.363-.242.64-.589.64-1.056 0-.751-.603-1.36-1.343-1.36-.757 0-1.36.609-1.36 1.36 0 .467.283.814.65 1.056h-3.99c.367-.242.646-.589.646-1.056 0-.751-.604-1.36-1.355-1.36-.746 0-1.35.609-1.35 1.36 0 .467.279.814.646 1.056h-1.071l.467-6.895c.058.693.604 1.255 1.308 1.255.75 0 1.355-.609 1.355-1.36 0-.746-.604-1.355-1.355-1.355-.688 0-1.208.546-1.292 1.213l.116-1.722h47.25l-1.297 8.864zm54.13-18.416c.063-.153.189-.279.189-.457 0-.373-.147-.709-.394-.956l-.557-3.796c.531-.184.956-.594.956-1.182 0-.735-.583-1.313-1.323-1.339l-.504-3.44c.157.069.283.195.462.195.761 0 1.365-.604 1.365-1.35 0-.751-.604-1.36-1.365-1.36-.305 0-.552.152-.783.331l-3.308-22.585c.005-.053.053-.079.053-.126 0-.105-.09-.163-.111-.263l-.672-4.563c.436-.221.777-.588.777-1.108 0-.662-.509-1.145-1.129-1.26l-.504-3.435c.105.021.168.111.279.111.74 0 1.354-.61 1.354-1.355 0-.751-.614-1.36-1.354-1.36-.242 0-.426.147-.62.257l-.693-4.731c.057.693.598 1.249 1.313 1.249.74 0 1.354-.603 1.354-1.349 0-.751-.614-1.355-1.354-1.355-.736 0-1.308.583-1.334 1.308l-3.324-22.659c.341-.247.604-.588.604-1.04 0-.583-.415-.987-.935-1.181l-.504-3.435c.031.006.052.037.084.037.751 0 1.355-.609 1.355-1.355 0-.751-.604-1.36-1.355-1.36-.173 0-.294.121-.447.184l-.582-3.996c.246.331.582.578 1.029.578.751 0 1.355-.61 1.355-1.361a1.35 1.35 0 00-1.355-1.349c-.604 0-1.024.436-1.203.982l-3.282-22.396c.258-.242.42-.583.42-.967 0-.504-.32-.866-.724-1.092l-.52-3.529c.693-.063 1.239-.604 1.239-1.312 0-.746-.593-1.355-1.344-1.355-.11 0-.173.089-.273.11l-.541-3.676c.231.184.494.336.809.336.751 0 1.344-.609 1.344-1.355 0-.745-.593-1.349-1.344-1.349-.478 0-.82.283-1.061.651l-3.277-22.349c.137-.215.289-.43.289-.698 0-.43-.231-.767-.541-1.014l-.546-3.676c.599-.141 1.082-.603 1.082-1.244a1.35 1.35 0 00-1.355-1.35c-.042 0-.063.037-.105.042l-.231-1.59c-.011-.043-.047-.085-.047-.132-.042-.173-.111-.33-.174-.488-.073-.168-.121-.331-.226-.473-.073-.105-.157-.184-.246-.273-.147-.168-.3-.32-.483-.441-.084-.053-.174-.079-.247-.121a2.454 2.454 0 00-.699-.247c-.031-.005-.063-.026-.094-.031-.137-.021-.268.016-.399.016-.121 0-.242-.037-.368-.016-.031.005-.052.026-.089.031a2.444 2.444 0 00-.746.268c-.068.032-.131.053-.194.09-.205.13-.368.304-.536.488-.068.078-.141.141-.204.225-.106.158-.174.331-.242.51-.063.152-.126.294-.158.457-.01.047-.047.089-.052.136l-.231 1.586c-.032 0-.053-.037-.089-.037-.757 0-1.35.604-1.35 1.35 0 .635.473 1.092 1.066 1.24l-.541 3.685c-.304.247-.525.583-.525 1.009 0 .262.147.467.278.677l-3.276 22.349c-.242-.357-.583-.63-1.051-.63-.756 0-1.354.604-1.354 1.349a1.35 1.35 0 001.354 1.355c.31 0 .562-.152.793-.331l-.535 3.666c-.095-.021-.158-.11-.258-.11a1.35 1.35 0 00-1.354 1.354c0 .699.546 1.234 1.234 1.303l-4.102 27.988c-.178-.541-.598-.971-1.197-.971a1.35 1.35 0 00-1.355 1.349c0 .751.604 1.361 1.355 1.361.436 0 .772-.237 1.019-.552l-.583 3.97c-.152-.063-.268-.184-.436-.184-.751 0-1.355.609-1.355 1.36 0 .746.604 1.355 1.355 1.355.026 0 .042-.031.074-.031l-.504 3.434c-.515.189-.925.593-.925 1.176 0 .452.258.788.599 1.035l-3.282 22.664c-.032-.72-.604-1.297-1.329-1.297-.756 0-1.354.603-1.354 1.354 0 .746.598 1.35 1.354 1.35.699 0 1.234-.546 1.303-1.224l-.688 4.705c-.194-.11-.373-.257-.615-.257-.756 0-1.354.609-1.354 1.36a1.35 1.35 0 001.354 1.355c.105 0 .174-.089.268-.11l-.504 3.434c-.625.121-1.118.604-1.118 1.26 0 .52.341.883.772 1.108l-.673 4.585c-.015.089-.099.141-.099.241 0 .047.042.074.047.116l-3.314 22.595c-.225-.173-.483-.33-.793-.33-.74 0-1.344.609-1.344 1.36 0 .745.604 1.349 1.344 1.349.184 0 .316-.126.473-.194l-.504 3.439a1.337 1.337 0 00-1.313 1.34c0 .582.42.992.94 1.181l-.556 3.828a1.322 1.322 0 00-.384.924c0 .174.121.289.184.441l-.635 4.317h-3.198c-.142-.053-.247-.168-.41-.168-.157 0-.268.115-.41.168h-4.584c-.142-.053-.252-.168-.41-.168-.157 0-.267.115-.409.168h-4.584c-.142-.053-.252-.168-.41-.168-.157 0-.268.115-.41.168h-4.589c-.142-.053-.247-.168-.404-.168-.158 0-.268.115-.415.168h-4.59c-.142-.053-.246-.168-.41-.168-.162 0-.267.115-.409.168H71.83c-.142-.053-.252-.168-.41-.168-.157 0-.268.115-.41.168h-4.589c-.142-.053-.247-.168-.41-.168-.162 0-.267.115-.41.168h-4.589c-.141-.053-.246-.168-.404-.168-.163 0-.268.115-.41.168h-4.573c-.142-.053-.252-.168-.41-.168-.157 0-.268.115-.41.168h-.42l.247-3.644c.19.099.352.241.578.241.75 0 1.355-.604 1.355-1.355s-.604-1.349-1.355-1.349c-.168 0-.279.121-.425.173l.23-3.487c.074.016.116.084.195.084a1.352 1.352 0 100-2.704l-.016.005.22-3.324c.636-.11 1.145-.598 1.145-1.26 0-.604-.435-1.024-.982-1.203l.247-3.633c.415-.231.735-.594.735-1.098 0-.451-.252-.793-.593-1.04l.278-4.138c.163-.22.315-.462.315-.761 0-.21-.136-.362-.225-.546l3.124-46.462c.205.483.593.871 1.16.871.741 0 1.345-.609 1.345-1.355 0-.75-.604-1.349-1.344-1.349-.494 0-.846.299-1.082.683l.283-4.243c.226.173.483.33.799.33.74 0 1.344-.603 1.344-1.349a1.35 1.35 0 00-1.344-1.355c-.258 0-.452.147-.657.273l.247-3.665c.142.052.252.168.41.168.74 0 1.344-.609 1.344-1.355 0-.751-.604-1.36-1.344-1.36-.1 0-.153.084-.247.105l.226-3.345s.01.011.02.011c.741 0 1.345-.61 1.345-1.361 0-.682-.536-1.197-1.187-1.281l.231-3.455c.53-.179.956-.593.956-1.192 0-.53-.352-.903-.798-1.124l.257-3.791c.315-.247.546-.588.546-1.019 0-.378-.157-.714-.41-.961l.32-4.752c.017-.084.095-.137.095-.221 0-.063-.057-.1-.068-.157l2.783-41.374c.01.735.604 1.334 1.344 1.334.746 0 1.35-.61 1.35-1.355a1.35 1.35 0 00-1.35-1.35c-.74 0-1.323.588-1.344 1.318l.342-5.057c.246.3.582.51 1.002.51.746 0 1.35-.61 1.35-1.355a1.35 1.35 0 00-1.35-1.35c-.34 0-.64.153-.876.363l.257-3.85c.2.11.378.258.62.258a1.35 1.35 0 001.35-1.35c0-.745-.605-1.355-1.35-1.355-.184 0-.31.127-.468.195l.237-3.519c.083.016.141.1.23.1.746 0 1.35-.609 1.35-1.355a1.35 1.35 0 00-1.35-1.35c-.02 0-.036.022-.057.022l.22-3.324c.657-.095 1.187-.599 1.187-1.281 0-.615-.452-1.056-1.013-1.219l.241-3.607c.43-.226.772-.594.772-1.114 0-.462-.273-.808-.63-1.05l.273-4.022c.205-.236.357-.53.357-.867 0-.241-.147-.425-.257-.62l2.058-30.598H187.64l2.059 30.625c-.1.194-.242.362-.242.593 0 .326.147.6.336.83l.273 4.06c-.346.24-.609.587-.609 1.044 0 .515.331.883.762 1.108l.241 3.613c-.551.168-.998.604-.998 1.213 0 .678.52 1.182 1.171 1.276l.221 3.33c-.016 0-.026-.022-.047-.022-.751 0-1.345.604-1.345 1.35 0 .746.594 1.355 1.345 1.355.089 0 .136-.079.22-.095l.237 3.513c-.153-.063-.279-.194-.457-.194-.751 0-1.345.61-1.345 1.355s.594 1.35 1.345 1.35c.241 0 .415-.142.609-.253l.257 3.844c-.236-.21-.525-.362-.866-.362-.751 0-1.345.604-1.345 1.35 0 .745.594 1.354 1.345 1.354.415 0 .751-.205.992-.499l.336 5.047a1.332 1.332 0 00-1.334-1.318c-.75 0-1.344.603-1.344 1.35 0 .745.594 1.354 1.344 1.354.746 0 1.324-.599 1.334-1.334l2.783 41.395c-.005.053-.057.084-.057.137 0 .078.068.12.078.194l.326 4.784a1.348 1.348 0 00-.399.961c0 .43.226.766.535 1.013l.258 3.802c-.441.221-.788.588-.788 1.119 0 .588.42 1.003.945 1.192l.237 3.46c-.657.095-1.182.599-1.182 1.276 0 .751.593 1.36 1.344 1.36l.011-.005.226 3.334c-.09-.015-.142-.099-.237-.099-.751 0-1.344.609-1.344 1.36 0 .745.593 1.355 1.344 1.355.158 0 .263-.116.399-.163l.247 3.655c-.199-.116-.388-.268-.646-.268-.751 0-1.344.604-1.344 1.355 0 .745.593 1.349 1.344 1.349.315 0 .557-.152.783-.325l.289 4.216c-.242-.373-.583-.661-1.072-.661-.751 0-1.344.598-1.344 1.349 0 .746.593 1.355 1.344 1.355.562 0 .946-.378 1.15-.856l3.13 46.483c-.084.168-.215.316-.215.515 0 .284.147.504.299.719l.284 4.186c-.331.246-.578.588-.578 1.034 0 .499.32.856.725 1.092l.241 3.65c-.535.178-.966.599-.966 1.197 0 .657.504 1.14 1.134 1.255l.221 3.324a1.352 1.352 0 100 2.705c.068 0 .11-.063.178-.074l.231 3.471c-.141-.052-.252-.168-.409-.168-.751 0-1.355.599-1.355 1.35a1.35 1.35 0 001.355 1.354c.22 0 .378-.141.562-.236l.247 3.639h-.405c-.136-.052-.247-.168-.404-.168-.158 0-.268.116-.41.168h-4.594c-.142-.052-.247-.168-.41-.168-.158 0-.268.116-.404.168h-4.595c-.137-.052-.247-.168-.405-.168-.157 0-.267.116-.404.168h-4.589c-.142-.052-.252-.168-.41-.168-.158 0-.268.116-.41.168h-4.615c-.137-.052-.247-.168-.405-.168-.157 0-.268.116-.409.168h-4.595c-.142-.052-.252-.168-.41-.168-.157 0-.267.116-.404.168h-4.584c-.137-.052-.247-.168-.405-.168-.162 0-.273.116-.414.168h-4.595c-.137-.052-.247-.168-.405-.168-.157 0-.267.116-.404.168h-4.595c-.136-.052-.247-.168-.404-.168-.158 0-.268.116-.41.168h-3.198l-.64-4.316zm48.195 18.416c.357-.242.641-.589.641-1.056 0-.751-.604-1.36-1.345-1.36-.751 0-1.354.609-1.354 1.36 0 .467.283.814.645 1.056h-3.996c.363-.242.641-.589.641-1.056 0-.751-.593-1.36-1.355-1.36-.751 0-1.344.609-1.344 1.36 0 .467.278.814.64 1.056h-4.001c.362-.242.641-.589.641-1.056 0-.751-.594-1.36-1.345-1.36-.75 0-1.344.609-1.344 1.36 0 .467.278.814.641 1.056h-4.002c.368-.242.652-.589.652-1.056 0-.751-.615-1.36-1.355-1.36-.741 0-1.355.609-1.355 1.36 0 .467.284.814.651 1.056h-3.991c.357-.242.641-.589.641-1.056 0-.751-.604-1.36-1.344-1.36-.751 0-1.366.609-1.366 1.36 0 .467.284.814.651 1.056h-3.996c.363-.242.646-.589.646-1.056 0-.751-.604-1.36-1.355-1.36s-1.344.609-1.344 1.36c0 .467.278.814.641 1.056h-3.991c.357-.242.64-.589.64-1.056 0-.751-.603-1.36-1.344-1.36-.761 0-1.365.609-1.365 1.36 0 .467.283.814.651 1.056h-4.001c.362-.242.64-.589.64-1.056 0-.751-.593-1.36-1.344-1.36-.751 0-1.344.609-1.344 1.36 0 .467.278.814.64 1.056h-4.001c.357-.242.64-.589.64-1.056 0-.751-.603-1.36-1.344-1.36-.751 0-1.355.609-1.355 1.36 0 .467.284.814.646 1.056h-.803l-1.297-8.864h47.25l.11 1.685c-.1-.651-.598-1.181-1.271-1.181-.751 0-1.354.609-1.354 1.355 0 .75.603 1.36 1.354 1.36.694 0 1.219-.552 1.292-1.234l.462 6.879h-1.05z" fill="currentColor"/><path d="M131.336 19.54a1.355 1.355 0 100-2.71 1.355 1.355 0 000 2.71zM136.74 19.54a1.354 1.354 0 100-2.709 1.354 1.354 0 000 2.709zM185.387 19.54a1.354 1.354 0 100-2.709 1.354 1.354 0 000 2.709zM179.988 19.54a1.354 1.354 0 10.001-2.71 1.354 1.354 0 00-.001 2.71zM174.574 19.54a1.354 1.354 0 10.001-2.71 1.354 1.354 0 00-.001 2.71zM169.181 19.54a1.353 1.353 0 000-2.705c-.761 0-1.365.604-1.365 1.35 0 .745.604 1.355 1.365 1.355zM163.762 19.54a1.355 1.355 0 100-2.71 1.355 1.355 0 000 2.71zM158.359 19.54a1.354 1.354 0 100-2.709 1.354 1.354 0 000 2.709zM152.945 16.835c-.73 0-1.345.604-1.345 1.35a1.36 1.36 0 001.345 1.355 1.352 1.352 0 100-2.704zM147.552 19.54a1.355 1.355 0 100-2.71 1.355 1.355 0 000 2.71zM142.143 19.54a1.355 1.355 0 100-2.71 1.355 1.355 0 000 2.71zM131.336 25.473a1.355 1.355 0 100-2.71 1.355 1.355 0 000 2.71zM136.74 25.473a1.354 1.354 0 100-2.708 1.354 1.354 0 000 2.708zM185.387 25.473a1.354 1.354 0 100-2.708 1.354 1.354 0 000 2.708zM179.988 25.473a1.354 1.354 0 10.001-2.708 1.354 1.354 0 00-.001 2.708zM174.574 25.473a1.354 1.354 0 10.001-2.708 1.354 1.354 0 00-.001 2.708zM169.181 25.473c.741 0 1.345-.609 1.345-1.354a1.356 1.356 0 00-2.71-.006c0 .746.604 1.36 1.365 1.36zM163.762 25.473a1.355 1.355 0 100-2.71 1.355 1.355 0 000 2.71zM158.359 25.473a1.354 1.354 0 100-2.708 1.354 1.354 0 000 2.708zM152.945 22.764c-.73 0-1.345.604-1.345 1.35a1.36 1.36 0 001.345 1.354c.761 0 1.365-.609 1.365-1.355 0-.745-.609-1.35-1.365-1.35zM147.552 25.473a1.355 1.355 0 100-2.71 1.355 1.355 0 000 2.71zM142.143 25.473a1.355 1.355 0 100-2.71 1.355 1.355 0 000 2.71zM131.336 31.407a1.355 1.355 0 100-2.71 1.355 1.355 0 000 2.71zM136.74 31.407a1.354 1.354 0 100-2.708 1.354 1.354 0 000 2.708zM185.387 31.407a1.354 1.354 0 100-2.708 1.354 1.354 0 000 2.708zM179.988 31.407a1.355 1.355 0 10.001-2.709 1.355 1.355 0 00-.001 2.71zM174.574 31.407a1.355 1.355 0 10.001-2.709 1.355 1.355 0 00-.001 2.71zM169.181 31.407c.741 0 1.345-.604 1.345-1.35a1.36 1.36 0 00-1.345-1.36c-.761 0-1.365.61-1.365 1.355 0 .746.604 1.355 1.365 1.355zM163.762 31.407a1.355 1.355 0 100-2.71 1.355 1.355 0 000 2.71zM158.359 31.407a1.354 1.354 0 100-2.708 1.354 1.354 0 000 2.708zM152.945 28.698c-.73 0-1.345.609-1.345 1.354a1.355 1.355 0 002.71 0 1.36 1.36 0 00-1.365-1.354zM147.552 31.407a1.355 1.355 0 100-2.71 1.355 1.355 0 000 2.71zM142.143 31.407a1.355 1.355 0 100-2.71 1.355 1.355 0 000 2.71zM131.336 37.346a1.355 1.355 0 100-2.71 1.355 1.355 0 000 2.71zM136.74 37.346a1.354 1.354 0 100-2.708 1.354 1.354 0 000 2.708zM185.387 37.346a1.354 1.354 0 100-2.708 1.354 1.354 0 000 2.708zM179.988 37.346a1.355 1.355 0 10.001-2.709 1.355 1.355 0 00-.001 2.71zM174.574 37.346a1.355 1.355 0 10.001-2.709 1.355 1.355 0 00-.001 2.71zM169.181 37.346a1.353 1.353 0 000-2.704c-.761 0-1.365.604-1.365 1.35 0 .745.604 1.354 1.365 1.354zM163.762 37.346a1.355 1.355 0 100-2.71 1.355 1.355 0 000 2.71zM158.359 37.346a1.354 1.354 0 100-2.708 1.354 1.354 0 000 2.708zM152.945 34.642c-.73 0-1.345.604-1.345 1.35a1.36 1.36 0 001.345 1.354c.761 0 1.365-.609 1.365-1.354 0-.746-.609-1.35-1.365-1.35zM147.552 37.346a1.355 1.355 0 100-2.71 1.355 1.355 0 000 2.71zM142.143 37.346a1.355 1.355 0 100-2.71 1.355 1.355 0 000 2.71zM131.336 43.28a1.355 1.355 0 100-2.71 1.355 1.355 0 000 2.71zM136.74 43.28a1.354 1.354 0 100-2.708 1.354 1.354 0 000 2.708zM185.387 43.28a1.354 1.354 0 100-2.708 1.354 1.354 0 000 2.708zM179.988 43.28a1.355 1.355 0 10.001-2.709 1.355 1.355 0 00-.001 2.71zM174.574 43.28a1.355 1.355 0 10.001-2.709 1.355 1.355 0 00-.001 2.71zM169.181 43.28a1.353 1.353 0 000-2.704 1.353 1.353 0 100 2.704zM163.762 43.28a1.355 1.355 0 100-2.71 1.355 1.355 0 000 2.71zM158.359 43.28a1.354 1.354 0 100-2.708 1.354 1.354 0 000 2.708zM152.945 40.576c-.73 0-1.345.609-1.345 1.355a1.355 1.355 0 002.71 0 1.36 1.36 0 00-1.365-1.355zM147.552 43.28a1.355 1.355 0 100-2.71 1.355 1.355 0 000 2.71zM142.143 43.28a1.355 1.355 0 100-2.71 1.355 1.355 0 000 2.71zM131.336 49.22a1.355 1.355 0 100-2.711 1.355 1.355 0 000 2.71zM136.74 49.22a1.354 1.354 0 100-2.71 1.354 1.354 0 000 2.71zM185.387 49.22a1.354 1.354 0 100-2.71 1.354 1.354 0 000 2.71zM179.988 49.22a1.355 1.355 0 10.001-2.71 1.355 1.355 0 00-.001 2.71zM174.574 49.22a1.355 1.355 0 10.001-2.71 1.355 1.355 0 00-.001 2.71zM169.181 49.22a1.353 1.353 0 000-2.705c-.761 0-1.365.604-1.365 1.35 0 .745.604 1.354 1.365 1.354zM163.762 49.22a1.355 1.355 0 100-2.711 1.355 1.355 0 000 2.71zM158.359 49.22a1.354 1.354 0 100-2.71 1.354 1.354 0 000 2.71zM152.945 46.51c-.73 0-1.345.604-1.345 1.35a1.36 1.36 0 001.345 1.354c.761 0 1.365-.61 1.365-1.355s-.609-1.35-1.365-1.35zM147.552 49.22a1.355 1.355 0 100-2.711 1.355 1.355 0 000 2.71zM142.143 49.22a1.355 1.355 0 100-2.711 1.355 1.355 0 000 2.71zM131.336 55.153a1.355 1.355 0 100-2.71 1.355 1.355 0 000 2.71zM136.74 55.153a1.354 1.354 0 100-2.708 1.354 1.354 0 000 2.708zM185.387 55.153a1.354 1.354 0 100-2.708 1.354 1.354 0 000 2.708zM179.988 55.153a1.355 1.355 0 10.001-2.709 1.355 1.355 0 00-.001 2.71zM174.574 55.153a1.355 1.355 0 10.001-2.709 1.355 1.355 0 00-.001 2.71zM169.181 55.153a1.353 1.353 0 000-2.704c-.761 0-1.365.604-1.365 1.35 0 .745.604 1.354 1.365 1.354zM163.762 55.153a1.355 1.355 0 100-2.71 1.355 1.355 0 000 2.71zM158.359 55.153a1.354 1.354 0 100-2.708 1.354 1.354 0 000 2.708zM152.945 52.449c-.73 0-1.345.604-1.345 1.35a1.36 1.36 0 001.345 1.354c.761 0 1.365-.61 1.365-1.355s-.609-1.35-1.365-1.35zM147.552 55.153a1.355 1.355 0 100-2.71 1.355 1.355 0 000 2.71zM142.143 55.153a1.355 1.355 0 100-2.71 1.355 1.355 0 000 2.71zM131.336 61.087a1.355 1.355 0 100-2.71 1.355 1.355 0 000 2.71zM136.74 61.087a1.354 1.354 0 100-2.709 1.354 1.354 0 000 2.709zM185.387 61.087a1.354 1.354 0 100-2.709 1.354 1.354 0 000 2.709zM179.988 61.087a1.355 1.355 0 10.001-2.71 1.355 1.355 0 00-.001 2.71zM174.574 61.087a1.355 1.355 0 10.001-2.71 1.355 1.355 0 00-.001 2.71zM169.181 61.087a1.353 1.353 0 000-2.704c-.761 0-1.365.609-1.365 1.354 0 .746.604 1.35 1.365 1.35zM163.762 61.087a1.355 1.355 0 100-2.71 1.355 1.355 0 000 2.71zM158.359 61.087a1.354 1.354 0 100-2.709 1.354 1.354 0 000 2.709zM152.945 58.383c-.73 0-1.345.609-1.345 1.354a1.355 1.355 0 002.71 0 1.36 1.36 0 00-1.365-1.354zM147.552 61.087a1.355 1.355 0 100-2.71 1.355 1.355 0 000 2.71zM142.143 61.087a1.355 1.355 0 100-2.71 1.355 1.355 0 000 2.71zM131.336 67.031a1.355 1.355 0 100-2.71 1.355 1.355 0 000 2.71zM136.74 67.031a1.354 1.354 0 100-2.708 1.354 1.354 0 000 2.708zM185.387 67.031a1.354 1.354 0 100-2.708 1.354 1.354 0 000 2.708zM179.988 67.031a1.354 1.354 0 10.001-2.709 1.354 1.354 0 00-.001 2.71zM174.574 67.031a1.354 1.354 0 10.001-2.709 1.354 1.354 0 00-.001 2.71zM169.181 67.026a1.353 1.353 0 000-2.704c-.761 0-1.365.603-1.365 1.35 0 .745.604 1.354 1.365 1.354zM163.762 67.031a1.355 1.355 0 100-2.71 1.355 1.355 0 000 2.71zM158.359 67.031a1.354 1.354 0 100-2.708 1.354 1.354 0 000 2.708zM152.945 64.322c-.73 0-1.345.603-1.345 1.35a1.36 1.36 0 001.345 1.354c.761 0 1.365-.61 1.365-1.355 0-.746-.609-1.35-1.365-1.35zM147.552 67.031a1.355 1.355 0 100-2.71 1.355 1.355 0 000 2.71zM142.143 67.031a1.355 1.355 0 100-2.71 1.355 1.355 0 000 2.71zM131.336 72.965a1.355 1.355 0 100-2.71 1.355 1.355 0 000 2.71zM136.74 72.965a1.354 1.354 0 100-2.708 1.354 1.354 0 000 2.708zM185.387 72.965a1.354 1.354 0 100-2.708 1.354 1.354 0 000 2.708zM179.988 72.965a1.355 1.355 0 10.001-2.709 1.355 1.355 0 00-.001 2.71zM174.574 72.965a1.355 1.355 0 10.001-2.709 1.355 1.355 0 00-.001 2.71zM169.181 72.965a1.353 1.353 0 000-2.704 1.353 1.353 0 100 2.704zM163.762 72.965a1.355 1.355 0 100-2.71 1.355 1.355 0 000 2.71zM158.359 72.965a1.354 1.354 0 100-2.708 1.354 1.354 0 000 2.708zM152.945 70.255c-.73 0-1.345.61-1.345 1.355a1.355 1.355 0 002.71 0 1.36 1.36 0 00-1.365-1.355zM147.552 72.965a1.355 1.355 0 100-2.71 1.355 1.355 0 000 2.71zM142.143 72.965a1.355 1.355 0 100-2.71 1.355 1.355 0 000 2.71zM136.74 78.904a1.354 1.354 0 100-2.708 1.354 1.354 0 000 2.708zM185.387 78.904a1.354 1.354 0 100-2.708 1.354 1.354 0 000 2.708zM179.988 78.904a1.354 1.354 0 10.001-2.709 1.354 1.354 0 00-.001 2.71zM174.574 78.904a1.354 1.354 0 10.001-2.709 1.354 1.354 0 00-.001 2.71zM169.181 78.899a1.353 1.353 0 000-2.704c-.761 0-1.365.603-1.365 1.35 0 .745.604 1.354 1.365 1.354zM163.762 78.904a1.355 1.355 0 100-2.71 1.355 1.355 0 000 2.71zM158.359 78.904a1.354 1.354 0 100-2.708 1.354 1.354 0 000 2.708zM152.945 76.195c-.73 0-1.345.603-1.345 1.35a1.36 1.36 0 001.345 1.354c.761 0 1.365-.61 1.365-1.355 0-.746-.609-1.35-1.365-1.35zM147.552 78.904a1.355 1.355 0 100-2.71 1.355 1.355 0 000 2.71zM142.143 78.904a1.355 1.355 0 100-2.71 1.355 1.355 0 000 2.71zM136.74 84.838a1.354 1.354 0 100-2.709 1.354 1.354 0 000 2.709zM185.387 84.838a1.354 1.354 0 100-2.709 1.354 1.354 0 000 2.709zM179.988 84.838a1.355 1.355 0 10.001-2.709 1.355 1.355 0 00-.001 2.709zM174.574 84.838a1.355 1.355 0 10.001-2.709 1.355 1.355 0 00-.001 2.709zM169.181 84.833a1.353 1.353 0 000-2.705c-.761 0-1.365.604-1.365 1.35 0 .746.604 1.355 1.365 1.355zM163.762 84.838a1.355 1.355 0 100-2.71 1.355 1.355 0 000 2.71zM158.359 84.838a1.354 1.354 0 100-2.709 1.354 1.354 0 000 2.709zM152.945 82.128c-.73 0-1.345.604-1.345 1.35a1.36 1.36 0 001.345 1.355c.761 0 1.365-.61 1.365-1.355 0-.746-.609-1.35-1.365-1.35zM147.552 84.838a1.355 1.355 0 100-2.71 1.355 1.355 0 000 2.71zM142.143 84.838a1.355 1.355 0 100-2.71 1.355 1.355 0 000 2.71zM136.74 90.772a1.354 1.354 0 100-2.709 1.354 1.354 0 000 2.709zM190.79 90.772a1.355 1.355 0 100-2.71 1.355 1.355 0 000 2.71zM185.387 90.772a1.354 1.354 0 100-2.709 1.354 1.354 0 000 2.709zM179.988 90.772a1.355 1.355 0 10.001-2.71 1.355 1.355 0 00-.001 2.71zM174.574 90.772a1.355 1.355 0 10.001-2.71 1.355 1.355 0 00-.001 2.71zM169.181 90.772a1.353 1.353 0 000-2.704c-.761 0-1.365.609-1.365 1.354 0 .746.604 1.35 1.365 1.35zM163.762 90.772a1.355 1.355 0 100-2.71 1.355 1.355 0 000 2.71zM158.359 90.772a1.354 1.354 0 100-2.709 1.354 1.354 0 000 2.709zM152.945 88.062c-.73 0-1.345.61-1.345 1.355a1.355 1.355 0 002.71 0 1.36 1.36 0 00-1.365-1.355zM147.552 90.772a1.355 1.355 0 100-2.71 1.355 1.355 0 000 2.71zM142.143 90.772a1.355 1.355 0 100-2.71 1.355 1.355 0 000 2.71zM136.74 96.71a1.354 1.354 0 100-2.708 1.354 1.354 0 000 2.709zM190.79 96.71a1.355 1.355 0 100-2.71 1.355 1.355 0 000 2.71zM185.387 96.71a1.354 1.354 0 100-2.708 1.354 1.354 0 000 2.709zM179.988 96.71a1.355 1.355 0 10.001-2.708 1.355 1.355 0 00-.001 2.709zM174.574 96.71a1.355 1.355 0 10.001-2.708 1.355 1.355 0 00-.001 2.709zM169.181 96.71a1.353 1.353 0 000-2.703c-.761 0-1.365.603-1.365 1.35 0 .745.604 1.354 1.365 1.354zM163.762 96.71a1.355 1.355 0 100-2.71 1.355 1.355 0 000 2.71zM158.359 96.71a1.354 1.354 0 100-2.708 1.354 1.354 0 000 2.709zM152.945 94.001c-.73 0-1.345.604-1.345 1.35a1.36 1.36 0 001.345 1.355c.761 0 1.365-.61 1.365-1.355 0-.746-.609-1.35-1.365-1.35zM147.552 96.71a1.355 1.355 0 100-2.71 1.355 1.355 0 000 2.71zM142.143 96.71a1.355 1.355 0 100-2.71 1.355 1.355 0 000 2.71zM136.74 102.645a1.355 1.355 0 10-.001-2.71 1.355 1.355 0 00.001 2.71zM190.79 102.645a1.355 1.355 0 100-2.71 1.355 1.355 0 000 2.71zM185.387 102.645a1.355 1.355 0 10-.001-2.71 1.355 1.355 0 00.001 2.71zM179.988 102.645a1.355 1.355 0 100-2.71 1.355 1.355 0 000 2.71zM174.574 102.645a1.355 1.355 0 100-2.71 1.355 1.355 0 000 2.71zM169.181 102.639a1.353 1.353 0 000-2.704c-.761 0-1.365.609-1.365 1.355 0 .751.604 1.349 1.365 1.349zM163.762 102.645a1.355 1.355 0 100-2.71 1.355 1.355 0 000 2.71zM158.359 102.645a1.355 1.355 0 10-.001-2.71 1.355 1.355 0 00.001 2.71zM152.945 99.935a1.36 1.36 0 00-1.345 1.355c0 .751.615 1.349 1.345 1.349.761 0 1.365-.603 1.365-1.349a1.36 1.36 0 00-1.365-1.355zM147.552 102.645a1.355 1.355 0 100-2.71 1.355 1.355 0 000 2.71zM142.143 102.645a1.355 1.355 0 100-2.71 1.355 1.355 0 000 2.71zM190.79 108.584a1.355 1.355 0 100-2.71 1.355 1.355 0 000 2.71zM185.387 108.584a1.355 1.355 0 10-.001-2.71 1.355 1.355 0 00.001 2.71zM179.988 108.584a1.355 1.355 0 100-2.71 1.355 1.355 0 000 2.71zM174.574 108.584a1.355 1.355 0 100-2.71 1.355 1.355 0 000 2.71zM169.181 108.584a1.353 1.353 0 000-2.705 1.353 1.353 0 100 2.705zM163.762 108.584a1.355 1.355 0 100-2.71 1.355 1.355 0 000 2.71zM158.359 108.584a1.355 1.355 0 10-.001-2.71 1.355 1.355 0 00.001 2.71zM152.945 105.874c-.73 0-1.345.604-1.345 1.35a1.36 1.36 0 001.345 1.355c.761 0 1.365-.61 1.365-1.355 0-.746-.609-1.35-1.365-1.35zM147.552 108.584a1.355 1.355 0 100-2.71 1.355 1.355 0 000 2.71zM142.143 108.584a1.355 1.355 0 100-2.71 1.355 1.355 0 000 2.71zM190.79 120.446a1.35 1.35 0 100-2.7 1.35 1.35 0 000 2.7zM185.387 120.446a1.349 1.349 0 100-2.698 1.349 1.349 0 000 2.698zM179.988 120.446a1.35 1.35 0 10.001-2.699 1.35 1.35 0 00-.001 2.699zM174.574 120.446a1.35 1.35 0 10.001-2.699 1.35 1.35 0 00-.001 2.699zM169.181 120.451c.741 0 1.345-.603 1.345-1.349 0-.751-.604-1.35-1.345-1.35-.761 0-1.365.604-1.365 1.35 0 .746.604 1.349 1.365 1.349zM163.762 120.446a1.35 1.35 0 100-2.7 1.35 1.35 0 000 2.7zM158.359 120.446a1.349 1.349 0 100-2.698 1.349 1.349 0 000 2.698zM152.945 117.747c-.73 0-1.345.604-1.345 1.35a1.355 1.355 0 002.71 0c0-.746-.609-1.35-1.365-1.35zM147.552 120.446a1.349 1.349 0 100-2.698 1.349 1.349 0 000 2.698zM142.143 120.446a1.35 1.35 0 100-2.7 1.35 1.35 0 000 2.7zM190.79 126.385a1.355 1.355 0 100-2.71 1.355 1.355 0 000 2.71zM185.387 126.385a1.354 1.354 0 100-2.708 1.354 1.354 0 000 2.708zM179.988 126.385a1.354 1.354 0 10.002-2.708 1.354 1.354 0 00-.002 2.708zM174.574 126.385a1.354 1.354 0 10.002-2.708 1.354 1.354 0 00-.002 2.708zM169.181 126.385a1.35 1.35 0 001.345-1.355c0-.745-.604-1.36-1.345-1.36-.761 0-1.365.615-1.365 1.36 0 .751.604 1.355 1.365 1.355zM163.762 126.385a1.355 1.355 0 100-2.71 1.355 1.355 0 000 2.71zM158.359 126.385a1.354 1.354 0 100-2.708 1.354 1.354 0 000 2.708zM152.945 123.676a1.357 1.357 0 000 2.715c.761 0 1.365-.604 1.365-1.355 0-.746-.609-1.36-1.365-1.36zM147.552 126.385a1.355 1.355 0 100-2.71 1.355 1.355 0 000 2.71zM142.143 126.385a1.355 1.355 0 100-2.71 1.355 1.355 0 000 2.71zM190.79 132.324a1.355 1.355 0 100-2.71 1.355 1.355 0 000 2.71zM185.387 132.324a1.354 1.354 0 100-2.707 1.354 1.354 0 000 2.707zM179.988 132.324a1.354 1.354 0 10.002-2.708 1.354 1.354 0 00-.002 2.708zM174.574 132.324a1.354 1.354 0 10.002-2.708 1.354 1.354 0 00-.002 2.708zM169.181 132.324a1.35 1.35 0 001.345-1.354c0-.746-.604-1.355-1.345-1.355a1.354 1.354 0 100 2.709zM163.762 132.324a1.355 1.355 0 100-2.71 1.355 1.355 0 000 2.71zM158.359 132.324a1.354 1.354 0 100-2.707 1.354 1.354 0 000 2.707zM152.945 129.62a1.36 1.36 0 00-1.345 1.355 1.354 1.354 0 101.345-1.355zM147.552 132.324a1.355 1.355 0 100-2.71 1.355 1.355 0 000 2.71zM142.143 132.324a1.355 1.355 0 100-2.71 1.355 1.355 0 000 2.71zM190.79 138.258a1.35 1.35 0 100-2.7 1.35 1.35 0 000 2.7zM185.387 138.258a1.349 1.349 0 100-2.698 1.349 1.349 0 000 2.698zM179.988 138.258a1.35 1.35 0 10.001-2.699 1.35 1.35 0 00-.001 2.699zM174.574 138.258a1.35 1.35 0 10.001-2.699 1.35 1.35 0 00-.001 2.699zM169.181 138.258a1.35 1.35 0 001.345-1.355c0-.745-.604-1.349-1.345-1.349a1.353 1.353 0 100 2.704zM163.762 138.258a1.35 1.35 0 100-2.7 1.35 1.35 0 000 2.7zM158.359 138.258a1.349 1.349 0 100-2.698 1.349 1.349 0 000 2.698zM152.945 135.554c-.73 0-1.345.604-1.345 1.349a1.354 1.354 0 102.71 0c0-.74-.609-1.349-1.365-1.349zM147.552 138.258a1.349 1.349 0 100-2.698 1.349 1.349 0 000 2.698zM142.143 138.258a1.35 1.35 0 100-2.7 1.35 1.35 0 000 2.7zM190.79 144.192a1.355 1.355 0 100-2.71 1.355 1.355 0 000 2.71zM185.387 144.192a1.355 1.355 0 10-.001-2.71 1.355 1.355 0 00.001 2.71zM179.988 144.192a1.355 1.355 0 100-2.71 1.355 1.355 0 000 2.71zM174.574 144.192a1.355 1.355 0 100-2.71 1.355 1.355 0 000 2.71zM169.181 144.192c.741 0 1.345-.609 1.345-1.36 0-.746-.604-1.35-1.345-1.35-.761 0-1.365.604-1.365 1.35 0 .751.604 1.36 1.365 1.36zM163.762 144.192a1.355 1.355 0 100-2.71 1.355 1.355 0 000 2.71zM158.359 144.192a1.355 1.355 0 10-.001-2.71 1.355 1.355 0 00.001 2.71zM152.945 141.482c-.73 0-1.345.604-1.345 1.35 0 .751.615 1.36 1.345 1.36.761 0 1.365-.609 1.365-1.36 0-.74-.609-1.35-1.365-1.35zM147.552 144.192a1.355 1.355 0 100-2.71 1.355 1.355 0 000 2.71zM190.79 150.136a1.355 1.355 0 100-2.71 1.355 1.355 0 000 2.71zM185.387 150.136a1.354 1.354 0 100-2.707 1.354 1.354 0 000 2.707zM179.988 150.136a1.354 1.354 0 10.002-2.708 1.354 1.354 0 00-.002 2.708zM174.574 150.136a1.354 1.354 0 10.002-2.708 1.354 1.354 0 00-.002 2.708zM169.181 150.136c.741 0 1.345-.609 1.345-1.354a1.355 1.355 0 10-2.71 0c0 .745.604 1.354 1.365 1.354zM163.762 150.136a1.355 1.355 0 100-2.71 1.355 1.355 0 000 2.71zM158.359 150.136a1.354 1.354 0 100-2.707 1.354 1.354 0 000 2.707zM152.945 147.421c-.73 0-1.345.61-1.345 1.361a1.36 1.36 0 001.345 1.354 1.357 1.357 0 100-2.715zM147.552 150.136a1.355 1.355 0 100-2.71 1.355 1.355 0 000 2.71zM190.79 156.06a1.35 1.35 0 10-.001-2.701 1.35 1.35 0 00.001 2.701zM185.387 156.06a1.35 1.35 0 10-.002-2.7 1.35 1.35 0 00.002 2.7zM179.988 156.06a1.35 1.35 0 100-2.7 1.35 1.35 0 000 2.7zM174.574 156.06a1.35 1.35 0 100-2.7 1.35 1.35 0 000 2.7zM169.181 156.065c.741 0 1.345-.604 1.345-1.35 0-.751-.604-1.354-1.345-1.354-.761 0-1.365.603-1.365 1.354 0 .741.604 1.35 1.365 1.35zM163.762 156.06a1.35 1.35 0 000-2.699 1.349 1.349 0 000 2.699zM158.359 156.06a1.35 1.35 0 10-.002-2.7 1.35 1.35 0 00.002 2.7zM152.945 153.361c-.73 0-1.345.603-1.345 1.354a1.356 1.356 0 002.71 0c0-.751-.609-1.354-1.365-1.354zM147.552 156.06a1.35 1.35 0 10-.002-2.7 1.35 1.35 0 00.002 2.7zM190.79 161.993a1.35 1.35 0 100-2.7 1.35 1.35 0 000 2.7zM185.387 161.993a1.349 1.349 0 100-2.698 1.349 1.349 0 000 2.698zM179.988 161.993a1.35 1.35 0 10.001-2.699 1.35 1.35 0 00-.001 2.699zM174.574 161.993a1.35 1.35 0 10.001-2.699 1.35 1.35 0 00-.001 2.699zM169.181 161.999c.741 0 1.345-.609 1.345-1.355 0-.751-.604-1.35-1.345-1.35a1.35 1.35 0 00-1.365 1.35c0 .74.604 1.355 1.365 1.355zM163.762 161.993a1.35 1.35 0 100-2.7 1.35 1.35 0 000 2.7zM158.359 161.993a1.349 1.349 0 100-2.698 1.349 1.349 0 000 2.698zM152.945 159.294c-.73 0-1.345.599-1.345 1.35a1.36 1.36 0 001.345 1.355 1.353 1.353 0 100-2.705zM147.552 161.993a1.349 1.349 0 100-2.698 1.349 1.349 0 000 2.698zM196.193 167.943a1.355 1.355 0 100-2.71 1.355 1.355 0 000 2.71zM190.79 167.943a1.355 1.355 0 100-2.71 1.355 1.355 0 000 2.71zM185.387 167.943a1.355 1.355 0 10-.001-2.71 1.355 1.355 0 00.001 2.71zM179.988 167.943a1.355 1.355 0 100-2.71 1.355 1.355 0 000 2.71zM174.574 167.943a1.355 1.355 0 100-2.71 1.355 1.355 0 000 2.71zM169.181 167.943c.741 0 1.345-.609 1.345-1.36 0-.746-.604-1.355-1.345-1.355a1.357 1.357 0 100 2.715zM163.762 167.943a1.355 1.355 0 100-2.71 1.355 1.355 0 000 2.71zM158.359 167.943a1.355 1.355 0 10-.001-2.71 1.355 1.355 0 00.001 2.71zM152.945 165.233c-.73 0-1.345.61-1.345 1.355 0 .751.615 1.36 1.345 1.36a1.358 1.358 0 100-2.715zM147.552 167.943a1.355 1.355 0 100-2.71 1.355 1.355 0 000 2.71zM196.193 173.877a1.355 1.355 0 100-2.71 1.355 1.355 0 000 2.71zM190.79 173.877a1.355 1.355 0 100-2.71 1.355 1.355 0 000 2.71zM185.387 173.877a1.355 1.355 0 10-.001-2.71 1.355 1.355 0 00.001 2.71zM179.988 173.877a1.355 1.355 0 100-2.71 1.355 1.355 0 000 2.71zM174.574 173.877a1.355 1.355 0 100-2.71 1.355 1.355 0 000 2.71zM169.181 173.877a1.35 1.35 0 001.345-1.355c0-.746-.604-1.355-1.345-1.355a1.354 1.354 0 100 2.71zM163.762 173.877a1.355 1.355 0 100-2.71 1.355 1.355 0 000 2.71zM158.359 173.877a1.355 1.355 0 10-.001-2.71 1.355 1.355 0 00.001 2.71zM152.945 171.173a1.36 1.36 0 00-1.345 1.354 1.354 1.354 0 101.345-1.354zM147.552 173.877a1.355 1.355 0 100-2.71 1.355 1.355 0 000 2.71zM196.193 179.811a1.35 1.35 0 10.001-2.699 1.35 1.35 0 00-.001 2.699zM190.79 179.811a1.35 1.35 0 100-2.7 1.35 1.35 0 000 2.7zM185.387 179.811a1.35 1.35 0 100-2.699 1.35 1.35 0 000 2.699zM179.988 179.811a1.35 1.35 0 10.001-2.699 1.35 1.35 0 00-.001 2.699zM174.574 179.811a1.35 1.35 0 10.001-2.699 1.35 1.35 0 00-.001 2.699zM169.181 179.811c.741 0 1.345-.604 1.345-1.35a1.35 1.35 0 00-1.345-1.355 1.353 1.353 0 100 2.705zM163.762 179.811a1.35 1.35 0 100-2.7 1.35 1.35 0 000 2.7zM158.359 179.811a1.35 1.35 0 100-2.699 1.35 1.35 0 000 2.699zM152.945 177.112c-.73 0-1.345.603-1.345 1.354a1.356 1.356 0 002.71 0c0-.751-.609-1.354-1.365-1.354zM196.193 185.75a1.355 1.355 0 100-2.71 1.355 1.355 0 000 2.71zM190.79 185.75a1.355 1.355 0 100-2.71 1.355 1.355 0 000 2.71zM185.387 185.75a1.355 1.355 0 10-.001-2.71 1.355 1.355 0 00.001 2.71zM179.988 185.75a1.355 1.355 0 100-2.71 1.355 1.355 0 000 2.71zM174.574 185.75a1.355 1.355 0 100-2.71 1.355 1.355 0 000 2.71zM169.181 185.75c.741 0 1.345-.609 1.345-1.355a1.354 1.354 0 10-2.71 0c0 .746.604 1.355 1.365 1.355zM163.762 185.75a1.355 1.355 0 100-2.71 1.355 1.355 0 000 2.71zM158.359 185.75a1.355 1.355 0 10-.001-2.71 1.355 1.355 0 00.001 2.71zM152.945 183.035a1.36 1.36 0 00-1.345 1.36 1.36 1.36 0 001.345 1.355 1.357 1.357 0 100-2.715zM196.193 191.684a1.355 1.355 0 100-2.71 1.355 1.355 0 000 2.71zM190.79 191.684a1.355 1.355 0 100-2.71 1.355 1.355 0 000 2.71zM185.387 191.684a1.355 1.355 0 10-.001-2.71 1.355 1.355 0 00.001 2.71zM179.988 191.684a1.355 1.355 0 100-2.71 1.355 1.355 0 000 2.71zM174.574 191.684a1.355 1.355 0 100-2.71 1.355 1.355 0 000 2.71zM169.181 191.684c.741 0 1.345-.604 1.345-1.35a1.354 1.354 0 10-2.71 0c0 .746.604 1.35 1.365 1.35zM163.762 191.684a1.355 1.355 0 100-2.71 1.355 1.355 0 000 2.71zM158.359 191.684a1.355 1.355 0 10-.001-2.71 1.355 1.355 0 00.001 2.71zM152.945 188.974a1.36 1.36 0 00-1.345 1.36 1.356 1.356 0 002.71 0c0-.746-.609-1.36-1.365-1.36zM196.193 197.617a1.35 1.35 0 10.001-2.699 1.35 1.35 0 00-.001 2.699zM190.79 197.617a1.35 1.35 0 100-2.7 1.35 1.35 0 000 2.7zM185.387 197.617a1.349 1.349 0 100-2.698 1.349 1.349 0 000 2.698zM179.988 197.617a1.35 1.35 0 10.001-2.699 1.35 1.35 0 00-.001 2.699zM174.574 197.617a1.35 1.35 0 10.001-2.699 1.35 1.35 0 00-.001 2.699zM169.181 197.617c.741 0 1.345-.598 1.345-1.349 0-.746-.604-1.35-1.345-1.35a1.349 1.349 0 100 2.699zM163.762 197.617a1.35 1.35 0 100-2.7 1.35 1.35 0 000 2.7zM158.359 197.617a1.349 1.349 0 100-2.698 1.349 1.349 0 000 2.698zM152.945 194.918c-.73 0-1.345.604-1.345 1.35 0 .751.615 1.349 1.345 1.349a1.349 1.349 0 100-2.699zM196.193 203.557a1.355 1.355 0 100-2.71 1.355 1.355 0 000 2.71zM190.79 203.557a1.355 1.355 0 100-2.71 1.355 1.355 0 000 2.71zM185.387 203.557a1.355 1.355 0 10-.001-2.71 1.355 1.355 0 00.001 2.71zM179.988 203.557a1.355 1.355 0 100-2.71 1.355 1.355 0 000 2.71zM174.574 203.557a1.355 1.355 0 100-2.71 1.355 1.355 0 000 2.71zM169.181 203.557c.741 0 1.345-.61 1.345-1.361 0-.745-.604-1.349-1.345-1.349-.761 0-1.365.604-1.365 1.349 0 .746.604 1.361 1.365 1.361zM163.762 203.557a1.355 1.355 0 100-2.71 1.355 1.355 0 000 2.71zM158.359 203.557a1.355 1.355 0 10-.001-2.71 1.355 1.355 0 00.001 2.71zM152.945 200.847c-.73 0-1.345.604-1.345 1.349 0 .751.615 1.361 1.345 1.361a1.356 1.356 0 100-2.71zM190.79 114.518a1.355 1.355 0 100-2.71 1.355 1.355 0 000 2.71zM185.387 114.518a1.355 1.355 0 10-.001-2.71 1.355 1.355 0 00.001 2.71zM179.988 114.518a1.355 1.355 0 100-2.71 1.355 1.355 0 000 2.71zM174.574 114.518a1.355 1.355 0 100-2.71 1.355 1.355 0 000 2.71zM169.181 114.518a1.353 1.353 0 000-2.705 1.353 1.353 0 100 2.705zM163.762 114.518a1.355 1.355 0 100-2.71 1.355 1.355 0 000 2.71zM158.359 114.518a1.355 1.355 0 10-.001-2.71 1.355 1.355 0 00.001 2.71zM152.945 111.808a1.36 1.36 0 00-1.345 1.355 1.355 1.355 0 002.71 0 1.36 1.36 0 00-1.365-1.355zM147.552 114.518a1.355 1.355 0 100-2.71 1.355 1.355 0 000 2.71zM142.143 114.518a1.355 1.355 0 100-2.71 1.355 1.355 0 000 2.71zM196.193 209.485a1.35 1.35 0 10.001-2.699 1.35 1.35 0 00-.001 2.699zM190.79 209.485a1.35 1.35 0 100-2.7 1.35 1.35 0 000 2.7zM185.387 209.485a1.349 1.349 0 100-2.698 1.349 1.349 0 000 2.698zM179.988 209.485a1.35 1.35 0 10.001-2.699 1.35 1.35 0 00-.001 2.699zM174.574 209.485a1.35 1.35 0 10.001-2.699 1.35 1.35 0 00-.001 2.699zM169.181 209.49a1.35 1.35 0 001.345-1.354c0-.746-.604-1.35-1.345-1.35-.761 0-1.365.604-1.365 1.35 0 .745.604 1.354 1.365 1.354zM163.762 209.485a1.35 1.35 0 100-2.7 1.35 1.35 0 000 2.7zM158.359 209.485a1.349 1.349 0 100-2.698 1.349 1.349 0 000 2.698zM152.945 206.786c-.73 0-1.345.604-1.345 1.35 0 .75.615 1.354 1.345 1.354.761 0 1.365-.604 1.365-1.354 0-.746-.609-1.35-1.365-1.35zM196.193 215.424a1.354 1.354 0 10.002-2.708 1.354 1.354 0 00-.002 2.708zM190.79 215.424a1.355 1.355 0 100-2.71 1.355 1.355 0 000 2.71zM185.387 215.424a1.354 1.354 0 100-2.708 1.354 1.354 0 000 2.708zM179.988 215.424a1.354 1.354 0 10.002-2.708 1.354 1.354 0 00-.002 2.708zM174.574 215.424a1.354 1.354 0 10.002-2.708 1.354 1.354 0 00-.002 2.708zM169.181 215.424c.741 0 1.345-.609 1.345-1.355a1.354 1.354 0 10-2.71 0c0 .746.604 1.355 1.365 1.355zM163.762 215.424a1.355 1.355 0 100-2.71 1.355 1.355 0 000 2.71zM158.359 215.424a1.354 1.354 0 100-2.708 1.354 1.354 0 000 2.708zM152.945 212.715a1.36 1.36 0 00-1.345 1.36 1.36 1.36 0 001.345 1.354 1.357 1.357 0 100-2.714zM196.193 221.358a1.355 1.355 0 100-2.71 1.355 1.355 0 000 2.71zM190.79 221.358a1.355 1.355 0 100-2.71 1.355 1.355 0 000 2.71zM185.387 221.358a1.355 1.355 0 10-.001-2.71 1.355 1.355 0 00.001 2.71zM179.988 221.358a1.355 1.355 0 100-2.71 1.355 1.355 0 000 2.71zM174.574 221.358a1.355 1.355 0 100-2.71 1.355 1.355 0 000 2.71zM169.181 221.358c.741 0 1.345-.604 1.345-1.35a1.354 1.354 0 10-2.71 0c0 .746.604 1.35 1.365 1.35zM163.762 221.358a1.355 1.355 0 100-2.71 1.355 1.355 0 000 2.71zM158.359 221.358a1.355 1.355 0 10-.001-2.71 1.355 1.355 0 00.001 2.71zM196.193 227.292a1.35 1.35 0 10.001-2.699 1.35 1.35 0 00-.001 2.699zM190.79 227.292a1.35 1.35 0 100-2.7 1.35 1.35 0 000 2.7zM185.387 227.292a1.35 1.35 0 100-2.699 1.35 1.35 0 000 2.699zM179.988 227.292a1.35 1.35 0 10.001-2.699 1.35 1.35 0 00-.001 2.699zM174.574 227.292a1.35 1.35 0 10.001-2.699 1.35 1.35 0 00-.001 2.699zM169.181 227.292c.741 0 1.345-.604 1.345-1.35a1.35 1.35 0 00-1.345-1.355 1.353 1.353 0 100 2.705zM163.762 227.292a1.35 1.35 0 100-2.7 1.35 1.35 0 000 2.7zM158.359 227.292a1.35 1.35 0 100-2.699 1.35 1.35 0 000 2.699zM196.193 233.226a1.35 1.35 0 100-2.7 1.35 1.35 0 000 2.7zM190.79 233.226a1.35 1.35 0 10-.001-2.701 1.35 1.35 0 00.001 2.701zM185.387 233.226a1.35 1.35 0 10-.002-2.7 1.35 1.35 0 00.002 2.7zM179.988 233.226a1.35 1.35 0 100-2.7 1.35 1.35 0 000 2.7zM174.574 233.226a1.35 1.35 0 100-2.7 1.35 1.35 0 000 2.7zM169.181 233.226a1.35 1.35 0 001.345-1.355c0-.751-.604-1.35-1.345-1.35a1.35 1.35 0 00-1.365 1.35c0 .751.604 1.355 1.365 1.355zM163.762 233.226a1.35 1.35 0 000-2.699 1.349 1.349 0 000 2.699zM158.359 233.226a1.35 1.35 0 10-.002-2.7 1.35 1.35 0 00.002 2.7zM196.193 242.389c-.751 0-1.344.609-1.344 1.355 0 .751.593 1.36 1.344 1.36.762 0 1.355-.609 1.355-1.36 0-.746-.593-1.355-1.355-1.355zM190.79 245.099a1.355 1.355 0 100-2.71 1.355 1.355 0 000 2.71zM185.387 245.099a1.355 1.355 0 10-.001-2.71 1.355 1.355 0 00.001 2.71zM179.988 242.389c-.751 0-1.365.609-1.365 1.355 0 .751.614 1.36 1.365 1.36.741 0 1.345-.609 1.345-1.36 0-.746-.604-1.355-1.345-1.355zM174.574 245.099a1.355 1.355 0 100-2.71 1.355 1.355 0 000 2.71zM169.181 242.389a1.357 1.357 0 100 2.715c.741 0 1.345-.609 1.345-1.36 0-.746-.609-1.355-1.345-1.355zM163.762 245.099a1.355 1.355 0 100-2.71 1.355 1.355 0 000 2.71zM158.359 245.099a1.355 1.355 0 10-.001-2.71 1.355 1.355 0 00.001 2.71zM120.088 19.54a1.355 1.355 0 100-2.71 1.355 1.355 0 000 2.71zM114.674 19.54a1.355 1.355 0 100-2.71 1.355 1.355 0 000 2.71zM109.265 19.54a1.354 1.354 0 10.001-2.71 1.354 1.354 0 00-.001 2.71zM103.857 16.835a1.353 1.353 0 000 2.704c.761 0 1.365-.608 1.365-1.354 0-.751-.604-1.35-1.365-1.35zM98.453 19.54a1.355 1.355 0 100-2.71 1.355 1.355 0 000 2.71zM93.055 19.54a1.355 1.355 0 100-2.71 1.355 1.355 0 000 2.71zM87.646 19.54a1.355 1.355 0 100-2.71 1.355 1.355 0 000 2.71zM82.248 16.835a1.36 1.36 0 00-1.365 1.35c0 .745.614 1.355 1.365 1.355.74 0 1.344-.61 1.344-1.355 0-.751-.603-1.35-1.344-1.35zM76.84 19.54a1.355 1.355 0 100-2.71 1.355 1.355 0 000 2.71zM71.43 19.54a1.355 1.355 0 100-2.71 1.355 1.355 0 000 2.71zM125.481 19.54a1.355 1.355 0 100-2.71 1.355 1.355 0 000 2.71zM120.088 25.473a1.355 1.355 0 100-2.71 1.355 1.355 0 000 2.71zM114.674 25.473a1.355 1.355 0 100-2.71 1.355 1.355 0 000 2.71zM109.265 25.473a1.354 1.354 0 10.001-2.708 1.354 1.354 0 00-.001 2.708zM103.857 22.764a1.353 1.353 0 000 2.704 1.353 1.353 0 100-2.704zM98.453 25.473a1.355 1.355 0 100-2.71 1.355 1.355 0 000 2.71zM93.055 25.473a1.355 1.355 0 100-2.71 1.355 1.355 0 000 2.71zM87.646 25.473a1.355 1.355 0 100-2.71 1.355 1.355 0 000 2.71zM82.248 22.764a1.36 1.36 0 00-1.365 1.35c0 .745.614 1.354 1.365 1.354a1.353 1.353 0 000-2.704zM76.84 25.473a1.355 1.355 0 100-2.71 1.355 1.355 0 000 2.71zM71.43 25.473a1.355 1.355 0 100-2.709 1.355 1.355 0 000 2.71zM125.481 25.473a1.355 1.355 0 100-2.71 1.355 1.355 0 000 2.71zM120.088 31.407a1.355 1.355 0 100-2.71 1.355 1.355 0 000 2.71zM114.674 31.407a1.355 1.355 0 100-2.71 1.355 1.355 0 000 2.71zM109.265 31.407a1.355 1.355 0 10.001-2.709 1.355 1.355 0 00-.001 2.71zM103.857 28.698a1.353 1.353 0 000 2.704c.761 0 1.365-.604 1.365-1.35 0-.745-.604-1.354-1.365-1.354zM98.453 31.407a1.355 1.355 0 100-2.71 1.355 1.355 0 000 2.71zM93.055 31.407a1.355 1.355 0 100-2.71 1.355 1.355 0 000 2.71zM87.646 31.407a1.355 1.355 0 100-2.71 1.355 1.355 0 000 2.71zM82.248 28.698c-.75 0-1.365.609-1.365 1.354 0 .746.614 1.35 1.365 1.35a1.353 1.353 0 000-2.704zM76.84 31.407a1.355 1.355 0 100-2.71 1.355 1.355 0 000 2.71zM71.43 31.407a1.355 1.355 0 100-2.71 1.355 1.355 0 000 2.71zM125.481 31.407a1.355 1.355 0 100-2.71 1.355 1.355 0 000 2.71zM120.088 37.346a1.355 1.355 0 100-2.71 1.355 1.355 0 000 2.71zM114.674 37.346a1.355 1.355 0 100-2.71 1.355 1.355 0 000 2.71zM109.265 37.346a1.355 1.355 0 10.001-2.709 1.355 1.355 0 00-.001 2.71zM103.857 34.642a1.353 1.353 0 000 2.704c.761 0 1.365-.609 1.365-1.354 0-.746-.604-1.35-1.365-1.35zM98.453 37.346a1.355 1.355 0 100-2.71 1.355 1.355 0 000 2.71zM93.055 37.346a1.355 1.355 0 100-2.71 1.355 1.355 0 000 2.71zM87.646 37.346a1.355 1.355 0 100-2.71 1.355 1.355 0 000 2.71zM82.248 34.642a1.36 1.36 0 00-1.365 1.35c0 .745.614 1.354 1.365 1.354a1.353 1.353 0 000-2.704zM76.84 37.346a1.355 1.355 0 100-2.71 1.355 1.355 0 000 2.71zM71.43 37.346a1.355 1.355 0 100-2.71 1.355 1.355 0 000 2.71zM125.481 37.346a1.355 1.355 0 100-2.71 1.355 1.355 0 000 2.71zM120.088 43.28a1.355 1.355 0 100-2.71 1.355 1.355 0 000 2.71zM114.674 43.28a1.355 1.355 0 100-2.71 1.355 1.355 0 000 2.71zM109.265 43.28a1.355 1.355 0 10.001-2.709 1.355 1.355 0 00-.001 2.71zM103.857 40.576a1.353 1.353 0 000 2.704c.761 0 1.365-.604 1.365-1.35 0-.745-.604-1.354-1.365-1.354zM98.453 43.28a1.355 1.355 0 100-2.71 1.355 1.355 0 000 2.71zM93.055 43.28a1.355 1.355 0 100-2.71 1.355 1.355 0 000 2.71zM87.646 43.28a1.355 1.355 0 100-2.71 1.355 1.355 0 000 2.71zM82.248 40.576c-.75 0-1.365.609-1.365 1.355 0 .745.614 1.35 1.365 1.35a1.353 1.353 0 000-2.704zM76.84 43.28a1.355 1.355 0 100-2.71 1.355 1.355 0 000 2.71zM71.43 43.28a1.355 1.355 0 100-2.71 1.355 1.355 0 000 2.71zM125.481 43.28a1.355 1.355 0 100-2.71 1.355 1.355 0 000 2.71zM120.088 49.22a1.355 1.355 0 100-2.711 1.355 1.355 0 000 2.71zM114.674 49.22a1.355 1.355 0 100-2.711 1.355 1.355 0 000 2.71zM109.265 49.22a1.355 1.355 0 10.001-2.71 1.355 1.355 0 00-.001 2.71zM103.857 46.51a1.353 1.353 0 000 2.704c.761 0 1.365-.61 1.365-1.355s-.604-1.35-1.365-1.35zM98.453 49.22a1.355 1.355 0 100-2.71 1.355 1.355 0 000 2.71zM93.055 49.22a1.355 1.355 0 100-2.71 1.355 1.355 0 000 2.71zM87.646 49.22a1.355 1.355 0 100-2.71 1.355 1.355 0 000 2.71zM82.248 46.51a1.36 1.36 0 00-1.365 1.35c0 .745.614 1.354 1.365 1.354a1.353 1.353 0 000-2.704zM76.84 49.22a1.355 1.355 0 100-2.71 1.355 1.355 0 000 2.71zM71.43 49.22a1.355 1.355 0 100-2.71 1.355 1.355 0 000 2.71zM125.481 49.22a1.355 1.355 0 100-2.711 1.355 1.355 0 000 2.71zM120.088 55.153a1.355 1.355 0 100-2.71 1.355 1.355 0 000 2.71zM114.674 55.153a1.355 1.355 0 100-2.71 1.355 1.355 0 000 2.71zM109.265 55.153a1.355 1.355 0 10.001-2.709 1.355 1.355 0 00-.001 2.71zM103.857 52.449a1.353 1.353 0 000 2.704c.761 0 1.365-.61 1.365-1.355s-.604-1.35-1.365-1.35zM98.453 55.153a1.355 1.355 0 100-2.71 1.355 1.355 0 000 2.71zM93.055 55.153a1.355 1.355 0 100-2.71 1.355 1.355 0 000 2.71zM87.646 55.153a1.355 1.355 0 100-2.71 1.355 1.355 0 000 2.71zM82.248 52.449a1.36 1.36 0 00-1.365 1.35c0 .745.614 1.354 1.365 1.354a1.353 1.353 0 000-2.704zM76.84 55.153a1.355 1.355 0 100-2.71 1.355 1.355 0 000 2.71zM71.43 55.153a1.355 1.355 0 100-2.71 1.355 1.355 0 000 2.71zM125.481 55.153a1.355 1.355 0 100-2.71 1.355 1.355 0 000 2.71zM120.088 61.087a1.355 1.355 0 100-2.71 1.355 1.355 0 000 2.71zM114.674 61.087a1.355 1.355 0 100-2.71 1.355 1.355 0 000 2.71zM109.265 61.087a1.355 1.355 0 10.001-2.71 1.355 1.355 0 00-.001 2.71zM103.857 58.383a1.353 1.353 0 000 2.704c.761 0 1.365-.604 1.365-1.35 0-.745-.604-1.354-1.365-1.354zM98.453 61.087a1.355 1.355 0 100-2.71 1.355 1.355 0 000 2.71zM93.055 61.087a1.355 1.355 0 100-2.71 1.355 1.355 0 000 2.71zM87.646 61.087a1.355 1.355 0 100-2.71 1.355 1.355 0 000 2.71zM82.248 58.383c-.75 0-1.365.609-1.365 1.354 0 .746.614 1.35 1.365 1.35a1.353 1.353 0 000-2.704zM76.84 61.087a1.355 1.355 0 100-2.71 1.355 1.355 0 000 2.71zM71.43 61.087a1.355 1.355 0 100-2.71 1.355 1.355 0 000 2.71zM125.481 61.087a1.355 1.355 0 100-2.71 1.355 1.355 0 000 2.71zM120.088 67.031a1.355 1.355 0 100-2.71 1.355 1.355 0 000 2.71zM114.674 67.031a1.355 1.355 0 100-2.71 1.355 1.355 0 000 2.71zM109.265 67.031a1.354 1.354 0 10.001-2.709 1.354 1.354 0 00-.001 2.71zM103.857 64.322a1.353 1.353 0 000 2.704c.761 0 1.365-.61 1.365-1.355 0-.746-.604-1.35-1.365-1.35zM98.453 67.031a1.355 1.355 0 100-2.71 1.355 1.355 0 000 2.71zM93.055 67.031a1.355 1.355 0 100-2.71 1.355 1.355 0 000 2.71zM87.646 67.031a1.355 1.355 0 100-2.71 1.355 1.355 0 000 2.71zM82.248 64.322a1.36 1.36 0 00-1.365 1.35c0 .745.614 1.354 1.365 1.354a1.353 1.353 0 000-2.704zM76.84 67.031a1.355 1.355 0 100-2.71 1.355 1.355 0 000 2.71zM71.43 67.031a1.355 1.355 0 100-2.71 1.355 1.355 0 000 2.71zM125.481 67.031a1.355 1.355 0 100-2.71 1.355 1.355 0 000 2.71zM120.088 72.965a1.355 1.355 0 100-2.71 1.355 1.355 0 000 2.71zM114.674 72.965a1.355 1.355 0 100-2.71 1.355 1.355 0 000 2.71zM109.265 72.965a1.355 1.355 0 10.001-2.709 1.355 1.355 0 00-.001 2.71zM103.857 70.255a1.353 1.353 0 000 2.705c.761 0 1.365-.604 1.365-1.35 0-.745-.604-1.355-1.365-1.355zM98.453 72.965a1.355 1.355 0 100-2.71 1.355 1.355 0 000 2.71zM93.055 72.965a1.355 1.355 0 100-2.71 1.355 1.355 0 000 2.71zM87.646 72.965a1.355 1.355 0 100-2.71 1.355 1.355 0 000 2.71zM82.248 70.255c-.75 0-1.365.61-1.365 1.355 0 .746.614 1.35 1.365 1.35a1.353 1.353 0 000-2.704zM76.84 72.965a1.355 1.355 0 100-2.71 1.355 1.355 0 000 2.71zM71.43 72.965a1.355 1.355 0 100-2.71 1.355 1.355 0 000 2.71zM125.481 72.965a1.355 1.355 0 100-2.71 1.355 1.355 0 000 2.71zM120.088 78.904a1.355 1.355 0 100-2.71 1.355 1.355 0 000 2.71zM114.674 78.904a1.355 1.355 0 100-2.71 1.355 1.355 0 000 2.71zM109.265 78.904a1.354 1.354 0 10.001-2.709 1.354 1.354 0 00-.001 2.71zM103.857 76.195a1.353 1.353 0 000 2.704c.761 0 1.365-.61 1.365-1.355 0-.746-.604-1.35-1.365-1.35zM98.453 78.904a1.355 1.355 0 100-2.71 1.355 1.355 0 000 2.71zM93.055 78.904a1.355 1.355 0 100-2.71 1.355 1.355 0 000 2.71zM87.646 78.904a1.355 1.355 0 100-2.71 1.355 1.355 0 000 2.71zM82.248 76.195a1.36 1.36 0 00-1.365 1.35c0 .745.614 1.354 1.365 1.354a1.353 1.353 0 000-2.704zM76.84 78.904a1.355 1.355 0 100-2.71 1.355 1.355 0 000 2.71zM71.43 78.904a1.355 1.355 0 100-2.71 1.355 1.355 0 000 2.71zM120.088 84.838a1.355 1.355 0 100-2.71 1.355 1.355 0 000 2.71zM114.674 84.838a1.355 1.355 0 100-2.71 1.355 1.355 0 000 2.71zM109.265 84.838a1.355 1.355 0 10.001-2.709 1.355 1.355 0 00-.001 2.709zM103.857 82.128a1.353 1.353 0 000 2.704c.761 0 1.365-.608 1.365-1.354 0-.746-.604-1.35-1.365-1.35zM98.453 84.838a1.355 1.355 0 100-2.71 1.355 1.355 0 000 2.71zM93.055 84.838a1.355 1.355 0 100-2.71 1.355 1.355 0 000 2.71zM87.646 84.838a1.355 1.355 0 100-2.71 1.355 1.355 0 000 2.71zM82.248 82.128a1.36 1.36 0 00-1.365 1.35c0 .746.614 1.355 1.365 1.355a1.353 1.353 0 000-2.705zM76.84 84.838a1.355 1.355 0 100-2.71 1.355 1.355 0 000 2.71zM71.43 84.838a1.355 1.355 0 100-2.71 1.355 1.355 0 000 2.71zM120.088 90.772a1.355 1.355 0 100-2.71 1.355 1.355 0 000 2.71zM114.674 90.772a1.355 1.355 0 100-2.71 1.355 1.355 0 000 2.71zM109.265 90.772a1.355 1.355 0 10.001-2.71 1.355 1.355 0 00-.001 2.71zM103.857 88.062a1.353 1.353 0 000 2.704c.761 0 1.365-.603 1.365-1.349s-.604-1.355-1.365-1.355zM98.453 90.772a1.355 1.355 0 100-2.71 1.355 1.355 0 000 2.71zM93.055 90.772a1.355 1.355 0 100-2.71 1.355 1.355 0 000 2.71zM87.646 90.772a1.355 1.355 0 100-2.71 1.355 1.355 0 000 2.71zM82.248 88.062c-.75 0-1.365.61-1.365 1.355 0 .746.614 1.35 1.365 1.35a1.353 1.353 0 000-2.704zM76.84 90.772a1.355 1.355 0 100-2.71 1.355 1.355 0 000 2.71zM71.43 90.772a1.355 1.355 0 100-2.71 1.355 1.355 0 000 2.71zM66.027 90.772a1.355 1.355 0 100-2.71 1.355 1.355 0 000 2.71zM120.088 96.71a1.355 1.355 0 100-2.71 1.355 1.355 0 000 2.71zM114.674 96.71a1.355 1.355 0 100-2.71 1.355 1.355 0 000 2.71zM109.265 96.71a1.355 1.355 0 10.001-2.708 1.355 1.355 0 00-.001 2.709zM103.857 94.001a1.353 1.353 0 000 2.704c.761 0 1.365-.608 1.365-1.354 0-.746-.604-1.35-1.365-1.35zM98.453 96.71a1.355 1.355 0 100-2.709 1.355 1.355 0 000 2.71zM93.055 96.71a1.355 1.355 0 100-2.709 1.355 1.355 0 000 2.71zM87.646 96.71a1.355 1.355 0 100-2.709 1.355 1.355 0 000 2.71zM82.248 94.001a1.36 1.36 0 00-1.365 1.35c0 .746.614 1.355 1.365 1.355a1.353 1.353 0 000-2.705zM76.84 96.71a1.355 1.355 0 100-2.709 1.355 1.355 0 000 2.71zM71.43 96.71a1.355 1.355 0 100-2.709 1.355 1.355 0 000 2.71zM66.027 96.71a1.355 1.355 0 100-2.709 1.355 1.355 0 000 2.71zM120.088 102.645a1.355 1.355 0 100-2.71 1.355 1.355 0 000 2.71zM114.674 102.645a1.355 1.355 0 100-2.71 1.355 1.355 0 000 2.71zM109.265 102.645a1.355 1.355 0 100-2.71 1.355 1.355 0 000 2.71zM103.857 99.935a1.353 1.353 0 000 2.704 1.352 1.352 0 100-2.704zM98.453 102.645a1.355 1.355 0 100-2.71 1.355 1.355 0 000 2.71zM93.055 102.645a1.355 1.355 0 100-2.71 1.355 1.355 0 000 2.71zM87.646 102.645a1.355 1.355 0 100-2.71 1.355 1.355 0 000 2.71zM82.248 99.935c-.75 0-1.365.609-1.365 1.355 0 .751.614 1.349 1.365 1.349a1.352 1.352 0 000-2.704zM76.84 102.645a1.355 1.355 0 10-.001-2.71 1.355 1.355 0 000 2.71zM71.43 102.645a1.355 1.355 0 100-2.71 1.355 1.355 0 000 2.71zM66.027 102.645a1.355 1.355 0 100-2.71 1.355 1.355 0 000 2.71zM114.674 108.584a1.355 1.355 0 100-2.71 1.355 1.355 0 000 2.71zM109.265 108.584a1.355 1.355 0 100-2.71 1.355 1.355 0 000 2.71zM103.857 105.874a1.353 1.353 0 000 2.705 1.353 1.353 0 100-2.705zM98.453 108.584a1.355 1.355 0 100-2.71 1.355 1.355 0 000 2.71zM93.055 108.584a1.355 1.355 0 100-2.71 1.355 1.355 0 000 2.71zM87.646 108.584a1.355 1.355 0 100-2.71 1.355 1.355 0 000 2.71zM82.248 105.874a1.36 1.36 0 00-1.365 1.35c0 .745.614 1.355 1.365 1.355a1.353 1.353 0 000-2.705zM76.84 108.584a1.355 1.355 0 10-.001-2.71 1.355 1.355 0 000 2.71zM71.43 108.584a1.355 1.355 0 100-2.71 1.355 1.355 0 000 2.71zM66.027 108.584a1.355 1.355 0 100-2.71 1.355 1.355 0 000 2.71zM114.674 120.446a1.35 1.35 0 10.001-2.699 1.35 1.35 0 00-.001 2.699zM109.265 120.446a1.35 1.35 0 10.001-2.699 1.35 1.35 0 00-.001 2.699zM103.857 117.747c-.741 0-1.345.604-1.345 1.35 0 .745.604 1.349 1.345 1.349.761 0 1.365-.604 1.365-1.349 0-.746-.604-1.35-1.365-1.35zM98.453 120.446a1.35 1.35 0 100-2.699 1.35 1.35 0 000 2.699zM93.055 120.446a1.35 1.35 0 100-2.699 1.35 1.35 0 000 2.699zM87.646 120.446a1.35 1.35 0 100-2.699 1.35 1.35 0 000 2.699zM82.248 117.747a1.36 1.36 0 00-1.365 1.35 1.36 1.36 0 001.365 1.349c.74 0 1.344-.604 1.344-1.349 0-.746-.603-1.35-1.344-1.35zM76.84 120.446a1.35 1.35 0 100-2.699 1.35 1.35 0 000 2.699zM71.43 120.446a1.35 1.35 0 10.001-2.699 1.35 1.35 0 000 2.699zM66.027 120.446a1.35 1.35 0 100-2.699 1.35 1.35 0 000 2.699zM114.674 126.385a1.355 1.355 0 100-2.71 1.355 1.355 0 000 2.71zM109.265 126.385a1.354 1.354 0 10.002-2.708 1.354 1.354 0 00-.002 2.708zM103.857 123.676c-.741 0-1.345.614-1.345 1.36a1.35 1.35 0 001.345 1.355c.761 0 1.365-.604 1.365-1.355 0-.746-.604-1.36-1.365-1.36zM98.453 126.385a1.355 1.355 0 100-2.709 1.355 1.355 0 000 2.709zM93.055 126.385a1.355 1.355 0 100-2.709 1.355 1.355 0 000 2.709zM87.646 126.385a1.355 1.355 0 10.001-2.709 1.355 1.355 0 000 2.709zM82.248 123.676c-.75 0-1.365.614-1.365 1.36a1.36 1.36 0 001.365 1.355 1.35 1.35 0 001.344-1.355c0-.746-.603-1.36-1.344-1.36zM76.84 126.385a1.355 1.355 0 100-2.709 1.355 1.355 0 000 2.709zM71.43 126.385a1.354 1.354 0 10.001-2.709 1.354 1.354 0 000 2.709zM66.027 126.385a1.355 1.355 0 100-2.709 1.355 1.355 0 000 2.709zM114.674 132.324a1.355 1.355 0 100-2.71 1.355 1.355 0 000 2.71zM109.265 132.324a1.354 1.354 0 10.002-2.708 1.354 1.354 0 00-.002 2.708zM103.857 129.62c-.741 0-1.345.609-1.345 1.355a1.35 1.35 0 001.345 1.355 1.354 1.354 0 100-2.71zM98.453 132.324a1.354 1.354 0 10.001-2.709 1.354 1.354 0 000 2.709zM93.055 132.324a1.354 1.354 0 10.001-2.709 1.354 1.354 0 000 2.709zM87.646 132.324a1.354 1.354 0 10.001-2.709 1.354 1.354 0 000 2.709zM82.248 129.62c-.75 0-1.365.609-1.365 1.355a1.36 1.36 0 001.365 1.355 1.35 1.35 0 001.344-1.355c0-.746-.603-1.355-1.344-1.355zM76.84 132.324a1.354 1.354 0 100-2.709 1.354 1.354 0 000 2.709zM71.43 132.324a1.354 1.354 0 10.002-2.708 1.354 1.354 0 00-.001 2.708zM66.027 132.324a1.354 1.354 0 10.001-2.709 1.354 1.354 0 000 2.709zM114.674 138.258a1.35 1.35 0 10.001-2.699 1.35 1.35 0 00-.001 2.699zM109.265 138.258a1.35 1.35 0 10.001-2.699 1.35 1.35 0 00-.001 2.699zM103.857 135.554c-.741 0-1.345.604-1.345 1.349a1.35 1.35 0 001.345 1.355c.761 0 1.365-.604 1.365-1.355 0-.74-.604-1.349-1.365-1.349zM98.453 138.258a1.35 1.35 0 100-2.699 1.35 1.35 0 000 2.699zM93.055 138.258a1.35 1.35 0 100-2.699 1.35 1.35 0 000 2.699zM87.646 138.258a1.35 1.35 0 100-2.699 1.35 1.35 0 000 2.699zM82.248 135.554a1.36 1.36 0 00-1.365 1.349 1.36 1.36 0 001.365 1.355 1.35 1.35 0 001.344-1.355c0-.74-.603-1.349-1.344-1.349zM76.84 138.258a1.35 1.35 0 100-2.699 1.35 1.35 0 000 2.699zM71.43 138.258a1.35 1.35 0 10.001-2.699 1.35 1.35 0 000 2.699zM66.027 138.258a1.35 1.35 0 100-2.699 1.35 1.35 0 000 2.699zM109.265 144.192a1.355 1.355 0 100-2.71 1.355 1.355 0 000 2.71zM103.857 141.482c-.741 0-1.345.604-1.345 1.35a1.354 1.354 0 102.71 0c0-.74-.604-1.35-1.365-1.35zM98.453 144.192a1.355 1.355 0 100-2.71 1.355 1.355 0 000 2.71zM93.055 144.192a1.355 1.355 0 100-2.71 1.355 1.355 0 000 2.71zM87.646 144.192a1.355 1.355 0 100-2.71 1.355 1.355 0 000 2.71zM82.248 141.482a1.36 1.36 0 00-1.365 1.35c0 .751.614 1.36 1.365 1.36.74 0 1.344-.609 1.344-1.36 0-.74-.603-1.35-1.344-1.35zM76.84 144.192a1.355 1.355 0 10-.001-2.71 1.355 1.355 0 000 2.71zM71.43 144.192a1.355 1.355 0 100-2.71 1.355 1.355 0 000 2.71zM66.027 144.192a1.355 1.355 0 100-2.71 1.355 1.355 0 000 2.71zM109.265 150.136a1.354 1.354 0 10.002-2.708 1.354 1.354 0 00-.002 2.708zM103.857 147.421c-.741 0-1.345.61-1.345 1.361 0 .745.604 1.354 1.345 1.354a1.357 1.357 0 100-2.715zM98.453 150.136a1.354 1.354 0 10.001-2.709 1.354 1.354 0 000 2.709zM93.055 150.136a1.354 1.354 0 10.001-2.709 1.354 1.354 0 000 2.709zM87.646 150.136a1.354 1.354 0 10.001-2.709 1.354 1.354 0 000 2.709zM82.248 147.421c-.75 0-1.365.61-1.365 1.361 0 .745.614 1.354 1.365 1.354.74 0 1.344-.609 1.344-1.354 0-.751-.603-1.361-1.344-1.361zM76.84 150.136a1.354 1.354 0 100-2.709 1.354 1.354 0 000 2.709zM71.43 150.136a1.354 1.354 0 10.002-2.708 1.354 1.354 0 00-.001 2.708zM66.027 150.136a1.354 1.354 0 10.001-2.709 1.354 1.354 0 000 2.709zM109.265 156.06a1.35 1.35 0 100-2.7 1.35 1.35 0 000 2.7zM103.857 153.361c-.741 0-1.345.603-1.345 1.354 0 .746.604 1.35 1.345 1.35a1.353 1.353 0 100-2.704zM98.453 156.06a1.35 1.35 0 10-.001-2.7 1.35 1.35 0 00.001 2.7zM93.055 156.06a1.35 1.35 0 10-.001-2.7 1.35 1.35 0 00.001 2.7zM87.646 156.06a1.35 1.35 0 100-2.7 1.35 1.35 0 000 2.7zM82.248 153.361a1.36 1.36 0 00-1.365 1.354c0 .746.614 1.35 1.365 1.35.74 0 1.344-.604 1.344-1.35 0-.751-.603-1.354-1.344-1.354zM76.84 156.06a1.35 1.35 0 10-.002-2.7 1.35 1.35 0 00.002 2.7zM71.43 156.06a1.35 1.35 0 100-2.7 1.35 1.35 0 000 2.7zM66.027 156.06a1.35 1.35 0 10-.001-2.7 1.35 1.35 0 00.001 2.7zM109.265 161.993a1.35 1.35 0 10.001-2.699 1.35 1.35 0 00-.001 2.699zM103.857 159.294c-.741 0-1.345.599-1.345 1.35 0 .746.604 1.355 1.345 1.355.761 0 1.365-.609 1.365-1.355a1.35 1.35 0 00-1.365-1.35zM98.453 161.993a1.35 1.35 0 100-2.699 1.35 1.35 0 000 2.699zM93.055 161.993a1.35 1.35 0 100-2.699 1.35 1.35 0 000 2.699zM87.646 161.993a1.35 1.35 0 100-2.699 1.35 1.35 0 000 2.699zM82.248 159.294c-.75 0-1.365.599-1.365 1.35 0 .746.614 1.355 1.365 1.355.74 0 1.344-.609 1.344-1.355 0-.751-.603-1.35-1.344-1.35zM76.84 161.993a1.35 1.35 0 100-2.699 1.35 1.35 0 000 2.699zM71.43 161.993a1.35 1.35 0 10.001-2.699 1.35 1.35 0 000 2.699zM66.027 161.993a1.35 1.35 0 100-2.699 1.35 1.35 0 000 2.699zM109.265 167.943a1.355 1.355 0 100-2.71 1.355 1.355 0 000 2.71zM103.857 165.233c-.741 0-1.345.61-1.345 1.355a1.354 1.354 0 102.71 0c0-.745-.604-1.355-1.365-1.355zM98.453 167.943a1.355 1.355 0 100-2.71 1.355 1.355 0 000 2.71zM93.055 167.943a1.355 1.355 0 100-2.71 1.355 1.355 0 000 2.71zM87.646 167.943a1.355 1.355 0 100-2.71 1.355 1.355 0 000 2.71zM82.248 165.233c-.75 0-1.365.61-1.365 1.355 0 .751.614 1.36 1.365 1.36.74 0 1.344-.609 1.344-1.36 0-.745-.603-1.355-1.344-1.355zM76.84 167.943a1.355 1.355 0 10-.001-2.71 1.355 1.355 0 000 2.71zM71.43 167.943a1.355 1.355 0 100-2.71 1.355 1.355 0 000 2.71zM66.027 167.943a1.355 1.355 0 100-2.71 1.355 1.355 0 000 2.71zM60.624 167.943a1.355 1.355 0 100-2.71 1.355 1.355 0 000 2.71zM109.265 173.877a1.355 1.355 0 100-2.71 1.355 1.355 0 000 2.71zM103.857 171.173c-.741 0-1.345.609-1.345 1.354a1.35 1.35 0 001.345 1.355 1.354 1.354 0 100-2.709zM98.453 173.877a1.355 1.355 0 100-2.71 1.355 1.355 0 000 2.71zM93.055 173.877a1.355 1.355 0 100-2.71 1.355 1.355 0 000 2.71zM87.646 173.877a1.355 1.355 0 100-2.71 1.355 1.355 0 000 2.71zM82.248 171.173c-.75 0-1.365.609-1.365 1.354a1.36 1.36 0 001.365 1.355 1.35 1.35 0 001.344-1.355c0-.745-.603-1.354-1.344-1.354zM76.84 173.877a1.355 1.355 0 10-.001-2.71 1.355 1.355 0 000 2.71zM71.43 173.877a1.355 1.355 0 100-2.71 1.355 1.355 0 000 2.71zM66.027 173.877a1.355 1.355 0 100-2.71 1.355 1.355 0 000 2.71zM60.624 173.877a1.355 1.355 0 100-2.71 1.355 1.355 0 000 2.71zM103.857 177.112c-.741 0-1.345.603-1.345 1.354 0 .746.604 1.35 1.345 1.35a1.353 1.353 0 100-2.704zM98.453 179.811a1.35 1.35 0 100-2.699 1.35 1.35 0 000 2.699zM93.055 179.811a1.35 1.35 0 100-2.699 1.35 1.35 0 000 2.699zM87.646 179.811a1.35 1.35 0 100-2.699 1.35 1.35 0 000 2.699zM82.248 177.112a1.36 1.36 0 00-1.365 1.354c0 .746.614 1.35 1.365 1.35.74 0 1.344-.604 1.344-1.35 0-.751-.603-1.354-1.344-1.354zM76.84 179.811a1.35 1.35 0 100-2.699 1.35 1.35 0 000 2.699zM71.43 179.811a1.35 1.35 0 100-2.699 1.35 1.35 0 000 2.699zM66.027 179.811a1.35 1.35 0 100-2.699 1.35 1.35 0 000 2.699zM60.624 179.811a1.35 1.35 0 100-2.699 1.35 1.35 0 000 2.699zM103.857 183.035c-.741 0-1.345.609-1.345 1.36 0 .746.604 1.355 1.345 1.355a1.357 1.357 0 100-2.715zM98.453 185.75a1.355 1.355 0 100-2.71 1.355 1.355 0 000 2.71zM93.055 185.75a1.355 1.355 0 100-2.71 1.355 1.355 0 000 2.71zM87.646 185.75a1.355 1.355 0 100-2.71 1.355 1.355 0 000 2.71zM82.248 183.035c-.75 0-1.365.609-1.365 1.36 0 .746.614 1.355 1.365 1.355.74 0 1.344-.609 1.344-1.355s-.603-1.36-1.344-1.36zM76.84 185.75a1.355 1.355 0 10-.001-2.71 1.355 1.355 0 000 2.71zM71.43 185.75a1.355 1.355 0 100-2.71 1.355 1.355 0 000 2.71zM66.027 185.75a1.355 1.355 0 100-2.71 1.355 1.355 0 000 2.71zM60.624 185.75a1.355 1.355 0 100-2.71 1.355 1.355 0 000 2.71zM103.857 188.974c-.741 0-1.345.609-1.345 1.36 0 .746.604 1.35 1.345 1.35.761 0 1.365-.604 1.365-1.35 0-.746-.604-1.36-1.365-1.36zM98.453 191.684a1.355 1.355 0 100-2.71 1.355 1.355 0 000 2.71zM93.055 191.684a1.355 1.355 0 100-2.71 1.355 1.355 0 000 2.71zM87.646 191.684a1.355 1.355 0 100-2.71 1.355 1.355 0 000 2.71zM82.248 188.974c-.75 0-1.365.609-1.365 1.36 0 .746.614 1.35 1.365 1.35.74 0 1.344-.604 1.344-1.35 0-.746-.603-1.36-1.344-1.36zM76.84 191.684a1.355 1.355 0 10-.001-2.71 1.355 1.355 0 000 2.71zM71.43 191.684a1.355 1.355 0 100-2.71 1.355 1.355 0 000 2.71zM66.027 191.684a1.355 1.355 0 100-2.71 1.355 1.355 0 000 2.71zM60.624 191.684a1.355 1.355 0 100-2.71 1.355 1.355 0 000 2.71zM103.857 194.918c-.741 0-1.345.604-1.345 1.35 0 .751.604 1.349 1.345 1.349a1.349 1.349 0 100-2.699zM98.453 197.617a1.35 1.35 0 100-2.699 1.35 1.35 0 000 2.699zM93.055 197.617a1.35 1.35 0 100-2.699 1.35 1.35 0 000 2.699zM87.646 197.617a1.35 1.35 0 100-2.699 1.35 1.35 0 000 2.699zM82.248 194.918a1.36 1.36 0 00-1.365 1.35c0 .751.614 1.349 1.365 1.349.74 0 1.344-.598 1.344-1.349 0-.746-.603-1.35-1.344-1.35zM76.84 197.617a1.35 1.35 0 100-2.699 1.35 1.35 0 000 2.699zM71.43 197.617a1.35 1.35 0 10.001-2.699 1.35 1.35 0 000 2.699zM66.027 197.617a1.35 1.35 0 100-2.699 1.35 1.35 0 000 2.699zM60.624 197.617a1.35 1.35 0 100-2.699 1.35 1.35 0 000 2.699zM103.857 200.847c-.741 0-1.345.604-1.345 1.349a1.355 1.355 0 102.71 0c0-.745-.604-1.349-1.365-1.349zM98.453 203.557a1.355 1.355 0 100-2.71 1.355 1.355 0 000 2.71zM93.055 203.557a1.355 1.355 0 100-2.71 1.355 1.355 0 000 2.71zM87.646 203.557a1.355 1.355 0 100-2.71 1.355 1.355 0 000 2.71zM82.248 200.847a1.36 1.36 0 00-1.365 1.349c0 .751.614 1.361 1.365 1.361.74 0 1.344-.61 1.344-1.361 0-.745-.603-1.349-1.344-1.349zM76.84 203.557a1.355 1.355 0 10-.001-2.71 1.355 1.355 0 000 2.71zM71.43 203.557a1.355 1.355 0 100-2.71 1.355 1.355 0 000 2.71zM66.027 203.557a1.355 1.355 0 100-2.71 1.355 1.355 0 000 2.71zM60.624 203.557a1.355 1.355 0 100-2.71 1.355 1.355 0 000 2.71zM114.674 114.518a1.355 1.355 0 100-2.71 1.355 1.355 0 000 2.71zM109.265 114.518a1.355 1.355 0 100-2.71 1.355 1.355 0 000 2.71zM103.857 111.808a1.353 1.353 0 000 2.704c.761 0 1.365-.604 1.365-1.349 0-.746-.604-1.355-1.365-1.355zM98.453 114.518a1.355 1.355 0 100-2.71 1.355 1.355 0 000 2.71zM93.055 114.518a1.355 1.355 0 100-2.71 1.355 1.355 0 000 2.71zM87.646 114.518a1.355 1.355 0 100-2.71 1.355 1.355 0 000 2.71zM82.248 111.808c-.75 0-1.365.609-1.365 1.355a1.36 1.36 0 001.365 1.349 1.352 1.352 0 000-2.704zM76.84 114.518a1.355 1.355 0 10-.001-2.71 1.355 1.355 0 000 2.71zM71.43 114.518a1.355 1.355 0 100-2.71 1.355 1.355 0 000 2.71zM66.027 114.518a1.355 1.355 0 100-2.71 1.355 1.355 0 000 2.71zM103.857 206.786c-.741 0-1.345.604-1.345 1.35 0 .75.604 1.354 1.345 1.354.761 0 1.365-.604 1.365-1.354 0-.746-.604-1.35-1.365-1.35zM98.453 209.485a1.35 1.35 0 100-2.699 1.35 1.35 0 000 2.699zM93.055 209.485a1.35 1.35 0 100-2.699 1.35 1.35 0 000 2.699zM87.646 209.485a1.35 1.35 0 100-2.699 1.35 1.35 0 000 2.699zM82.248 206.786a1.36 1.36 0 00-1.365 1.35c0 .75.614 1.354 1.365 1.354a1.35 1.35 0 001.344-1.354c0-.746-.603-1.35-1.344-1.35zM76.84 209.485a1.35 1.35 0 100-2.699 1.35 1.35 0 000 2.699zM71.43 209.485a1.35 1.35 0 10.001-2.699 1.35 1.35 0 000 2.699zM66.027 209.485a1.35 1.35 0 100-2.699 1.35 1.35 0 000 2.699zM60.624 209.485a1.35 1.35 0 100-2.699 1.35 1.35 0 000 2.699zM103.857 212.715c-.741 0-1.345.609-1.345 1.36 0 .745.604 1.354 1.345 1.354a1.357 1.357 0 100-2.714zM98.453 215.424a1.355 1.355 0 100-2.709 1.355 1.355 0 000 2.709zM93.055 215.424a1.355 1.355 0 100-2.709 1.355 1.355 0 000 2.709zM87.646 215.424a1.355 1.355 0 10.001-2.709 1.355 1.355 0 000 2.709zM82.248 212.715c-.75 0-1.365.609-1.365 1.36 0 .745.614 1.354 1.365 1.354.74 0 1.344-.609 1.344-1.354 0-.751-.603-1.36-1.344-1.36zM76.84 215.424a1.355 1.355 0 100-2.709 1.355 1.355 0 000 2.709zM71.43 215.424a1.354 1.354 0 10.001-2.709 1.354 1.354 0 000 2.709zM66.027 215.424a1.355 1.355 0 100-2.709 1.355 1.355 0 000 2.709zM60.624 215.424a1.354 1.354 0 100-2.709 1.354 1.354 0 000 2.709zM98.453 221.358a1.355 1.355 0 100-2.71 1.355 1.355 0 000 2.71zM93.055 221.358a1.355 1.355 0 100-2.71 1.355 1.355 0 000 2.71zM87.646 221.358a1.355 1.355 0 100-2.71 1.355 1.355 0 000 2.71zM82.248 218.654c-.75 0-1.365.609-1.365 1.36a1.36 1.36 0 001.365 1.349c.74 0 1.344-.604 1.344-1.349 0-.751-.603-1.36-1.344-1.36zM76.84 221.358a1.355 1.355 0 10-.001-2.71 1.355 1.355 0 000 2.71zM71.43 221.358a1.355 1.355 0 100-2.71 1.355 1.355 0 000 2.71zM66.027 221.358a1.355 1.355 0 100-2.71 1.355 1.355 0 000 2.71zM60.624 221.358a1.355 1.355 0 100-2.71 1.355 1.355 0 000 2.71zM98.453 227.292a1.35 1.35 0 100-2.699 1.35 1.35 0 000 2.699zM93.055 227.292a1.35 1.35 0 100-2.699 1.35 1.35 0 000 2.699zM87.646 227.292a1.35 1.35 0 100-2.699 1.35 1.35 0 000 2.699zM82.248 224.593a1.36 1.36 0 00-1.365 1.355 1.36 1.36 0 001.365 1.349c.74 0 1.344-.604 1.344-1.349a1.35 1.35 0 00-1.344-1.355zM76.84 227.292a1.35 1.35 0 100-2.699 1.35 1.35 0 000 2.699zM71.43 227.292a1.35 1.35 0 100-2.699 1.35 1.35 0 000 2.699zM66.027 227.292a1.35 1.35 0 100-2.699 1.35 1.35 0 000 2.699zM60.624 227.292a1.35 1.35 0 100-2.699 1.35 1.35 0 000 2.699zM98.453 233.226a1.35 1.35 0 10-.001-2.7 1.35 1.35 0 00.001 2.7zM93.055 233.226a1.35 1.35 0 10-.001-2.7 1.35 1.35 0 00.001 2.7zM87.646 233.226a1.35 1.35 0 100-2.7 1.35 1.35 0 000 2.7zM82.248 230.521c-.75 0-1.365.599-1.365 1.35a1.36 1.36 0 001.365 1.355 1.35 1.35 0 001.344-1.355c0-.751-.603-1.35-1.344-1.35zM76.84 233.226a1.35 1.35 0 10-.002-2.7 1.35 1.35 0 00.002 2.7zM71.43 233.226a1.35 1.35 0 100-2.7 1.35 1.35 0 000 2.7zM66.027 233.226a1.35 1.35 0 10-.001-2.7 1.35 1.35 0 00.001 2.7zM60.624 233.226a1.35 1.35 0 10-.001-2.7 1.35 1.35 0 000 2.7zM98.453 245.099a1.355 1.355 0 100-2.71 1.355 1.355 0 000 2.71zM93.055 245.099a1.355 1.355 0 100-2.71 1.355 1.355 0 000 2.71zM87.646 245.099a1.355 1.355 0 100-2.71 1.355 1.355 0 000 2.71zM82.248 245.099a1.355 1.355 0 100-2.71 1.355 1.355 0 000 2.71zM76.84 245.099a1.355 1.355 0 10-.001-2.71 1.355 1.355 0 000 2.71zM71.43 245.099a1.355 1.355 0 100-2.71 1.355 1.355 0 000 2.71zM66.027 245.099a1.355 1.355 0 100-2.71 1.355 1.355 0 000 2.71zM60.624 245.099a1.355 1.355 0 100-2.71 1.355 1.355 0 000 2.71z" fill="currentColor"/></svg>