<svg viewBox="0 0 256 256" fill="none" xmlns="http://www.w3.org/2000/svg"><path d="M128 228c-55.143 0-100-44.857-100-100S72.857 28 128 28s100 44.857 100 100-44.857 100-100 100zm0-182.857c-46 0-83.143 37.143-83.143 82.857S82 211.143 128 211.143 211.143 174 211.143 128c-.286-45.714-37.429-82.857-83.143-82.857z" fill="currentColor"/><path d="M125.429 155.714c-4.572 0-8.572-3.714-8.572-8.571 0-13.143 8.572-24.572 20.857-28.286 5.429-1.714 9.143-6.571 8.857-12.286 0-10.285-8.571-18.857-18.857-18.857-10.285 0-18.857 8.572-18.857 18.857 0 4.572-3.714 8.572-8.571 8.572-4.572 0-8.572-3.714-8.572-8.572.572-19.714 16.572-35.714 36.286-35.714 19.714 0 35.714 16 35.714 35.714 0 13.143-8.571 24.572-20.857 28.286-5.428 1.714-9.143 6.572-8.857 12.286 0 4.571-4 8.571-8.571 8.571zM125.429 183.714c5.68 0 10.285-4.605 10.285-10.285 0-5.681-4.605-10.286-10.285-10.286-5.681 0-10.286 4.605-10.286 10.286 0 5.68 4.605 10.285 10.286 10.285z" fill="currentColor"/></svg>