<svg viewBox="0 0 256 256" fill="none" xmlns="http://www.w3.org/2000/svg"><path d="M118.461 28.48c-14.403 1.626-25.781 6.728-34.54 15.532-2.032 1.987-4.56 5.012-5.644 6.682-1.084 1.67-2.122 3.025-2.258 3.025-.18 0-1.67 1.852-3.386 4.109l-3.115 4.109.542 5.689c.316 3.16 1.038 7.81 1.58 10.34.587 2.528.903 4.514.722 4.379-.18-.09-.993-1.31-1.76-2.664-.768-1.355-1.626-2.483-1.852-2.483-.541 0-.18 3.792.813 8.262.361 1.716.587 3.16.497 3.296-.316.271-2.98-7.856-3.477-10.655-.27-1.355-.587-3.703-.767-5.193l-.362-2.709-.812 2.664c-2.98 9.572-1.49 19.37 3.702 24.517l1.896 1.941.09 11.83c.09 8.307.362 13.771.904 18.195 1.083 8.398.812 15.171-.813 20.679-.677 2.213-2.935 7.721-5.057 12.191-2.167 4.515-4.47 9.617-5.192 11.378-7.089 17.744-5.102 33.547 5.644 44.292 3.566 3.567 8.081 6.412 12.37 7.856 3.206 1.039 10.52 2.258 13.636 2.258l2.032-.045-3.16-1.264c-12.462-5.057-18.648-13.5-19.46-26.459-.497-7.404 1.128-13.951 6.637-26.548 4.56-10.475 6.23-14.9 7.45-19.505 1.264-4.876 1.444-3.206.406 3.386-.768 4.651-3.206 12.101-7.18 21.673-3.205 7.765-4.334 12.145-4.65 18.06-.36 7.63 1.806 15.035 5.825 19.595l1.535 1.761.542-4.289c.316-2.348 1.038-6.096 1.67-8.308 2.8-9.798 5.825-13.139 17.338-19.234l7.45-3.883 2.483 1.219c10.881 5.463 22.756 5.463 33.502 0l2.528-1.264 7.405 3.928c11.874 6.321 15.035 9.978 17.789 20.634.632 2.483 1.264 6.005 1.445 7.856l.271 3.386 1.761-1.987c4.063-4.56 6.005-11.061 5.644-18.963-.317-6.637-1.22-9.888-5.915-21.627-4.244-10.565-5.463-14.674-6.141-20.995-.587-5.011-.316-6.185.452-2.212.858 4.289 2.167 7.991 6.456 17.97 6.412 14.99 7.992 20.408 7.992 27.541 0 8.037-2.89 15.713-7.811 20.725-2.98 2.979-6.005 4.921-11.604 7.359-3.341 1.445-3.386 1.49-1.58 1.49 3.838 0 10.114-1.038 14.087-2.348 15.983-5.237 24.788-21.446 21.582-39.732-1.039-5.96-3.07-11.559-7.721-21.311-8.082-16.932-8.804-20.905-6.637-37.746.452-3.612.722-9.436.768-16.119l.045-10.475 1.896-1.625c2.393-2.032 4.515-6.276 5.192-10.34.542-3.386-.045-10.7-1.038-13.183-.542-1.265-.542-1.265-.903 1.354-.497 3.341-1.851 8.443-3.025 11.107l-.903 2.032.226-3.612.225-3.612-1.67 2.483c-1.039 1.58-1.535 2.077-1.355 1.355 1.535-6.276 2.529-11.152 2.935-14.72l.497-4.243-2.529-3.613c-1.399-1.986-2.664-3.657-2.844-3.792-.181-.09-.226 1.58-.181 3.702.181 4.064-.451 9.03-1.535 12.823l-.677 2.167-2.213-3.25c-9.481-14.178-24.516-24.608-40.635-28.13-4.56-.993-16.073-1.4-20.724-.722-15.532 2.303-28.219 10.159-36.391 22.575-2.438 3.703-2.71 4.019-3.07 3.07-.813-2.212-1.671-7.314-1.626-9.932v-2.8l.677 2.032c.362 1.129.994 2.483 1.445 3.07l.813 1.039 1.76-2.574c5.69-8.263 16.255-15.893 27.091-19.505 6.727-2.258 12.281-2.98 20.95-2.664 8.353.271 13.5 1.31 20.679 4.2 10.971 4.424 21.085 12.732 27.767 22.845 1.264 1.942 2.484 3.522 2.664 3.522.723 0 1.4-4.786 1.174-8.398-.271-4.605-2.032-8.714-5.96-13.906-11.468-15.216-32.644-23.117-55.309-20.544zm17.022 6.05c11.874 1.942 23.658 8.218 30.386 16.255l1.535 1.806-1.58-1.4c-5.96-5.463-16.435-9.888-27.768-11.74-6.321-1.038-18.06-1.038-24.11-.044-8.759 1.49-17.835 4.876-23.117 8.714-3.116 2.212-3.07 1.896.18-.994 11.74-10.52 28.355-15.215 44.474-12.597zm-1.039 21.718c3.251.361 5.96.767 6.095.858.091.135-1.806.225-4.289.225-7.134 0-23.975 2.303-26.323 3.612-.361.181 1.129.452 3.387.633 10.159.812 30.612 3.476 31.244 4.108.271.271-8.218 2.754-15.035 4.47-12.823 3.206-26.368 5.283-33.863 5.192h-3.612l6.276-1.535c7.721-1.896 18.376-4.83 22.846-6.276 3.251-1.083 3.296-1.128 1.535-1.173-3.025 0-31.515 3.115-34.946 3.882-2.439.542.045-.722 6.998-3.431 3.973-1.58 7.45-3.025 7.675-3.296.723-.722-8.262.045-12.055.993-1.896.497-4.289 1.31-5.327 1.852-1.039.541-1.987.903-2.077.767-.09-.09 1.083-1.129 2.618-2.258 10.972-8.127 27.542-11.061 48.853-8.623zm28.4 15.125c6.14 3.115 11.378 7.405 14.267 11.784 1.039 1.49 1.851 2.935 1.851 3.206 0 .271-1.354-.813-3.025-2.483-3.16-3.07-8.668-7.314-9.075-6.953-.09.135 1.942 3.34 4.515 7.133 2.574 3.793 4.876 7.224 5.102 7.586.542.903-1.083-.407-4.921-4.064-1.761-1.625-2.98-2.528-2.8-2.032.678 1.987 3.296 5.825 5.148 7.54 2.257 2.077 1.49 2.032-2.664-.18-6.818-3.567-11.649-12.055-11.694-20.363 0-1.4.09-2.573.226-2.573.135 0 1.535.632 3.07 1.4zm-7.947 2.98c-.858 5.012 1.039 13.274 4.199 18.15 2.709 4.29 7.992 8.037 12.326 8.85l1.716.316-.316 3.251c-.135 1.761-.542 4.741-.903 6.592-.316 1.851-1.129 6.231-1.761 9.707-.632 3.477-1.083 6.592-1.038 6.953.09.316.812-1.806 1.625-4.74 2.393-8.489 4.967-12.823 7.54-12.823 1.49 0 2.032 1.219 2.032 4.65 0 4.831-1.716 8.76-5.599 12.868-3.115 3.296-5.463 4.064-5.779 1.806-.09-.632-.632.723-1.4 3.387-2.257 8.081-5.372 12.913-11.287 17.699-4.289 3.431-12.281 7.63-19.054 10.023-4.56 1.58-5.327 1.716-9.707 1.67-3.928 0-5.328-.225-8.172-1.173-5.418-1.897-11.514-4.651-15.487-6.999-4.695-2.799-11.287-9.256-13.229-13.003-1.896-3.657-4.018-11.107-5.328-18.873a337.25 337.25 0 00-1.85-10.023c-.949-4.561-1.13-17.7-.272-21.673.858-3.928 2.438-9.255 2.754-9.255.136 0 1.897.316 3.883.722 4.967 1.038 16.209.993 21.898 0 4.967-.903 12.146-2.664 22.35-5.463 10.926-3.025 19.324-5.147 20.363-5.192.903 0 .948.135.496 2.573zM79.27 111.828c.632.722 1.716 2.348 2.348 3.657 1.31 2.619 4.335 12.642 4.335 14.358 0 3.793-6.322-1.084-9.392-7.269-1.896-3.883-2.438-9.572-.993-11.288.858-1.038 2.438-.813 3.702.542zm-5.056 46.956c-.452 1.987-1.987 7.36-3.387 11.92-5.915 19.641-6.592 30.928-2.528 40.681.722 1.67 1.264 3.07 1.174 3.07-.497 0-3.116-5.418-4.38-9.03-1.445-4.244-1.49-4.38-1.445-12.191 0-7.359.09-8.262 1.4-13.093.767-2.845 2.438-7.631 3.657-10.611 5.147-12.281 6.14-14.629 6.276-14.538.045.09-.27 1.761-.767 3.792zm114.411 16.3c2.573 7.811 3.16 11.197 3.16 18.376-.045 6.05-.135 7.179-1.264 10.836-1.174 3.838-3.793 9.482-4.199 9.075-.135-.09.09-.767.451-1.49.994-1.851 2.077-6.321 2.619-10.52.858-6.908-.812-17.157-5.057-30.928-2.528-8.082-4.018-13.59-4.018-14.629 0-.993 6.908 15.036 8.308 19.28zm-91.791-7.992c-.768 4.786-2.574 8.94-6.908 15.803-4.65 7.359-6.05 10.023-7.405 14.177-1.174 3.612-1.4 2.393-.406-1.942.993-4.108 3.206-8.668 7.45-15.17 4.334-6.727 5.643-9.482 6.682-13.816.903-3.973 1.219-3.432.587.948zm64.159 5.824c.677 1.355 2.663 4.696 4.424 7.405 5.147 7.856 7.315 12.733 7.902 17.654.271 2.257.271 2.212-.903-1.038-1.535-4.425-2.438-6.096-6.547-12.507-5.689-8.804-7.36-12.687-7.856-18.512l-.271-2.709 1.038 3.612c.542 2.032 1.58 4.741 2.213 6.095zm-33.502-6.817c2.619 0 5.463-.316 7.314-.813l2.98-.768.542 2.755c.768 4.154 2.122 7.991 3.838 10.791l1.535 2.573-2.483 1.129c-8.489 3.747-17.157 3.973-25.917.587-4.334-1.671-4.199-1.49-2.618-3.838 1.625-2.438 3.296-6.953 4.018-11.017l.497-2.98 3.025.813c1.806.452 4.65.768 7.269.768z" fill="currentColor"/><path d="M99.633 99.547c-4.695.858-12.777 3.702-12.777 4.47 0 .09 1.038-.09 2.348-.406 6.275-1.671 14.854-1.761 20.137-.271 1.715.496 3.702-.045 3.702-.994 0-1.083-1.535-2.077-4.289-2.799-3.161-.813-4.741-.813-9.12 0zM147.041 99.321c-2.98.632-4.65 1.671-4.65 2.89 0 1.445 1.128 1.67 4.831.858 4.199-.948 11.694-.903 16.299.045 2.077.451 3.883.722 3.973.587.361-.361-6.095-2.845-9.301-3.612-3.838-.948-8.759-1.264-11.152-.768zM98.143 109.525c-.858.361-2.212 1.174-3.025 1.806l-1.49 1.129-1.67-1.129c-.903-.632-1.761-1.083-1.852-.993-.09.09.407 1.038 1.084 2.032 1.58 2.438 1.084 3.16-1.67 2.348-.994-.316-1.942-.497-2.032-.407-.09.136.632.813 1.625 1.535.993.723 1.76 1.626 1.67 1.987-.045.361-.993.858-2.121 1.129-1.536.361-1.852.587-1.22.812.452.181 1.445.316 2.168.316.993 0 1.309.226 1.309.903 0 .497-.135.904-.316.904-.226 0-.858.451-1.49.948l-1.129.903 1.897-.271c1.58-.271 1.896-.181 2.122.587.18.451.812 1.354 1.49 1.941l1.174 1.084-.407-1.355c-.767-2.664-.497-6.637.632-8.353l1.039-1.58-.361 1.355c-1.22 4.605.406 8.804 4.018 10.565 5.689 2.754 12.19-.903 12.281-6.863.045-1.309-.136-2.935-.316-3.702-.361-1.31-.361-1.31.993.406.768.948 1.4 1.49 1.4 1.129 0-2.98-3.341-7.585-6.547-9.03-2.212-1.039-7.044-1.084-9.256-.136zm3.702 8.624c.994.903 1.039 2.303.046 3.386-.994 1.129-2.664 1.039-3.477-.18-.948-1.355-.903-1.987.18-3.071 1.084-1.083 2.123-1.128 3.251-.135zM147.493 109.751c-3.116 1.535-5.328 4.515-6.186 8.308l-.316 1.354 1.625-1.806c1.445-1.67 1.535-1.716 1.129-.542-1.038 2.935-.045 7.541 2.077 9.437 2.212 1.941 6.366 2.709 9.075 1.67 1.581-.587 3.612-2.483 4.515-4.244.858-1.58.949-5.463.181-6.998l-.542-1.129.903 1.039c1.896 2.167 2.122 5.824.677 9.797-.316.903-.316.903.678 0 .587-.496 1.354-1.49 1.67-2.167.587-1.129.858-1.219 2.348-.993l1.671.271-1.219-1.039c-1.761-1.49-1.671-2.619.225-2.619 2.438 0 2.98-.767.813-1.128-2.619-.452-2.799-1.31-.677-3.161 1.851-1.625 1.67-1.896-.678-1.083-1.083.361-1.58.361-2.076-.046-.542-.451-.452-.812.722-2.528 1.535-2.258 1.354-2.483-.813-.813l-1.535 1.174-1.67-1.174c-4.019-2.754-8.985-3.386-12.597-1.58zm2.122 8.533c.496.497.903 1.174.903 1.49 0 .949-1.355 2.574-2.168 2.574-1.309 0-2.799-1.355-2.799-2.483 0-1.084 1.49-2.484 2.574-2.484.316 0 .993.407 1.49.903zM125.685 137.925c1.219 1.309 2.122 1.4 3.522.406 1.625-1.129 1.174-1.535-1.806-1.535h-2.755l1.039 1.129zM123.202 146.142c-1.4.497-2.258.542-3.793.136-1.084-.271-2.032-.407-2.167-.316-.091.135.451.677 1.219 1.264.813.587 1.896 1.58 2.393 2.167.542.587 1.445 1.535 1.941 2.122 1.31 1.355 4.154 2.167 6.321 1.761 1.31-.226 2.438-.993 4.29-2.844 1.399-1.445 3.025-2.89 3.612-3.296 1.444-1.039.948-1.4-1.129-.813-1.219.316-2.122.316-3.341-.09-2.348-.813-7.224-.858-9.346-.091zM156.956 207.116c-2.158-4.025-5.395-7.505-9.231-10.116 7.912 3.698 14.026 10.333 16.184 18.382.36 6.744-.24 8.158-3.716 12.618H96.775c-3.357-4.242-4.196-7.614-3.596-12.618 2.277-8.049 8.391-14.684 16.423-18.382a27.83 27.83 0 00-9.231 10.116c2.998-1.632 6.354-2.72 10.19-2.72 9.591 0 17.503 6.853 18.103 15.337.599-8.701 8.511-15.337 18.102-15.337 3.836 0 7.313.979 10.19 2.72z" fill="currentColor"/></svg>