<svg viewBox="0 0 256 256" fill="none" xmlns="http://www.w3.org/2000/svg"><path d="M119.506 36C69.017 36 28 77.02 28 127.506S69.03 219 119.506 219c40.24 0 74.477-26.018 86.707-62.188v-.012a4.613 4.613 0 00-2.88-5.82 4.616 4.616 0 00-5.856 2.88c-10.981 32.498-41.703 55.924-77.97 55.924-45.497 0-82.277-36.784-82.277-82.277 0-45.494 36.783-82.302 82.277-82.302 42.003 0 76.554 31.383 81.617 71.994l-12.673-10.357a4.67 4.67 0 00-3.385-1.02 4.65 4.65 0 00-3.108 1.681 4.607 4.607 0 00-1.008 3.384 4.59 4.59 0 001.668 3.108l20.87 17.053c.132.096.264.18.408.252.132.096.276.18.42.264.576.276 1.2.444 1.836.468.084.036.168.06.264.072.06-.012.132-.024.204-.048a4.518 4.518 0 001.836-.504c.144-.06.276-.132.408-.216a4.625 4.625 0 001.104-.948l17.054-20.869c1.62-1.956 1.332-4.861-.625-6.481h-.012a4.609 4.609 0 00-6.48.66l-9.697 11.857c-5.88-44.836-44.284-79.543-90.702-79.555zm.048 25.598c-1.224 0-2.4.48-3.264 1.344a4.636 4.636 0 00-1.368 3.264v59.38l-33.23 33.241h.013a4.615 4.615 0 000 6.505 4.625 4.625 0 003.264 1.356c1.224 0 2.4-.492 3.264-1.356l34.563-34.575v-.012a4.569 4.569 0 001.356-3.24v-61.3a4.607 4.607 0 00-4.598-4.607z" fill="currentColor"/></svg>