<svg viewBox="0 0 256 256" fill="none" xmlns="http://www.w3.org/2000/svg"><path d="M223.138 142.395c2.49-8.268 3.819-17.072 3.771-26.293-.108-24.516-9.842-46.885-27.382-63.001-17.768-16.308-42.721-25.195-70.052-25.1-56.8.274-99.471 38.544-99.232 89.017a89.526 89.526 0 003.472 24.408c-4.502 4.784-6.717 12.228-5.28 19.995 1.053 5.642 3.867 10.653 7.914 14.088 3.436 2.923 7.435 4.45 11.494 4.45.982 0 1.975-.095 2.957-.274.97-.179 1.904-.465 2.802-.811C67.072 207.266 96.525 228 128.899 228c32.183 0 61.482-20.483 75.057-48.613.407.107.814.226 1.233.298.982.179 1.976.274 2.958.274 4.058 0 8.057-1.527 11.494-4.449 4.058-3.436 6.872-8.446 7.914-14.089 1.364-7.254-.49-14.231-4.417-19.026zm-16.104 30.026h-.084a78.02 78.02 0 003.197-10.784c.742-3.364 1.233-6.8 1.521-10.283.167-2.016.275-4.056.275-6.096 0-.525-.06-1.05-.072-1.575h.024c.934.167 1.796.537 2.61.99a9.982 9.982 0 012.969 2.481c1.006 1.241 1.796 2.756 2.323 4.438.79 2.541.994 5.464.431 8.482-.742 3.973-2.658 7.456-5.423 9.794-2.383 2.016-5.113 2.887-7.771 2.553zm-78.123 48.162c-24.077 0-46.371-12.586-60.415-31.279a77.749 77.749 0 01-6.238-9.735 73.508 73.508 0 01-2.419-4.867 76.519 76.519 0 01-1.628-3.83c-.096-.262-.204-.525-.3-.787a83.744 83.744 0 01-1.305-3.806 70.395 70.395 0 01-3.22-19.016c-.024-.668-.06-1.336-.06-2.004 0-.954.084-1.92.12-2.887.06-1.384.155-2.779.31-4.163.145-1.348.288-2.684.528-4.032.922-5.202 3.675-9.831 7.734-13.027 5.172-4.068 17.397-10.988 17.529-11.047a3.733 3.733 0 001.843-2.613c1.21-7.098 3.101-15.365 4.538-19.398 2.527 2.649 6.561 8.029 9.687 12.777a3.745 3.745 0 003.89 1.599c.204-.048 20.774-4.402 33.655-4.462h.635c20.677 0 40.324 4.664 56.823 13.493 4.37 2.338 7.746 6.119 9.519 10.665a63.711 63.711 0 013.388 12.132c.18 1.026.275 2.064.407 3.102.168 1.312.288 2.624.371 3.937.084 1.312.168 2.612.168 3.925 0 .119-.012.226-.012.346-.036 7.826-1.437 15.449-3.927 22.666-.036.119-.084.227-.12.346a68.524 68.524 0 01-1.413 3.686 73.536 73.536 0 01-1.592 3.603 54.026 54.026 0 01-1.173 2.362 78.298 78.298 0 01-6.095 9.878c-13.96 19.326-36.67 32.436-61.228 32.436zM49.446 172.4c-2.801.501-5.735-.382-8.261-2.529-2.754-2.338-4.681-5.822-5.424-9.794-.67-3.591-.215-7.039.994-9.878.647-1.503 1.509-2.804 2.562-3.865.922-.919 1.976-1.646 3.15-2.124.526-.214 1.053-.417 1.627-.525.611-.119 1.222-.131 1.844-.107-.012.561-.072 1.121-.072 1.682 0 2.637.144 5.249.42 7.838.359 3.471.981 6.895 1.795 10.248a80.082 80.082 0 002.634 8.648 9.204 9.204 0 01-.814.263c-.155.036-.3.107-.455.143zm-11.745-55.415c-.216-46.252 39.26-81.3 91.82-81.55h.551c25.311 0 48.168 8.207 64.428 23.131 16.008 14.698 24.88 35.145 24.987 57.574.036 7.42-.886 14.566-2.67 21.33a15.937 15.937 0 00-3.532-1.097 15.614 15.614 0 00-1.963-.227c-.132-1.038-.228-2.088-.407-3.125a71.616 71.616 0 00-3.784-13.552c-2.418-6.192-7.016-11.345-12.943-14.519-17.588-9.412-38.445-14.375-60.354-14.375h-.67c-11.028.048-26.64 2.923-32.686 4.116-11.674-17.25-15.074-15.914-17.133-15.103-1.605.632-4.886 1.92-8.968 24.921-3.58 2.064-12.428 7.253-16.942 10.82-5.495 4.331-9.207 10.57-10.464 17.668-.18 1.038-.276 2.088-.407 3.138a16.073 16.073 0 00-3.772.25c-.862.155-1.676.406-2.478.692-1.688-6.394-2.587-13.111-2.61-20.089l-.003-.003z" fill="currentColor"/><path d="M95.063 136.311c-3.532 0-6.393 4.08-6.393 9.126 0 5.034 2.861 9.126 6.393 9.126 3.532 0 6.394-4.079 6.394-9.126 0-5.034-2.862-9.126-6.394-9.126zm-2.239 7.206c-.838 0-1.508-.68-1.508-1.504 0-.835.682-1.503 1.508-1.503.839 0 1.51.68 1.51 1.503 0 .824-.671 1.504-1.51 1.504zM150.293 175.405a94.409 94.409 0 00-21.515-2.553 94.85 94.85 0 00-21.911 2.541c-1.975.465-3.304 2.338-3.041 4.343 1.006 7.444 5.113 14.542 10.932 19.087 2.729 2.135 5.83 3.722 9.171 4.486 1.508.346 3.053.525 4.645.525 1.617 0 3.209-.203 4.742-.561 3.328-.776 6.405-2.362 9.123-4.498 5.795-4.545 9.89-11.631 10.884-19.051.275-1.981-1.066-3.854-3.03-4.319zM162.038 136.311c-3.532 0-6.393 4.08-6.393 9.126 0 5.034 2.861 9.126 6.393 9.126 3.532 0 6.394-4.079 6.394-9.126 0-5.034-2.862-9.126-6.394-9.126zm-2.239 7.206c-.838 0-1.508-.68-1.508-1.504 0-.835.682-1.503 1.508-1.503.839 0 1.509.68 1.509 1.503.012.824-.67 1.504-1.509 1.504z" fill="currentColor"/></svg>