<svg viewBox="0 0 256 256" fill="none" xmlns="http://www.w3.org/2000/svg"><path fill-rule="evenodd" clip-rule="evenodd" d="M142.37 28c14.247 0 25.795 11.548 25.795 25.795 0 14.248-11.548 25.799-25.795 25.799-14.248 0-25.796-11.551-25.796-25.799C116.574 39.548 128.122 28 142.37 28zm65.108 50.223c7.122 7.125 7.122 18.673 0 25.796-7.122 7.125-18.673 7.125-25.795 0-7.126-7.123-7.126-18.67 0-25.796 7.122-7.122 18.673-7.122 25.795 0zm13.977 76.209c0 9.032-7.318 16.35-16.35 16.35-9.03 0-16.348-7.318-16.348-16.35 0-9.03 7.318-16.348 16.348-16.348 9.032 0 16.35 7.318 16.35 16.348zm-45.928 59.961c-4.277 4.278-11.215 4.278-15.493 0-4.28-4.28-4.28-11.218 0-15.496 4.278-4.28 11.216-4.28 15.493 0 4.281 4.278 4.281 11.216 0 15.496zM104.469 228c-5.98 0-10.83-4.847-10.83-10.83s4.85-10.83 10.83-10.83c5.983 0 10.83 4.847 10.83 10.83S110.452 228 104.469 228zm-58.417-41.95c-3.426-3.426-3.426-8.982 0-12.411 3.43-3.426 8.985-3.426 12.412 0a8.772 8.772 0 010 12.411 8.773 8.773 0 01-12.412 0zM34 116.534a7.733 7.733 0 1115.466-.002 7.733 7.733 0 01-15.466.002zm41.858-55.412a4.528 4.528 0 016.398 0 4.522 4.522 0 010 6.399 4.522 4.522 0 01-6.398 0 4.528 4.528 0 010-6.399z" fill="currentColor"/></svg>