<svg viewBox="0 0 256 256" fill="none" xmlns="http://www.w3.org/2000/svg"><path d="M156.837 91.079c5.108 1.999 9.106 0 9.106 0s17.103-17.547 16.658-20.212c-.444-2.888-17.102-21.1-25.098-29.096-5.997-5.997-9.995-3.998-15.992-6.441-4.22-1.777-5.996-4.887-6.441-6.442 0-.444-.444-.888-1.11-.888h-9.551c-.666 0-1.332.444-1.555 1.11-.444 2-1.999 5.775-6.441 7.552-5.997 2.443-11.105.444-15.991 7.552-4.887 7.107-17.547 25.098-17.77 27.763-.443 2.888 20.213 20.434 20.213 20.434s3.998 2 9.106 0c1.555-.666 2.665-.666 3.776-.666-.444 3.11-2.333 6.663-4.11 11.105-4.664 12.216-4.33 27.986-4.33 27.986h.222c0 1.11-1.555 18.435-3.776 23.321-2.443 5.109-9.106 24.21-9.106 41.756 0 0 .666 3.11-1.11 8.218-2.666 7.33 0 17.769 2.442 20.656 1.333 1.777 7.108 1.333 8.885 0 1.777-1.332 1.332-2.665 0-7.995-.667-2.444-1.333-5.553-1.999-8.218-1.111-4.22-.667-8.663 1.11-12.438l.444-.667c1.333-4.886 9.329-32.205 12.883-39.091 3.109-5.775 6.885-17.768 8.44-22.877 3.331.222 7.107.222 11.105.222.444 6.219 1.333 17.103 1.555 20.656.444 5.109.888 37.759 1.555 44.2v8.44s-.222 7.774-3.554 12.216c-3.332 4.442-1.777 6.663 0 7.996 1.777 1.332 7.552.666 8.884 0 1.333-.667 6.219-5.997 3.554-13.327-1.777-5.108.666-15.325.666-15.325s4.443-33.316 1.111-43.756l3.776-23.765s8.885-13.771 4.221-29.54c-1.555-4.887-4.888-8.218-6.22-10.884 1.11-.222 2.665-.222 4.442.445zM113.97 79.75l-6.663 5.109S95.979 72.866 94.869 71.755l13.326-16.436c.222 1.555-1.555 4.554-1.333 6.553.222 4.664.667 4.628 5.775 13.881.667 1.555 1.111 2.888 1.555 4.22l-.222-.222zm1.999 8.884h-.222.222zm35.982-10.66l-4.887-.667v-.666c-.888-9.329 2.665-15.104 2.665-20.656 0-.222 0-.667-.222-.889l21.101 16.436c-1.111 1.11-8.885 11.994-8.885 11.994l-3.998-3.11c-1.777-1.332-3.775-1.999-5.774-2.443z" fill="currentColor"/><path d="M100.199 140.164l-6.663-1.776-1.777-6.664-1.999 6.664-6.663 1.776 6.663 1.999 2 6.664 1.776-6.664 6.663-1.999zM70.881 107.959l-2.665-9.55-2.665 9.55L56 110.624l9.55 2.665 2.666 9.773 2.665-9.773 9.773-2.665-9.773-2.665zM183.934 100.185l6.663 1.777 1.777 6.663 1.777-6.663 6.663-1.777-6.663-1.777-1.777-6.885-1.777 6.885-6.663 1.777zM78.21 55.764l1.778-6.664 6.663-1.777-6.663-1.776-1.777-6.664-2 6.663-6.662 1.777 6.663 1.777 1.999 6.663zM175.272 133.723l-2.443 9.551-9.773 2.665 9.773 2.665 2.443 9.773 2.665-9.773 9.773-2.665-9.773-2.665-2.665-9.551z" fill="currentColor"/></svg>