<svg viewBox="0 0 256 256" fill="none" xmlns="http://www.w3.org/2000/svg"><path d="M171.547 77.908c.226 8.625 9.038 14.848 6.319 23.51-1.308 4.12-4.917 9.618-6.647 13.602-1.717 3.945-5.642 7.926-6.95 11.946-.859 2.667-3.068 3.447-3.096 6.709-.014 1.916.1 3.833.1 5.748-.112 4.441.776 8.858 2.611 12.993 3.434 7.367 6.596 14.25 6.924 22.364.366 9.146-1.251 18.106-1.83 27.216-.28 4.544.015 10.604-5.122 13.254-3.917 2.356-8.283 4.068-12.888 5.053a134.444 134.444 0 00-13.974 2.477c-8.19 2.215-16.056 4.953-24.71 5.176-8.218.212-14.015-.198-20.867-4.591-3.87-2.477-9.234-6.759-9.598-11.264-1.319-16.551-2.45-33.488 4.855-49.193 1.845-3.97 4.589-7.455 6.74-11.275 2.578-4.572 3.756-9.66 3.42-14.76a62.461 62.461 0 00-1.097-13.043c-1.028-4.765-3.547-8.4-6.263-12.519C79.458 96.178 76.833 80.075 77.008 62.85c.001-.421.165-.83.464-1.157.023-.375.172-.735.427-1.034.256-.3.607-.524 1.009-.646 4.587-1.443 8.273-3.26 13.086-3.97 3.522-.253 7.026-.677 10.497-1.27 9.858-2.452 10.323-10.49 12.961-17.82.065-.186.159-.362.281-.523.013-.1.031-.2.057-.299a2.328 2.328 0 01.013-.323c.198-1.232.028-2.49.226-3.733.013-.014.013-.025.013-.05a19.97 19.97 0 00-.07-.972c0-.407.151-.804.431-1.128a2.123 2.123 0 011.117-.664 58.973 58.973 0 0125.069.175c7.35 1.867 9.513 3.745 9.046 10.765-.296 4.679-2.504 9.682-2.082 14.312.59 6.608 5.992 7.628 11.959 9.183 9.275 2.427 9.811 6.174 10.035 14.212zm.779 27.578c2.328-5.826 2.796-12.107 1.351-18.153-.929-3.834-4.715-7.746-4.685-11.667-.085-6-4.143-7.405-10.094-8.736a40.351 40.351 0 01-5.474-1.555c3.546 11.113 8.779 22.238 9.286 33.825.085 1.891.057 3.783-.028 5.666 1.562.172 8.096.422 9.644.62zm-5.901 79.797c.633-9.72-.14-18.705-4.6-27.702a45.358 45.358 0 01-4.067-11.985 108.316 108.316 0 01-14.98 3.049c2.638 12.5 1.941 25.213.098 37.783-.437 2.887-.788 5.762-1.131 8.637a237.819 237.819 0 006.671-1.644c5.614-1.48 12.904-2.563 17.815-5.736.068-.797.139-1.605.194-2.402zm-1.267 12.582c.283-2.614.592-5.227.86-7.854-4.391 2.334-9.753 3.299-14.579 4.569a448.803 448.803 0 01-9.92 2.463 187.06 187.06 0 01-3.447 21.817c7.457-1.482 15.042-2.377 21.74-5.834 1.719-.863 3.066-2.208 3.827-3.821-.069.05-.154.1-.239.15-.352.211-.718.373-1.083.56l-.566.286c-.337.137-.45.167-.674.262a135.216 135.216 0 01-4.712 1.605c-.377.112-.718.223-1.055.333-.352.075-.69.15-1.029.212-.646.125-1.266.237-1.828.348-2.252.399-3.688.5-3.786.225-.098-.275 1.182-.896 3.307-1.643.536-.187 1.131-.385 1.745-.597.325-.1.647-.2.984-.311.337-.112.648-.274.986-.41a114.088 114.088 0 014.391-1.68c.167-.05.463-.167.52-.167l.565-.273c.366-.175.731-.349 1.084-.524.296-.166.576-.348.844-.521.253-.168.488-.355.703-.56.417-.39.738-.852.942-1.357.277-2.4.168-4.938.42-7.278zM166.276 116c1.319-3 4.291-5.884 5.403-8.734-1.364-.186-7.73-.398-9.095-.535-.422 6.297-1.547 12.5-2.42 18.754 1.28-3.049 4.768-6.384 6.112-9.485zm-5.571-11.225a46.763 46.763 0 00-.028-3.474c-.548-12.843-6.108-24.79-9.822-37.098-.281-.167-.548-.323-.816-.51-10.695 6.733-32.998 1.917-39.01-8.387-.444.317-.915.604-1.407.859a29.279 29.279 0 01-9.527 2.736c6.572 13.23 16 26.167 18.618 40.622.393 2.127.674 4.268.898 6.395 13.712.685 27.466.304 41.102-1.14l-.008-.003zm-3.203 25.648c.942-7.952 2.743-15.793 3.137-23.782a264.799 264.799 0 01-40.849 1.157c1.084 12.893-.252 25.86.479 38.803 12.707 1.979 24.876.51 37.178-2.875-.015-.061-.015-.136-.028-.211-.353-.859-.718-1.742-1.056-2.667a37.471 37.471 0 01-2.28-10.653c-.015-2.75.253-4.43.565-4.455.351 0 .675 1.693 1.11 4.356.296 1.382.69 3.037 1.197 4.865a15.216 15.216 0 01.548-4.535l-.001-.003zm-9.636-92.202c.703-.011-.705-3.5-1.131-3.856-1.21-1-3.714-1.07-5.276-1.334a60.537 60.537 0 00-21.179-.461c-.005.26-.077.515-.211.746-.111.872-.069 1.755-.126 2.639.047-.819 25.501 2.305 27.923 2.266zm.577 24.207a8.636 8.636 0 01-2.098-3.212 17.409 17.409 0 01-.885-7.591 38.538 38.538 0 00-1.056 4.368 4.273 4.273 0 00-.154 1.167 6.495 6.495 0 01-.128.908c-.083.51-.212.783-.377.808-.166.025-.353-.248-.536-.733a7.773 7.773 0 01-.28-.872 3.439 3.439 0 01-.198-1.206 19.027 19.027 0 011.07-7.07c.873-2.614 1.815-4.865 2.505-6.5.296-.722.548-1.307.772-1.755a151.888 151.888 0 00-7.232-1.095 102.935 102.935 0 00-3.815 25.26c4.327.32 8.66-.545 12.412-2.477zm-7.388 121.785c1.508-11.798 2.153-23.583-.377-35.318a80.288 80.288 0 01-20.84-.474.94.94 0 01-.566.175 48.355 48.355 0 01-14.134-3.111 39.283 39.283 0 01-1.956 3.596 41.279 41.279 0 01-2.533 5.887c-5.361 10.242-12.56 20.21-12.573 31.865 0 2 0 4 .013 6.012 2.638 1.643 4.883 4.045 7.67 5.288 3.655 1.634 7.73 2.394 11.82 2.203a132.796 132.796 0 0020.713-2.438 341.587 341.587 0 0011.44-2.365c.423-3.767.845-7.533 1.323-11.32zm-5.263 35.12a167.104 167.104 0 003.714-21.817c-5.207 1.182-10.44 2.24-15.745 3.062-6.741 1.033-14.072 2.315-20.918 1.432-6.596-.86-9.8-3.897-14.733-6.92.085 6.981.365 14.025 1.027 20.945l.267.273c3.204 3.148 6.868 6.297 11.637 7.5 9.8 2.513 21.179-.76 30.479-3.423a86.902 86.902 0 014.272-1.052zm-1.871-154.567a105.005 105.005 0 013.827-25.375 191.703 191.703 0 00-18.167-1.193 3.7 3.7 0 01-.224.187c-.409 1.193-.775 2.488-1.155 3.833a68.005 68.005 0 00-.407 3.708c-.155 2.365-.189 4.53-.268 6.099-.043 1.593-.188 2.613-.52 2.638-.332.025-.754-.908-1.131-2.5-.154-.658-.267-1.455-.365-2.313a15.286 15.286 0 01-2.885 4.115c2.917 5.886 12.26 9.968 21.295 10.801zM117.902 136.3c.113-9.134.803-18.355-.028-27.479-.028-.373-.085-.746-.126-1.12a153.472 153.472 0 01-20.587.947 46.31 46.31 0 013.466 6.852 80.523 80.523 0 014.208 15.12c.466 2.869.589 5.774.366 8.666.084-.261.188-.51.267-.785 1.131-3.633 2.054-6.968 2.518-9.358.085-.298.154-.585.226-.858.041-.274.085-.547.111-.797.084-.497.169-.919.255-1.268.188-.699.352-1.084.52-1.084.167 0 .296.399.409 1.109.056.36.111.783.154 1.281.013.249.028.522.057.809-.015.286-.029.596-.044.908a38.607 38.607 0 01-1.928 9.843 50.934 50.934 0 01-1.843 4.792 50.637 50.637 0 006.937 2.103c3.434.71 5.207.524 5.122-2.833-.06-2.293-.098-4.57-.06-6.848zm-.463-30.427c.028 0 .054.012.083 0-2.405-16.975-11.975-31.125-19.56-46.718-.394.05-.773.086-1.153.123a57.345 57.345 0 00-13.017 3.125C89.24 64.181 94.796 78.12 95.725 81.12c1.872 6.01 4.082 16.551-2.152 19.948v.005l.003.004.005.003.005.001a29.054 29.054 0 002.52 5.7c7.124.19 14.253-.114 21.323-.908h.01zm-14.99 36.762a33.443 33.443 0 00-.015-13.69 68.085 68.085 0 00-4.696-15.112c-1.928-4.095-4.77-7.703-6.121-12-.918.218-1.864.327-2.814.323a59.219 59.219 0 004.32 7.269c4.364 5.887 6.974 12.656 7.585 19.675.579 4.34.697 8.72.352 13.08.468.143.931.293 1.389.455zm-.409 1.833a58.936 58.936 0 00-1.251-.398 23.833 23.833 0 01-2.661 7.553c-4.474 7.94-10.088 15.307-11.537 24.317a106.444 106.444 0 00-1.253 28.35 29.9 29.9 0 001.336 8.09 201.778 201.778 0 01-.716-25.539c.365-8.586 3.616-16.166 7.892-23.793 3.576-5.877 6.329-12.117 8.198-18.583l-.008.003zm-14.162-44.195c10.497.397 8.049-11.425 6.177-17.473a67.47 67.47 0 00-4.29-10.765c-.817-1.594-5.138-10.379-8.556-6.734a97.619 97.619 0 00.548 15.32c1.06 6.76 3.118 13.366 6.121 19.652z" fill="currentColor"/><path d="M118.582 220.49c.098.273-1.209.846-3.448 1.555a25.666 25.666 0 01-9.344.908c-3.146-.457-6.134-1.54-8.738-3.167-1.856-1.256-2.912-2.151-2.729-2.401.183-.25 1.534.211 3.617 1.145a35.043 35.043 0 008.161 2.351c2.892.207 5.801.116 8.669-.273 2.265-.33 3.728-.392 3.812-.118z" fill="currentColor"/></svg>