<svg viewBox="0 0 256 256" fill="none" xmlns="http://www.w3.org/2000/svg"><path d="M160 98H88V29.2l-37.4 1.45c-10.061.39-18.254 8.188-18.999 18.229C30.122 68.809 28 101.94 28 128c0 26.043 2.12 58.445 3.599 77.886.75 9.854 8.689 17.556 18.553 18.154L88 226.333V158h72V98z" fill="currentColor"/><path d="M96 227.167V178h92v-20h-20V98h59s1-2 1 30c0 26.009-1.409 58.36-2.395 77.809-.502 9.89-8.236 17.827-18.111 18.562C187.606 225.851 154.222 228 128 228c-40 0-32-.833-32-.833zM96 78V28.833S88 28 128 28s60 1.2 60 1.2V78H96z" fill="currentColor"/></svg>