<svg viewBox="0 0 256 256" fill="none" xmlns="http://www.w3.org/2000/svg"><path fill-rule="evenodd" clip-rule="evenodd" d="M98.198 28c4.391.202 5.845.174 8.227.128 1.244-.024 2.741-.053 5.041-.056h34.815c2.167 0 3.635-.013 4.883-.025 2.4-.021 3.984-.035 8.153.066v8.953c2.597.051 11.205 0 13.803-.031 0 .721-.015 1.459-.031 2.203v.001c-.047 2.234-.095 4.534.267 6.667 1.246-.046 2.508-.027 3.773-.008 1.831.027 3.666.055 5.457-.115-.233 2.416-.214 4.871-.195 7.314.005.67.011 1.34.011 2.008 1.203.084 2.468.061 3.776.038 1.416-.026 2.882-.052 4.376.055v19.82c1.72.05 3.458.03 5.183.009l1.512-.017c-.084 3.564-.028 7.215.029 10.869.075 4.84.15 9.686-.101 14.337-2.204-.047-4.425-.095-6.623-.011v74.935c1.701.109 3.407.089 5.114.07 1.671-.019 3.343-.038 5.009.063-.01 3.029-.02 6.058.021 9.087 1.986.089 3.99.077 5.985.066h.004c.995-.006 1.987-.012 2.974-.005.036 1.969.037 3.949.038 5.924 0 .847 0 1.692.003 2.537 1.351.05 2.706.048 4.061.047h.001c1.116-.002 2.234-.003 3.351.024.249 3.102.21 6.269.172 9.413v.008c-.014 1.142-.028 2.281-.028 3.413l-.01 22.065c-4.748.191-9.533.155-14.305.12h-.006c-1.882-.014-3.763-.028-5.638-.028l-32.65-.021c-9.737.099-19.479.072-29.218.046-4.495-.013-8.99-.025-13.483-.025H39.327c-.41-10.77-.482-24.272.062-35 1.65-.12 3.35-.089 5.035-.058.757.014 1.51.027 2.255.027.06-2.457.04-4.914.02-7.377v-.001l-.01-1.349c1.756.358 4.517.298 6.833.247h.002c.744-.016 1.442-.031 2.046-.031.025-1.26.02-2.523.014-3.788-.009-1.827-.017-3.657.068-5.483 2.876.085 5.758.064 8.636.042h.015l1.709-.012c-.228-2.525-.153-5.047-.08-7.57.05-1.692.1-3.384.06-5.079-.258-11.271-.21-22.563-.162-33.85.019-4.474.038-8.948.038-13.419V102.21c-2.27-.049-4.558-.091-6.817.017.057-.584.04-1.201.025-1.806a32.163 32.163 0 01-.014-.823v-5.42-2.86c.004-4.776.007-9.55-.062-14.318 1.9.073 3.826.05 5.737.027h.005c.376-.005.751-.01 1.126-.013v-.787c0-1.717-.027-3.58-.055-5.508-.077-5.31-.16-11.121.291-15.776 1.112-.013 2.224-.017 3.336-.02 1.558-.006 3.115-.012 4.672-.042-.005-.8-.016-1.601-.027-2.404v-.002c-.032-2.217-.063-4.441.028-6.65l.112-.01c1.558-.121 3.12-.096 4.686-.07 1.479.023 2.96.047 4.442-.053-.092-2.957-.072-5.914 0-8.87l14.772.143-.003-1.857v-.003c-.007-2.371-.013-4.745.076-7.105zm-4.094 68.052l-.01 33.554c0 1.927-.013 3.858-.026 5.79v.001c-.027 4.03-.054 8.067.036 12.085l1.275-.017h.005c2.259-.03 4.507-.06 6.769.027.024 1.568.022 3.141.019 4.714-.003 1.836-.006 3.672.033 5.502 1.231.027 2.461.024 3.69.021h.002c1.558-.003 3.115-.007 4.676.05v13.214c.003.662.018 1.331.034 2.001.033 1.46.067 2.929-.024 4.365-7.294-.3-15.164-.235-22.707-.172h-.01c-1.744.015-3.47.029-5.168.039-.08 3.929-.072 7.869-.057 11.809-1.217-.008-2.43-.019-3.641-.035.214 4.914.205 9.835.197 14.757-.002.982-.004 1.964-.004 2.947v5.587c0 .277.022.561.045.848.049.623.099 1.259-.077 1.861 7.389-.116 14.875-.063 22.297-.011.225-1.371.366-2.759.448-4.158 1.268-.008 2.539.008 3.807.024h.004c1.044.013 2.086.026 3.122.026l16.219-.004c.004.976.003 1.953.002 2.93v.004l-.001 1.36v2.579c0 .127.007.258.013.391.015.288.031.581-.023.859 2.249-.054 4.527-.029 6.786-.005.24-2.213.168-4.517.096-6.82v-.003c-.013-.433-.027-.865-.038-1.297l16.424-.004c.995 0 1.999-.015 3.007-.03h.007c1.619-.024 3.248-.048 4.862-.011v1.461c0 .277.022.561.045.847v.001c.049.623.099 1.259-.077 1.861 7.389-.116 14.875-.063 22.297-.011.787-4.794.552-9.787.317-14.776-.178-3.766-.355-7.529-.093-11.202-1.571.004-3.148.011-4.729.017h-.091v-11.69c-1.817-.103-3.655-.085-5.484-.066-.713.007-1.425.015-2.134.015h-13.153c-.625 0-1.255.007-1.887.015h-.002c-1.715.02-3.446.04-5.133-.087-.26-2.087-.231-4.244-.203-6.366.008-.561.016-1.119.018-1.673l-.011-11.459h8.604c-.064-1.531-.085-3.063-.106-4.594-.027-1.897-.053-3.791-.161-5.683 2.701-.134 5.473-.113 8.183-.011l-.02-44.385c0-.46.002-.92.004-1.38v-.001c.008-1.839.016-3.677-.107-5.509-4.546-.09-9.098-.076-13.652-.061-1.678.005-3.356.01-5.034.01l-27.341-.03c-2.272 0-4.543.007-6.813.015-5.107.017-10.213.035-15.323-.036h-.003zm36.36 37.963h-.001c-1.819.013-3.654.026-5.463-.015.065 2.646.063 5.295.06 7.946l-.001 1.587v3.008c0 .149.007.302.013.457.015.336.031.678-.023 1.002 2.249-.063 4.527-.034 6.786-.006.24-2.581.168-5.27.096-7.956v-.001c-.054-2.027-.108-4.054-.028-6.031l-1.439.009z" fill="currentColor"/></svg>