<svg viewBox="0 0 256 256" fill="none" xmlns="http://www.w3.org/2000/svg"><path d="M204.333 128.145V91.6c0-35.07-28.532-63.6-63.6-63.6h-33.066c-4.411 0-8.594 1.725-11.807 4.893-2.36 2.392-3.92 5.353-4.547 8.553-20.651 1.55-36.98 18.847-36.98 39.887V126.4C46.385 129.722 41 137.552 41 146.333c0 5.791 2.253 11.234 6.344 15.324 4.089 4.09 9.528 6.343 15.323 6.343h5c0 33.084 26.917 60 60 60 33.082 0 60-26.916 60-60h5c5.794 0 11.233-2.253 15.322-6.343 4.092-4.09 6.344-9.533 6.344-15.324a21.435 21.435 0 00-10-18.188zM61 81.333C61 62.953 75.954 48 94.333 48a3.332 3.332 0 003.334-3.333 10.03 10.03 0 012.907-7.06c1.923-1.895 4.443-2.94 7.093-2.94h33.066c31.393 0 56.934 25.54 56.934 56.933v33.659c-.548-.131-1.108-.209-1.664-.297-.267-.042-.528-.11-.796-.142a21.326 21.326 0 00-2.54-.153h-5V107.1a3.335 3.335 0 00-1.758-2.938 3.33 3.33 0 00-3.421.163 41.697 41.697 0 01-23.155 7.008c-16.022 0-30.341-8.916-37.386-23.29a29.159 29.159 0 01-.989-2.187 3.334 3.334 0 00-5.814-.68c-2.93 4.142-9.089 8.527-15.361 10.92C96.609 97.342 93.572 98 91 98c-5.983 0-12.578-3.024-17.643-8.09a3.34 3.34 0 00-3.633-.724 3.337 3.337 0 00-2.057 3.08v32.401h-5c-.56 0-1.117.021-1.667.063V81.333zm1.667 80c-4.01 0-7.78-1.559-10.61-4.389a14.905 14.905 0 01-4.39-10.611c0-6.686 4.482-12.618 10.934-14.433a14.51 14.51 0 014.066-.567h5v30h-5zM181 168c0 29.408-23.926 53.333-53.333 53.333-29.408 0-53.334-23.925-53.334-53.333V99.271c5.212 3.444 11.107 5.396 16.667 5.396 3.395 0 7.275-.817 11.188-2.354 5.541-2.112 10.931-5.516 14.854-9.253 8.486 15.443 24.485 24.94 42.291 24.94A48.265 48.265 0 00181 112.881V168zm22.275-11.056a14.9 14.9 0 01-10.608 4.389h-5v-30h5c2.395 0 4.681.557 6.829 1.675 5.039 2.547 8.171 7.653 8.171 13.325 0 4.011-1.56 7.779-4.392 10.611z" fill="currentColor"/><path d="M164.333 171.333A3.333 3.333 0 00161 168H94.333A3.333 3.333 0 0091 171.333c0 6.289 1.648 12.478 4.725 17.952.005.011.012.021.017.033.064.114.108.238.173.352 6.543 11.307 18.708 18.33 31.752 18.33 9.788 0 18.994-3.815 25.924-10.742a36.88 36.88 0 005.83-7.59c.068-.117.113-.244.179-.362l.007-.014c3.077-5.474 4.726-11.667 4.726-17.959zm-6.852 3.334c-.39 3.482-1.423 6.86-2.983 10h-53.662c-1.561-3.139-2.594-6.518-2.984-10h59.629zm-29.814 26.666c-8.567 0-16.631-3.75-22.264-10h44.535c-.358.399-.681.831-1.06 1.21-5.671 5.669-13.204 8.79-21.211 8.79z" fill="currentColor"/><rect x="86" y="131" width="35" height="8" rx="4" fill="currentColor"/><rect x="138" y="131" width="35" height="8" rx="4" fill="currentColor"/></svg>