<svg viewBox="0 0 256 256" fill="none" xmlns="http://www.w3.org/2000/svg"><path d="M178.949 89.955s3.542-4.202.226-8.713c-3.337-4.532 11.288 4.387-.226 8.713zM168.341 90.099s8.383 2.533 10.484 2.43c0 0 1.38 2.864 3.831 1.34 0 0-.947 2.739-4.325 1.627 0 0 .659 4.963-5.294-.165-6.509-5.582-4.696-5.232-4.696-5.232zM180.596 109.152s.824 3.584 5.047 2.677c0 0 .618 1.648.885 3.317 0 0 .165-3.481 2.369-4.552 2.204-1.072 4.264-.804 4.573-3.234l-4.12.618c-.556.082-1.071.329-1.524.679-1.05.865-3.563 2.328-7.23.495zM180.411 128.534c-.618-2.163 5.232-4.161 2.039-5.644-2.163-1.009-6.57-.679-6.57-.679 2.059-.701 13.388-7.065 12.358-3.481-.783 2.76-3.996 2.718-3.996 2.718 1.257.845 1.73 1.751 1.854 2.575.144 1.154-.515 2.307-1.565 2.822-3.255 1.586-2.637 4.264-2.637 4.264s-1.009-.948-1.483-2.575z" fill="currentColor"/><path d="M104.612 156.464c2.348-1.75 7.23-3.419 12.956-11.843 14.418-21.216 5.643-41.031 15.777-31.329 11.494 11.02 11.885 23.605 9.681 31.905-3.934 14.996 1.772 24.285 7.91 29.682-6.9-11.885-4.552-20.248-4.552-20.248 2.41-12.688 9.33-16.952 9.33-16.952 26.551 7.395 26.613-3.419 26.613-3.419s-5.871 7.148-15.819-.762c-9.949-7.909-14.192-6.488-20.66-16.251-5.52-8.343-5.891-10.114-5.891-10.114s-.144 1.874-2.43 2.245c-2.348.392-4.388-2.018-4.388-2.018-13.491-7.6-8.362-16.602-8.362-16.602s-1.257 8.59 4.964 10.999c0 0-5.253-5.726-1.689-9.619 2.842-3.11 3.275-1.689 5.911-.7 0 0-2.78.061-4.284.885-1.874 1.01-1.38 4.8-1.38 4.8s1.627-1.586 2.451-1.525c.824.062-1.236 3.317 1.854 4.553 3.09 1.235 4.696 4.325 6.22 2.78 1.216-1.091-2.142-2.76-2.142-2.76s-1.648-.597-.206-2.575c.989-1.359-.947-3.625 1.566-4.037 2.513-.412 5.767 7.539 9.186 9.393 3.193 1.751 7.539 1.256 7.539 1.256s-6.653-4.14-7.518-6.653c-.886-2.533-.021-5.932 1.503-6.776 1.525-.845 5.459-4.676 6.489-9.146 1.03-4.47 10.587-7.724 12.358-10.154 1.772-2.451 6.695-11.061 10.896-14.007 0 0 9.64 7.95 8.384 24.388l-1.401 11.823s-.082 1.771 1.668 5.108c0 0 .701-12.05 1.03-15.428 1.257-12.605-1.421-19.67-1.421-19.67 4.429 7.641 2.637 33.285 2.637 33.285 3.336-12.75.02-32.132.02-32.132 6.035 11.082 4.017 27.992 4.017 27.992 4.531-22.266-6.303-36.478-6.303-36.478-4.676-13.574-16.293-16.828-16.293-16.828-13.656-15.201-32.585-11-32.585-11-22.534-2.924-29.723 12.133-35.469 15.737-3.028 1.916-6.674 6.777-9.434 10.938.02-.598.02-1.278 0-1.998 3.543-2.349.412-6.695-.968-8.343.597-3.666 3.81-7.065 3.81-7.065s-6.385 2.987-4.634 10.67c.309 1.318.391 2.657.35 3.955-6.406 3.419-6.632 8.012-6.015 10.463-5.581 1.648-16.993 6.386-22.636 18.682-7.642 16.623.206 19.486 3.048 26.798 2.843 7.312 12.668 11.081 17.282 9.701 4.614-1.38 7.93 1.628 13.759 5.953 5.829 4.326 17.446 2.163 17.446 2.163 0 13.244-5.376 23.914-10.175 30.278zm62.39-105.995s-5.294 3.255-17.487 4.017c-9.455.597-7.683-3.028-23.379-1.154 0 0 9.187-2.678 18.003-.474 7.415 1.834 22.863-2.389 22.863-2.389zm-11.967-2.842c-5.005.885-9.434.144-9.434.144 1.854.206 7.024-1.257 10.278-1.422 3.811-.185 10.505 1.875 10.505 1.875s-6.529-1.462-11.349-.597zm4.552-12.915c-3.275-1.957-8.28-2.946-8.28-2.946 5.231-.39 8.28 2.946 8.28 2.946zm5.891 5.005c-11.02-5.911-29.949-6.776-29.949-6.776 18.517-3.276 29.949 6.776 29.949 6.776zm-23.255-2.39s5.829-2.574 14.892.763c0 0-3.831-.742-6.632-.495 0 0 7.847 1.484 12.029 4.47 0 0-8.837-3.007-19.341-2.183 0 0 5.787-1.174 8.856-.948 0-.02-6.282-2.41-9.804-1.606zm21.875 7.128c-10.917-2.101-31.267-2.06-31.267-2.06 17.466-3.316 31.267 2.06 31.267 2.06zm-24.285 1.71c-11.782-2.122-16.19-1.093-16.19-1.093 7.91-2.718 15.861 1.73 23.688-.123 7.827-1.854 15.839.638 15.839.638s-8.877-1.338-13.141-.144c-2.451.68-7.436 1.257-10.196.721zm-46.612 4.984a18.3 18.3 0 00-.7-3.481c-.268-.865-.33-1.566-.207-2.451 1.463 2.183 2.08 4.14.907 5.932zm-4.12 10.978s-.432.083-1.153.227c-.515-2.08.103-5.726 3.83-8.157-.246 2.163-1.523 5.87-2.677 7.93zm-7.25 47.519c-8.63-1.03-12.256-5.5-12.256-5.5 2.492 2.081 8.507 2.74 8.507 2.74-2.554-1.071-6.715-4.387-6.715-4.387 8.095 4.964 16.396 6.179 16.396 6.179-4.573.68-11.473-1.339-11.473-1.339 2.163 1.318 5.54 2.307 5.54 2.307zm-3.213-18.25c1.895-4.078 4.222-4.201 4.222-4.201-1.442.576-4.222 4.202-4.222 4.202zm3.584-1.73s-.886 4.285-6.242 5.624c0 0 4.058-2.637 6.242-5.624zm-11.494 4.182s6.86-6.262 9.496-12.07c0 0-2.348 8.28-9.496 12.07zm3.028-12.565s10.299-5.726 13.903-10.71c-.02 0-3.584 7.888-13.903 10.71zM87.35 67.421c-17.55 5.747-22.884 21.936-22.884 21.936 4.222-20.865 22.884-21.936 22.884-21.936zm-21.69 36.066s10.485 11.597 23.358 10.279c0 .02-14.397 4.098-23.357-10.279zm21.566-3.234c14.192 16.005 29.579 15.758 29.579 15.758-16.17 4.881-29.579-15.758-29.579-15.758zm9.805.227s9.681 8.836 16.663 10.773c0 .02-12.07-.948-16.663-10.773zm-8.26-10.608s14.048-6.797 28.796 10.464c-.021 0-14.831-13.347-28.796-10.464zM121.4 67.01c5.85 1.792 15.51 2.74 20.247.68 0 0-8.239 4.325-20.845 1.03-12.605-3.296-17.775-2.019-17.775-2.019s8.774-2.78 18.373.309zm27.395 3.028c-12.462 14.645-22.514 2.76-22.514 2.76 11.947 7.127 22.514-2.76 22.514-2.76zm-26.201 8.754s17.117 2.533 20.825-1.319c3.707-3.83 9.001-8.877 15.716-11.905 0 0-7.415 3.914-12.894 11.617-5.5 7.724-23.647 1.607-23.647 1.607zm28.899 2.74c-3.069 4.53-15.263-.124-25.788 6.323 0 0 5.87-4.758 10.772-4.738 4.882.02 11.494.041 14.274-3.357 3.626-4.47 10.917-6.303 10.917-6.303s-6.838 3.172-10.175 8.074zm12.05-20.578c-2.802 2.184-6.077 3.79-9.599 4.326-7.6 1.174-11.061-1.648-11.061-1.648 2.163.865 5.459 1.174 7.848.7 2.204-.432 4.346-1.133 6.323-2.183 9.949-5.273 15.757-6.839 15.757-6.839-3.439 1.38-6.879 3.79-9.268 5.644zm-7.148-1.091c-11.576 5.273-24.573-.289-24.573-.289s16.252 2.884 23.028-.268c10.34-4.799 20.495-5.973 20.495-5.973s-6.529.886-18.95 6.53z" fill="currentColor"/><path d="M149.267 167.402s12.689 1.38 17.158 15.283c4.47 13.904 8.383 14.192 8.383 14.192s-2.306-4.737-3.357-10.299c-1.05-5.561-3.193-13.512-11.596-17.467-7.004-3.275-10.588-1.709-10.588-1.709zM180.267 202.85s5.973 11.535-.886 20.515c0 0-5.438-9.268-28.095-11.802-22.657-2.533-25.067-11.967-26.159-21.092-1.092-9.125-6.262-31.7-28.177-23.914 0 0 14.5-1.895 18.228 8.754 3.729 10.649 4.676 19.28 3.729 26.551-.927 7.291-3.77 17.652-2.822 26.117h80.619c0 .021-3.09-16.354-16.437-25.129zM79.771 228c.041-2.616.082-10.196-.082-12.812-1.998-30.546 7.106-37.941 7.106-37.941s-6.035 16.128-2.575 30.32C87.433 220.75 94.85 228 94.85 228H79.77z" fill="currentColor"/></svg>