<svg viewBox="0 0 256 256" fill="none" xmlns="http://www.w3.org/2000/svg"><path d="M181.461 49h-25.437l-.004.01H99.776l-.004-.01H75.213L28 87.082l31.06 34.358 10.379-9.384V208H186.35v-96.743l11.265 10.183 31.056-34.358L181.461 49zm-58.526 2.604h10.805v4.038h-10.805v-4.038zm12.533 5.767v-5.767h19.366c-4.93 10.445-15.251 17.139-26.934 17.139-11.683 0-22.008-6.694-26.938-17.14h20.244v5.768h14.262zm61.967 60.404l-13.675-12.361v99.993H72.032v-99.191l-12.79 11.559-27.48-30.396 44.367-35.79h21.887c5.117 12.026 16.752 19.743 29.88 19.743 13.122 0 24.746-7.713 29.87-19.732h2.531v-.01h20.241l44.371 35.79-27.474 30.395z" fill="currentColor"/></svg>