<svg viewBox="0 0 256 256" fill="none" xmlns="http://www.w3.org/2000/svg"><path fill-rule="evenodd" clip-rule="evenodd" d="M186.938 185.804a3.032 3.032 0 00-3.032 3.032v28.696a4.412 4.412 0 01-4.407 4.407h-10.886a4.407 4.407 0 01-4.407-4.407l.009-28.696a3.031 3.031 0 00-3.031-3.032H146.27l12.253-27.781c.172-.38.254-.796.254-1.222v-19.076a5.807 5.807 0 014.633-5.719c7.004-1.493 14.18-1.484 21.302.027a5.798 5.798 0 014.633 5.719v19.049c0 .417.091.833.263 1.222l12.253 27.781h-14.923zm-12.877-76.856c4.379 0 7.936 3.556 7.936 7.945 0 4.371-3.566 7.936-7.936 7.936-4.371 0-7.937-3.556-7.937-7.936 0-4.389 3.566-7.945 7.937-7.945zm35.21 78.665l-13.864-31.455v-18.406c0-5.683-3.882-10.47-9.429-11.647a79.795 79.795 0 00-1.185-.235 13.91 13.91 0 003.276-8.977c0-7.719-6.281-13.999-14-13.999s-13.999 6.28-13.999 13.999c0 3.403 1.221 6.534 3.248 8.959-.389.072-.778.154-1.167.235-5.547 1.177-9.429 5.973-9.429 11.647v18.433l-13.864 31.455c-.878 1.991.597 4.253 2.778 4.253h16.533v25.664c0 5.765 4.697 10.461 10.47 10.461h10.886c5.765 0 10.461-4.696 10.461-10.461l-.018-25.673h16.533c2.172 0 3.657-2.262 2.77-4.253zm-81.814-81.698v115.551a3.032 3.032 0 01-6.063 0l.009-115.551a3.031 3.031 0 013.031-3.031 3.03 3.03 0 013.023 3.031zM96.518 159.83c0 7.276-.94 11.891-5.746 13.954-3.783 1.62-6.135 5.194-6.135 9.312v34.432a4.412 4.412 0 01-4.407 4.407H69.343a4.412 4.412 0 01-4.407-4.407l.01-34.432c0-4.127-2.353-7.692-6.136-9.312-4.796-2.063-5.746-6.678-5.746-13.954v-17.755c0-4.316 2.678-7.864 6.832-9.04 9.918-2.814 19.918-2.878 29.799-.054 4.145 1.185 6.823 4.733 6.823 9.04v17.809zm-21.727-50.885c4.37 0 7.936 3.557 7.936 7.946 0 4.37-3.565 7.936-7.936 7.936-4.38 0-7.945-3.557-7.945-7.936.009-4.389 3.574-7.946 7.945-7.946zm16.57 18.208a62.36 62.36 0 00-5.792-1.349 13.926 13.926 0 003.221-8.913c0-7.719-6.28-14-14-14-7.718 0-13.999 6.28-13.999 14 0 3.402 1.231 6.533 3.258 8.958a64.149 64.149 0 00-5.81 1.358C51.525 129.116 47 135.089 47 142.084v17.755c0 5.411 0 15.474 9.411 19.519 1.548.661 2.47 2.063 2.47 3.747v34.432c0 5.764 4.697 10.461 10.462 10.461h10.886c5.773 0 10.47-4.697 10.47-10.461v-34.442c0-1.683.923-3.085 2.461-3.746 9.412-4.036 9.412-14.108 9.412-19.519v-17.81c.009-6.977-4.497-12.949-11.212-14.867zM68.51 82.784c0-1.665.977-3.05 2.552-3.61l53.372-19.103 53.364 19.103c1.575.56 2.552 1.945 2.552 3.61v.697a3.854 3.854 0 01-3.846 3.846l-104.149-.009a3.855 3.855 0 01-3.846-3.846v-.688zm3.846 10.597h104.148c5.457 0 9.909-4.443 9.909-9.9v-.697c0-4.235-2.579-7.89-6.569-9.32l-52.386-18.75c0-2.172-.218-4.227 2.253-5.548a11.22 11.22 0 005.954-9.918c0-6.198-5.04-11.248-11.239-11.248-6.199 0-11.239 5.05-11.239 11.248a3.031 3.031 0 106.063 0 5.19 5.19 0 015.185-5.185 5.19 5.19 0 015.185 5.185 5.2 5.2 0 01-2.742 4.58c-3.42 1.827-5.466 5.23-5.466 9.112v1.783l-52.395 18.74c-3.99 1.43-6.57 5.087-6.57 9.322v.696c0 5.448 4.443 9.9 9.909 9.9z" fill="currentColor"/></svg>