<svg viewBox="0 0 256 256" fill="none" xmlns="http://www.w3.org/2000/svg"><path d="M170.959 37c-48.452 0-87.81 37.69-90.78 85.313H34.255a5.723 5.723 0 00-4.94 2.042 5.709 5.709 0 00.756 8.044 5.731 5.731 0 004.184 1.289h45.924C83.096 181.362 122.47 219 170.959 219h17.088a5.696 5.696 0 005.696-5.688v-28.437h28.48a5.694 5.694 0 004.08-1.637 5.69 5.69 0 001.256-6.246 5.7 5.7 0 00-5.336-3.492h-28.48v-91h28.48a5.699 5.699 0 005.336-3.492 5.687 5.687 0 00-5.336-7.883h-28.48V42.687a5.68 5.68 0 00-1.669-4.021A5.699 5.699 0 00188.047 37h-17.088zm0 11.375h11.392v159.25h-11.392c-44.277 0-79.744-35.414-79.744-79.625 0-44.21 35.467-79.625 79.744-79.625z" fill="currentColor"/></svg>