<svg viewBox="0 0 256 256" fill="none" xmlns="http://www.w3.org/2000/svg"><path d="M93.522 103.863c0 9.197-13.791 9.197-13.791 0s13.79-9.197 13.79 0zM176.269 103.863c0 9.197-13.791 9.197-13.791 0s13.791-9.197 13.791 0zM227.986 62.498c0-19-15.475-34.471-34.478-34.471h-13.199c-3.865 0-7.138 2.72-7.448 6.208-.175 1.992.445 3.891 1.765 5.345a6.882 6.882 0 005.104 2.276h13.791c11.408 0 20.687 9.277 20.687 20.682v13.196c0 3.865 2.721 7.137 6.209 7.447 2.034.202 3.865-.418 5.347-1.764 1.454-1.306 2.236-3.178 2.236-5.104V62.525l-.014-.027zM76.283 28.027H62.492c-19.004 0-34.478 15.472-34.478 34.471v13.788a6.88 6.88 0 002.276 5.104c1.481 1.346 3.313 1.966 5.346 1.764 3.489-.35 6.21-3.623 6.21-7.447V62.512c0-11.406 9.279-20.683 20.686-20.683h13.199c3.865 0 7.138-2.72 7.448-6.208a6.848 6.848 0 00-1.765-5.345A6.884 6.884 0 0076.31 28l-.027.027zM28.013 193.488c0 18.999 15.475 34.47 34.478 34.47H75.69c3.865 0 7.138-2.72 7.448-6.207a6.848 6.848 0 00-1.764-5.346 6.884 6.884 0 00-5.105-2.275H62.478c-11.407 0-20.687-9.278-20.687-20.683v-13.196c0-3.864-2.72-7.136-6.209-7.446-.242 0-.485-.041-.687-.041-1.723 0-3.34.62-4.619 1.791A6.881 6.881 0 0028 179.659v13.788l.013.041zM220.404 172.846c-3.488.35-6.209 3.623-6.209 7.447v13.196c0 11.405-9.279 20.682-20.686 20.682H180.31c-3.865 0-7.138 2.72-7.448 6.208-.175 1.992.445 3.891 1.764 5.345a6.883 6.883 0 005.105 2.276h13.791C212.525 228 228 212.528 228 193.529v-13.788a6.883 6.883 0 00-2.276-5.104c-1.482-1.346-3.313-1.925-5.347-1.764l.027-.027zM128 172.805c16.969 0 27.03-11.068 30.303-17.613 1.683-3.406.309-7.554-3.071-9.237-3.407-1.683-7.556-.309-9.239 3.097l-.067.108c-.553.996-5.724 9.857-17.926 9.857-12.822 0-17.926-9.924-17.994-9.991-1.171-2.343-3.515-3.798-6.168-3.798a6.831 6.831 0 00-3.071.727c-3.407 1.683-4.794 5.858-3.07 9.238 3.272 6.543 13.346 17.585 30.303 17.585v.027z" fill="currentColor"/></svg>