<svg viewBox="0 0 256 256" fill="none" xmlns="http://www.w3.org/2000/svg"><path d="M176.048 28H80.809A23.81 23.81 0 0057 51.81v152.38A23.81 23.81 0 0080.81 228h95.238c6.314 0 12.37-2.508 16.835-6.974a23.806 23.806 0 006.974-16.836V51.81A23.806 23.806 0 00176.048 28zm14.285 176.19a14.287 14.287 0 01-14.285 14.286H80.809a14.286 14.286 0 01-14.285-14.286V51.81a14.286 14.286 0 0114.285-14.286h95.239a14.286 14.286 0 0114.285 14.285V204.19zm-39.485-79.561a4.757 4.757 0 011.035 5.196 4.757 4.757 0 01-1.035 1.546l-38.096 38.096a4.768 4.768 0 01-6.742-6.743l38.095-38.095a4.755 4.755 0 015.196-1.036c.579.24 1.104.592 1.547 1.036zm0-38.096a4.768 4.768 0 011.035 5.197 4.766 4.766 0 01-1.035 1.546l-38.096 38.095a4.765 4.765 0 01-6.742 0 4.763 4.763 0 010-6.742l38.095-38.096a4.762 4.762 0 016.743 0z" fill="currentColor"/></svg>