<svg viewBox="0 0 256 256" fill="none" xmlns="http://www.w3.org/2000/svg"><path d="M216.119 122.774c-.677-3.985-1.357-8.236-1.556-12.58a86.549 86.549 0 00-25.273-56.818C172.929 37.012 151.161 28 128 28c-46.2 0-84.225 36.105-86.562 82.212-.114 2.446-.296 5.322-.791 8.141L28.046 194.12a3.32 3.32 0 00.745 2.702A3.33 3.33 0 0031.334 198h46.7c9.893 18.547 28.831 30 49.966 30 21.108 0 40.025-11.423 49.963-30h46.704a3.332 3.332 0 003.288-3.879l-11.836-71.347zM128 221.333c-19.277 0-36.507-10.778-44.931-28.048-.485-1.063-.97-2.124-1.42-3.218-2.421-5.897-3.648-12.2-3.648-18.734v-40c0-17.64 8.994-33.546 23.779-42.59 3.164 20.24 22.767 35.924 46.22 35.924 10.072 0 19.763-2.878 27.758-8.177 1.491 4.754 2.242 9.729 2.242 14.843v40c0 6.534-1.227 12.837-3.649 18.734a89.453 89.453 0 01-1.403 3.181c-8.471 17.325-25.686 28.085-44.948 28.085zm53.018-30c.275-.719.479-1.461.723-2.19.238-.71.495-1.413.704-2.131.293-1.012.522-2.041.757-3.069.155-.681.34-1.353.47-2.04.218-1.154.361-2.324.506-3.494.072-.581.182-1.152.236-1.737.163-1.763.253-3.543.253-5.339v-40c0-7.465-1.419-14.679-4.222-21.442a3.334 3.334 0 00-5.189-1.303C167.838 114.657 158.157 118 148 118c-21.842 0-39.788-15.553-40-34.671a3.33 3.33 0 00-1.582-2.798 3.33 3.33 0 00-3.209-.163c-19.662 9.556-31.875 29.084-31.875 50.965v40c0 1.795.09 3.574.253 5.337.055.59.165 1.166.238 1.752.145 1.166.287 2.332.504 3.48.13.69.315 1.364.472 2.047.234 1.025.462 2.052.755 3.061.209.72.467 1.425.705 2.137.244.728.447 1.468.722 2.186H35.266l11.953-71.855c.554-3.159.755-6.301.88-8.942 2.154-42.544 37.255-75.87 79.901-75.87 21.381 0 41.472 8.32 56.576 23.424a79.871 79.871 0 0123.327 52.431c.218 4.701.963 9.367 1.644 13.358l11.188 67.454h-39.717z" fill="currentColor"/><path d="M161.334 168H94.667a3.333 3.333 0 00-3.333 3.333 36.696 36.696 0 004.912 18.335c.004.008.012.014.017.022C102.809 200.985 114.965 208 128 208c9.789 0 18.995-3.815 25.925-10.742a36.848 36.848 0 005.822-7.579l.008-.011a36.704 36.704 0 004.912-18.335 3.333 3.333 0 00-3.333-3.333zm-3.519 6.667a30.025 30.025 0 01-.466 2.833c-.065.308-.152.611-.226.917a30.261 30.261 0 01-.512 1.878c-.106.34-.227.676-.346 1.012a29.514 29.514 0 01-1.103 2.713c-.102.219-.222.43-.33.647H101.17c-.109-.218-.23-.43-.332-.65a29.588 29.588 0 01-1.1-2.703c-.12-.34-.242-.678-.35-1.022a29.688 29.688 0 01-.509-1.871c-.074-.307-.162-.611-.227-.92a30.034 30.034 0 01-.466-2.834h59.629zM128 201.333c-1.222 0-2.432-.095-3.63-.243-.377-.046-.747-.121-1.122-.182a30.114 30.114 0 01-2.451-.495 30.19 30.19 0 01-3.543-1.129c-.362-.14-.729-.269-1.085-.422a30.648 30.648 0 01-2.85-1.409c-.111-.064-.231-.112-.342-.177a30.175 30.175 0 01-2.95-1.966c-.294-.22-.569-.464-.856-.695a29.848 29.848 0 01-1.881-1.641c-.31-.296-.61-.601-.908-.91-.224-.234-.427-.489-.645-.731h44.535c-.358.399-.682.831-1.061 1.21-5.67 5.669-13.203 8.79-21.211 8.79z" fill="currentColor"/></svg>