<svg viewBox="0 0 256 256" fill="none" xmlns="http://www.w3.org/2000/svg"><path d="M103.455 164.315a4.79 4.79 0 00-4.776 4.776 4.79 4.79 0 004.776 4.777 4.79 4.79 0 004.777-4.777 4.79 4.79 0 00-4.777-4.776zM152.315 164.315a4.79 4.79 0 00-4.776 4.776 4.79 4.79 0 004.776 4.777 4.79 4.79 0 004.777-4.777 4.79 4.79 0 00-4.777-4.776z" fill="currentColor"/><path d="M173.042 216.621v.244c0 .029 0 .078.029.097 0 .049.03.079.049.127v.03c.049.078.098.146.147.224 0 0 .029.049.049.049.078.078.146.147.224.196 0 0 .03 0 .049.029a.76.76 0 00.225.098h.078c.098 0 .195.048.303.048h.303a.602.602 0 00.175-.048 110.035 110.035 0 0020.503-12.376l.048-.049c.049-.029.079-.078.098-.097l.078-.079.078-.127.049-.078c0-.049.049-.097.049-.176v-.078c0-.078.029-.176.029-.254v-.097c-.879-10.276-2.197-24.234-3.448-32.332-2.002-12.903-10.949-14.202-12.102-14.3l-1.65-.322c.429-2.677 1.797-5.9 3.35-9.553 2.95-6.906 6.652-15.501 5.45-25.055-.703-5.656-2.07-7.775-3.653-10.256-2.754-4.298-6.505-10.198-9.777-41.309-1.68-15.882-7.199-27.633-16.449-34.957-11.955-9.455-26.353-8.351-29.509-7.98-3.154-.371-17.552-1.475-29.508 7.98-9.25 7.326-14.779 19.076-16.449 34.957-3.272 31.109-7.023 37.01-9.777 41.309-1.573 2.471-2.93 4.6-3.653 10.256-1.202 9.572 2.47 18.158 5.45 25.055 1.573 3.653 2.95 6.847 3.35 9.553l-1.65.322c-1.153.098-10.1 1.377-12.132 14.3-1.25 8.097-2.579 22.055-3.448 32.332V204.45c0 .078 0 .147.03.225 0 .049 0 .078.029.098 0 .048.029.097.048.127 0 .048.05.078.05.097 0 .029.048.078.077.098 0 .049.05.078.079.098 0 .029.048.048.078.078 0 0 .049.049.078.049a111.035 111.035 0 0020.502 12.375.402.402 0 00.176.049h.303s.195 0 .302-.049h.079c.078-.029.146-.049.224-.098 0 0 .03 0 .05-.029.077-.049.146-.127.224-.195l.049-.049c.049-.078.097-.147.146-.225v-.029c0-.049.03-.078.049-.127 0-.029 0-.078.03-.098v-8.273l2.93 10.598s0 .049.049.098v.078c.029.049.048.098.097.146v.03c.049.049.078.127.127.176 0 0 .03 0 .049.048.049.03.078.079.127.098 0 0 .049 0 .049.049.049.029.097.049.146.078h.05c13.205 5.323 27.182 8.029 41.53 8.029 14.348 0 28.326-2.696 41.531-8.029h.049c.049 0 .098-.049.127-.078 0 0 .049 0 .078-.049.049-.029.078-.078.127-.098 0 0 .03 0 .049-.048.049-.049.098-.098.127-.176v-.03c.029-.048.049-.097.098-.146v-.078c0-.029.029-.049.049-.098l2.901-10.598v8l.149.049zM136.687 68.415c6.329-4.327 9.856-8.625 11.252-10.579 8.577 6.78 9.299 25.806 8.948 36.786-.372 11.379-4.728 22.026-12.249 29.976a41.797 41.797 0 01-4.454 4.073c-.049 0-.078.049-.098.078a43.866 43.866 0 01-10.226 6.105 5.02 5.02 0 01-3.975 0c-22.056-9.426-26.451-31.832-26.511-32.057-1.377-7.355-3.301-19.281-3.204-23.052 19.858-.127 32.957-6.202 40.486-11.35l.031.02zM92.45 166.083c2.003-1.827 8.254-7.648 11.077-12.024 0 0 0-.03.029-.049.323-.498.625-.996.85-1.475 1.348-2.755 3.722-4.65 5.372-5.704l-.527 10.529c0 .147 0 .323.078.449l11.057 30.662 5.548 29.351c-15.628-17.699-26.608-34.655-33.454-51.758l-.03.019zm30.057 21.332l-10.852-30.154.596-11.926 2.627-2.305a1.24 1.24 0 00.401-.821l.654-10.256a45.6 45.6 0 009.026 5.099 7.372 7.372 0 002.93.596c.996 0 2.002-.195 2.93-.596a47.8 47.8 0 009.026-5.099l.654 10.256c0 .323.176.596.401.821l2.627 2.305.596 11.926-10.852 30.154a9.619 9.619 0 01-10.725 0h-.039zm7.325 30.436l5.549-29.351 11.057-30.661c.049-.147.078-.303.078-.449l-.528-10.53c1.651 1.055 4.054 2.95 5.372 5.704.225.479.499.948.85 1.475 0 0 0 .03.03.049 2.852 4.347 9.074 10.197 11.076 12.024-6.847 17.103-17.826 34.06-33.454 51.758l-.03-.019z" fill="currentColor"/></svg>